<svg xmlns="http://www.w3.org/2000/svg" viewBox="0 0 1920 1080"><defs><style>.cls-1,.cls-2{fill:#e5e7eb;}.cls-2{fill-rule:evenodd;}</style></defs><g id="Layer_1" data-name="Layer 1"><path class="cls-1" d="M311,622.38c-2.62,0-5.23-.07-7.81-.21-14-.76-25.82-3.55-36.18-8.53a51.43,51.43,0,0,1-18.6-14.37,39,39,0,0,1-8.51-21c-1.1-12.2,2.21-23.58,9.85-33.82a77.36,77.36,0,0,1,15.51-15.35c3.75-2.86,7.66-5.61,11.43-8.28l3.66-2.58q4-2.85,8-5.68c2.76-1.95,5.53-3.9,8.28-5.86.64-.46,1.26-1,1.91-1.56l.67-.58a4.34,4.34,0,0,1,4.68-.77,4.16,4.16,0,0,1,2.49,4.11v2c0,1.88,0,3.82,0,5.72.37,16.34,2.86,30.69,7.61,43.87A86.4,86.4,0,0,0,321,574.25,14.23,14.23,0,0,0,323,577a2.36,2.36,0,0,0,1.53.87,2.31,2.31,0,0,0,1.4-1,17,17,0,0,0,3.34-8.4,3.21,3.21,0,0,0-.73-2.39,121,121,0,0,1-14.42-27A100.65,100.65,0,0,1,308.29,515a133.24,133.24,0,0,1-.35-22.73A79.7,79.7,0,0,1,313.31,468a38.13,38.13,0,0,1,7.13-12.17,17,17,0,0,1,9.45-5.67,13.18,13.18,0,0,1,6.67.4,8.79,8.79,0,0,1,4,2.74,14.16,14.16,0,0,1,2.91,6.51A3.66,3.66,0,0,1,342,463.6a10.31,10.31,0,0,0-1.21,1.06l.42-.05h.12a31.13,31.13,0,0,1,12.84.87c.55.16,1,.31,1.39.47a11.36,11.36,0,0,1,6.72,6.16,12.6,12.6,0,0,1-.4,9.81A14.76,14.76,0,0,1,356,488.4a29.46,29.46,0,0,1-11.71,4.11,68.32,68.32,0,0,1-18.74.1l-.59-.06.18.08a41.82,41.82,0,0,0,10.65,2.75,46.38,46.38,0,0,0,11.67.34l1.73-.19,4.35-.48-.53,2.88c-.13.73-.27,1.42-.41,2.1-.28,1.4-.55,2.72-.68,4a16.62,16.62,0,0,0,3,11,40.45,40.45,0,0,0,6.91,7.94c2.56,2.33,5.2,4.66,7.76,6.91l3.55,3.14a89.22,89.22,0,0,1,13.66,14.56,43.58,43.58,0,0,1,7.32,15.35h0c2.49,10.51.59,20.59-5.65,30a49.29,49.29,0,0,1-13.74,13.5,79.29,79.29,0,0,1-21.21,10,133.67,133.67,0,0,1-24.17,5A155.58,155.58,0,0,1,311,622.38ZM302.1,507.86l-.63.55c-.71.61-1.43,1.24-2.24,1.81q-4.16,3-8.3,5.87l-8,5.68-3.68,2.59c-3.74,2.64-7.61,5.37-11.3,8.18A73.09,73.09,0,0,0,253.27,547c-7,9.35-10,19.72-9,30.82a34.64,34.64,0,0,0,7.58,18.7,47,47,0,0,0,17.08,13.15c9.83,4.73,21.12,7.38,34.53,8.11a146.48,146.48,0,0,0,25.36-.87,129.73,129.73,0,0,0,23.39-4.8,75.09,75.09,0,0,0,20.06-9.41,45.13,45.13,0,0,0,12.56-12.31c5.62-8.44,7.27-17.13,5-26.55h0a39.42,39.42,0,0,0-6.63-13.83,85,85,0,0,0-13-13.82l-3.54-3.13c-2.57-2.26-5.22-4.6-7.81-7a44.74,44.74,0,0,1-7.64-8.79,20.83,20.83,0,0,1-3.65-13.77c.12-1.21.34-2.36.57-3.56l-.21,0a50.65,50.65,0,0,1-12.75-.35,46.24,46.24,0,0,1-11.75-3.06,13.43,13.43,0,0,1-3.45-2.33,3.61,3.61,0,0,1-1-4.59c.5-.93,1.61-2,4-1.78l2,.22,1.07.13a64.5,64.5,0,0,0,17.56-.08,25.43,25.43,0,0,0,10-3.47,10.42,10.42,0,0,0,4.19-4.58,8.27,8.27,0,0,0,.37-6.39,7.11,7.11,0,0,0-4.29-3.77,11.13,11.13,0,0,0-1.06-.37,27.11,27.11,0,0,0-11.1-.7h-.1a13.43,13.43,0,0,1-2.73.11,3.49,3.49,0,0,1-3.07-4.88,6.15,6.15,0,0,1,1.29-2.06,15.55,15.55,0,0,1,2-1.83,9.65,9.65,0,0,0-1.9-4.22,4.42,4.42,0,0,0-2-1.39,8.69,8.69,0,0,0-4.48-.27,12.68,12.68,0,0,0-7.05,4.33,33.83,33.83,0,0,0-6.3,10.82,75,75,0,0,0-5.08,23,128.86,128.86,0,0,0,.33,22,95.92,95.92,0,0,0,5.59,23.05,117,117,0,0,0,13.91,26A7.47,7.47,0,0,1,333.6,569a21.3,21.3,0,0,1-4.23,10.51,6.21,6.21,0,0,1-4.56,2.69,6.29,6.29,0,0,1-4.89-2.14,18.47,18.47,0,0,1-2.73-3.64A90.92,90.92,0,0,1,310,560.91c-4.91-13.62-7.48-28.42-7.87-45.24-.05-1.95,0-3.93,0-5.84v-2ZM281.37,569a7.77,7.77,0,0,1-1.92-.24,5.11,5.11,0,0,1-3.95-4.36,24.07,24.07,0,0,1-.17-2.44c0-.19,0-.36,0-.51v-.13a44.69,44.69,0,0,1,4.49-18.86,75.33,75.33,0,0,1,12.92-19.16,8.72,8.72,0,0,1,2.15-1.67,2.76,2.76,0,0,1,2.64-.12,2.91,2.91,0,0,1,1.55,2.28,5.69,5.69,0,0,1-.16,2.29c-.47,1.58-.92,3-1.4,4.26-.56,1.5-1.14,3-1.72,4.47-1.09,2.8-2.21,5.69-3.15,8.55a79.16,79.16,0,0,0-3.48,17.78,15.84,15.84,0,0,1-.33,2,7.5,7.5,0,0,1-3.44,4.69A7.79,7.79,0,0,1,281.37,569Zm-1.71-7.7c0,.15,0,.32,0,.51,0,.59.05,1.32.14,2,0,.29.07.54.76.73a3.28,3.28,0,0,0,2.54-.4,3,3,0,0,0,1.45-1.93,10.54,10.54,0,0,0,.24-1.46A83.1,83.1,0,0,1,288.49,542c1-3,2.12-5.93,3.24-8.78.5-1.28,1-2.56,1.48-3.84a68.56,68.56,0,0,0-9.45,14.9A40.51,40.51,0,0,0,279.66,561.29Zm17.41-35.91h0Zm-2.34-1.08h0Zm63.49,40.89a7,7,0,0,1-1.77-.26,20.18,20.18,0,0,1-6.12-3,65.29,65.29,0,0,1-9.77-8.54,63.83,63.83,0,0,1-12.25-16.73A56.48,56.48,0,0,1,322.84,518a11.08,11.08,0,0,1,0-3,8,8,0,0,1,1.16-3.08,3.37,3.37,0,0,1,2.76-1.51,3.45,3.45,0,0,1,2.89,1.57,8.54,8.54,0,0,1,.85,1.72l.12.28a64.08,64.08,0,0,0,7.71,14.21,58.57,58.57,0,0,0,15.51,14.61c1.42.92,2.8,1.89,4.13,2.83l1.11.77c3.13,2.17,4.51,5.31,4.47,10.18v.13a15.51,15.51,0,0,1-1.33,5.56h0C361.27,564.24,360,565.19,358.22,565.19ZM327.12,517c0,.18,0,.36.05.56a52,52,0,0,0,5.06,17.24,59.58,59.58,0,0,0,11.45,15.6,61.54,61.54,0,0,0,9.1,8,15.85,15.85,0,0,0,4.78,2.38l.47.11a3.37,3.37,0,0,0,.22-.41h0a11.6,11.6,0,0,0,.92-4c0-3.88-1-5.4-2.6-6.49l-1.12-.79c-1.3-.91-2.65-1.86-4-2.73a63.16,63.16,0,0,1-16.66-15.7A66.9,66.9,0,0,1,327.12,517Z"/><path class="cls-2" d="M286.38,648.79a4.67,4.67,0,1,0,3.2,5.78A4.66,4.66,0,0,0,286.38,648.79Z"/><path class="cls-2" d="M328.58,661.11a2.16,2.16,0,0,0,2.51,1.72A3.32,3.32,0,0,0,333,662l-3.76-2.75A2.06,2.06,0,0,0,328.58,661.11Z"/><path class="cls-2" d="M330.49,655.14c1.45-.79,2-1.42,1.76-2.38a1.59,1.59,0,0,0-1.91-1c-1.08.13-1.59.76-1.5,1.47S329.44,654.42,330.49,655.14Z"/><path class="cls-2" d="M216.3,478c-2-1.16-3.83-.18-4.9,1.67l-2.22,3.87,5.92,3.4,2.22-3.87C218.38,481.19,218.35,479.15,216.3,478Z"/><polygon class="cls-2" points="248.63 454.4 240.01 449.81 243.32 458.99 248.63 454.4"/><path class="cls-2" d="M246.55,627.87a4.67,4.67,0,1,0,.81,6.56A4.69,4.69,0,0,0,246.55,627.87Z"/><polygon class="cls-2" points="393.34 447.39 384.96 452.38 390.48 456.71 393.34 447.39"/><path class="cls-2" d="M422.38,481.84c2-1.25,1.93-3.32.78-5.11L420.75,473,415,476.66l2.4,3.75C418.56,482.21,420.39,483.12,422.38,481.84Z"/><path class="cls-2" d="M396.69,621.46l-1.81,1.72,2.63,2.77,1.82-1.71a1.93,1.93,0,1,0-2.64-2.78Z"/><path class="cls-2" d="M436.61,510.31l-14.79,3.42,1,4.43c.71,3.05,4.87,5.89,8.93,5s6.57-5.31,5.86-8.36Z"/><path class="cls-2" d="M318.05,393.66A146.34,146.34,0,1,0,464.4,540,146.34,146.34,0,0,0,318.05,393.66Zm104.18,67.55L430,473.35c4.48,7,2.8,12.63-2.39,15.95-3.95,2.54-8.66,2.85-12.27.38l-4.8,12.37-5.73-8.95,4.74-10.87-.94-1.48-8.31,5.33-4.91-7.67Zm-19-19.54-9.32,33.2-7.27-5.71,1.67-5.44-9.69-7.61L373.76,459l-7.27-5.71,30.06-16.91Zm-45-25.09,2.59,11.29,8.91-7.4,10.07,3.4L362.27,438l-4.14,12.22-8.62-2.92L353.64,435l-5.42-21.86Zm-39-6.75.63,8.32-12.11.92.29,3.79,9.84-.75.57,7.57-9.83.74.28,3.79,12.11-.92.63,8.32-21.18,1.61-2.42-31.78Zm-56.68,12.56,13.34,15.23-.64-20.24,9.88-3.9-.31,34.38-8.47,3.34-23.69-24.91ZM236.28,439l30.83,15.45-7,6.06-5-2.68-9.32,8.07,1.94,5.35-7,6.06-10.9-32.72Zm-31,36.13c4.13-7.2,9.91-8.3,15.26-5.23,4.07,2.34,6.51,6.37,6,10.71l13.19-1.44-5.29,9.21-11.84.8-.87,1.52,8.55,4.92-4.54,7.89-27.63-15.88Zm-15.61,37.7a17.43,17.43,0,0,1,5.66-10.07l7,4.78a9.63,9.63,0,0,0-4.44,6.53c-.87,4.9,2.1,9.57,6.63,10.38s8.93-2.55,9.8-7.45a9.61,9.61,0,0,0-1.9-7.66l8.22-2.05a17.49,17.49,0,0,1,1.86,11.41C220.78,528.4,212,535,202.92,533.4S187.91,522.53,189.64,512.82Zm10.71,32.72A2.42,2.42,0,0,1,203,547.7a126.91,126.91,0,0,0,15.16,48.13,2.43,2.43,0,0,1-4.25,2.35,131.85,131.85,0,0,1-15.73-50A2.43,2.43,0,0,1,200.35,545.54Zm23.81,79.8,6.53-6.74-9,3.85-2.78-3.22,5.14-8.35-7.63,5.45-3.33-3.86,14.63-10.36L231,606l-5.28,10.14,10.82-3.71,3.33,3.87-12.41,12.93Zm13.76,13.58a9.36,9.36,0,1,1,13.45-1.35A9.56,9.56,0,0,1,237.92,638.92Zm26.6,16.25,3.48-8.71-6.89,7-3.78-1.92,1.58-9.68-5,7.94-4.54-2.31L259,632.34l4.55,2.31-1,11.39,8.6-7.54,4.55,2.31-6.57,16.67Zm30,.81a9.78,9.78,0,1,1-6.81-11.69A9.57,9.57,0,0,1,294.48,656Zm10.76-1.44c3.42.88,7.64,2.29,7.09,6.76-.43,3.43-3.09,5.91-8.78,5.21a12,12,0,0,1-7.26-3.57l2.37-3.81a10.38,10.38,0,0,0,5.46,2.74c1.39.23,3,.26,3.09-.72.09-.76-.81-1-3.08-1.69-4.73-1.36-6.54-3.59-6.17-6.64s3.11-5.45,8.36-4.8c0,0,4.29.53,6.43,2.93l-2.47,3.55s-1.48-1.47-5-1.91c-1.66-.2-2.15.11-2.21.59S303.4,654.08,305.24,654.54Zm5.82-27.32c-2.7,0-5.42-.08-8.1-.22-14.63-.79-27.06-3.73-38-9a56.63,56.63,0,0,1-20.31-15.72,43.84,43.84,0,0,1-9.53-23.6,52.15,52.15,0,0,1,1.66-18.91,83.73,83.73,0,0,1,77-103.31,33.08,33.08,0,0,1,3.07-3.91A21.61,21.61,0,0,1,329,445.38a19.16,19.16,0,0,1,3.52-.34,18,18,0,0,1,5.58.89,13.38,13.38,0,0,1,6.2,4.25,19,19,0,0,1,3.94,8.63q.07.38.12.75a31.18,31.18,0,0,1,7.19,1.28c.61.18,1.18.37,1.71.58a16,16,0,0,1,9.46,8.81,14.93,14.93,0,0,1,.74,2.26,83.73,83.73,0,0,1,31.39,89.29c2.81,11.87.68,23.22-6.33,33.75a54.08,54.08,0,0,1-15.05,14.81A83.48,83.48,0,0,1,355,620.92a138.37,138.37,0,0,1-25,5.16A158.47,158.47,0,0,1,311.06,627.22Zm26.61,38.22-1.44-1.05a9,9,0,0,1-5,2.28c-3.69.45-7.21-1.2-7.69-5a4.65,4.65,0,0,1,2.56-4.64,4.32,4.32,0,0,1-2.28-3.5c-.21-2.4,2.33-5,6.17-5.49s7,1.17,7.36,4.07-1.78,4-3.77,5.22l2.28,1.62,1.66-2,5.48-.67L339,661.15l5,3.51ZM372,655.15l-4.2-8.39.64,9.79-3.95,1.55-6.19-7.61,2.62,9-4.74,1.86-4.93-17.23,4.74-1.86,7.83,8.33.08-11.44,4.75-1.86,8.09,16Zm16.93-9.34a9.36,9.36,0,1,1,3.21-13.14A9.57,9.57,0,0,1,388.88,645.81Zm18.75-16-6.48-1.47-.71.68,3.8,4-3.7,3.51-12.28-12.94,5.86-5.56c3.37-3.2,6.64-2.87,9-.36a6.16,6.16,0,0,1,1.5,6.7l7.3,1.34Zm7.49-8.09-14.07-11,7.31-9.38,3.69,2.87-4.18,5.36,1.68,1.31,3.39-4.36,3.35,2.61-3.39,4.36,1.67,1.31,4.18-5.37,3.69,2.88Zm22.79-73.53a131.85,131.85,0,0,1-15.73,50,2.43,2.43,0,0,1-4.25-2.35,126.91,126.91,0,0,0,15.16-48.13,2.42,2.42,0,1,1,4.82.51ZM433.82,532c-8.59,2-16.89-2.33-19.29-12.73l-2.89-12.52,31.05-7.17,2.89,12.53C448.05,522.76,442.42,530,433.82,532Z"/><path class="cls-2" d="M381.34,634a4.67,4.67,0,1,0,6.45,1.43A4.69,4.69,0,0,0,381.34,634Z"/><path class="cls-2" d="M455,406.48h-3.24l-4.46,10.94-4.45-10.94h-3.24l-2.44,17h3.45l1.42-11.14,4.45,11.14h1.62l4.46-11.14L454,423.49h3.44Zm-31.6,0v3.24h4.46v13.77h3.24V409.72h4.46v-3.24Z"/><path class="cls-1" d="M607.87,566.37c8.85,0,15.5-4.63,19.52-8.86a7.71,7.71,0,0,1,5-2.61c1.61,0,3.22,1,4.83,3l16.1,23a4.75,4.75,0,0,1-.6,6.64C639.07,600.19,624.37,607,604.85,607c-40.47,0-73.48-35.23-73.48-75.7s33-75.69,73.48-75.69c19.52,0,34,5.43,47.91,17.92a5,5,0,0,1,.6,6.84L636.45,503a5.3,5.3,0,0,1-4.43,2.62,7,7,0,0,1-4.42-1.82c-4.23-3.42-11.08-7.65-19.73-7.65-14.3,0-29,14.7-29,35.23S593.57,566.37,607.87,566.37Z"/><path class="cls-1" d="M671.08,466.12a4.87,4.87,0,0,1,5.23-5.24h58c59.18,0,66.23,72.88,21.14,90.19l29,42.48c3.42,5,1.61,8.25-4.23,8.25H742.54a5.27,5.27,0,0,1-4.63-2.82l-20.33-40.86v38.45a4.86,4.86,0,0,1-5.23,5.23h-36a4.86,4.86,0,0,1-5.23-5.23Zm46.5,55.76h6c18.92-.2,19.53-27.38,0-27.18h-6Z"/><path class="cls-1" d="M796.89,594.76l50.33-130.45a5,5,0,0,1,4.83-3.43h25.77a5,5,0,0,1,4.83,3.43L933,594.76c1.81,4.22-.2,7-4.83,7h-35a5.19,5.19,0,0,1-5-3.82l-5.24-17.72H847L841.79,598a5.2,5.2,0,0,1-5,3.82h-35C797.09,601.8,795.08,599,796.89,594.76ZM872,542.21l-7-24.15-7.05,24.15Z"/><path class="cls-1" d="M924.93,460.88h35.43a5.38,5.38,0,0,1,5,3.63L987.94,539l22.35-74.48a5.37,5.37,0,0,1,5-3.63h35.43c4.43,0,6.44,2.82,4.83,7.05l-47.51,130.45a5.22,5.22,0,0,1-4.83,3.42h-30.8a5.21,5.21,0,0,1-4.83-3.42L920.1,467.93C918.49,463.7,920.5,460.88,924.93,460.88Z"/><path class="cls-1" d="M1070.27,596.57V466.12a4.87,4.87,0,0,1,5.24-5.24h83.34a4.87,4.87,0,0,1,5.24,5.24V493.7a4.87,4.87,0,0,1-5.24,5.23h-42.07v13.89H1152a4.87,4.87,0,0,1,5.23,5.24v27.58a4.86,4.86,0,0,1-5.23,5.23h-35.23v14.29l41.87-2c3.22,0,5.44,2,5.44,5.23v28.19a4.87,4.87,0,0,1-5.24,5.23h-83.34A4.87,4.87,0,0,1,1070.27,596.57Z"/><path class="cls-1" d="M1235,460.88h36.63a5.25,5.25,0,0,1,4.84,3.22l17.51,43.09,17.31-43.09a5.64,5.64,0,0,1,5-3.22h36.43c5,0,6.85,3,4.63,7.65l-40.26,80.53v47.51a4.86,4.86,0,0,1-5.23,5.23h-36a4.86,4.86,0,0,1-5.23-5.23V549.06l-40.26-80.53C1228.1,463.9,1229.91,460.88,1235,460.88Z"/><path class="cls-1" d="M1345.67,594.76,1396,464.31a5,5,0,0,1,4.83-3.43h25.77a5,5,0,0,1,4.83,3.43l50.32,130.45c1.82,4.22-.2,7-4.83,7h-35a5.2,5.2,0,0,1-5-3.82l-5.23-17.72h-35.84L1390.56,598a5.19,5.19,0,0,1-5,3.82h-35C1345.87,601.8,1343.86,599,1345.67,594.76Zm75.09-52.55-7-24.15-7,24.15Z"/><path class="cls-1" d="M1496.65,466.12a4.87,4.87,0,0,1,5.24-5.24h58c59.19,0,66.23,72.88,21.14,90.19l29,42.48c3.42,5,1.61,8.25-4.23,8.25h-37.64a5.25,5.25,0,0,1-4.63-2.82l-20.34-40.86v38.45a4.86,4.86,0,0,1-5.23,5.23h-36a4.86,4.86,0,0,1-5.24-5.23Zm46.5,55.76h6c18.93-.2,19.53-27.38,0-27.18h-6Z"/><path class="cls-1" d="M1680.65,601.8h-47.71a4.86,4.86,0,0,1-5.24-5.23V466.12a4.87,4.87,0,0,1,5.24-5.24h47.71c39.86.41,67.64,30.4,67.64,70.46S1720.51,601.4,1680.65,601.8ZM1674.2,568c35.44-1.81,35.44-71.46,0-73.28Z"/></g></svg>