<svg xmlns="http://www.w3.org/2000/svg" viewBox="0 0 1920 457.71"><defs><style>.cls-1,.cls-2{fill:#e5e7eb;}.cls-2{fill-rule:evenodd;}</style></defs><g id="Layer_1" data-name="Layer 1"><path class="cls-1" d="M311,311.24c-2.62,0-5.23-.07-7.81-.21-14-.76-25.82-3.55-36.18-8.53a51.43,51.43,0,0,1-18.6-14.37,39,39,0,0,1-8.51-21c-1.1-12.2,2.21-23.58,9.85-33.82a77.66,77.66,0,0,1,15.51-15.36c3.75-2.85,7.66-5.61,11.43-8.27q1.84-1.29,3.66-2.59l8-5.68c2.76-1.95,5.53-3.9,8.28-5.86.64-.45,1.26-1,1.91-1.55l.67-.59a4.36,4.36,0,0,1,4.68-.76,4.16,4.16,0,0,1,2.49,4.11v2c0,1.88,0,3.82,0,5.71.37,16.35,2.86,30.7,7.61,43.87A86,86,0,0,0,321,263.1a14.32,14.32,0,0,0,2.06,2.79,2.3,2.3,0,0,0,1.53.86,2.24,2.24,0,0,0,1.4-1,17,17,0,0,0,3.34-8.4,3.2,3.2,0,0,0-.73-2.39,121.06,121.06,0,0,1-14.42-27,100.58,100.58,0,0,1-5.84-24.08,133.33,133.33,0,0,1-.35-22.74,79.77,79.77,0,0,1,5.37-24.31,38.18,38.18,0,0,1,7.13-12.16,17,17,0,0,1,9.45-5.68,13.3,13.3,0,0,1,6.67.41,8.71,8.71,0,0,1,4,2.74,14.16,14.16,0,0,1,2.91,6.51,3.66,3.66,0,0,1-1.52,3.82,9.46,9.46,0,0,0-1.21,1.06l.42-.05h.12a31.31,31.31,0,0,1,12.84.86c.55.17,1,.32,1.39.48a11.38,11.38,0,0,1,6.72,6.15,12.63,12.63,0,0,1-.4,9.82,14.76,14.76,0,0,1-5.82,6.49,29.62,29.62,0,0,1-11.71,4.11,68.71,68.71,0,0,1-18.74.1l-.59-.07.18.08a41.39,41.39,0,0,0,10.65,2.76,46.38,46.38,0,0,0,11.67.34l1.73-.19,4.35-.48-.53,2.88c-.13.72-.27,1.42-.41,2.1-.28,1.39-.55,2.71-.68,4a16.64,16.64,0,0,0,3,11,40.74,40.74,0,0,0,6.91,7.94c2.56,2.33,5.2,4.66,7.76,6.91l3.55,3.14a89.54,89.54,0,0,1,13.66,14.55,43.75,43.75,0,0,1,7.32,15.35h0c2.49,10.52.59,20.6-5.65,30a49.43,49.43,0,0,1-13.74,13.5,79.28,79.28,0,0,1-21.21,10,132.82,132.82,0,0,1-24.17,5A153.49,153.49,0,0,1,311,311.24ZM302.1,196.72l-.63.54c-.71.61-1.43,1.24-2.24,1.82q-4.16,3-8.3,5.87l-8,5.67-3.68,2.6c-3.74,2.64-7.61,5.37-11.3,8.18a73.09,73.09,0,0,0-14.66,14.5c-7,9.35-10,19.72-9,30.82a34.64,34.64,0,0,0,7.58,18.7,47,47,0,0,0,17.08,13.15c9.83,4.73,21.12,7.38,34.53,8.11a147.48,147.48,0,0,0,25.36-.87,129.73,129.73,0,0,0,23.39-4.8,75.09,75.09,0,0,0,20.06-9.41,45.13,45.13,0,0,0,12.56-12.31c5.62-8.45,7.27-17.13,5-26.55h0a39.42,39.42,0,0,0-6.63-13.83,84.61,84.61,0,0,0-13-13.82L366.7,222c-2.57-2.27-5.22-4.61-7.81-7a45,45,0,0,1-7.64-8.79,20.84,20.84,0,0,1-3.65-13.77c.12-1.21.34-2.37.57-3.56l-.21,0a49.73,49.73,0,0,1-12.75-.35,45.84,45.84,0,0,1-11.75-3.05,13.43,13.43,0,0,1-3.45-2.33,3.61,3.61,0,0,1-1-4.59c.5-.94,1.61-2,4-1.79l2,.23,1.07.12a64.53,64.53,0,0,0,17.56-.07,25.43,25.43,0,0,0,10-3.47,10.47,10.47,0,0,0,4.19-4.58,8.27,8.27,0,0,0,.37-6.39,7.1,7.1,0,0,0-4.29-3.78c-.36-.14-.7-.25-1.06-.36a27.27,27.27,0,0,0-11.1-.71l-.1,0a13.43,13.43,0,0,1-2.73.11,3.49,3.49,0,0,1-3.07-4.89,6.35,6.35,0,0,1,1.29-2.06,16.19,16.19,0,0,1,2-1.82,9.65,9.65,0,0,0-1.9-4.22,4.37,4.37,0,0,0-2-1.4,8.8,8.8,0,0,0-4.48-.26,12.66,12.66,0,0,0-7.05,4.32,33.88,33.88,0,0,0-6.3,10.83,75,75,0,0,0-5.08,23,128.86,128.86,0,0,0,.33,22,95.84,95.84,0,0,0,5.59,23,117.27,117.27,0,0,0,13.91,26,7.44,7.44,0,0,1,1.48,5.44,21.27,21.27,0,0,1-4.23,10.51,5.83,5.83,0,0,1-9.45.56,18.86,18.86,0,0,1-2.73-3.65A90.82,90.82,0,0,1,310,249.77c-4.91-13.63-7.48-28.42-7.87-45.24-.05-2,0-3.93,0-5.84v-2Zm-20.73,61.13a7.33,7.33,0,0,1-1.92-.25,5.09,5.09,0,0,1-3.95-4.35,24.25,24.25,0,0,1-.17-2.45c0-.19,0-.36,0-.5v-.14a44.68,44.68,0,0,1,4.49-18.85,75.16,75.16,0,0,1,12.92-19.16,8.73,8.73,0,0,1,2.15-1.68,2.76,2.76,0,0,1,2.64-.11,2.9,2.9,0,0,1,1.55,2.28,5.71,5.71,0,0,1-.16,2.29c-.47,1.58-.92,3-1.4,4.26-.56,1.5-1.14,3-1.72,4.47-1.09,2.79-2.21,5.68-3.15,8.55A79,79,0,0,0,289.15,250a16.12,16.12,0,0,1-.33,2,7.5,7.5,0,0,1-3.44,4.69A7.79,7.79,0,0,1,281.37,257.85Zm-1.71-7.7c0,.15,0,.32,0,.51,0,.59.05,1.32.14,2,0,.3.07.55.76.73a3.27,3.27,0,0,0,2.54-.39,3,3,0,0,0,1.45-1.94,10.41,10.41,0,0,0,.24-1.45,83.1,83.1,0,0,1,3.68-18.75c1-3,2.12-5.93,3.24-8.78.5-1.28,1-2.56,1.48-3.84a68.56,68.56,0,0,0-9.45,14.9A40.48,40.48,0,0,0,279.66,250.15Zm17.41-35.92,0,0Zm-2.34-1.08v0Zm63.49,40.9a7,7,0,0,1-1.77-.26,20.18,20.18,0,0,1-6.12-3,65.86,65.86,0,0,1-9.77-8.54,63.83,63.83,0,0,1-12.25-16.73,56.61,56.61,0,0,1-5.47-18.69,11.16,11.16,0,0,1,0-3,7.92,7.92,0,0,1,1.16-3.07,3.34,3.34,0,0,1,2.76-1.51,3.47,3.47,0,0,1,2.89,1.56,8.6,8.6,0,0,1,.85,1.73l.12.28A64.31,64.31,0,0,0,338.31,217a58.74,58.74,0,0,0,15.51,14.61c1.42.92,2.8,1.89,4.13,2.82l1.11.78c3.13,2.16,4.51,5.3,4.47,10.17v.13a15.51,15.51,0,0,1-1.33,5.57h0C361.27,253.1,360,254.05,358.22,254.05Zm-31.1-48.24c0,.18,0,.37.05.57a52.08,52.08,0,0,0,5.06,17.24,59.54,59.54,0,0,0,11.45,15.59,61.58,61.58,0,0,0,9.1,8,15.85,15.85,0,0,0,4.78,2.38.39.39,0,0,0,.69-.3h0a11.54,11.54,0,0,0,.92-4c0-3.88-1-5.41-2.6-6.5l-1.12-.78c-1.3-.91-2.65-1.86-4-2.74a63,63,0,0,1-16.66-15.69A67,67,0,0,1,327.12,205.81Z"/><path class="cls-2" d="M286.38,337.64a4.68,4.68,0,1,0,3.2,5.79A4.68,4.68,0,0,0,286.38,337.64Z"/><path class="cls-2" d="M328.58,350a2.16,2.16,0,0,0,2.51,1.73,3.26,3.26,0,0,0,1.88-.83l-3.76-2.74A2,2,0,0,0,328.58,350Z"/><path class="cls-2" d="M330.49,344c1.45-.79,2-1.43,1.76-2.38a1.59,1.59,0,0,0-1.91-1c-1.08.13-1.59.76-1.5,1.47S329.44,343.28,330.49,344Z"/><path class="cls-2" d="M216.3,166.83c-2-1.16-3.83-.18-4.9,1.67l-2.22,3.86,5.92,3.41,2.22-3.87C218.38,170.05,218.35,168,216.3,166.83Z"/><polygon class="cls-2" points="248.63 143.25 240.01 138.67 243.32 147.85 248.63 143.25"/><path class="cls-2" d="M246.55,316.73a4.67,4.67,0,1,0,.81,6.56A4.69,4.69,0,0,0,246.55,316.73Z"/><polygon class="cls-2" points="393.34 136.24 384.96 141.23 390.48 145.57 393.34 136.24"/><path class="cls-2" d="M422.38,170.7c2-1.26,1.93-3.32.78-5.12l-2.41-3.75L415,165.51l2.4,3.76C418.56,171.07,420.39,172,422.38,170.7Z"/><path class="cls-2" d="M396.69,310.32,394.88,312l2.63,2.77,1.82-1.72a1.93,1.93,0,1,0-2.64-2.77Z"/><path class="cls-2" d="M436.61,199.17l-14.79,3.41,1,4.44c.71,3,4.87,5.89,8.93,4.95s6.57-5.31,5.86-8.36Z"/><path class="cls-2" d="M318.05,82.52A146.34,146.34,0,1,0,464.4,228.85,146.33,146.33,0,0,0,318.05,82.52Zm104.18,67.55L430,162.21c4.48,7,2.8,12.62-2.39,15.95-3.95,2.53-8.66,2.84-12.27.37l-4.8,12.37L404.82,182l4.74-10.87-.94-1.48-8.31,5.32-4.91-7.66Zm-19-19.54-9.32,33.2L386.67,158l1.67-5.44L378.65,145l-4.89,2.92-7.27-5.72,30.06-16.91Zm-45-25.1,2.59,11.29,8.91-7.39,10.07,3.4-17.58,14.08L358.13,139l-8.62-2.92,4.13-12.22L348.22,102Zm-39-6.74.63,8.32-12.11.92.29,3.78,9.84-.74.57,7.56-9.83.75.28,3.78,12.11-.92.63,8.33-21.18,1.61-2.42-31.78Zm-56.68,12.56,13.34,15.23-.64-20.24,9.88-3.9-.31,34.38-8.47,3.34-23.69-24.92Zm-26.28,16.6,30.83,15.45-7,6.06-5-2.68-9.32,8.07,1.94,5.35-7,6.06-10.9-32.73Zm-31,36.13c4.13-7.2,9.91-8.31,15.26-5.23,4.07,2.34,6.51,6.37,6,10.71L239.68,168l-5.29,9.21-11.84.8-.87,1.52,8.55,4.92-4.54,7.89-27.63-15.89Zm-15.61,37.7a17.43,17.43,0,0,1,5.66-10.07l7,4.77a9.63,9.63,0,0,0-4.44,6.53c-.87,4.9,2.1,9.58,6.63,10.39s8.93-2.55,9.8-7.45a9.65,9.65,0,0,0-1.9-7.67l8.22-2a17.49,17.49,0,0,1,1.86,11.41c-1.73,9.71-10.53,16.33-19.59,14.71S187.91,211.39,189.64,201.68Zm10.71,32.72a2.42,2.42,0,0,1,2.67,2.15,127,127,0,0,0,15.16,48.14,2.43,2.43,0,1,1-4.25,2.34,131.85,131.85,0,0,1-15.73-50A2.42,2.42,0,0,1,200.35,234.4Zm23.81,79.8,6.53-6.74-9,3.84-2.78-3.22,5.14-8.35-7.63,5.46-3.33-3.86L227.7,291l3.33,3.86L225.75,305l10.82-3.71,3.33,3.86-12.41,12.93Zm13.76,13.58a9.36,9.36,0,1,1,13.45-1.35A9.56,9.56,0,0,1,237.92,327.78ZM264.52,344l3.48-8.72-6.89,7-3.78-1.93,1.58-9.68-5,7.95-4.54-2.31L259,321.19l4.55,2.31-1,11.4,8.6-7.55,4.55,2.31-6.57,16.68Zm30,.8a9.78,9.78,0,1,1-6.81-11.68A9.58,9.58,0,0,1,294.48,344.83Zm10.76-1.43c3.42.88,7.64,2.28,7.09,6.76-.43,3.43-3.09,5.91-8.78,5.2a12,12,0,0,1-7.26-3.57l2.37-3.8a10.38,10.38,0,0,0,5.46,2.74c1.39.22,3,.26,3.09-.72.09-.76-.81-1-3.08-1.69-4.73-1.36-6.54-3.59-6.17-6.65s3.11-5.45,8.36-4.8c0,0,4.29.53,6.43,2.94l-2.47,3.54s-1.48-1.46-5-1.9c-1.66-.2-2.15.11-2.21.58S303.4,342.93,305.24,343.4Zm5.82-27.32c-2.7,0-5.42-.08-8.1-.22-14.63-.79-27.06-3.73-38-9a56.5,56.5,0,0,1-20.31-15.71,43.84,43.84,0,0,1-9.53-23.6,52.13,52.13,0,0,1,1.66-18.91,83.74,83.74,0,0,1,77-103.32,34.8,34.8,0,0,1,3.07-3.91A21.65,21.65,0,0,1,329,134.24a19.16,19.16,0,0,1,3.52-.34,18,18,0,0,1,5.58.89,13.44,13.44,0,0,1,6.2,4.24,19,19,0,0,1,3.94,8.64q.07.38.12.75a31.72,31.72,0,0,1,7.19,1.27c.61.19,1.18.38,1.71.59a16,16,0,0,1,9.46,8.81,14.93,14.93,0,0,1,.74,2.26,83.73,83.73,0,0,1,31.39,89.29c2.81,11.86.68,23.22-6.33,33.75a54.08,54.08,0,0,1-15.05,14.81A84.09,84.09,0,0,1,355,309.78a138.37,138.37,0,0,1-25,5.16A160.6,160.6,0,0,1,311.06,316.08Zm26.61,38.22-1.44-1.06a9,9,0,0,1-5,2.29c-3.69.45-7.21-1.2-7.69-5a4.67,4.67,0,0,1,2.56-4.65,4.29,4.29,0,0,1-2.28-3.49c-.21-2.41,2.33-5,6.17-5.5s7,1.17,7.36,4.07-1.78,4-3.77,5.23l2.28,1.62,1.66-2,5.48-.68L339,350l5,3.51ZM372,344l-4.2-8.39.64,9.79L364.44,347l-6.19-7.62,2.62,9-4.74,1.87L351.2,333l4.74-1.87,7.83,8.34.08-11.44,4.75-1.86,8.09,16Zm16.93-9.34a9.36,9.36,0,1,1,3.21-13.14A9.57,9.57,0,0,1,388.88,334.67Zm18.75-16-6.48-1.46-.71.67,3.8,4-3.7,3.51-12.28-13,5.86-5.55c3.37-3.2,6.64-2.87,9-.37a6.17,6.17,0,0,1,1.5,6.71l7.3,1.34Zm7.49-8.08-14.07-11,7.31-9.39,3.69,2.88-4.18,5.36,1.68,1.3,3.39-4.35,3.35,2.61-3.39,4.36,1.67,1.3,4.18-5.36,3.69,2.88Zm22.79-73.53a131.85,131.85,0,0,1-15.73,50,2.43,2.43,0,1,1-4.25-2.34,127,127,0,0,0,15.16-48.14,2.42,2.42,0,0,1,4.82.52Zm-4.09-16.23c-8.59,2-16.89-2.33-19.29-12.73l-2.89-12.52,31.05-7.17L445.58,201C448.05,211.62,442.42,218.86,433.82,220.84Z"/><path class="cls-2" d="M381.34,322.85a4.67,4.67,0,1,0,6.45,1.42A4.68,4.68,0,0,0,381.34,322.85Z"/><path class="cls-2" d="M455,95.34h-3.24l-4.46,10.93-4.45-10.93h-3.24l-2.44,17h3.45l1.42-11.14,4.45,11.14h1.62l4.46-11.14L454,112.35h3.44Zm-31.6,0v3.24h4.46v13.77h3.24V98.58h4.46V95.34Z"/><path class="cls-1" d="M607.87,255.23c8.85,0,15.5-4.63,19.52-8.86a7.73,7.73,0,0,1,5-2.62q2.42,0,4.83,3l16.1,23a4.76,4.76,0,0,1-.6,6.65c-13.69,12.68-28.39,19.52-47.91,19.52-40.47,0-73.48-35.23-73.48-75.69s33-75.69,73.48-75.69c19.52,0,34,5.43,47.91,17.91a5,5,0,0,1,.6,6.85l-16.91,22.55a5.29,5.29,0,0,1-4.43,2.61,7,7,0,0,1-4.42-1.81c-4.23-3.42-11.08-7.65-19.73-7.65-14.3,0-29,14.7-29,35.23S593.57,255.23,607.87,255.23Z"/><path class="cls-1" d="M671.08,155a4.86,4.86,0,0,1,5.23-5.23h58c59.18,0,66.23,72.88,21.14,90.19l29,42.48c3.42,5,1.61,8.25-4.23,8.25H742.54a5.27,5.27,0,0,1-4.63-2.82L717.58,247v38.46a4.86,4.86,0,0,1-5.23,5.23h-36a4.86,4.86,0,0,1-5.23-5.23Zm46.5,55.77h6c18.92-.2,19.53-27.38,0-27.18h-6Z"/><path class="cls-1" d="M796.89,283.61l50.33-130.45a5,5,0,0,1,4.83-3.42h25.77a5,5,0,0,1,4.83,3.42L933,283.61c1.81,4.23-.2,7.05-4.83,7.05h-35a5.19,5.19,0,0,1-5-3.83l-5.24-17.71H847l-5.23,17.71a5.2,5.2,0,0,1-5,3.83h-35C797.09,290.66,795.08,287.84,796.89,283.61ZM872,231.07l-7-24.16-7.05,24.16Z"/><path class="cls-1" d="M924.93,149.74h35.43a5.38,5.38,0,0,1,5,3.62l22.55,74.49,22.35-74.49a5.37,5.37,0,0,1,5-3.62h35.43c4.43,0,6.44,2.82,4.83,7l-47.51,130.45a5.22,5.22,0,0,1-4.83,3.42h-30.8a5.21,5.21,0,0,1-4.83-3.42L920.1,156.79C918.49,152.56,920.5,149.74,924.93,149.74Z"/><path class="cls-1" d="M1070.27,285.43V155a4.87,4.87,0,0,1,5.24-5.23h83.34a4.87,4.87,0,0,1,5.24,5.23v27.58a4.87,4.87,0,0,1-5.24,5.24h-42.07v13.89H1152a4.86,4.86,0,0,1,5.23,5.23v27.58a4.87,4.87,0,0,1-5.23,5.24h-35.23V254l41.87-2c3.22,0,5.44,2,5.44,5.23v28.19a4.87,4.87,0,0,1-5.24,5.23h-83.34A4.87,4.87,0,0,1,1070.27,285.43Z"/><path class="cls-1" d="M1235,149.74h36.63a5.25,5.25,0,0,1,4.84,3.22L1293.93,196,1311.24,153a5.64,5.64,0,0,1,5-3.22h36.43c5,0,6.85,3,4.63,7.65l-40.26,80.53v47.51a4.86,4.86,0,0,1-5.23,5.23h-36a4.86,4.86,0,0,1-5.23-5.23V237.92l-40.26-80.53C1228.1,152.76,1229.91,149.74,1235,149.74Z"/><path class="cls-1" d="M1345.67,283.61,1396,153.16a5,5,0,0,1,4.83-3.42h25.77a5,5,0,0,1,4.83,3.42l50.32,130.45c1.82,4.23-.2,7.05-4.83,7.05h-35a5.2,5.2,0,0,1-5-3.83l-5.23-17.71h-35.84l-5.23,17.71a5.19,5.19,0,0,1-5,3.83h-35C1345.87,290.66,1343.86,287.84,1345.67,283.61Zm75.09-52.54-7-24.16-7,24.16Z"/><path class="cls-1" d="M1496.65,155a4.86,4.86,0,0,1,5.24-5.23h58c59.19,0,66.23,72.88,21.14,90.19l29,42.48c3.42,5,1.61,8.25-4.23,8.25h-37.64a5.25,5.25,0,0,1-4.63-2.82L1543.15,247v38.46a4.86,4.86,0,0,1-5.23,5.23h-36a4.86,4.86,0,0,1-5.24-5.23Zm46.5,55.77h6c18.93-.2,19.53-27.38,0-27.18h-6Z"/><path class="cls-1" d="M1680.65,290.66h-47.71a4.86,4.86,0,0,1-5.24-5.23V155a4.86,4.86,0,0,1,5.24-5.23h47.71c39.86.4,67.64,30.4,67.64,70.46S1720.51,290.26,1680.65,290.66Zm-6.45-33.82c35.44-1.81,35.44-71.47,0-73.28Z"/></g></svg>