<svg id="Layer_1" data-name="Layer 1" xmlns="http://www.w3.org/2000/svg" viewBox="0 0 1920 1080"><defs><style>.cls-1{fill:#081528;}</style></defs><path class="cls-1" d="M475.12,667.45c-3.5.94-5.79,2-8.1,2.08-14.39.19-28.79,0-43.19.22-7.87.14-12.68-2.79-15.51-10.54C403.41,645.75,397.56,632.64,392,619c-4.82-.66-9.07-1.75-13.33-1.76q-72.3-.18-144.6,0c-4.27,0-8.54,1-13.64,1.61L200,668.13c-20.17,2.08-40,1.11-60,.63-2.94-7.75,1.54-13,3.68-18.38q44.72-112.49,89.77-224.84,32.42-81,65-162c1.85-4.61,3.85-9.16,6-14.26,7.17,2.24,7.05,8.87,8.9,13.42q41.91,103.5,83.26,207.23,35.27,88,70.52,176C469.77,652.71,472.2,659.63,475.12,667.45Zm-226.93-111c1.46.48,3.14,1.52,4.82,1.53q53.52.12,107-.08c2,0,4.08-1.88,7.13-3.38-19.73-48.34-39.08-95.78-58.53-143.19-.39-.95-1.93-1.42-4.28-3.05-9.47,21.84-17.39,44-26.44,65.66-10.83,25.94-20.58,52.34-30.68,78.59C246.89,553.5,247.78,554.9,248.19,556.5Z"/><path class="cls-1" d="M481.69,428.76c14.3-3,33.46-3.34,53.46-.74.48,4.46,1.41,9.23,1.44,14,.16,31.3-.07,62.62.27,93.92a203.38,203.38,0,0,0,2.58,27.95c2.92,19.5,23.33,43.1,50.43,47.25,26.69,4.1,48-6,63.24-27.93,8.54-12.24,10.12-26.78,10.2-41.33.17-30.68.07-61.37.07-92.06V429.25c10-4.74,19.45-2.63,28.56-2.88,8.63-.24,17.38-.84,26.73,1.33.57,4.82,1.49,9,1.48,13.23,0,91.43,1.39,182.91-.87,274.29C717.93,770,691,811.74,640.14,835.56c-13.53,6.33-28.07,10.28-43.86,8.32-3.61-9.61-1.76-19-1.89-28.18-.13-8.7,0-17.41,0-26.59,4.86-1.55,9.54-3.31,14.36-4.53,22.45-5.66,36.76-20.26,45.76-41,5.59-12.85,7.63-26.52,8.49-40.23s.24-27.54.1-41.31c0-1.67-1.07-3.34-1.53-4.71-5.95-2.86-10,1.22-14.41,3-28.46,11.27-57.33,12.28-86.32,2.87-36.77-11.93-78.62-49.38-80.3-105.49-1.23-41.3-.33-82.65-.28-124C480.23,432,481.22,430.29,481.69,428.76Z"/><path class="cls-1" d="M1743.61,668.58c-19,2.08-36.39,1.26-54.73.63-1.3-4.21-2.52-8.19-3.73-12.14-1.1-.37-2.38-1.3-3.27-1-4.15,1.34-8.18,3-12.27,4.55-60.2,22.24-118.63,2.3-151.33-48.68-27.45-42.81-24.55-103.24,10.21-141.56,17.74-19.56,37.59-35.27,63.69-40.88,40.14-8.63,76.94-2,109.16,25.28,28.66,24.24,42.7,55.35,43.6,92.16.92,37.57.2,75.18.11,112.78C1745.05,662.1,1744.3,664.51,1743.61,668.58Zm-122.14-57.2c29.08.58,63.67-20.88,64.64-62.28.92-39.55-30.55-65.42-63.59-65.12-40,.36-63.31,31.89-63.67,63.13C1558.45,581.88,1586.92,611,1621.47,611.38Z"/><path class="cls-1" d="M754.34,457.41l236.91-3.23c.77,4.5,2,8.59,2.06,12.7.23,16.91-.11,33.83.16,50.73.83,52.88-40.07,98.13-83.25,111.09-50.28,15.09-102.33-1.48-134.06-43.37-13.6-18-21.48-38.17-22.4-60.72-.81-20-.86-40.06-1.13-60.1C752.61,462.77,753.45,461,754.34,457.41ZM869.17,614.17c5.89,1.27,8.14,2.14,10.4,2.17a76.4,76.4,0,0,0,34.36-7.74c37-17.72,56.72-47.42,60.72-87.89.28-2.81-.56-6.44-4.3-5-3.61,12.58-6.3,24.78-10.66,36.36-4.42,11.74-12,21.79-20.94,30.73s-19.14,16.25-31,20.42C896.27,607.27,884.35,610,869.17,614.17Z"/><path class="cls-1" d="M1356.19,329.09c14.87-4.86,29.68.48,44.55-4.31,1.82-25.71-.23-51.21,1.19-76.06,15-3.76,35.71-4,53.67-.94,3.27,8.11,1.26,16.93,1.63,25.49.34,8.12,0,16.27.08,24.4.06,8.66.21,17.32.33,26.69,14.6,5.3,29.38.18,43.86,4.1,2.72,17.55,1.75,34.64.55,53l-41.73,1.15c-4.81,6.78-2.9,13.9-2.92,20.52-.17,59.44-.1,118.89-.1,178.34,0,23.15,0,46.3,0,69.46,0,5.51-.48,11-.73,16.25-15.44,3.45-36.64,3.56-53.66.29-2.5-6.12-1.34-13-1.34-19.7q-.15-121.08-.07-242.17V384c-5-.75-9.16-1.78-13.3-1.88-9.92-.26-19.85-.09-30.6-.09C1354.23,363.67,1356,346.54,1356.19,329.09Z"/><path class="cls-1" d="M1196,427.36c20.38-2.34,39-.71,57.65-1.21,2.62,7.21-.51,12.11-2.35,17.17Q1217.68,536,1184,628.61c-4.68,12.89-9.42,25.75-13.91,38-14,3.59-34.78,4-54.74,1.42a15.13,15.13,0,0,1-1.55-1.06,4,4,0,0,1-1.17-1.38Q1071.4,553.82,1030.23,442a71.47,71.47,0,0,1-2.45-9.05c-.26-1.17,0-2.45,0-4.81,9.32-3.67,19.3-1.51,29-1.88,9.33-.36,18.68-.08,28.77-.08,2.55,5.87,5,10.8,6.87,15.92,13.8,37.6,27.45,75.26,41.24,112.86,1.84,5,4.26,9.83,7,16.13,7.43-7.93,8.5-16.82,11.77-24.55,3.17-7.48,5.6-15.28,8.3-23,2.9-8.26,5.68-16.57,8.64-24.82,2.75-7.66,5.67-15.25,8.5-22.88,3-8.21,6-16.44,9.13-24.65C1189.78,443.6,1192.68,436,1196,427.36Z"/><path class="cls-1" d="M872.69,667.37c3.89-2.49,6.8-3.82,9-5.88,11.5-10.52,25.16-16.09,40.42-18,16.09-2.06,32.18-4.11,48.31-5.81,9.81-1,19.69-1.42,30.19-2.14,2.3,7.23.24,12.86-3.12,19.73-16.21,3.74-34.1.72-51.77,6.19,1.24,4.55,2.45,8.53,3.41,12.57,1.92,8.06,2.11,16.21-.72,24-4.09,11.29-11.77,19.07-23.76,21.83-3.6.83-7.34,1-11.69,1.6-1.39,4.79-2.54,9.54-4.13,14.14-5.59,16.12-19.3,26.07-35.25,25.79-17.59-.31-31-10.59-35.83-27.6-1-3.53-1.32-7.24-2.11-11.75-9.12-1.89-18.58-2.91-25.93-9.35-6.89-6.06-10.32-13.91-12.55-22.56-2.52-9.73,2.44-18.33,4.35-28.41-17.39-5.45-35.69-3.07-53.7-7.17-.87-5.7-1.69-11.1-2.62-17.23,3.1-.81,5.44-2.08,7.65-1.89,20.53,1.75,41.09,3.3,61.53,5.79C835.82,643.83,856.06,649.86,872.69,667.37Zm-.44,32.38c-4.54,7-8.79,12.3-11.75,18.3a13.3,13.3,0,0,0,3.94,16.76c5.58,4,14.18,3.62,19-.73a14.6,14.6,0,0,0,3.57-17A41.63,41.63,0,0,0,872.25,699.75Zm17.53-14.93c7.38,7.68,14.4,13.49,24.65,13.38,7.46-.08,12.81-5.37,13.09-12.87.36-9.5-7.4-16.32-17-14.86C902,671.76,896.1,677.13,889.78,684.82Zm-33.58-1.4c-6.16-8.67-13.64-13.41-23.74-13.21-5.47.1-9,3.2-11.38,8.17-2.11,4.46-1.41,8.44,1.06,12.3,4.38,6.86,11.82,9.37,19.44,6.22C847.37,694.5,852.52,691.08,856.2,683.42Z"/><path class="cls-1" d="M1296.3,667c0-47.14-.1-93.21.12-140.19,19.08-3.74,36.93-1.35,55.31-1.78,1,3.82,2.37,6.7,2.38,9.59q.21,62.83,0,125.68c0,2.36-.85,4.71-1.25,6.73C1337.88,670.5,1314.77,670.61,1296.3,667Z"/><path class="cls-1" d="M980.53,284.75c-.17,26.81-3,51.29-14.71,74.23-13.77,26.9-34.92,43.26-64.35,48.18-1.09-.77-1.81-1-2-1.46a2.38,2.38,0,0,1,.3-1.81c7.94-12,15.93-23.89,24-36,4.59-.8,9-1.09,13-2.41,3.33-1.09,6.25-3.41,10.41-5.78a129.07,129.07,0,0,0-32.11-29c-6.42,4.14-5.92,9.73-5.78,15.45a17.35,17.35,0,0,1-1.79,8.76c-3.1,5.4-27.12,27-35.24,32.18-.33-3.49-1-6.32-.78-9.07,2.71-29.8,15.95-53.61,40.9-70.48,16.81-11.37,35.8-17.69,55.23-22.69C971.2,284,975.12,284.75,980.53,284.75Z"/><path class="cls-1" d="M850.33,400.24l-21.94-32c-3.38,4.06-.58,6.52.73,9.07,4.82,9.36,9.76,18.65,15.14,28.89-6.26,3.59-11.46,1.94-16.55.47-30.17-8.77-49-28.93-57.12-58.82a125.85,125.85,0,0,1-3.89-46.36c.18-1.68,1.39-3.25,2.61-5.93,3.56.69,7.18,1,10.54,2.11,13.64,4.45,27,9.49,38.94,17.79,27.88,19.39,38.48,46.25,34.81,79.39C853.48,396,852.38,396.94,850.33,400.24Zm-29.79-38.78.42-1.22-1.47.73Z"/><path class="cls-1" d="M1360.78,462.47c-.16,21.52-15.58,36.54-37,36.08-20-.44-35-16.09-35-36.43,0-20.95,16.07-36.42,37.29-35.87C1346.87,426.79,1360.93,441.44,1360.78,462.47Z"/><path class="cls-1" d="M864.18,332.86c-.71-7-1.2-11.88-1.91-18.91-2.68,6-4.51,10.06-7.17,16-10.32-15-14.94-28.82-11.44-45.14,4.26-19.84,16.43-37.61,35.43-49.21,7,9.64,10.6,20.93,12.81,32.25,1.75,9,2.43,18.85.75,27.79C889.68,311.46,881.33,324.4,864.18,332.86Z"/><path class="cls-1" d="M820.54,361.46l-1-.49,1.47-.73Z"/><path class="cls-1" d="M1781,420.87c0,16.3-11.91,28.9-27.38,28.91s-28-12.71-28.23-28.48a27.83,27.83,0,0,1,27.77-28.54C1769.3,392.65,1781,404.44,1781,420.87ZM1753.43,398c-12.75-.31-23.21,10.7-22.86,23.72.33,12.18,10.45,22.73,22.85,22.45,11.92-.26,22.78-10.67,22.93-22.47C1776.52,408.68,1766.1,397.9,1753.43,398Z"/><path class="cls-1" d="M1764.24,432.38h-4.74l-3.9-6.54a15.41,15.41,0,0,0-1-1.55,6.86,6.86,0,0,0-1-1.05,3.4,3.4,0,0,0-1.13-.59,4.56,4.56,0,0,0-1.38-.19h-1.64v9.92h-4V407.93h8.05a11.8,11.8,0,0,1,3.17.41,7.32,7.32,0,0,1,2.52,1.23,5.74,5.74,0,0,1,1.68,2.07,6.41,6.41,0,0,1,.61,2.89,7,7,0,0,1-.39,2.38,6.06,6.06,0,0,1-1.09,1.92,6.63,6.63,0,0,1-1.7,1.45,9.07,9.07,0,0,1-2.25.92v.07a6.12,6.12,0,0,1,1.16.82c.33.3.65.61.94.93a11.1,11.1,0,0,1,.88,1.08q.43.61,1,1.41Zm-14.85-21.16v7.95h3.38a5.11,5.11,0,0,0,1.73-.29,4,4,0,0,0,1.37-.84,3.64,3.64,0,0,0,.9-1.33,4.47,4.47,0,0,0,.33-1.75,3.49,3.49,0,0,0-1.11-2.75,4.63,4.63,0,0,0-3.19-1Z"/></svg>