<svg id="Layer_1" data-name="Layer 1" xmlns="http://www.w3.org/2000/svg" viewBox="0 0 1920 1080"><defs><style>.cls-1{fill:#081528;}</style></defs><path class="cls-1" d="M792.05,369.48c3.73,1.51,6.09,2.5,8.48,3.42A50,50,0,0,1,814,380.47c9.22,7.45,13.08,17.13,11.61,28.82-2.76,21.76-22.26,42.85-43.73,47.32a53.76,53.76,0,0,1-9.24.88c-5.69.19-11.38.22-17.07.23l-201,.3a53.8,53.8,0,0,1-7-.31c-5.33-.71-7.81-3.13-8.56-8.43a49.07,49.07,0,0,1-.26-7c0-25.09.11-50.19.11-75.28,0-22.51-.09-45-.09-67.52a34.21,34.21,0,0,1,.52-6.94,8.77,8.77,0,0,1,7.94-7.37,39.12,39.12,0,0,1,5.42-.22c69.84,0,139.68-.11,209.51.23,23.22.11,40.38,11.27,51.14,31.88a35.73,35.73,0,0,1,3.88,19.54c-.88,11.41-6.82,19.82-15.76,26.41C798.84,365,796,366.76,792.05,369.48ZM680,392.56v-.06h-82.3c-2.07,0-4.15-.08-6.21.05-8.41.56-11.43,3.93-11.21,12.44,0,.77.08,1.55.17,2.32.68,5.62,3.17,8.28,8.85,9.1a49,49,0,0,0,7,.26q75.69,0,151.4,0c4.91,0,9.84,0,14.74-.31A41.21,41.21,0,0,0,773,414.58a12,12,0,0,0,7-15.86c-1-2.58-2.73-4.5-5.44-5.07a42.18,42.18,0,0,0-8.43-1Q723.06,392.49,680,392.56Zm-4-42.5v-.16c3.36,0,6.73,0,10.09,0,23-.08,46.07-.13,69.1-.28a54.07,54.07,0,0,0,10.8-.9A9.32,9.32,0,0,0,771,333a20.85,20.85,0,0,0-7.09-4.51c-4.58-1.95-9.54-2.18-14.48-2.19q-77.25-.16-154.51-.31a45.69,45.69,0,0,0-6.19.33c-5,.69-7.26,2.75-8.12,7-1.35,6.62.24,12.66,4.12,14.78a17.12,17.12,0,0,0,5.12,1.68,31.4,31.4,0,0,0,5.41.25Z"/><path class="cls-1" d="M1217.29,285q50.84,0,101.67,0a87.32,87.32,0,0,1,31.85,5.74c12.27,4.72,21.13,13.11,26.15,25.08,9.58,22.81,8.48,45.42-2.9,67.38a41.9,41.9,0,0,1-18.4,18.35,28.27,28.27,0,0,0-5.77,3.84,5.47,5.47,0,0,0-1.32,7.05,54.43,54.43,0,0,0,3.72,5.88c7.14,10.16,14.33,20.28,21.48,30.42a13,13,0,0,1,1.52,2.69c1.16,3-.46,6.06-3.67,6.32-5.15.43-10.32.62-15.49.6-5.42,0-10.84-.28-16.25-.67a22.13,22.13,0,0,1-15.94-8.6c-3.1-3.8-5.91-7.84-8.68-11.89-2.92-4.27-5.52-8.76-8.49-13-7.06-10-16.85-15-29.1-15-10.87,0-21.73.4-32.59.42-24,0-48.1-.05-72.16-.11-6.72,0-13.45-.23-20.17-.16a35.83,35.83,0,0,0-7.65.95c-4.56,1.05-7.07,4.08-7.39,8.77-.12,1.8,0,3.62,0,5.43l0,22.5a22.58,22.58,0,0,1-.1,2.33c-.66,5.77-2.45,7.88-8.29,8.2-7.74.42-15.52.59-23.25.3-6.45-.24-9.17-3.33-9.75-9.78-.18-2.06-.12-4.14-.12-6.21q.06-69.85.13-139.71a83.55,83.55,0,0,1,.21-8.53c.56-5.71,2.66-7.84,8.25-8.37,2.82-.27,5.68-.21,8.52-.21Zm18.85,81.41q39.18,0,78.36,0a78.71,78.71,0,0,0,11.6-.67c7-1.05,11.09-5.17,12.55-12a31.23,31.23,0,0,0,.08-13.84,15.57,15.57,0,0,0-9.56-11.39c-3.89-1.67-8-2-12.16-2.11-8.53-.16-17.07-.33-25.6-.34q-54.72-.06-109.43,0-15.51,0-31,0a49.14,49.14,0,0,0-6.19.25c-4.24.53-6.33,2.17-6.51,6.33-.38,8.52-.46,17.07-.18,25.58.14,4.32,3,7.07,7.33,7.86a37.56,37.56,0,0,0,6.93.65c6.72,0,13.44-.29,20.17-.3C1193.71,366.35,1214.92,366.38,1236.14,366.38Z"/><path class="cls-1" d="M935.41,696.45c-24.07,0-48.13-.17-72.2.08-11.11.11-22.22,1.05-33.33,1.55a63.88,63.88,0,0,1-8.53,0c-4-.35-6.57-2.66-7.92-6.44-1.43-4-1.19-8.17-1.17-12.3.1-20.45.33-40.9.33-61.34,0-25.63-.25-51.25-.27-76.88a42.5,42.5,0,0,1,1.1-9.18,7.75,7.75,0,0,1,6.35-6.13,57.72,57.72,0,0,1,10-1.17c16.3-.41,32.6-.55,48.9-1,51.49-1.44,103-1.27,154.48-.55,8.27.12,16.55.5,24.65,2.53,23.35,5.85,40.93,27.18,41.37,51.23.42,22.76.5,45.55,0,68.32-.65,28.58-21,47.1-44.21,50.09a105.14,105.14,0,0,1-13.14.94q-53.19.11-106.37,0ZM948,653v.24c17.84,0,35.67-.12,53.5.05,7.23.07,14.45,1,21.67,1a77,77,0,0,0,15.39-1.35c8.76-1.75,14.87-7,17.48-15.73a31.17,31.17,0,0,0,1.56-8.34c.15-12.66.51-25.34-.11-38-.8-16.12-9.83-24.89-25.92-26.45-1.54-.14-3.1-.19-4.65-.22-3.36-.07-6.72-.13-10.08-.13l-140.34.26c-2.07,0-4.14,0-6.21,0a42.15,42.15,0,0,0-4.64.22c-7.67,1-11.31,5.06-11.75,12.91-.07,1.29,0,2.58,0,3.87q0,29.09,0,58.16a36.37,36.37,0,0,0,.33,6.18c.92,5.34,3.89,8.23,9.3,8.84a70.19,70.19,0,0,0,9.29.16Q910.37,654,948,653Z"/><path class="cls-1" d="M285.18,668c3.37,1.21,5.63,1.82,7.71,2.82,3.95,1.89,8.05,3.63,11.63,6.09,10,6.86,13.48,16.59,11.5,28.4a29.37,29.37,0,0,1-1.28,5.27c-9.68,26.13-26.33,44.81-54.72,50.77-22.5,4.73-45,9.23-67.52,14.1-29.28,6.35-58.51,13-87.76,19.45a35.3,35.3,0,0,1-6.09,1c-4.44.18-6.67-1.52-7.86-5.86a24.72,24.72,0,0,1-.74-5.35c-.18-4.14-.29-8.27-.29-12.41q0-52.75,0-105.51c0-7.24-.12-14.48-.16-21.73,0-2.06,0-4.14.08-6.2.53-9.43,4.2-14.12,13.41-16.53,6.75-1.77,13.58-3.21,20.4-4.66Q180.7,605.47,238,593.37c5.81-1.23,11.64-2.4,17.52-3.29a49.23,49.23,0,0,1,27.36,3.15c27.3,11.74,33.56,45.21,12.32,66-1.84,1.8-3.94,3.34-5.89,5C288.12,665.25,287,666.3,285.18,668Zm-152.59,66h.19a34,34,0,0,0,0,4.63c.62,4.55,2.68,6.54,7.16,6.45a46.16,46.16,0,0,0,8.39-1.23c10.61-2.26,21.2-4.64,31.8-6.91,24.24-5.19,48.5-10.3,72.73-15.55a60.84,60.84,0,0,0,10.32-3.23,13.2,13.2,0,0,0,7.5-7.46A11.86,11.86,0,0,0,269.4,699c-2.38-3.37-6-3.74-9.74-3-3.55.68-7.11,1.37-10.65,2.1q-51.57,10.71-103.15,21.47a41.92,41.92,0,0,0-7.39,2.21c-3.66,1.53-5.53,4.54-5.86,8.46C132.5,731.46,132.59,732.76,132.59,734.05Zm.08-63.86a19.58,19.58,0,0,0-.13,2.42c.18,4.45,2.46,6.64,6.91,6.42a40,40,0,0,0,6.11-1q18.19-3.86,36.38-7.78c21.21-4.57,42.41-9.21,63.64-13.71a41,41,0,0,0,14.25-5.84c4-2.64,5.22-6.69,3.58-10.82a9.37,9.37,0,0,0-6.82-5.74c-5.47-1.47-10.78-.4-16.09.71q-33,6.88-66,13.86c-10.61,2.23-21.26,4.36-31.82,6.84-7.73,1.81-9.75,4.63-10,12.44C132.66,668.48,132.67,669,132.67,670.19Z"/><path class="cls-1" d="M1120.71,611.53q0-32.6,0-65.2c0-4.13,0-8.28.41-12.4s2.3-6,6.33-6.53c2.3-.28,4.65-.19,7-.28,15.82-.6,31.51,1.54,47.26,2.33,10.07.51,20.11,1.48,30.17,2.18,18.06,1.24,36.14,2.22,54.18,3.71,20.1,1.66,40.16,3.76,60.23,5.68a33,33,0,0,1,3.85.5c4.73,1.06,8.13,3.72,8.51,8.77a189,189,0,0,1,.8,21.66c-.26,6.59-3.33,9.06-10,9.38a77.06,77.06,0,0,1-10.08-.17c-20.61-1.75-41.21-3.69-61.83-5.37-16.75-1.38-33.52-2.55-50.29-3.69-10.32-.7-20.65-1.21-31-1.74a43.82,43.82,0,0,0-7,.07c-3.12.32-4.85,1.86-5,4.91a93,93,0,0,0,0,12.38c.24,3.51,2.64,5.49,6,6.23a24.78,24.78,0,0,0,3.85.42c16.27,1,32.54,1.82,48.79,3,15.73,1.13,31.44,2.62,47.16,3.91,9.53.79,19.08,1.46,28.61,2.25,5.16.43,10.31.88,15.43,1.58a46.5,46.5,0,0,1,8.28,2c8.05,2.67,12.2,8.45,12.48,16.84a57.39,57.39,0,0,1-2.84,18.32c-1,3.35-3.56,5-7,5.24a36.13,36.13,0,0,1-5.4-.21c-21.91-1.8-43.81-3.67-65.72-5.44q-35.17-2.85-70.37-5.55a91.51,91.51,0,0,0-10.85-.38c-5.34.22-7.84,2.72-8.65,8.1a21.61,21.61,0,0,0-.26,3.85c.25,8.18,3,11.16,11.19,11.75,14.19,1,28.4,1.74,42.58,2.77q27.09,2,54.14,4.21c14.18,1.15,28.34,2.42,42.51,3.69,4.63.41,9.28.81,13.88,1.48,7.3,1.06,10.6,4.44,10.83,11.8s.1,15-.35,22.49c-.32,5.51-2.45,7.18-7.94,7.38a51.38,51.38,0,0,1-6.2-.2c-28.86-2.36-57.71-5-86.59-7.08-34.3-2.52-68.57-5.57-103-6.63a29,29,0,0,1-3.1-.2c-7.12-1-10.41-4.46-10.93-11.75-.17-2.32-.1-4.66-.1-7Q1120.71,646.07,1120.71,611.53Z"/><path class="cls-1" d="M548.6,632q0,27.16,0,54.35c0,4.91.23,9.82.29,14.74a56,56,0,0,1-.14,7c-.78,7.29-3.84,10.57-11.24,11.62-8.19,1.16-16.43,2-24.64,3-23.86,3-47.75,5.79-71.56,9.2-30.71,4.4-61.34,9.34-92,14a89,89,0,0,1-10,1.17c-3.68.14-5.8-1.72-6.58-5.26a18.53,18.53,0,0,1-.42-3.85c-.05-6.21-.24-12.43,0-18.63.36-8.62,2.67-11.66,11-13.54,8.06-1.81,16.25-3.09,24.42-4.34Q403,696,438.33,690.86c18.41-2.71,36.85-5.33,55.27-8,.77-.11,1.55-.15,2.31-.28,10.54-1.76,14.93-10.54,10.17-20.26a5.2,5.2,0,0,0-4.86-3.27,56.88,56.88,0,0,0-7.73.43q-41.1,5.79-82.17,11.7c-21,3-41.95,6.18-62.92,9.26a35.75,35.75,0,0,1-3.86.37,5.41,5.41,0,0,1-5.89-4.05,29.3,29.3,0,0,1-1.58-7.55c-.16-6.46-.12-12.94.2-19.4.3-6.21,3-9.39,9.25-10.75,6.05-1.31,12.23-2.05,18.36-3,20.47-3,41-5.87,61.42-8.86,21-3.07,41.94-6.24,62.92-9.3,2.81-.41,5.69-.28,8.51-.6,5.69-.64,8.6-3.1,9.34-8.63a39,39,0,0,0-.23-10c-.45-3.52-3-5.39-6.42-5.66a28.34,28.34,0,0,0-6.17.28c-25.6,3.65-51.2,7.27-76.78,11-21.23,3.14-42.43,6.48-63.64,9.74-3.57.55-7.13,1.37-10.72,1.66-7.84.64-10.68-1.74-10.89-9.37-.2-7.24-.16-14.5.11-21.74.27-7,2.19-9.14,9.11-10.34,7.9-1.37,15.85-2.4,23.77-3.62,25.82-4,51.6-8.11,77.45-11.82,21.5-3.08,43.07-5.66,64.61-8.42,9.24-1.19,18.48-2.28,27.72-3.42,1-.13,2-.37,3.08-.43,6.74-.34,9.59,2,10.53,8.52a32.67,32.67,0,0,1,.29,4.64q0,36.09,0,72.19Z"/><path class="cls-1" d="M1646.12,587.16c11.19.51,22,3.07,32.9,5.37,27.07,5.74,54.15,11.38,81.22,17.1,5.06,1.06,10.16,2,15.12,3.47,4.45,1.28,9,2.6,13.05,4.82,20.5,11.32,34,28.36,39.88,51.09a41,41,0,0,1,.84,11.52c-.11,3.4-2.21,5.05-5.64,5.1a22.17,22.17,0,0,1-5.38-.57c-6.55-1.51-13-3.27-19.6-4.71-5.25-1.16-8.84-3.89-10.57-9.12-3.44-10.39-11.24-15.81-21.47-18.12-21.18-4.77-42.37-9.54-63.62-14.05q-19-4-38.1-7.19c-5.07-.85-10.3-.79-15.46-.91-4.22-.1-7.58,1.57-9.19,5.77a11.88,11.88,0,0,0,2.77,12.87c2.93,2.78,6.63,4,10.4,4.92,5,1.21,10.1,2.22,15.17,3.29q51.61,10.86,103.23,21.72c14.71,3.11,28,9.21,39,19.57,7.89,7.36,13.9,15.94,17.13,26.38a58.31,58.31,0,0,1,.61,32.18,39.21,39.21,0,0,1-35.34,29.1A52.87,52.87,0,0,1,1780,786q-52.11-10.41-104.12-21.22c-8.61-1.78-17.14-4-25.67-6.07-18.92-4.7-32.79-15.89-42-33a88.16,88.16,0,0,1-8.71-24c-2.06-10,.14-12.57,10.11-11.4,7.18.85,14.31,2.23,21.41,3.59,4.29.82,7.79,3.19,9.46,7.31,5.13,12.65,15.28,18.09,28,20.66,32.69,6.62,65.33,13.5,98,20.34a33.76,33.76,0,0,0,13.86.4c5.44-1.12,8.4-5,8.44-10.53,0-4.27-1.7-7.71-5.62-9.4a73.15,73.15,0,0,0-13.16-4.54c-22-4.78-44-9.33-66-13.88-15.19-3.14-30.41-6.13-45.62-9.22a98,98,0,0,1-22.77-7.53,68.6,68.6,0,0,1-25.81-20.67c-11.47-15.32-14.85-32.22-8.76-50.58a42.46,42.46,0,0,1,19.68-24.09C1628.58,587.55,1637.22,586.73,1646.12,587.16Z"/><path class="cls-1" d="M1358.31,630.63q0-26,0-52c0-7-.22-14-.22-20.94a33.51,33.51,0,0,1,.68-6.93,5.88,5.88,0,0,1,5.33-4.91,37.59,37.59,0,0,1,7.72-.11c12.08,1.24,24.17,2.53,36.23,4q21.56,2.61,43.07,5.54,30.74,4.18,61.44,8.61c7.41,1.07,14.85,2.18,22.13,3.87a71.8,71.8,0,0,1,14.57,5.18,57.49,57.49,0,0,1,29.87,32.18c6.57,17.14,7.47,34.77,3.37,52.62-3.1,13.48-11.19,23-23.54,29.12-2.08,1-4.24,1.92-6.22,3.12a4.21,4.21,0,0,0-2,5.35,29.22,29.22,0,0,0,2.73,5.52q10.6,17.17,21.3,34.27a43.69,43.69,0,0,1,2.45,3.94,4.85,4.85,0,0,1-.09,5.17c-1.21,1.73-3,1.9-4.84,1.62-2.81-.44-5.59-1-8.39-1.46-5.6-1-11.22-1.87-16.81-2.88-9.37-1.68-16.93-6.31-22.16-14.32-5.78-8.88-11.88-17.62-16.87-26.94-5.82-10.88-14.48-16.59-26.49-17.47-23.49-1.71-46.72-5.43-70-8.74-.52-.07-1-.23-1.53-.29-7.42-.92-10.54,1.76-10.68,9.44-.13,7.23,0,14.47,0,21.71,0,1.56,0,3.11,0,4.66-.25,8.35-2.71,10.87-10.81,10.35-7-.45-13.9-1.18-20.81-2.1-6.19-.82-8.89-3.92-9.49-10.36-.24-2.57-.16-5.17-.16-7.75q0-34.53,0-69.06ZM1399.5,610h.13c0,2.84-.11,5.69,0,8.53.44,9.66,2.09,11.68,11.62,13.13,13.79,2.08,27.62,3.93,41.43,5.84q32.63,4.5,65.25,8.91a52.73,52.73,0,0,0,10,.49,14.52,14.52,0,0,0,12.84-8.61c3.4-6.82,3.12-13.42-1-19.86-4.51-7-11.22-10.49-19.23-11.69-8.18-1.22-16.37-2.28-24.56-3.43l-60.6-8.58c-8.18-1.16-16.34-2.51-24.53-3.55-8.39-1.06-11.33,1.7-11.4,10.29C1399.48,604.26,1399.5,607.1,1399.5,610Z"/><path class="cls-1" d="M567.87,629.46c0-15,.06-30,0-45-.05-8-.45-16-.48-24a53.07,53.07,0,0,1,.85-10,8.82,8.82,0,0,1,7.12-7.42c12.42-2.3,24.83-5.25,37.59-1.9a59.28,59.28,0,0,1,20.19,9.59A104.66,104.66,0,0,1,643.33,559C667,581.46,692,602.33,716.91,623.37c8.09,6.84,16,14,23.93,20.93a18.06,18.06,0,0,0,1.81,1.46,3.58,3.58,0,0,0,5.46-2.26,19,19,0,0,0,.27-3.85q-.09-46.56-.2-93.11c0-2.33-.06-4.67.14-7,.57-6.48,3.37-9.68,9.77-11.37a14.52,14.52,0,0,1,3-.6c6.46-.23,12.93-.65,19.38-.53,6.94.14,9.08,2.2,10.22,9.13a52.43,52.43,0,0,1,.65,8.49q.06,69.84,0,139.69a61.79,61.79,0,0,1-.81,8.46,7,7,0,0,1-5.45,5.93,76.27,76.27,0,0,1-8.35,1.71c-19.9,3.41-38-.57-54.08-13.09-2.85-2.22-5.74-4.43-8.37-6.91-25.24-23.78-51.75-46.1-78.14-68.57-5.91-5-11.77-10.12-17.66-15.17a37.07,37.07,0,0,0-3.62-2.9,3.78,3.78,0,0,0-5.92,2.59,22.67,22.67,0,0,0-.11,3.87q0,43.07,0,86.14c0,4.65.31,9.32,0,14-.52,7.83-3.41,11.38-11.11,12.64-6.86,1.12-13.87,1.34-20.82,1.91a11.46,11.46,0,0,1-3.08-.25c-3.36-.68-5.64-2.5-6-6.12a60.91,60.91,0,0,1-.54-6.17q0-36.46,0-72.93Z"/><path class="cls-1" d="M1057.05,458.84c-13.68.09-23.61-5.73-30.06-17.45-1-1.81-1.82-3.71-2.71-5.58a15.32,15.32,0,0,0-11.92-8.91,41.28,41.28,0,0,0-6.94-.54c-33.62,0-67.24.1-100.86-.1-10.46-.07-17.81,4.31-22.64,13.36-1.7,3.19-3.28,6.45-5,9.61-2.86,5.14-7.22,7.59-13.15,8.25-10.88,1.21-21.69.73-32.52-.12a11.05,11.05,0,0,1-2.28-.43c-1.44-.42-2.67-2.28-2.12-3.61a53.18,53.18,0,0,1,3.68-7.64c14.71-24,29.57-48,44.23-72.06,13.59-22.3,27-44.73,40.52-67.05a100.84,100.84,0,0,1,8.36-12.1c6.78-8.19,15.48-11.88,26.17-9.83a30.27,30.27,0,0,0,10.78.06c9.77-1.64,17.89,1.59,24.27,9a78.6,78.6,0,0,1,7.72,10.66q42.66,69.84,85.18,139.76a66.17,66.17,0,0,1,4.12,7.46c1.54,3.5.37,5.56-3.44,5.88C1071.2,458,1064,458.39,1057.05,458.84ZM954.92,385c9,0,18.08.08,27.12-.05,2.75,0,6.16.72,7.9-2,2.08-3.27-.9-5.81-2.48-8.29-8.65-13.49-17.42-26.9-26.17-40.32A31.28,31.28,0,0,0,958,330c-2.1-2.25-4.62-2.26-6.71.09a45.4,45.4,0,0,0-4.1,5.62q-12.29,18.82-24.49,37.71a53.49,53.49,0,0,0-2.81,4.64c-1.91,3.8-.82,6,3.23,6.6a40.61,40.61,0,0,0,5.41.31C937.35,385,946.13,385,954.92,385Z"/></svg>