<svg id="Layer_1" data-name="Layer 1" xmlns="http://www.w3.org/2000/svg" viewBox="0 0 1920 1080"><defs><style>.cls-1,.cls-3,.cls-4{fill:#031a3d;}.cls-1,.cls-2,.cls-3,.cls-4{stroke:#031a3d;stroke-miterlimit:10;}.cls-1{stroke-width:10px;}.cls-2,.cls-5{fill:#0f182a;}.cls-2,.cls-3{stroke-width:5px;}.cls-4{stroke-width:11px;}</style></defs><path class="cls-1" d="M300.38,724.74A48.22,48.22,0,0,0,290,719.4c-1.71-.6-3.33-1.45-5-2.17-3.52-1.53-7-3.06-10.58-4.55-3.27-1.37-6.55-2.71-9.7-4.38a16.21,16.21,0,0,0-3.75-1.43,23.49,23.49,0,0,1-5.14-1.83c-7-3.67-14.32-6.5-21.51-9.69Q196.63,678.76,159,662.23c-6.16-2.7-12.35-5.29-18.61-7.72a4.61,4.61,0,0,1-3.34-5c.1-4.51.1-9,.15-13.52V410.27c0-1.54-.08-3.08,0-4.6.08-2.25.55-2.83,2.68-3.48a10.9,10.9,0,0,0,3.12-1.43,133.69,133.69,0,0,1,16.63-9.15c5.35-2.59,10.54-5.52,16-7.85,15.81-6.74,31.79-13,48.47-17.27,2.31-.6,4.63-1.25,6.88-2.07a52.06,52.06,0,0,1,13.44-3,112.69,112.69,0,0,0,12.79-2,176.71,176.71,0,0,1,19.69-2.93q13.64-1.26,27.3-1.24,11.54.08,23,1.17c5.36.51,10.69,1.14,16,1.81,3.53.44,7,1.25,10.45,2a95.17,95.17,0,0,0,9.63,1.72,77.53,77.53,0,0,1,13,2.62c9.37,2.78,18.8,5.41,28.11,8.38a270.91,270.91,0,0,1,37.7,15.67c6.18,3.06,12.41,6.06,18.59,9.13a45.13,45.13,0,0,1,4.44,2.64c1.69,1.12,3.26,2.38,5,3.48a3.23,3.23,0,0,1,1.58,3.13c-.08,1.72-.06,3.46-.06,5.18V649.56a6.25,6.25,0,0,1-4.1,6c-.27.11-.52.24-.8.34-10.37,4-20.47,8.74-30.73,13Q408,680.71,380,692.54c-7.85,3.34-15.46,7.25-23.41,10.37-15.17,6-30,12.76-45.07,19a31.33,31.33,0,0,0-5.89,2.84ZM165.15,527.55h-.06v93.32c0,3.16-.1,6.33,0,9.5s1.08,4.48,4.1,5.49A141,141,0,0,1,183,641.53q6.41,2.91,12.86,5.78c8.67,3.85,17.2,8.05,26.14,11.24,15.49,7,31.09,13.64,46.76,20.21a32,32,0,0,1,5.34,2.8,12.91,12.91,0,0,0,3.92,1.75,39.3,39.3,0,0,1,6.72,2.49c2.42,1.15,4.83,2.34,7.27,3.49a50.73,50.73,0,0,0,8.63,3.1,11.81,11.81,0,0,0,8.13-.64c5.17-2.29,10.42-4.42,15.65-6.6,19.05-7.77,37.78-16.26,56.89-24.13,13.49-5.54,26.81-11.46,40.22-17.21,4.32-1.84,8.74-3.62,13-5.45a52.43,52.43,0,0,0,6.9-3.58,3.45,3.45,0,0,0,1.81-3.35V468.15c0-5.77-.12-11.53-.08-17.28,0-8.44-.24-16.89.45-25.32a6.59,6.59,0,0,0-4.14-6.24c-3.55-1.45-7-3.15-10.42-4.89-2.49-1.25-5-2.49-7.49-3.58a334.1,334.1,0,0,0-65.07-20.94,295.23,295.23,0,0,0-39.62-5.4,231.27,231.27,0,0,0-31.37,0c-4.5.31-9,.77-13.45,1.41-4.86.67-9.65,1.62-14.46,2.49-7.91,1.5-15.82,3.08-23.62,5.11-5.94,1.55-11.67,3.75-17.55,5.53-16.72,5-32.33,12.59-47.91,20.24a5.6,5.6,0,0,0-3.43,5.19v2.6c0,13.25.1,26.49.11,39.74Q165.18,497.17,165.15,527.55Z"/><path class="cls-2" d="M1767.22,627.43c-3.33-.28-6.65-.78-10-.75s-6.7.09-10.06.1h-8.35c-1,0-1.91-.21-2.86-.24a5,5,0,0,1-4.71-3.6c-1.46-3.86-2.88-7.72-4.34-11.57q-4.61-12.09-9.25-24.16a34.84,34.84,0,0,0-1.84-3.91,5.08,5.08,0,0,0-3.88-2.66,25.68,25.68,0,0,0-4-.29l-40.31-.06h-7.78a13.47,13.47,0,0,0-2,.1,3.38,3.38,0,0,0-2.65,2,11,11,0,0,0-.41,1.09c-2.25,7-5.15,13.82-8,20.64a153.86,153.86,0,0,0-6.35,17.56,13.14,13.14,0,0,1-.58,1.63,5.77,5.77,0,0,1-5.12,3.63,12.34,12.34,0,0,1-1.72,0c-9.5-.42-19-.25-28.5-.1h-1.76c-.56-1.1.2-1.9.51-2.71,4.42-11.24,8.91-22.47,13.35-33.71,8.82-22.39,17.7-44.73,26.41-67.16,3.55-9.11,6.71-18.36,10.12-27.53,3.06-8.16,6.33-16.23,9.17-24.49.85-2.44,2-4.79,3-7.18,1.12-2.75,2.21-5.52,3.31-8.28.25-.62.44-1.25.74-1.87a4.71,4.71,0,0,1,4-2.84c1.53-.08,3.07-.17,4.59-.12,6.06.2,12.1.21,18.14.09h1.73a4,4,0,0,1,3.48,2.21,26.79,26.79,0,0,1,1.4,3.14l24.81,64.7q13.24,34.5,26.53,69,5.84,15.16,11.82,30.26c.49,1.25.5,2.62,1.4,3.75Zm-97.73-80.54h30.57c1.25-.09,1.62-.58,1.25-1.68-.91-2.5-1.82-5-2.89-7.49a171.32,171.32,0,0,1-6.67-17.73,59.31,59.31,0,0,0-5.18-12.13c-.24-.41-.44-.85-.71-1.25a1.09,1.09,0,0,0-1.49-.32,1.21,1.21,0,0,0-.4.47,6.56,6.56,0,0,0-.71,1.86A55.51,55.51,0,0,1,1680,519q-5,12.71-10,25.4a4.3,4.3,0,0,0-.54,2.43Z"/><path class="cls-2" d="M941.49,540.16V463a55.12,55.12,0,0,0-.29-7.49,7.61,7.61,0,0,1,.21-3.42,1.88,1.88,0,0,1,1.85-1.51h2.6c2.2.06,4.41.2,6.62.2,16.89,0,33.79.18,50.69,0,22.38-.26,39.42,15.78,45.08,32.1a42.67,42.67,0,0,1-14.67,47.29c-.55.4-1.06.84-1.57,1.25a45.22,45.22,0,0,1-6.38,4.9c-1.18.66-1.25,1.25-.48,2.34a5.82,5.82,0,0,0,.36.47,88.7,88.7,0,0,1,8.21,11.44,88.55,88.55,0,0,0,7.09,9.78,34.39,34.39,0,0,1,2.28,3c2.61,3.92,5.57,7.57,8.49,11.24a58.68,58.68,0,0,1,7.27,11,13,13,0,0,0,2.33,3.27,126.12,126.12,0,0,1,10.63,13.23c3.66,5,7.23,10,10.82,14.91a60.77,60.77,0,0,0,6.75,8.59.67.67,0,0,1,.2.75c-.14.36-.47.3-.73.3h-3.46c-10,0-20,0-30,.07a9,9,0,0,1-8-4.13c-5.29-7.49-10.7-15-16.11-22.47q-20.29-27.95-40.62-55.88c-.23-.31-.48-.61-.68-.93a3.73,3.73,0,0,0-3.63-1.87c-1.25.07-2.5,0-3.75,0a21.65,21.65,0,0,1-6-.53c-1.59-.44-2.2,0-2.32,1.59-.16,2.11-.28,4.22-.26,6.33q0,19.84.11,39.73c0,11.13.15,22.26.21,33.39a12.25,12.25,0,0,1-.1,2,2.74,2.74,0,0,1-2.82,2.65h0a12.49,12.49,0,0,1-1.73,0c-8.06-.17-16.12-.15-24.19,0-3.36,0-4.09-.66-4.17-4,0-1.54.09-3.07.09-4.61V540ZM991.13,509v-.13h14.1a11.59,11.59,0,0,0,8.84-4.15,19.44,19.44,0,0,0,3.19-5.1,7.78,7.78,0,0,0,.58-3.93,14.21,14.21,0,0,0-9.53-11.57,21.2,21.2,0,0,0-6.24-.72h-23.9c-3.57,0-3.92.27-3.88,3.95.06,5.94.08,11.89-.12,17.83a12.45,12.45,0,0,0,.18,2.28,1.68,1.68,0,0,0,1.56,1.46,8.48,8.48,0,0,0,1.42.1Z"/><path class="cls-2" d="M821.12,580.18H795.2c-3.57,0-3.75.13-5.06,3.42q-6.42,16.64-12.82,33.26c-.38,1-.76,2-1.19,2.93a17.26,17.26,0,0,0-1.65,4.88,2,2,0,0,1-1.91,1.84,15.77,15.77,0,0,1-2.28.14q-14.13,0-28.23.07a19.64,19.64,0,0,1-2.3-.07c-1.25-.15-1.68-.83-1.32-2a26.37,26.37,0,0,1,1-2.69c4.23-10.07,8.51-20.13,12.33-30.37,2.91-7.8,5.57-15.71,8.74-23.42,3-7.35,6-14.72,8.93-22.14q7.26-18.6,14.36-37.29c1-2.69,1.82-5.44,2.78-8.15,1.11-3.17,2.19-6.36,3.48-9.44,5-12,9.53-24.26,14.26-36.41.12-.26.2-.54.3-.81,1.13-2.93,1.31-3.1,4.36-3.08,3.46,0,6.9.07,10.36.11l12.39.12H834a3.11,3.11,0,0,1,3,1.91,36.91,36.91,0,0,1,1.39,3.47c2.61,7.21,5.09,14.47,7.84,21.63,11.54,30,22.95,59.93,35.06,89.7,4.73,11.63,9.06,23.41,13.5,35.16,1.38,3.67,2.93,7.28,4.4,10.93a82.32,82.32,0,0,1,3.41,9.76,14.58,14.58,0,0,1,.45,2.26.56.56,0,0,1-.5.6c-.77,0-1.53.09-2.3.09H871.16a12.2,12.2,0,0,1-2-.1,2.42,2.42,0,0,1-2.08-1.75c-.26-.92-.46-1.87-.8-2.77-1.12-3.06-2.24-6.12-3.45-9.14a83.8,83.8,0,0,1-3.75-11.14,52,52,0,0,0-3.1-8.35c-1.61-3.68-3.3-7.34-4.78-11.09a3,3,0,0,0-3.24-2.13H821.17ZM805,546.64a5.19,5.19,0,0,0,.77.14h29a11,11,0,0,0,1.15,0,1,1,0,0,0,.93-1,.93.93,0,0,0,0-.29c-.31-1-.66-2-1.06-3-3.89-9.58-7.85-19.12-10.9-29a27.25,27.25,0,0,0-3.39-6.94c-.23-.34-.37-.88-1-.8-1.27,2.39-15,38.41-15.52,40.84Z"/><path class="cls-2" d="M1353,449a88.06,88.06,0,0,1,43.82,11.58,119.2,119.2,0,0,1,17,11.79,28,28,0,0,1,2.49,2.38,2.87,2.87,0,0,1,.44,3.48,20.6,20.6,0,0,1-2.06,3.1c-2.5,3.09-5,6.13-7.42,9.19-2.18,2.68-4.38,5.35-6.56,8-.37.44-.7.91-1.1,1.32a2.18,2.18,0,0,1-3.05.52,1.78,1.78,0,0,1-.26-.22,11.92,11.92,0,0,1-1.11-.91,97.09,97.09,0,0,0-24.82-15,14.4,14.4,0,0,0-3.57-1.07,92,92,0,0,0-16.31-1.54,26.33,26.33,0,0,0-18.39,7.68,15.9,15.9,0,0,0-4.73,11.12,11.21,11.21,0,0,0,3.07,8.14,25,25,0,0,0,5.59,4.5,48,48,0,0,0,13.29,5.36c4.74,1.24,9.57,2,14.38,2.88a134.39,134.39,0,0,1,24.17,6.35,60.19,60.19,0,0,1,21.6,13.94,45.84,45.84,0,0,1,12.71,24.69c2.81,16.47-2,30.72-13.25,42.88a51.08,51.08,0,0,1-17.09,12,92.14,92.14,0,0,1-19.64,6.42,66,66,0,0,1-20.94.61c-17.86-2.25-34-9.14-48.83-19.13a137.86,137.86,0,0,1-12.77-9.82c-.58-.5-1.17-1-1.71-1.55a2.13,2.13,0,0,1-.5-3,2.43,2.43,0,0,1,.3-.34c.63-.85,1.33-1.64,2-2.49q7.67-8.74,15.35-17.56c2.5-2.79,3.08-2.86,5.84-.45,3.26,2.84,6.54,5.65,10,8.23a70.4,70.4,0,0,0,18.28,10.2,50.83,50.83,0,0,0,12.9,2.8,72.94,72.94,0,0,0,10.35.37,40.84,40.84,0,0,0,17.13-4.29c8.2-4.35,10.5-12.34,9.87-19a12.44,12.44,0,0,0-3.44-7.42,21.13,21.13,0,0,0-5.77-4.25,61.88,61.88,0,0,0-13.74-5.16c-5.56-1.46-11.23-2.32-16.9-3.45a115.21,115.21,0,0,1-23.72-7,61.34,61.34,0,0,1-17.61-11.3,42.55,42.55,0,0,1-14.16-32.19,47,47,0,0,1,8.12-27.47,44.72,44.72,0,0,1,6.75-7.84,63.61,63.61,0,0,1,33.71-16.35A78.27,78.27,0,0,1,1353,449Z"/><path class="cls-2" d="M630.66,629.93h-4.6a68.18,68.18,0,0,1-19.44-3.63,99.56,99.56,0,0,1-31.79-16.41C556,595.18,544.15,572.44,541,554a99.57,99.57,0,0,1-1.1-25.8,85,85,0,0,1,6.17-25.9,88.34,88.34,0,0,1,17-25.9A96,96,0,0,1,601.25,451a88.09,88.09,0,0,1,31.07-5,93.92,93.92,0,0,1,37.21,7.77,87.94,87.94,0,0,1,29.59,21.45c2.85,3.11,5.52,6.38,8.19,9.65,2.11,2.58,2,3.32-.76,5.29-7,5-13.95,10.2-20.74,15.53-2.25,1.76-2.66,1.69-4.27-.72A58.38,58.38,0,0,0,659,485a55.45,55.45,0,0,0-19.27-5.5,99.15,99.15,0,0,0-10.62-.57,49.11,49.11,0,0,0-22,5,62.3,62.3,0,0,0-30.91,32.74,54.13,54.13,0,0,0-3.49,28.22,57.07,57.07,0,0,0,13.57,30.88c7.34,8.52,16.13,15,26.93,18.52a56.82,56.82,0,0,0,23,2.36,71.74,71.74,0,0,0,16.6-3.36,53,53,0,0,0,26.31-19.49c.63-.86,1.25-1.75,1.9-2.5a3.12,3.12,0,0,1,4.3-.92,2.69,2.69,0,0,1,.27.2,3.66,3.66,0,0,1,.49.31L697.26,579a16.44,16.44,0,0,1,1.79,1.45,23.35,23.35,0,0,0,5.58,4,6.4,6.4,0,0,1,3.26,4.18,2.19,2.19,0,0,1-.3,1.91c-.17.24-.34.46-.53.69-3.27,3.74-6.24,7.78-9.87,11.24-12.09,11.66-26,20.25-42.38,24.47A89,89,0,0,1,630.66,629.93Z"/><path class="cls-2" d="M1182.66,626.72h-47.53c-2,0-4,0-6.06.06h-1.15c-3.8.15-4.37-1.43-4.25-4.19.1-2.3.13-4.61.12-6.9,0-4.32,0-8.66-.11-13a13.48,13.48,0,0,1,2.5-8.37Q1138,577,1149.77,559.59l46.2-68.17q2.49-3.75,5-7.4c.57-.85.32-1.55-.65-1.73a31,31,0,0,0-5.44-.45h-66.25c-1,0-1.93,0-2.88-.06a2,2,0,0,1-2-2v0a16.85,16.85,0,0,1,0-2q.33-11.09,0-22.17a15.86,15.86,0,0,1,.09-2.58,2.13,2.13,0,0,1,1.86-1.93,14.6,14.6,0,0,1,2.28-.18h92.47c3.83,0,7.68.07,11.51.1,1.44,0,2.89-.1,4.32-.1a15.79,15.79,0,0,1,2.57.18,1.49,1.49,0,0,1,1.25,1.35,22.1,22.1,0,0,1,.08,2.3c0,8.06-.18,16.13-.12,24.18a12.93,12.93,0,0,1-2.28,7.57c-2,2.94-4,5.9-5.94,8.84q-32.46,47.93-64.83,95.85c-.58.87-1.25,1.66-1.92,2.49a1.14,1.14,0,0,0,.16,1.59,1,1,0,0,0,.46.22,4.09,4.09,0,0,0,.85.09l45.21-.11c7.11,0,14.21-.13,21.32-.16a22.1,22.1,0,0,1,4.3.15,2.89,2.89,0,0,1,2.5,2.72,18.57,18.57,0,0,1,.12,2.58c0,7.09.42,14.2,0,21.3a6.71,6.71,0,0,0,.49,2.8c.44,1.25,0,1.8-1.33,1.92a16.64,16.64,0,0,1-1.73,0Z"/><path class="cls-2" d="M1510.13,583.44v37.7a21.12,21.12,0,0,1-.08,2.87,2.58,2.58,0,0,1-2.37,2.5,11.15,11.15,0,0,1-2,.14q-13,.08-25.92.12a11.58,11.58,0,0,1-2.49-.21,1.87,1.87,0,0,1-1.65-2.06c0-.09,0-.19.06-.29,1.25-5.22.63-10.51.64-15.75q.14-48.23.1-96.44V461.94a48.49,48.49,0,0,0-.51-6.59c-.65-4.64.51-4.39,3.74-4.41,15.73,0,31.48-.16,47.21-.18,4.89,0,9.79.11,14.68.28a45.39,45.39,0,0,1,42.59,36.09,43.74,43.74,0,0,1-1.81,25.7,37.34,37.34,0,0,1-4.68,8.57c-7,9.4-16,15.89-27.47,18.72a37.41,37.41,0,0,1-10.28,1c-8.64-.33-17.28-.16-25.9-.2-3.49,0-3.81.37-3.81,3.75v38.87Zm16.38-74.53v-.16h13.82a9.49,9.49,0,0,0,5.16-1.6,15,15,0,0,0,6.45-8.51,7.28,7.28,0,0,0,.15-4.26c-1.37-4.82-4.21-8.34-9.16-9.85a24.5,24.5,0,0,0-6.25-1c-7.87-.33-15.74,0-23.61,0-2.59,0-3,.47-3,3.06v19.29a9,9,0,0,0,.14,1.71,1.4,1.4,0,0,0,1.11,1.17,4.32,4.32,0,0,0,1.13.14Z"/><path class="cls-3" d="M1183.91,656.77h53.53a22.88,22.88,0,0,1,2.87.09,2.5,2.5,0,0,1,2.34,2.5c.07,1,0,1.92,0,2.88,0,3.55-.13,7.09-.11,10.64a48.36,48.36,0,0,0,.55,8.24,17.57,17.57,0,0,1,.22,2.29,2.63,2.63,0,0,1-2.09,3.08,2.72,2.72,0,0,1-.49,0,11.27,11.27,0,0,1-2,.07l-33.71-.1h-17c-8.93,0-17.85.14-26.77.17H1131c-4.2,0-4.93-1.25-4.87-4.86.15-7.19.12-14.38.17-21.57a19.77,19.77,0,0,1,.18-2.56,1.27,1.27,0,0,1,1.25-1.08,8.65,8.65,0,0,1,1.44,0c4.59.38,9.2.21,13.81.2h40.86Z"/><path class="cls-4" d="M271.08,446.66c6.86-.61,14.53,1.06,22.22,2.87a62.7,62.7,0,0,1,18.35,7.31q2.25,1.28,4.62,2.33a3.86,3.86,0,0,0,4.09-.34c.64-.42,1.25-.85,1.93-1.25a63.29,63.29,0,0,1,26.63-9.43,79.51,79.51,0,0,1,47.59,9c4.67,2.5,9.1,5.34,13.6,8.1a7.12,7.12,0,0,1,1.16.86,1.93,1.93,0,0,1,.32,2.72.76.76,0,0,1-.08.11,6.9,6.9,0,0,1-.74.88c-4.53,4.71-8.6,9.83-12.85,14.77a16.72,16.72,0,0,1-1.56,1.7,2.83,2.83,0,0,1-3.68.43,7.49,7.49,0,0,1-1.17-.83,41.86,41.86,0,0,0-10.94-6.3,81.38,81.38,0,0,0-15.26-5.09A34.34,34.34,0,0,0,338,480.46a15.89,15.89,0,0,0-6.88,12.12,12.87,12.87,0,0,0,5.2,11.86A17.2,17.2,0,0,0,338.8,506a63,63,0,0,0,17.48,6.48c.94.17,1.9.3,2.85.4a47.46,47.46,0,0,1,9.31,1.81c5.21,1.65,10.49,3.06,15.77,4.45a68.4,68.4,0,0,1,12.4,4.6,48.56,48.56,0,0,1,14.6,10.6,34,34,0,0,1,9.16,22.12,87.44,87.44,0,0,1-.81,15.51,36.64,36.64,0,0,1-8.43,18.33,52.85,52.85,0,0,1-18.4,14,59.11,59.11,0,0,1-23.31,5.74,75,75,0,0,1-11.8-.31c-3.23-.36-6.52-.22-9.76-.67a39.64,39.64,0,0,1-5.08-1A101.79,101.79,0,0,1,321.19,600a5.58,5.58,0,0,0-6.24.32A71.14,71.14,0,0,1,298.61,608a78.39,78.39,0,0,1-20.3,3.87,132.62,132.62,0,0,1-16.68,0A75.19,75.19,0,0,1,234,604.52c-24.12-11.46-40.49-34.72-45.28-58.44a83.37,83.37,0,0,1-.82-26.93A78.18,78.18,0,0,1,197.76,489a90.12,90.12,0,0,1,22.92-26.33,67.22,67.22,0,0,1,18-10A91.8,91.8,0,0,1,271.08,446.66Zm31.22,47.18c0-1.52-.1-2.88,0-4.21a4.54,4.54,0,0,0-2.32-4.57,49.87,49.87,0,0,0-8.64-4.56,62.37,62.37,0,0,0-18.47-4.1,32.07,32.07,0,0,0-11.12,1c-2.5.67-5,1.25-7.5,1.92A40.81,40.81,0,0,0,241,485.39a53.4,53.4,0,0,0-12.86,12.68,51.52,51.52,0,0,0-9.07,41.74,50.91,50.91,0,0,0,9,21,55.28,55.28,0,0,0,25.32,18.73,57.84,57.84,0,0,0,14.89,3.12,23.73,23.73,0,0,0,8.27-.47,29.41,29.41,0,0,1,4.82-.81,28.79,28.79,0,0,0,7.28-1.64A64.59,64.59,0,0,0,303,572a11.43,11.43,0,0,0,2.2-1.85,93.82,93.82,0,0,0,6.5-7.3c1.91-2.56,2.58-2.62,5.19-.86l.23.16c6.25,4.56,12.65,9.05,18.89,13.74a33.19,33.19,0,0,0,10.79,5.25,55.25,55.25,0,0,0,29.29.13A25.26,25.26,0,0,0,387.57,575a14.11,14.11,0,0,0,4.6-10.8c0-1.54,0-3.07-.14-4.6a11.69,11.69,0,0,0-4.41-8.43,35.06,35.06,0,0,0-7.06-4.4,49.79,49.79,0,0,0-10-3.44c-8.42-1.94-16.85-3.74-25.26-5.75a99.2,99.2,0,0,1-16.79-5.12A43.83,43.83,0,0,1,310.79,519C304.92,511.57,301.64,503.31,302.3,493.84Z"/><path class="cls-5" d="M1783,429.26c0,7.21-1.62,11.87-4.47,16.09a28,28,0,0,1-20.43,12.48,20.41,20.41,0,0,1-9.65-1,27.94,27.94,0,0,1-16.58-14.68c-4.76-10.15-2.87-19.64,3.88-28.28a23.69,23.69,0,0,1,13-8.56,19.29,19.29,0,0,1,3.11-.55,38.41,38.41,0,0,1,10.6.28,21.68,21.68,0,0,1,9.17,4C1779,414.66,1782.73,422.11,1783,429.26Zm-27-20.7-1.08-.08a16,16,0,0,0-10.12,2.5,26.16,26.16,0,0,0-11.24,14.09,15.77,15.77,0,0,0-1,7.07c1.08,9.34,6.05,16,14.47,20a21.22,21.22,0,0,0,13.22,1.33c9-1.65,15.08-6.65,17.72-15.55a22.15,22.15,0,0,0,.7-11.64,24.74,24.74,0,0,0-10.55-14.9,18.53,18.53,0,0,0-6.9-2.77A23,23,0,0,0,1756,408.56Z"/><path class="cls-5" d="M1747.74,429.83V419.49a7.08,7.08,0,0,1,.08-1.13,2.5,2.5,0,0,1,2.29-2.2,1.82,1.82,0,0,1,.57,0,42.81,42.81,0,0,0,7.16.09,7.67,7.67,0,0,1,6.94,11.35,11.32,11.32,0,0,1-2.7,3.3c-1.25,1.17-1.4,1.71-.24,2.85,2.42,2.37,3.29,5.58,4.84,8.42a1.06,1.06,0,0,1-.48,1.42,1.15,1.15,0,0,1-.33.1,2.51,2.51,0,0,1-2.95-1.25,53.69,53.69,0,0,1-3-5.22,16.38,16.38,0,0,0-3.75-4.69,3.47,3.47,0,0,0-1.24-.76,2.49,2.49,0,0,0-3.36,1.09,2.46,2.46,0,0,0-.25,1.46c.28,2.5.14,5,.2,7.5a1.68,1.68,0,0,1-1.41,1.9,2,2,0,0,1-2.16-1.47,11.14,11.14,0,0,1-.17-2V429.92Zm8.74-2.28h3.17a2.4,2.4,0,0,0,2.33-1.83,4,4,0,0,0-2.1-5.24,4.33,4.33,0,0,0-.93-.28,15,15,0,0,0-4.87-.25,3.12,3.12,0,0,0-3.19,2.75,6,6,0,0,0-.1,2.57,2.41,2.41,0,0,0,2.5,2.26,24.29,24.29,0,0,0,3.19,0Z"/></svg>