<svg id="Layer_1" data-name="Layer 1" xmlns="http://www.w3.org/2000/svg" viewBox="0 0 1920 1080"><defs><style>.cls-1,.cls-2{fill:#081528;}.cls-1,.cls-3{fill-rule:evenodd;}.cls-3,.cls-4{fill:#fff;}</style></defs><path class="cls-1" d="M245.42,372a168,168,0,1,0,168,168A168,168,0,0,0,245.42,372Zm85.45,231.75a62.38,62.38,0,0,1-17.27,17,96.65,96.65,0,0,1-25.82,12.14A157.78,157.78,0,0,1,259,638.82a182.59,182.59,0,0,1-21.64,1.31c-3.1,0-6.23-.09-9.3-.25-16.8-.91-31.07-4.28-43.64-10.33-9.78-4.71-17.41-10.61-23.31-18a50.38,50.38,0,0,1-10.95-27.09,60.07,60.07,0,0,1,1.91-21.71A96.12,96.12,0,0,1,240.52,444.1a40.05,40.05,0,0,1,3.52-4.49A24.85,24.85,0,0,1,258,431.38a21.36,21.36,0,0,1,4-.4,20.56,20.56,0,0,1,6.4,1,15.4,15.4,0,0,1,7.13,4.87A21.9,21.9,0,0,1,280,446.8c0,.28.1.57.13.86a35.7,35.7,0,0,1,8.25,1.46c.71.21,1.36.43,2,.67,6.56,2.53,9.53,6.89,10.86,10.11a15.8,15.8,0,0,1,.85,2.6,96.08,96.08,0,0,1,36,102.5C341.36,578.63,338.91,591.67,330.87,603.75Z"/><path class="cls-2" d="M237.36,634.57q-4.53,0-9-.24c-16.06-.87-29.65-4.07-41.54-9.79-9-4.32-16-9.72-21.36-16.49a44.69,44.69,0,0,1-9.76-24.13c-1.27-14,2.54-27.07,11.3-38.83a89.46,89.46,0,0,1,17.81-17.63c4.31-3.28,8.79-6.44,13.13-9.5l4.2-3,9.22-6.52,9.52-6.73c.72-.52,1.43-1.13,2.18-1.78l.78-.67a5,5,0,0,1,5.37-.88,4.78,4.78,0,0,1,2.85,4.72v2.26c0,2.16,0,4.39,0,6.56.44,18.76,3.29,35.24,8.74,50.36a99.16,99.16,0,0,0,7.89,17,15.55,15.55,0,0,0,2.37,3.19,2.67,2.67,0,0,0,1.75,1,2.64,2.64,0,0,0,1.61-1.18,19.64,19.64,0,0,0,3.84-9.65,3.72,3.72,0,0,0-.84-2.74,138.22,138.22,0,0,1-16.55-31,115.23,115.23,0,0,1-6.71-27.65,152.51,152.51,0,0,1-.4-26.1,91,91,0,0,1,6.16-27.9,43.65,43.65,0,0,1,8.19-14A19.54,19.54,0,0,1,259,436.82a15.1,15.1,0,0,1,7.65.47,10,10,0,0,1,4.59,3.14,16.28,16.28,0,0,1,3.34,7.48,4.21,4.21,0,0,1-1.74,4.39,11.31,11.31,0,0,0-1.39,1.21l.49-.06h.13a36,36,0,0,1,14.74,1c.64.19,1.13.36,1.6.55a13.1,13.1,0,0,1,7.71,7.06,14.49,14.49,0,0,1-.46,11.28,17,17,0,0,1-6.68,7.45,34,34,0,0,1-13.44,4.71,78.58,78.58,0,0,1-21.52.12l-.67-.08.2.09a47.75,47.75,0,0,0,12.23,3.17,52.66,52.66,0,0,0,13.39.38l2-.21,5-.55-.61,3.31c-.15.83-.31,1.63-.47,2.4-.32,1.61-.63,3.12-.78,4.59-.43,4.24.69,8.36,3.41,12.58a46.54,46.54,0,0,0,7.94,9.11c2.94,2.68,6,5.35,8.91,7.94l4.08,3.61c5.08,4.52,10.93,10,15.68,16.7a50.18,50.18,0,0,1,8.4,17.62h0c2.86,12.07.67,23.65-6.48,34.41a56.61,56.61,0,0,1-15.78,15.49,90.68,90.68,0,0,1-24.35,11.44,153,153,0,0,1-27.75,5.71A178,178,0,0,1,237.36,634.57ZM227.09,503.11l-.72.62c-.8.7-1.64,1.42-2.57,2.09l-9.53,6.74q-4.61,3.24-9.2,6.51l-4.22,3c-4.3,3-8.75,6.17-13,9.39A84.11,84.11,0,0,0,171,548.08c-8,10.74-11.48,22.64-10.34,35.39a39.91,39.91,0,0,0,8.71,21.47C174.3,611.11,180.71,616,189,620c11.28,5.43,24.25,8.48,39.64,9.31a169.11,169.11,0,0,0,29.12-1,147.7,147.7,0,0,0,26.85-5.51,86.05,86.05,0,0,0,23-10.8,51.77,51.77,0,0,0,14.43-14.13c6.45-9.7,8.34-19.67,5.78-30.49h0a45.28,45.28,0,0,0-7.61-15.87c-4.46-6.26-10.05-11.53-14.92-15.87l-4.07-3.59c-2.95-2.6-6-5.29-9-8A51.4,51.4,0,0,1,283.53,514c-3.37-5.22-4.74-10.39-4.19-15.81.14-1.39.38-2.72.65-4.09l-.25,0a57.75,57.75,0,0,1-14.63-.4,52.84,52.84,0,0,1-13.48-3.51,15,15,0,0,1-4-2.67,4.15,4.15,0,0,1-1.15-5.27c.57-1.07,1.85-2.34,4.56-2l2.29.26,1.23.14a73.54,73.54,0,0,0,20.17-.09,29.06,29.06,0,0,0,11.51-4,11.92,11.92,0,0,0,4.81-5.25,9.47,9.47,0,0,0,.42-7.35,8.16,8.16,0,0,0-4.91-4.33c-.42-.16-.82-.29-1.23-.41a31.18,31.18,0,0,0-12.74-.82l-.12,0a15.07,15.07,0,0,1-3.13.13,4,4,0,0,1-3.53-5.61,7.37,7.37,0,0,1,1.48-2.36,19.53,19.53,0,0,1,2.27-2.1,11.07,11.07,0,0,0-2.19-4.85,5,5,0,0,0-2.32-1.6,10.12,10.12,0,0,0-5.14-.3,14.48,14.48,0,0,0-8.09,5,39.05,39.05,0,0,0-7.23,12.42,86.13,86.13,0,0,0-5.83,26.37,146.83,146.83,0,0,0,.38,25.26,110.53,110.53,0,0,0,6.42,26.46,133.71,133.71,0,0,0,16,29.87,8.64,8.64,0,0,1,1.71,6.26,24.51,24.51,0,0,1-4.86,12.06,6.69,6.69,0,0,1-10.85.63,20.42,20.42,0,0,1-3.13-4.18A103.24,103.24,0,0,1,236.15,564c-5.64-15.65-8.59-32.63-9-51.94-.05-2.25,0-4.51,0-6.71v-2.24ZM203.3,573.29a8.63,8.63,0,0,1-2.2-.29,5.84,5.84,0,0,1-4.53-5,26.37,26.37,0,0,1-.2-2.81c0-.21,0-.41,0-.57v-.16a51.55,51.55,0,0,1,5.16-21.65,86.36,86.36,0,0,1,14.83-22,9.89,9.89,0,0,1,2.47-1.92,3.17,3.17,0,0,1,3-.14,3.34,3.34,0,0,1,1.78,2.62,6.54,6.54,0,0,1-.19,2.63c-.53,1.82-1,3.42-1.6,4.89q-1,2.58-2,5.13c-1.25,3.21-2.55,6.53-3.62,9.82a90.61,90.61,0,0,0-4,20.41,15.92,15.92,0,0,1-.38,2.35A8.59,8.59,0,0,1,207.9,572,8.88,8.88,0,0,1,203.3,573.29Zm-2-8.85c0,.17,0,.37,0,.59,0,.67.06,1.51.16,2.3,0,.34.09.63.87.84a3.81,3.81,0,0,0,2.93-.45,3.58,3.58,0,0,0,1.66-2.23,10.78,10.78,0,0,0,.27-1.66,95.33,95.33,0,0,1,4.23-21.53c1.12-3.43,2.44-6.81,3.71-10.08.57-1.47,1.15-2.94,1.7-4.41A79.24,79.24,0,0,0,206,544.91,46.58,46.58,0,0,0,201.34,564.44Zm20-41.23,0,0ZM218.64,522v0Zm72.89,46.95a7.8,7.8,0,0,1-2-.3,22.92,22.92,0,0,1-7-3.43,76.06,76.06,0,0,1-11.22-9.81c-6.38-6.53-10.85-12.63-14.06-19.2a64.76,64.76,0,0,1-6.28-21.46,13.2,13.2,0,0,1,0-3.44,9.2,9.2,0,0,1,1.34-3.52,3.84,3.84,0,0,1,3.17-1.74,4,4,0,0,1,3.31,1.8,9.62,9.62,0,0,1,1,2l.12.32a74.42,74.42,0,0,0,8.86,16.31,67.23,67.23,0,0,0,17.81,16.78c1.62,1,3.21,2.16,4.74,3.24l1.27.88c3.59,2.49,5.18,6.1,5.13,11.69v.15a18.29,18.29,0,0,1-1.53,6.39h0C295,567.83,293.58,568.92,291.53,568.92Zm-35.71-55.37c0,.2,0,.42.06.64a59.82,59.82,0,0,0,5.81,19.8c3,6.07,7.14,11.76,13.14,17.9a71,71,0,0,0,10.46,9.17,18.09,18.09,0,0,0,5.49,2.73l.53.12a4.36,4.36,0,0,0,.25-.47h0a13.24,13.24,0,0,0,1.06-4.54c0-4.46-1.17-6.21-3-7.46l-1.29-.9c-1.5-1-3.05-2.13-4.59-3.14a72.23,72.23,0,0,1-19.13-18A77.65,77.65,0,0,1,255.82,513.55Z"/><path class="cls-3" d="M365.72,514.93l-1.18-5.09,17-3.92,1.17,5.09c.81,3.51-2.05,8.52-6.72,9.6S366.53,518.43,365.72,514.93Zm26.1-7-3.32-14.38-35.65,8.23,3.32,14.37c2.76,11.94,12.28,16.89,22.15,14.62S394.65,520.21,391.82,508Zm-32.34-36.37-2.76-4.31,6.6-4.23,2.76,4.31c1.32,2.06,1.36,4.43-.89,5.87S360.8,473.65,359.48,471.59Zm-2.37,10.64c4.15,2.83,9.55,2.48,14.09-.43,6-3.82,7.89-10.3,2.74-18.32L365,449.55l-30.8,19.75,5.64,8.8,9.54-6.12,1.08,1.7L345,486.16l6.58,10.27Zm-34.89-42.82,9.63-5.73-3.29,10.71Zm21-12.29-7.71-6.06L301,440.47l8.35,6.57,5.61-3.35,11.13,8.74-1.93,6.24,8.35,6.56ZM304.8,402.77l-10.23,8.5-3-13-11.55-3.91,6.22,25.09-4.75,14,9.91,3.35,4.74-14,20.18-16.16Zm-57.3-2.65-.73-9.56-24.32,1.85,2.78,36.48L249.55,427l-.73-9.55-13.9,1.06-.33-4.35,11.29-.86-.65-8.68-11.3.86-.33-4.35Zm-49.95,37.94,9.73-3.83.36-39.48-11.35,4.48.74,23.24L181.7,405l-11.34,4.47ZM159.62,447l-3.8-10.54,9.89,5.26Zm-8.08-23-7.41,6.41L156.65,468l8-7-2.22-6.14,10.7-9.27,5.76,3.08,8-7Zm-21.77,50.57-2.55,4.44-6.8-3.91,2.55-4.43c1.23-2.13,3.32-3.25,5.63-1.92S131,472.49,129.77,474.61Zm10.53-2.8c.61-5-2.19-9.61-6.87-12.3-6.13-3.53-12.77-2.26-17.52,6l-8.25,14.35,31.72,18.24,5.21-9.06-9.82-5.65,1-1.74,13.59-.92,6.07-10.57Zm-14,41.77c-1,5.63-6.06,9.49-11.26,8.56s-8.61-6.3-7.6-11.93a11,11,0,0,1,5.1-7.49l-8.09-5.48A19.88,19.88,0,0,0,98,508.8c-2,11.15,4.85,21.77,15.24,23.63s20.5-5.75,22.49-16.89a20.07,20.07,0,0,0-2.14-13.11l-9.44,2.36A11,11,0,0,1,126.34,513.58Z"/><path class="cls-3" d="M353.33,613.77l-4.24-3.3-8.39,10.77,16.15,12.6,8.4-10.77-4.23-3.3-4.8,6.15-1.92-1.5,3.9-5-3.85-3-3.9,5-1.92-1.5ZM338.72,636.7l-2.08,2-3-3.19,2.08-2a2.2,2.2,0,0,1,3.32-.13C340.07,634.5,339.71,635.76,338.72,636.7Zm6.09.19a7.06,7.06,0,0,0-1.71-7.7c-2.73-2.88-6.49-3.26-10.36.42L326,636l14.1,14.86,4.25-4L340,642.22l.81-.78,7.44,1.68,4.95-4.7Zm-21,20.06a5.36,5.36,0,1,1,1.64-7.41A5.37,5.37,0,0,1,323.84,657Zm-8.66-13.57a10.74,10.74,0,1,0,15.23,3A11,11,0,0,0,315.18,643.38Zm-11.74,8.33L298,653.84,297.9,667l-9-9.56-5.45,2.13,5.67,19.78,5.44-2.13-3-10.35,7.09,8.74,4.54-1.78-.74-11.23,4.83,9.63,5.45-2.14ZM260.38,681a2.47,2.47,0,0,1-2.88-2,2.34,2.34,0,0,1,.72-2.11l4.32,3.15A3.77,3.77,0,0,1,260.38,681Zm-.69-8.82c-1.21-.83-1.8-1.38-1.89-2.16s.48-1.54,1.72-1.69a1.84,1.84,0,0,1,2.2,1.11C262,670.55,261.36,671.28,259.69,672.19ZM274,673.43l-6.3.78-1.89,2.29-2.63-1.86c2.29-1.38,4.74-2.67,4.33-6s-3.94-5.22-8.44-4.67-7.34,3.55-7.09,6.31a5,5,0,0,0,2.62,4,5.33,5.33,0,0,0-2.94,5.34c.55,4.42,4.59,6.31,8.83,5.79a10.25,10.25,0,0,0,5.78-2.62l1.66,1.21,7.23-.9-5.69-4Zm-43.3-1.93c-2.12-.54-2.59-.9-2.51-1.57s.63-.9,2.54-.67c4,.5,5.75,2.19,5.75,2.19l2.83-4.08c-2.45-2.76-7.38-3.37-7.38-3.37-6-.74-9.15,2-9.59,5.52s1.65,6.07,7.08,7.63c2.61.75,3.64,1.06,3.53,1.94-.13,1.12-1.94,1.08-3.54.82a12,12,0,0,1-6.27-3.14l-2.72,4.36a13.71,13.71,0,0,0,8.34,4.1c6.53.81,9.58-2,10.07-6C239.47,674.12,234.64,672.51,230.71,671.5Zm-24.62,3.7a5.36,5.36,0,1,1,6.64-3.67A5.38,5.38,0,0,1,206.09,675.2Zm4.44-15.47a10.74,10.74,0,1,0,7.82,13.41A11,11,0,0,0,210.53,659.73Zm-13.81-4-5.22-2.65-9.87,8.66,1.18-13.08L177.59,646l-11,17.37,5.22,2.65,5.73-9.12L175.7,668l4.35,2.21,7.9-8-4,10,5.22,2.65Zm-40-6.39a5.37,5.37,0,1,1,7.53-.93A5.38,5.38,0,0,1,156.72,649.34Zm9.91-12.68A10.74,10.74,0,1,0,168.87,652,11,11,0,0,0,166.63,636.66Zm-10.94-9.09-3.82-4.44-12.42,4.26,6.06-11.65-3.82-4.43-16.8,11.89,3.82,4.43,8.77-6.26-5.9,9.59,3.18,3.69,10.36-4.41-7.5,7.74,3.83,4.43Z"/><path class="cls-4" d="M128.32,608.23a2.78,2.78,0,0,1-2.44-1.44,151.2,151.2,0,0,1-18.06-57.37,2.79,2.79,0,1,1,5.54-.58,145.83,145.83,0,0,0,17.39,55.26,2.77,2.77,0,0,1-1.09,3.78A2.74,2.74,0,0,1,128.32,608.23Z"/><path class="cls-4" d="M362.52,608.23a2.75,2.75,0,0,1-1.35-.35,2.79,2.79,0,0,1-1.09-3.78,145.84,145.84,0,0,0,17.4-55.26,2.78,2.78,0,1,1,5.53.58A151.37,151.37,0,0,1,365,606.79,2.79,2.79,0,0,1,362.52,608.23Z"/><path class="cls-1" d="M402.65,386.71h-3.73l-5.11,12.56-5.12-12.56H385l-2.79,19.54h3.95l1.63-12.79,5.12,12.79h1.86l5.11-12.79,1.63,12.79h3.95Zm-36.28,0v3.72h5.11v15.82h3.72V390.43h5.12v-3.72Z"/><path class="cls-2" d="M533.36,570.28c10.16,0,17.79-5.32,22.41-10.17,1.85-1.85,3.93-3,5.78-3s3.7,1.16,5.55,3.47l18.49,26.35a5.45,5.45,0,0,1-.7,7.62c-15.71,14.56-32.58,22.42-55,22.42-46.45,0-84.36-40.44-84.36-86.9s37.91-86.9,84.36-86.9c22.42,0,39.06,6.24,55,20.57a5.76,5.76,0,0,1,.7,7.86l-19.42,25.88a6.07,6.07,0,0,1-5.08,3A8,8,0,0,1,556,498.4c-4.85-3.93-12.71-8.78-22.64-8.78-16.41,0-33.28,16.87-33.28,40.44S517,570.28,533.36,570.28Z"/><path class="cls-2" d="M605.92,455.18c0-3.7,2.31-6,6-6h66.56c68,0,76,83.67,24.27,103.54L736,601.48c3.93,5.77,1.85,9.47-4.86,9.47H688a6.07,6.07,0,0,1-5.32-3.23L659.31,560.8v44.14c0,3.7-2.31,6-6,6H611.93c-3.7,0-6-2.31-6-6Zm53.39,64h6.93c21.73-.23,22.42-31.43,0-31.2h-6.93Z"/><path class="cls-2" d="M750.36,602.86,808.14,453.1a5.77,5.77,0,0,1,5.55-3.93h29.58a5.78,5.78,0,0,1,5.55,3.93l57.77,149.76c2.08,4.86-.23,8.09-5.54,8.09H860.83a6,6,0,0,1-5.77-4.39l-6-20.34H807.91l-6,20.34a6,6,0,0,1-5.78,4.39H755.91C750.59,611,748.28,607.72,750.36,602.86Zm86.21-60.32-8.09-27.73-8.09,27.73Z"/><path class="cls-2" d="M897.35,449.17H938a6.17,6.17,0,0,1,5.77,4.16l25.89,85.51,25.65-85.51a6.19,6.19,0,0,1,5.78-4.16h40.68c5.08,0,7.39,3.24,5.54,8.09L992.8,607a6,6,0,0,1-5.55,3.93H951.89a6,6,0,0,1-5.54-3.93L891.8,457.26C890,452.41,892.27,449.17,897.35,449.17Z"/><path class="cls-2" d="M1064.21,604.94V455.18c0-3.7,2.31-6,6-6h95.68c3.7,0,6,2.31,6,6v31.66c0,3.7-2.31,6-6,6h-48.3V508.8H1158c3.7,0,6,2.31,6,6v31.66c0,3.7-2.31,6-6,6H1117.6v16.41l48.07-2.31c3.7,0,6.24,2.31,6.24,6v32.35c0,3.7-2.31,6-6,6h-95.68C1066.52,611,1064.21,608.64,1064.21,604.94Z"/><path class="cls-2" d="M1253.26,449.17h42.06a6,6,0,0,1,5.55,3.7l20.1,49.46,19.88-49.46a6.47,6.47,0,0,1,5.78-3.7h41.83c5.78,0,7.86,3.47,5.31,8.78l-46.22,92.45v54.54c0,3.7-2.31,6-6,6h-41.37c-3.69,0-6-2.31-6-6V550.4L1247.94,458C1245.4,452.64,1247.48,449.17,1253.26,449.17Z"/><path class="cls-2" d="M1380.37,602.86l57.78-149.76a5.76,5.76,0,0,1,5.54-3.93h29.59a5.76,5.76,0,0,1,5.54,3.93l57.78,149.76c2.08,4.86-.23,8.09-5.54,8.09h-40.22a6,6,0,0,1-5.78-4.39l-6-20.34h-41.13l-6,20.34a6,6,0,0,1-5.78,4.39h-40.21C1380.6,611,1378.29,607.72,1380.37,602.86Zm86.2-60.32-8.08-27.73-8.09,27.73Z"/><path class="cls-2" d="M1553.7,455.18c0-3.7,2.31-6,6-6h66.56c68,0,76,83.67,24.27,103.54l33.28,48.77c3.93,5.77,1.85,9.47-4.85,9.47h-43.22a6.07,6.07,0,0,1-5.32-3.23l-23.34-46.92v44.14c0,3.7-2.31,6-6,6h-41.37c-3.7,0-6-2.31-6-6Zm53.39,64H1614c21.73-.23,22.42-31.43,0-31.2h-6.93Z"/><path class="cls-2" d="M1764.93,611h-54.77c-3.7,0-6-2.31-6-6V455.18c0-3.7,2.31-6,6-6h54.77c45.76.46,77.66,34.9,77.66,80.89S1810.69,610.49,1764.93,611Zm-7.39-38.83c40.67-2.08,40.67-82,0-84.12Z"/></svg>