<svg id="Layer_1" data-name="Layer 1" xmlns="http://www.w3.org/2000/svg" viewBox="0 0 1920 1080"><defs><style>.cls-1{fill:#10192c;}.cls-2{fill:#214a67;}.cls-3{fill:#081528;}</style></defs><g id="Layer_1-2" data-name="Layer 1"><path class="cls-1" d="M200.64,453.91a4.26,4.26,0,0,1,.83-1.29q23.44-17.5,47-34.95a31.12,31.12,0,0,1,7.56-4.16,45.1,45.1,0,0,1,29.24-1.17,37.74,37.74,0,0,1,10.26,4.76c2.11,1.38,4.13,2.93,6.17,4.43,11,8.2,22.11,16.27,33.08,24.52,5.78,4.34,11.72,8.44,17.38,12.9,5.09,4,10.47,7.69,15.72,11.53,1,.74,2,1.51,3,2.29.71.56,1.36,1.17,2.08,1.73q7.85,5.78,15.73,11.51l.45.31c5.49,4.11,11,8.2,16.41,12.35,2.9,2.16,5.86,4.27,8.77,6.37a57.34,57.34,0,0,1,10.49,9.37,38.59,38.59,0,0,1,8.53,16.25,43.84,43.84,0,0,1,.93,5.34c.84,7.37.63,14.79.63,22.2v30.35q0,20.33-.08,40.65a41.9,41.9,0,0,1-2,13.88,20.42,20.42,0,0,1-1,1.91,8.61,8.61,0,0,1-2.07-.52c-1.76-.92-3.52-1.92-5.15-3-5.86-3.6-11.45-7.48-17.24-11.15-6.83-4.33-13.64-8.73-20.1-13.62.1-1.26.26-2.52.26-3.78V547.88c0-.9,0-1.8-.07-2.71a2.47,2.47,0,0,0-.94-1.87c-1.57-1.17-3.13-2.44-4.68-3.62L279.1,463.38c-1.75-1.3-3.52-2.55-5.28-3.81a4.15,4.15,0,0,0-2.54-.8,2.78,2.78,0,0,0-1.84-2.44,106.82,106.82,0,0,0-11.2-5.41c-4.53-1.67-9.05-3.66-14.06-3.72a9.94,9.94,0,0,1-1.56-.42,13.45,13.45,0,0,0-2.66-.39c-6.3.06-12.58-.5-18.85.93a73.67,73.67,0,0,0-16.41,5.17A10.77,10.77,0,0,1,200.64,453.91Z"/><path class="cls-2" d="M200.64,453.91a10.64,10.64,0,0,0,4-1.47,74.52,74.52,0,0,1,16.41-5.17c6.28-1.43,12.56-.87,18.85-.93a14.84,14.84,0,0,1,2.66.39,8.57,8.57,0,0,0,1.56.42c5,.06,9.51,2.05,14.07,3.72a109.76,109.76,0,0,1,11.19,5.41,2.78,2.78,0,0,1,1.85,2.44c-1.25,1-2.44,2.15-3.73,3.11l-104.93,78c-1.17.86-2.34,1.73-3.46,2.61a4.35,4.35,0,0,0-1.86,3.72v64c0,2-.08,4-.12,6-.1.34-.09.81-.31,1-1.29,1-2.59,2-4,2.84-6.2,4-12.43,8-18.64,12.06-5.75,3.73-11.48,7.5-17.26,11.21a37.16,37.16,0,0,1-3.86,1.88c-2.15-3.51-2.58-7.44-3-11.39-.08-.9,0-1.8,0-2.71V541.08a40.51,40.51,0,0,1,6.76-22.46,41.56,41.56,0,0,1,10.44-10.88q9.8-7.23,19.57-14.52,20.63-15.36,41.23-30.77C192.19,459.41,196.36,456.59,200.64,453.91Z"/><path class="cls-2" d="M387.29,616.69c6.46,4.89,13.27,9.3,20.09,13.62,5.79,3.67,11.42,7.55,17.25,11.15,1.67,1,3.38,2,5.14,3a9.3,9.3,0,0,0,2.08.51c-1.53,5.57-4.88,10-8.75,14.07a45.27,45.27,0,0,1-4.89,4.28c-4.32,3.4-6,4.23-11.14,5.21-12.55,2.35-24.47.92-35.44-6-1.37-.88-2.78-1.7-4.14-2.59L276.2,600.34a22.46,22.46,0,0,0-2.75-1.71,6.81,6.81,0,0,0-2.1-.27c-.16-.52-.13-1.17-.47-1.51a32.1,32.1,0,0,0-6-4.53c-3.25-1.58-6.41-3.34-9.69-4.81a65,65,0,0,0-6.64-2.28c-2.58-.85-5.33-.87-7.93-1.48a28.41,28.41,0,0,0-6.43-.71H223.32a12.89,12.89,0,0,0-3.22.25c-3.82,1.05-7.81,1.34-11.57,2.68a8.41,8.41,0,0,1-2.65,0c.75-1.35,2.17-1.88,3.35-2.65q19.46-12.83,39-25.58a68.53,68.53,0,0,1,8-4.5,26.2,26.2,0,0,1,7.2-2.35c11.44-1.84,22.34-.76,32.14,6.1.29.21.6.41.9.6l24.95,16.3,59.42,38.83C382.87,614.15,385.09,615.39,387.29,616.69Z"/><path class="cls-1" d="M205.83,586a7.86,7.86,0,0,0,2.65,0c3.76-1.34,7.75-1.63,11.57-2.67a12.9,12.9,0,0,1,3.22-.26h10.84a28.33,28.33,0,0,1,6.42.71c2.6.61,5.36.64,7.94,1.48a64.88,64.88,0,0,1,6.63,2.29c3.28,1.46,6.45,3.22,9.69,4.8a32.21,32.21,0,0,1,6,4.53c.34.28.32,1,.47,1.51a20,20,0,0,1-1.68,1.33q-47.18,30.75-94.35,61.48a50.21,50.21,0,0,1-36.73,7.52,27.63,27.63,0,0,1-11.34-4.92,41.58,41.58,0,0,1-13-15.6,19.65,19.65,0,0,1-1-3.08,38.46,38.46,0,0,0,3.87-1.89c5.78-3.71,11.51-7.48,17.26-11.21,6.21-4,12.43-8,18.63-12.06,1.36-.88,2.66-1.85,4-2.84.23-.17.21-.64.32-1a8.5,8.5,0,0,0,2-.59c1.4-.78,2.75-1.7,4.1-2.57q18.81-12.06,37.57-24.14c.9-.58,1.89-1,2.84-1.5,1.05.11,1.92,0,2.08-1.34Z"/><path class="cls-2" d="M203.75,587.33a2.17,2.17,0,0,1,2.08-1.34C205.67,587.28,204.8,587.44,203.75,587.33Z"/></g><path class="cls-3" d="M636.59,479.56h-61v43.87h56.11V553.2H575.63v67.36H539.25V449.79h97.34Z"/><path class="cls-3" d="M724.1,449.79V620.56H687.72V449.79Z"/><path class="cls-3" d="M887.24,620.56H786.15V449.79h97.13v29.77H822.53V519.8H879v29.65H822.53v41.34h64.71Z"/><path class="cls-3" d="M1038,620.56H937.82V449.79h36.39v141H1038Z"/><path class="cls-3" d="M1083.88,620.56V449.79h59q90.95,0,91,83.24,0,39.57-25.47,63.55t-65.7,24Zm36.38-141V590.79h19.84q25.9,0,40.68-15.43t14.77-41.78q0-25.47-15.43-39.75T1140,479.56Z"/><path class="cls-3" d="M1372.67,583.41q17.08,12.78,39.91,12.79,14.45,0,22.93-6.4t8.49-18.19q0-12.12-10.09-18.52t-28.27-6.39h-15.22V519.24h14q34.39,0,34.4-23.15,0-21.82-26.35-21.83-17.21,0-33.4,11.25V456.07q17.63-9.15,41.56-9.15,24.25,0,39.36,11.19t15.1,31q0,33.51-34,42.11v.55q17.86,2,28.56,13.07a37.39,37.39,0,0,1,10.69,27q0,24.36-17.8,38t-47.46,13.67q-26.36,0-42.45-8.71Z"/><path class="cls-3" d="M1636.24,481.65a56.43,56.43,0,0,0-28.33-7.39q-19.74,0-31.58,15.49t-11.85,40.08h.66q12.22-18.75,36.27-18.74,21.49,0,34.12,14.71t12.62,38.31q0,25.8-16.43,42.61t-42,16.82q-29.33,0-44.92-21.17t-15.6-58q0-43.32,20.23-70.39t56.28-27.07q19.39,0,30.53,4.63Zm-70.55,82.79q0,13.23,6.61,22.49t17.42,9.27q10.92,0,17.2-8.49t6.28-21.28q0-28.77-23.7-28.77-10.7,0-17.25,7.6T1565.69,564.44Z"/><path class="cls-3" d="M1687.49,538q0-44.33,16.31-67.69T1751,446.92q58.86,0,58.87,87.1,0,42.88-16,66.2t-46.19,23.32Q1687.49,623.54,1687.49,538Zm36-.89q0,59.1,25.24,59.1,24.81,0,24.81-60.86,0-61.08-24.15-61.08Q1723.54,474.26,1723.54,537.1Z"/></svg>