<svg id="Layer_1" data-name="Layer 1" xmlns="http://www.w3.org/2000/svg" viewBox="0 0 1920 1080"><defs><style>.cls-1{fill:#081528;}.cls-2{fill:none;stroke:#081528;stroke-miterlimit:10;}</style></defs><path class="cls-1" d="M226,504.91c-.51,2,0,97.74,0,97.74s-.15,56.41,57.49,53.9c0,0,60.15,4.3,63-52.27S348,504.91,348,504.91H314.39V585.3c0,13.29-6.67,26.11-18.33,32.5-8,4.39-17.7,5.49-27.14-4.11-6.21-6.32-9.28-15.08-9.28-23.94V504.91Z"/><path class="cls-1" d="M943.85,656.64c.51-2,0-97.75,0-97.75s.15-56.41-57.49-53.9c0,0-60.14-4.3-63,52.27s-1.55,99.38-1.55,99.38h33.65v-80.4c0-13.29,6.67-26.11,18.33-32.5,8-4.39,17.7-5.49,27.14,4.11,6.21,6.32,9.28,15.08,9.28,23.94v84.85Z"/><path class="cls-1" d="M192.89,461.64V591.17c0,43-25.9,66-66.5,66-39.79,0-62.49-23-65.43-59H94.61C97,618.94,107.43,627,126.93,627c22.7,0,32.31-14.69,32.31-35.26V462.51"/><path class="cls-1" d="M385.41,461.64h33.65v33.65H385.41Zm0,43.27h33.65V654.46H385.41Z"/><path class="cls-1" d="M585.17,555.38H551.25c-3.47-16.29-16.82-23-30.45-23-23.77,0-34.45,16.83-34.45,47.27S497,627,520.8,627c13.63,0,27-6.68,30.45-23h33.92c-4.54,31.51-27.51,53.15-64.37,53.15-48.34,0-68.1-33.39-68.1-77.46s19.76-77.45,68.1-77.45C557.66,502.23,580.63,523.87,585.17,555.38Z"/><path class="cls-1" d="M709.59,610.13h32.59c-8,29.11-28.58,47-63,47-48.34,0-67.83-33.65-67.83-77.46,0-44.06,19.49-77.45,67.83-77.45,46.47,0,65.7,31.25,65.7,67.31v24.3H645.77c4.27,27,19,33.12,33.38,33.12C688.5,627,704.52,627,709.59,610.13Zm2.14-44.6c-2.67-24-16-33.12-32.85-33.12S648.7,541.49,646,565.53Z"/><path class="cls-1" d="M1052.19,596.51c3.47,21.37,17.9,30.45,41.93,30.45,15.49,0,36.59-5.34,36.59-23.5,0-47.28-108.17-18.43-108.17-88.94,0-38.72,34.19-55.55,67.58-55.55,36.85,0,69.16,17.09,70.5,55H1126.7c-1.33-18.7-21.1-24.84-36.58-24.84-16.3,0-33.92,5.61-33.92,22.16,0,44.6,107.9,13.89,107.9,89.2,0,39.8-37.66,56.63-70,56.63-39.79,0-71.31-14.16-75-60.63Z"/><path class="cls-1" d="M1316,556.72v97.74h-33.64V559.12c0-5.34-2.41-26.71-27.51-26.71-24.31,0-27.25,24.31-27.25,26.71v95.34H1194V461.64h33.65v54.48h3.21c10.15-13.35,26.71-13.89,37.39-13.89C1294.94,502.23,1316,522,1316,556.72Z"/><path class="cls-1" d="M1434.86,643.25c-6.68,13.08-31,13.89-37.66,13.89-27.24,0-50.74-6.95-50.74-45.68,0-40.86,30.44-45.93,70-48.87,19.5-1.33,21.63-2.67,21.63-12.81,0-12-8.27-18.43-26.7-18.43-11.22,0-23.51,3.2-25.11,21.9h-32.58c.53-39.26,27-51,59.29-51,35,0,58.76,17.1,58.76,53.42v98.81h-28.31l-5.08-11.21Zm3.2-54.22L1401.48,592c-11.22.8-21.37,5.88-21.37,19.23,0,13.89,12.55,15.76,24.57,15.76,17.36,0,33.38-10.15,33.38-27.24Z"/><path class="cls-1" d="M1637.28,504.91l-46.47,56.88,48.87,92.67h-37.92l-34.19-64.63-26.44,32.32v32.31h-33.65V461.64h33.65V569.27l52.62-64.36Z"/><path class="cls-1" d="M1750.77,610.13h32.58c-8,29.11-28.58,47-63,47-48.34,0-67.84-33.65-67.84-77.46,0-44.06,19.5-77.45,67.84-77.45,46.47,0,65.7,31.25,65.7,67.31v24.3h-99.09c4.28,27,19,33.12,33.39,33.12C1729.66,627,1745.69,627,1750.77,610.13Zm2.13-44.6c-2.67-24-16-33.12-32.85-33.12s-30.18,9.08-32.85,33.12Z"/><circle class="cls-2" cx="1820.87" cy="461.03" r="38.17"/><path class="cls-1" d="M1804.9,479.48V440.35h13q8.11,0,11.27,1.13,6.74,2.36,6.74,8.3a10.1,10.1,0,0,1-2.34,6.81q-2.34,2.73-7.82,5.08l16,17.81h-8.64l-14.67-16.29H1812v16.29Zm7.13-20.8h3.77q5.76,0,9.13-2.14a6.54,6.54,0,0,0,3.37-5.78q0-3.39-2.54-4.64c-1.69-.84-4.8-1.25-9.34-1.25H1812Z"/></svg>