<svg id="Layer_1" data-name="Layer 1" xmlns="http://www.w3.org/2000/svg" viewBox="0 0 1920 700"><defs><style>.cls-1{fill:#d9d9d9;}</style></defs><path class="cls-1" d="M352.46,422.83c0-67.9,1.49-135.83-.72-203.65-1-27.77,6.79-34.16,34.28-34.09,384.28,1,768.56.61,1152.85,1,9.18,0,23.83-7.3,27.27,5.87,3.16,12.11-9.42,19.75-19.31,25.52-26.45,15.45-55.8,17.38-85.52,17.37q-506.55,0-1013.06-.48c-24.28-.06-34,3.27-33.15,31.63,2.54,80.71.22,161.55,1.32,242.32.3,22.27-7.43,30-29.22,30.1-39.76.18-69.13-14-88.26-50.52C266,425.1,231.29,363.21,191,301.85v57.76c0,53.22-.49,106.45.28,159.66.22,14.9-4.18,21-19.31,19.07a85.59,85.59,0,0,0-22.78-.1c-17.83,2.55-22.34-4.63-22.21-22.1q1.22-154,0-307.94c-.13-17.35,5.85-22.77,22.42-24.36,42.59-4.09,73.18,10.34,93.36,49.51,33,64.15,68.07,127.2,102.24,190.7Z"/><path class="cls-1" d="M1355,538c-14.9,0-26.47-1.45-37.53.29-27.3,4.31-43.79-3.41-43.09-33.9,0-1.84-.18-4.26-1.29-5.47-22.54-24.46-51.48-5.31-76.87-11-14.14-3.15-16.34,6.73-19,18.09-2.48,10.45,2.06,27.05-9.6,30.31-15,4.21-32,1.68-48.12,1.3-9.21-.22-6.27-6.91-5.17-12.3,16.21-80.07,35.93-159,70.83-233.49,5-10.63,11.13-15.65,23.84-15.13,78.13,3.23,57.74-16.27,88,59.18C1322.66,400.25,1340.29,467.22,1355,538ZM1226,347.66c-13.16,14.69-16.1,32.67-21.64,48.87-17.9,52.52-16.56,53.44,39.39,49.69,12.62-.83,17.67-3.68,13.22-16.66-9.25-26.84-15.46-54.82-31-81.87Z"/><path class="cls-1" d="M856.65,330.34c-27.74-6.08-55.49-11.91-84.19-9.73-14.47,1.09-26.53,4.8-28.7,21.57-2.07,15.93,9,21.14,21.27,25.63,23.18,8.39,46.65,16.21,69.19,26,31.52,13.7,44.46,39.14,41.22,76.57C872.26,507,857,527.07,823.82,536.52c-30.63,8.64-62,9.56-93.33,5.08-45-6.44-44.94-7-41.37-57.14,28.53,5.2,57,11.21,86,9.87,14.79-.68,29.65-1.39,32.56-20.18s-11.43-24.23-25-29.29c-21.32-8-43.46-14.06-64.15-23.36-34-15.27-44.61-44.11-36.36-92,5.59-32.58,22.44-41.65,59.37-51.83,26.62-7.34,51.17-7.53,76.87-3.67C862.48,280.62,863.38,282.39,856.65,330.34Z"/><path class="cls-1" d="M463.27,378c0-26.58.76-53.19-.28-79.75-.61-15.52,3.37-21.72,20.35-21.37q74.12,1.5,148.24-.33c18.25-.47,18.17,9.85,16.52,21.51-1.54,10.88,9,28.82-15.17,28.45-27.55-.43-55.19,1.34-82.63-.31-25.3-1.52-18.1,15.79-18.26,28.26-.22,12.92-6.17,30,18.7,28.3,21.75-1.54,43.75.67,65.53-.59,22.47-1.3,14.8,14.42,15.14,24.9.35,11.16,5.48,25.94-16.28,23.85-17-1.64-34.37-1.92-51.22.2-11.35,1.4-31.61-11-31.71,14.67-.12,21.82,2.39,43,30.2,47,21.79,3.11,43.62,1.6,65.4-.81,9-1,21.31-5.7,20.63,9.71-.55,12.49,8.78,30.55-12.49,35.47-45.37,10.5-90.49,10.89-134.07-7.93-27.27-11.79-35-36.75-36.65-63-1.84-29.31-.42-58.8-.42-88.23Z"/><path class="cls-1" d="M1599.7,378.6c0-27.53.69-55.08-.27-82.57-.52-15,4.7-19.64,19.56-19.38,49.38.85,98.81,1.38,148.17.14,20-.5,18.65,10.78,17.73,23.42-.87,11.71,6.45,27.86-17.19,26.56-26.51-1.51-53.26,1-79.76-.82-21.45-1.44-21.13,11.27-19.12,25,1.81,12.34-10.35,33.17,17.88,31.71,19.89-1,40.07,1.55,59.78-.64,23.71-2.64,22.33,10.64,22.94,27.1.62,17.08-3.49,24.12-21.85,22a210.08,210.08,0,0,0-48.34,0c-10.69,1.27-29.62-10-30.06,13.1-.39,21.14.78,42.5,28.35,48.62,22.28,5,44.81-2.73,67.36,3.36,8.87,2.39,20.38-5.22,20.94,11.77.43,13.11-1,26.23-15.44,29.48-47.31,10.64-94.59,11.61-138.62-12.23-23.34-12.65-28.58-37.34-30.06-61.22-1.77-28.35-.43-56.88-.43-85.34Z"/><path class="cls-1" d="M1382,397.43c0-33.21.55-66.43-.25-99.6-.35-14.87,2.19-21.86,19.92-21.33,48.39,1.47,96.88,1.67,145.26.22,19.37-.57,22.21,7.31,21,23.34-1.07,13.94,3.62,29-20.48,26.83-24.5-2.16-49.47,1.16-74-.85-20.83-1.71-24.29,7.78-22.23,24.67,1.72,14.16-7.87,34.34,21,32,22.64-1.81,45.58.5,68.33-.59,26.31-1.25,14.67,18,17,29.55,2.82,14.26-2.26,20.56-18.16,19.36-19.83-1.5-40,1.23-59.74-1-24.81-2.78-30.75,7.39-28.77,30.14,1.92,21.65-.66,43.66.6,65.41,1,16.33-6,18.93-20.17,17.8-35.45-2.81-48.77-16-49.18-52.1C1381.75,460,1382,428.74,1382,397.43Z"/><path class="cls-1" d="M1085.43,326.21c-92-17.82-105.7-6.51-105.56,85.24,0,4.75-.12,9.49,0,14.24,1.62,62.07,9.87,70.27,72.58,67.64,11.78-.5,24.82,8.54,36-5.31-8.07,53.47-7.55,53.2-55.64,55.65-5.69.28-11.41.11-17.1,0-72.26-1.93-98.43-26.45-107.34-97.93-3.94-31.49-3.44-62.71,2.32-93.52,6.1-32.67,15.89-60.08,56.15-71,35-9.51,68-11.86,102.35-5.15C1089.57,280,1089.91,283,1085.43,326.21Z"/><path class="cls-1" d="M1633.57,235.54c35.49-29.08,54.38-63.42,62.77-105.44,9.44-47.21,42.08-65.55,88.06-52.74,9.23,2.57,9.32,7.34,8,14.56-4,22.33-5.65,45.31-12.06,66.91-12.41,41.81-40.36,67.89-85.21,72.4C1674.67,233.27,1654.07,234.14,1633.57,235.54Z"/></svg>