<svg id="Layer_1" data-name="Layer 1" xmlns="http://www.w3.org/2000/svg" viewBox="0 0 1920 1080"><defs><style>.cls-1{fill:#21211f;}.cls-2{fill:#e32518;}.cls-3{fill:#fdfdfd;}</style></defs><path class="cls-1" d="M327.73,658.49c0-70.66,1.55-141.36-.75-211.94-1-28.9,7.06-35.55,35.67-35.48,399.93,1,799.86.64,1199.79,1.08,9.56,0,24.81-7.6,28.39,6.11,3.28,12.6-9.81,20.55-20.1,26.55-27.53,16.08-58.07,18.09-89,18.08q-527.16,0-1054.31-.5c-25.27-.06-35.43,3.4-34.5,32.92,2.64,84,.23,168.13,1.37,252.19.31,23.17-7.73,31.21-30.41,31.32-41.38.19-71.94-14.57-91.85-52.57-34.26-65.39-70.41-129.8-112.3-193.66q0,30.06,0,60.11c0,55.39-.51,110.78.29,166.16.23,15.51-4.35,21.84-20.09,19.85a89.64,89.64,0,0,0-23.71-.11c-18.55,2.66-23.25-4.81-23.11-23q1.26-160.23,0-320.47c-.14-18.06,6.09-23.7,23.33-25.36,44.32-4.25,76.16,10.76,97.16,51.53C248,528.06,284.44,593.68,320,659.76Z"/><path class="cls-1" d="M1371.06,778.4c-15.51,0-27.55-1.51-39.06.3-28.41,4.48-45.57-3.55-44.85-35.28,0-1.92-.18-4.44-1.34-5.7-23.46-25.45-53.57-5.52-80-11.42-14.71-3.28-17,7-19.82,18.82-2.59,10.88,2.14,28.16-10,31.55-15.6,4.38-33.3,1.75-50.07,1.35-9.59-.23-6.53-7.19-5.39-12.8,16.88-83.33,37.4-165.52,73.72-243,5.19-11.06,11.58-16.28,24.81-15.74,81.31,3.36,60.09-16.94,91.56,61.59C1337.43,635,1355.78,704.69,1371.06,778.4ZM1236.77,580.29c-13.69,15.29-16.75,34-22.52,50.86-18.63,54.66-17.23,55.62,41,51.72,13.13-.87,18.39-3.83,13.75-17.34C1259.46,637.57,1253,608.45,1236.77,580.29Z"/><path class="cls-1" d="M852.45,562.24c-28.87-6.33-57.75-12.4-87.62-10.13-15.06,1.14-27.61,5-29.87,22.45-2.15,16.58,9.34,22,22.14,26.67,24.12,8.74,48.54,16.87,72,27.08C861.91,642.57,875.37,669.05,872,708c-3.31,38.1-19.23,59-53.72,68.83-31.88,9-64.58,9.95-97.13,5.29-46.85-6.7-46.77-7.26-43.06-59.47,29.7,5.42,59.29,11.67,89.52,10.28,15.39-.71,30.85-1.45,33.88-21s-11.89-25.22-26-30.49c-22.19-8.3-45.23-14.63-66.77-24.31-35.36-15.89-46.42-45.9-37.84-95.78,5.82-33.9,23.36-43.34,61.79-53.94,27.7-7.64,53.25-7.83,80-3.82C858.51,510.49,859.45,512.34,852.45,562.24Z"/><path class="cls-1" d="M443.05,611.79c0-27.67.79-55.36-.29-83-.64-16.15,3.5-22.6,21.18-22.24q77.12,1.56,154.27-.34c19-.49,18.91,10.25,17.19,22.38-1.6,11.32,9.41,30-15.78,29.61-28.67-.45-57.44,1.39-86-.32-26.33-1.58-18.83,16.43-19,29.41-.23,13.44-6.42,31.27,19.46,29.45,22.64-1.6,45.53.7,68.2-.61,23.38-1.36,15.4,15,15.75,25.91.37,11.62,5.71,27-16.94,24.82-17.64-1.7-35.77-2-53.3.21-11.82,1.46-32.9-11.42-33,15.27-.13,22.71,2.48,44.74,31.43,48.89,22.67,3.24,45.39,1.67,68.06-.84,9.32-1,22.18-5.94,21.47,10.1-.57,13,9.14,31.8-13,36.92-47.22,10.92-94.18,11.33-139.53-8.26-28.38-12.27-36.43-38.24-38.14-65.55-1.92-30.5-.44-61.2-.44-91.82Z"/><path class="cls-1" d="M1625.75,612.46c0-28.65.72-57.32-.28-85.93-.54-15.57,4.89-20.44,20.36-20.17,51.39.89,102.83,1.44,154.2.15,20.81-.52,19.41,11.22,18.45,24.37-.9,12.19,6.72,29-17.89,27.64-27.59-1.57-55.43,1-83-.85-22.33-1.5-22,11.73-19.9,26,1.88,12.84-10.77,34.52,18.6,33,20.7-1.08,41.71,1.61,62.22-.67,24.67-2.75,23.24,11.07,23.87,28.21.65,17.77-3.63,25.1-22.74,22.92a219.3,219.3,0,0,0-50.31,0c-11.12,1.32-30.82-10.37-31.28,13.64-.41,22,.81,44.23,29.5,50.6,23.19,5.15,46.64-2.85,70.11,3.49,9.23,2.49,21.21-5.43,21.79,12.25.45,13.65-1,27.3-16.07,30.68-49.23,11.08-98.44,12.08-144.26-12.73-24.29-13.16-29.75-38.86-31.29-63.71-1.84-29.5-.44-59.2-.44-88.81Z"/><path class="cls-1" d="M1399.23,632.06c0-34.56.57-69.13-.26-103.66-.37-15.47,2.28-22.75,20.73-22.19,50.36,1.53,100.82,1.73,151.17.23,20.16-.6,23.12,7.6,21.83,24.29-1.11,14.5,3.77,30.13-21.32,27.92-25.49-2.25-51.48,1.21-77-.89-21.68-1.78-25.28,8.1-23.13,25.68,1.79,14.73-8.19,35.74,21.86,33.35,23.56-1.88,47.44.52,71.11-.61,27.39-1.3,15.27,18.77,17.65,30.75,2.94,14.84-2.35,21.4-18.89,20.15-20.64-1.56-41.67,1.28-62.18-1-25.82-2.89-32,7.69-29.94,31.37,2,22.53-.68,45.44.63,68.07,1,17-6.28,19.7-21,18.53-36.89-2.93-50.75-16.7-51.18-54.22C1398.93,697.23,1399.23,664.64,1399.23,632.06Z"/><path class="cls-1" d="M1090.54,557.94c-95.73-18.55-110-6.77-109.86,88.71,0,4.94-.12,9.88,0,14.82,1.69,64.6,10.28,73.13,75.54,70.39,12.26-.52,25.83,8.89,37.48-5.52-8.4,55.65-7.86,55.37-57.91,57.91-5.92.3-11.87.12-17.8,0-75.2-2-102.43-27.52-111.71-101.91-4.1-32.78-3.58-65.27,2.42-97.33,6.35-34,16.53-62.53,58.43-73.9,36.45-9.9,70.78-12.34,106.52-5.36C1094.85,509.86,1095.2,513,1090.54,557.94Z"/><path class="cls-2" d="M1661,463.58c36.94-30.27,56.6-66,65.33-109.73,9.82-49.14,43.79-68.22,91.64-54.89,9.61,2.67,9.7,7.64,8.36,15.15-4.15,23.24-5.88,47.16-12.55,69.63-12.92,43.52-42,70.66-88.68,75.35C1703.77,461.22,1682.34,462.12,1661,463.58Z"/><path class="cls-3" d="M1236.77,580.29c16.23,28.16,22.69,57.28,32.27,85.24,4.64,13.51-.62,16.47-13.75,17.34-58.27,3.9-59.67,2.94-41-51.72C1220,614.25,1223.08,595.58,1236.77,580.29Z"/></svg>