<svg id="Layer_1" data-name="Layer 1" xmlns="http://www.w3.org/2000/svg" viewBox="0 0 1920 1080"><defs><style>.cls-1{fill:#081528;}</style></defs><path class="cls-1" d="M1668.92,699.76a9.31,9.31,0,0,0-2.38.69c-6,4.29-12.9,5.77-20.1,5.76-14.84,0-29.69-.22-44.53-.41-8.69-.11-16.47-3.14-23.75-7.71q-15.24-9.55-16.5-27.49c-.16-2.35-.12-4.72-.12-7.08q.07-86,.17-172.06c0-2.68.23-5.37.41-8.06a3.53,3.53,0,0,1,2.71-2.6c1-.09,2-.19,3-.19q19.23,0,38.46,0a7.79,7.79,0,0,1,3,.35,4.37,4.37,0,0,1,2.07,1.89,7.23,7.23,0,0,1,.46,3c.07,3.38.07,6.75.07,10.12q0,78.45,0,156.88c0,3.37,0,6.75.13,10.12.07,2.31,1.57,4.06,3.61,4,7.75,0,15.5-.1,23.25-.23a4.2,4.2,0,0,0,3.46-3.24,23.32,23.32,0,0,0,.33-3c0-2.7,0-5.4,0-8.1q0-79.45,0-158.9c0-3.36.2-6.73.38-10.09a3.27,3.27,0,0,1,2.72-2.55c1.34-.1,2.69-.2,4-.2,12.14,0,24.29,0,36.43,0,1.68,0,3.35.26,5,.43,1.23.12,1.69,1.16,1.93,2.07a17.77,17.77,0,0,1,.44,4c.06,3.71,0,7.42,0,11.13q0,69.84,0,139.68c0,6.74-.16,13.49-.1,20.24a27.45,27.45,0,0,0,.9,5.94,3.63,3.63,0,0,0,2.82,2.6,4.45,4.45,0,0,0,1,.26c7.08,0,14.16,0,21.24,0a4.45,4.45,0,0,0,4.26-3.61,28.58,28.58,0,0,0,.5-4c.08-3,.06-6.07.06-9.11q0-77.92,0-155.86c0-3.71.2-7.41.36-11.11a3.07,3.07,0,0,1,2.64-2.57c1.34-.11,2.69-.25,4-.26q18.22,0,36.44,0c1,0,2,.05,3,.11,2.5.14,3.87,1.34,4,3.6.11,2.7.15,5.4.15,8.09q0,16.71,0,33.4,0,67.81,0,135.63c0,5.41-.12,10.77-1.42,16.08A33.36,33.36,0,0,1,1758,698.88a48,48,0,0,1-20,6.54c-2.68.28-5.39.44-8.08.46-13.16.1-26.32.14-39.47.2-1.35,0-2.7-.07-4.05-.11a25.27,25.27,0,0,1-12.53-3.47C1672.11,701.48,1670.34,700.55,1668.92,699.76Z"/><path class="cls-1" d="M90.72,591V491.8c0-3,0-6.07.13-9.11.08-2.2,1.55-3.58,4-3.59,8.1,0,16.2,0,24.3,0a7.86,7.86,0,0,1,6.18,3c2,2.31,3.81,4.72,5.64,7.15q39.35,52.13,78.68,104.26c1.82,2.41,3.81,4.69,5.76,7a1.13,1.13,0,0,0,1.79,0c.23-.19.52-.47.53-.73.17-3,.39-6,.39-9.07q0-49.62,0-99.24c0-3,.13-6.06.25-9.09a3.08,3.08,0,0,1,2.57-2.7,23.68,23.68,0,0,1,3-.33c12.83,0,25.66,0,38.48,0a13.5,13.5,0,0,1,3.92.72,2.83,2.83,0,0,1,1.37,1.36,4.43,4.43,0,0,1,.46,1.94c.1,2.36.15,4.73.15,7.09q0,101.26.06,202.52c0,3-.29,6-.53,9.06a4,4,0,0,1-2.66,2.77,18.07,18.07,0,0,1-3,.46c-7.09,0-14.18-.07-21.26,0a9.33,9.33,0,0,1-7.88-3.78c-1.67-2.12-3.3-4.26-4.93-6.42L149.71,590.71q-2.75-3.65-5.66-7.14a2.08,2.08,0,0,0-1.73-.56,1.88,1.88,0,0,0-1.22,1.28c-.2,3.36-.33,6.73-.34,10.1q0,49.62,0,99.24c0,12.47,1,11.69-11.26,11.71q-15.19,0-30.38,0c-1.35,0-2.7-.06-4-.16a4.39,4.39,0,0,1-4.14-3.74c-.13-1.68-.19-3.37-.2-5q0-12.66,0-25.32Z"/><path class="cls-1" d="M1325.34,591.76q0,49.61,0,99.2c0,3,0,6.07-.21,9.1s-2.22,5.16-5.12,5.19c-7.76.06-15.52,0-23.28,0a7.25,7.25,0,0,1-5.4-2.4,88.23,88.23,0,0,1-5.8-7q-21.58-28.73-43.12-57.49-18.84-25.1-37.74-50.14A55.59,55.59,0,0,0,1200,583c-.2-.2-1.47.13-1.65.5a7.62,7.62,0,0,0-.64,2.92c-.09,3-.08,6.07-.08,9.11q0,49.1,0,98.19c0,12.34.2,11.63-11.59,11.65-9.78,0-19.57,0-29.36,0-2,0-4-.24-6-.43a3.52,3.52,0,0,1-2.63-2.73c-.2-3-.44-6-.44-9.07q-.06-31.89,0-63.77,0-67.83.11-135.65c0-16.56-2-14.53,14.43-14.67,4.72,0,9.44.12,14.17.14a7.55,7.55,0,0,1,6.09,3.06q2.54,3.15,5,6.38l78,103.47c2,2.7,4.13,5.34,6.22,8,.77,1,2.18,1.32,2.59.68s.85-1.08.87-1.63c.14-3,.18-6.07.18-9.1q0-49.1,0-98.2c0-3,.06-6.07.17-9.1a3.45,3.45,0,0,1,3.34-3.14c1-.08,2-.19,3-.19q18.22,0,36.45,0a36.41,36.41,0,0,1,4,.36,3.78,3.78,0,0,1,2.62,2.76,23.26,23.26,0,0,1,.37,3c.06,3,.06,6.07.06,9.11v97.18Z"/><path class="cls-1" d="M953.23,569.19c.57.89,1.22,2.08,2,3.14q13.89,18,27.85,36a9.22,9.22,0,0,0,2.16,2.07,2,2,0,0,0,1.81.12,25.2,25.2,0,0,0,3.57-3.51c7.65-9.43,15.24-18.91,22.88-28.34,1.48-1.83,3.07-3.58,4.67-5.31a3.08,3.08,0,0,1,4.46.28,17.4,17.4,0,0,1,1.39,1.46q7.79,10,15.52,20c.42.53.78,1.11,1.15,1.67,2.86,4.35,2.75,7.63-.49,12.08-1.19,1.63-2.49,3.19-3.76,4.77q-9.84,12.21-19.68,24.43c-1.47,1.83-2.82,3.75-4.06,5.42.06,3,1.93,4.58,3.37,6.39,10.3,12.92,20.67,25.8,31,38.73,2.1,2.63,4.07,5.37,6,8.16a11.55,11.55,0,0,1,1.64,7.76c-.1,1-1.46,2.79-2.39,3a17.06,17.06,0,0,1-3,.47c-10.12-.07-20.23-.22-30.35-.28a10.74,10.74,0,0,1-8.08-3.58c-1.84-2-3.56-4.05-5.25-6.15-4.88-6-9.68-12.13-14.57-18.15-1.25-1.55-2.71-2.92-4.3-4.6a23.31,23.31,0,0,0-3.09,2.9c-2.93,4.12-5.88,8.24-8.56,12.52C967.17,703.21,955.6,709,941,708.32c-15.19-.71-30.36-.26-45.53-.39-4.39,0-8.77-.22-13.15-.42a32.59,32.59,0,0,1-5-.59c-11.64-2.38-19.23-9.26-22.59-20.67a77,77,0,0,1-2-8.88A175,175,0,0,1,851,629c.29-2.69.72-5.36.93-8a34.5,34.5,0,0,1,8.54-20.15,113,113,0,0,1,9.16-9.41c6.69-6.19,13.53-12.2,20.29-18.31a36.49,36.49,0,0,0,3.63-3.51,3.37,3.37,0,0,0,.51-3.77c-.59-1.21-1.19-2.42-1.79-3.62a61.35,61.35,0,0,1-6.31-25.32,152.17,152.17,0,0,1,2.56-34.23c2.47-13.21,11.19-21.51,24.44-23.47a27.54,27.54,0,0,1,3-.26c16.18-.66,32.37-.89,48.56-.13,12.17.56,21.06,6.41,26.75,17.13a74.12,74.12,0,0,1,7.15,19.92,17.71,17.71,0,0,1-4.2,16,71.87,71.87,0,0,1-7.44,6.82q-15.43,13.1-30.93,26.12C954.54,565.86,953.29,567,953.23,569.19Zm-29.17,27.67c-1.56,1.2-2.93,2.14-4.17,3.23q-8.32,7.38-16.58,14.83c-4.5,4.06-8.95,8.18-13.42,12.27a10,10,0,0,0-3.5,8.06c.25,6.73.47,13.46.75,20.19q.12,3,.45,6c.33,2.94,2.27,4.77,5.38,5,2.35.19,4.71.25,7.06.29q16.17.27,32.35.49c2.35,0,4.72-.09,7.07.08a9.41,9.41,0,0,0,9.38-4.68c3.21-5.14,6.48-10.24,9.69-15.39a14.78,14.78,0,0,0,1.23-2.75,5.86,5.86,0,0,0-.34-4.89,15.45,15.45,0,0,0-1.66-2.52q-15.21-18.89-30.49-37.72A19.6,19.6,0,0,0,924.06,596.86Zm.33-72.94h.25c0,2.34-.12,4.69,0,7a7.86,7.86,0,0,0,2.88,5.12,3.14,3.14,0,0,0,4.47.13q9.18-9.3,18.27-18.68c.22-.23.28-.6.47-.85.45-.59-.38-2.28-1.18-2.36a125,125,0,0,0-22.06,0,3.64,3.64,0,0,0-2.67,2.63C924.67,519.23,924.54,521.58,924.39,523.92Z"/><path class="cls-1" d="M585.52,594.31c0-22.95,0-45.9.05-68.85a107.41,107.41,0,0,1,.9-14.12c1.5-11.12,7.38-19.36,17.16-24.83a51.93,51.93,0,0,1,16.15-5.68,94.11,94.11,0,0,1,17.1-1.67c31,0,62.1,0,93.16-.08,7.08,0,14.17-.09,21.26-.07a26.08,26.08,0,0,1,5,.52,3.58,3.58,0,0,1,2.75,2.7,16.62,16.62,0,0,1,.58,4q.07,13.15,0,26.32a23.66,23.66,0,0,1-.55,4,3.78,3.78,0,0,1-2.74,2.65c-3,.19-6.05.42-9.08.42q-44.55,0-89.11-.08c-5.06,0-10.12,0-15.18.11-2.74,0-4.18,1.55-4.19,4.54,0,14.85,0,29.7,0,44.55a3.57,3.57,0,0,0,.43,1.93c.53.79,1.26,1.9,2,2a78.69,78.69,0,0,0,9.08.49q35.94,0,71.89,0c4,0,8.1,0,12.15.09a6.65,6.65,0,0,1,2.92.6,4.72,4.72,0,0,1,2,2.1,7.38,7.38,0,0,1,.39,3q0,14.68,0,29.36a16.77,16.77,0,0,1-.23,2,3.4,3.4,0,0,1-2.6,2.73c-3,.18-6,.4-9.08.4q-38,0-75.94,0c-3.36,0-6.73.19-10.1.35a3.09,3.09,0,0,0-2.66,2.57c-.12,1.34-.28,2.69-.29,4q0,19.74,0,39.49a12.88,12.88,0,0,0,.5,4,4.26,4.26,0,0,0,1.88,2.16,6.67,6.67,0,0,0,2.94.59c3,.11,6.07.14,9.1.14q46.08,0,92.15-.08c3.37,0,6.74.11,10.11.28a4.28,4.28,0,0,1,4,3.86,33.8,33.8,0,0,1,.26,4q0,12.65,0,25.3a24.53,24.53,0,0,1-.53,4,3.87,3.87,0,0,1-2.73,2.7,47.12,47.12,0,0,1-5,.39q-58.23,0-116.45-.07a75.52,75.52,0,0,1-17.09-1.59A46.21,46.21,0,0,1,593,690.7a26.68,26.68,0,0,1-7-15.42c-.34-3.69-.5-7.41-.5-11.11Q585.48,629.24,585.52,594.31Z"/><path class="cls-1" d="M1358.85,594c0-23.28,0-46.56,0-69.83a66.86,66.86,0,0,1,1.44-15.07,32.09,32.09,0,0,1,15.6-21.45,50.38,50.38,0,0,1,25-7.18c8.77-.12,17.55-.15,26.32-.16q46.56,0,93.12,0c2.35,0,4.71.12,7.06.26a3.21,3.21,0,0,1,3,3.37q.08,15.68,0,31.36c0,2.21-1.53,3.57-3.92,3.63-3,.08-6.07.09-9.1.1q-47.07,0-94.13,0c-3.37,0-6.74.14-10.11.26a3.24,3.24,0,0,0-2.75,2.51,22,22,0,0,0-.38,3q0,21.76,0,43.52a6.54,6.54,0,0,0,.61,2.92c.43.83,1.23,1.89,2,2a42.44,42.44,0,0,0,7,.49q33.4.06,66.8.06c6.75,0,13.5,0,20.24.13,3.08.06,4.8,2,5,5.21,0,.67.07,1.35.07,2,0,8.1,0,16.19,0,24.29a19.13,19.13,0,0,1-.44,4,3.52,3.52,0,0,1-2.63,2.78,22.59,22.59,0,0,1-5,.66c-5.06,0-10.12-.09-15.18-.09q-34.43,0-68.83,0c-2.35,0-4.7.19-7,.35a3.58,3.58,0,0,0-2.78,2.59,38.32,38.32,0,0,0-.5,5q-.12,19.23-.09,38.46a18.91,18.91,0,0,0,.77,4.94,3.5,3.5,0,0,0,2.8,2.63,63.83,63.83,0,0,0,8,.49c14.17,0,28.34,0,42.51-.05q28.35,0,56.68,0a63.88,63.88,0,0,1,8.07.42c.74.1,1.58,1.15,2,2a7.28,7.28,0,0,1,.46,3q0,14.18,0,28.34a9.32,9.32,0,0,1-.44,3,2.27,2.27,0,0,1-1.38,1.38,65.54,65.54,0,0,1-8,.67q-58.2,0-116.4,0c-6.08,0-12.11-.27-18-2.35a52.23,52.23,0,0,1-15-8.28c-7.89-6.23-12-14.44-12.57-24.4-.17-2.69-.09-5.39-.09-8.09V594Z"/><path class="cls-1" d="M434.08,592.77q0,31.37,0,62.74c0,2.68.28,5.36.5,8a3.81,3.81,0,0,0,2.75,2.67,27.21,27.21,0,0,0,4,.45q28.33,0,56.67,0c1,0,2-.08,3-.17,2.67-.22,4.21-1.81,4.27-4.63.09-5,.07-10.11.12-15.17,0-2.7.09-5.39.2-8.09.06-1.52,1.69-3,3.41-3.16a27.78,27.78,0,0,1,3-.26c12.15,0,24.29-.05,36.43,0a15.27,15.27,0,0,1,4.92.88,3.78,3.78,0,0,1,1.9,2.16,12.76,12.76,0,0,1,.57,4q.11,12.64.09,25.3c0,13.29-5.87,23.27-17.26,30a54.38,54.38,0,0,1-27,7.6c-9.44.2-18.89.18-28.33.16-18.89,0-37.78-.15-56.67-.22a54,54,0,0,1-11-1.15,45.73,45.73,0,0,1-22.79-12.37c-5.82-5.66-9.06-12.51-9.09-20.72,0-10.45,0-20.91,0-31.37q0-55.14-.09-110.28c0-4.73-.11-9.45.11-14.17.52-11.24,5.64-20,15-26.08a50.35,50.35,0,0,1,24.64-8.31c1.68-.11,3.37-.16,5.06-.16q41.48-.07,83-.12c5.75,0,11.43.47,16.93,2.44a50,50,0,0,1,19.35,12.52,25.93,25.93,0,0,1,7.53,17.2c.1,2,.17,4,.17,6.07q0,12.13-.06,24.28c0,1.34-.2,2.68-.33,4a3.3,3.3,0,0,1-2.82,2.46q-21.75,0-43.49,0a3.1,3.1,0,0,1-3.13-3.25c-.1-6.06-.09-12.13-.19-18.2a33.58,33.58,0,0,0-.49-6,3.35,3.35,0,0,0-1.89-2.05,11.78,11.78,0,0,0-4-.51q-29.34,0-58.69,0c-.68,0-1.35,0-2,.07-2.31.13-4,1.52-4.08,3.6-.16,3-.26,6.07-.26,9.1Q434.06,562.42,434.08,592.77Z"/><path class="cls-1" d="M351.51,705a27.78,27.78,0,0,1-4.13.64q-19.72.06-39.46,0a19.57,19.57,0,0,1-2-.21,3.08,3.08,0,0,1-2.66-2.56c-.12-2.35-.28-4.7-.28-7.06q0-102.7,0-205.42,0-3,.12-6.06c.1-2.22,1.5-3.43,4-3.56.34,0,.68-.05,1-.05,13.15,0,26.31,0,39.46,0a8.69,8.69,0,0,1,2.95.53,2.24,2.24,0,0,1,1.31,1.32,23.14,23.14,0,0,1,.74,4.94c.07,8.43.05,16.87.05,25.3V690.9c0,3.38,0,6.75-.14,10.12A22.75,22.75,0,0,1,351.51,705Z"/><path class="cls-1" d="M1759.12,405.87c-.32-17.18,14.45-34.23,35.19-34.25,18,0,35.28,14.14,35,35.59-.27,19.47-15.12,34.13-35.28,34C1771.39,441.08,1758.26,423.07,1759.12,405.87Zm35,28.9a28.41,28.41,0,0,0,28.75-28.69,29.1,29.1,0,0,0-28.69-28.1c-15.45-.46-28.84,13.4-28.79,29C1765.41,420.64,1777.26,435.06,1794.11,434.77Z"/><path class="cls-1" d="M1778.79,406.12c0-4.71,0-9.42,0-14.12a3.68,3.68,0,0,1,3.15-3.41c6-.38,12.09-.62,18.11.48,8.36,1.53,9.68,11.57,5.76,15.77-1.14,1.23-2.39,2.36-3.54,3.58a3.24,3.24,0,0,0-.27,3.73c2,3.13,4,6.2,6,9.34a7.2,7.2,0,0,1,1,2.77c.06.4-.61,1.18-1.08,1.31-2.48.68-4.77.19-6.29-2-2.12-3-4-6.21-6.08-9.26a8.25,8.25,0,0,0-5.85-3.57,3.62,3.62,0,0,0-4.27,3.18c-.17,2.68-.17,5.38-.49,8a5.64,5.64,0,0,1-1.51,2.52c-.8.95-3.1.63-3.45-.43a14.28,14.28,0,0,1-1-3.82c-.12-4.7,0-9.42,0-14.13ZM1792,404.2c1.45-.2,2.78-.37,4.09-.58a6.24,6.24,0,0,0,.94-.35,4.87,4.87,0,0,0,2.86-3.8,4.33,4.33,0,0,0-2.37-4.09,13.64,13.64,0,0,0-9.72-1.23,3,3,0,0,0-1.87,2,28.76,28.76,0,0,0,0,5.94,2,2,0,0,0,1.25,1.43C1788.78,403.87,1790.45,404,1792,404.2Z"/></svg>