<svg id="Layer_1" data-name="Layer 1" xmlns="http://www.w3.org/2000/svg" viewBox="0 0 1920 1080"><defs><style>.cls-1{fill:#081528;}</style></defs><path class="cls-1" d="M758.92,501.71l-17.18,62.43,5.8,3.71c6.31-5.24,12.57-10.53,18.93-15.7,18-14.63,35.31-30.32,54.38-43.44,12.94-8.92,29-10.82,42.79-.66s15.79,25.81,11.29,41.18C866.79,577,857.1,604.37,848.39,632c-3.21,10.18-6.79,20.52-7.88,31-1.66,16,8.22,23.17,22.41,15.6,10.82-5.78,21.49-13.9,29-23.52,18.06-23.24,34.65-47.66,51-72.18a467.65,467.65,0,0,0,28.77-48.78c12.06-24,36.14-34.76,67.6-26.48-11.33,21.65-4.41,41.89,7.91,60.05,27.92,41.15,18.61,75.77-12.59,111.55-19.42,22.26-42.35,39.8-73,43.79-6.19.8-12.67,1.36-18.79.46-16.17-2.38-36-8.55-35.77-24.7.21-13.38,15.56-26.81,25.33-39.35,1-1.26,11.33,2.15,14.48,5.83,4.29,5,5.45,12.61,8.66,18.72,6.62,12.59,17.24,16,30.38,11.62,23.39-7.75,37.12-37,28.24-60.12a108.36,108.36,0,0,0-7.38-15.31c-9.43-16.25-19.1-32.36-28.41-48.07-2.53.31-4.33,0-4.88.68-19.23,24.07-43,46-56.18,73-13.4,27.45-34.18,44.25-56.79,60.78-9,6.56-19.89,11.2-30.61,14.46-33.63,10.26-60.23-9.91-55.52-44.55,3.53-25.95,13-51.13,20.35-76.49,3.15-10.87,8.45-21.14,11.25-32.08,1.19-4.61-.14-11.36-3-14.91-1.56-1.9-10.69-.81-13.35,1.91C761,584.09,723.37,607.2,721.8,654.74c-.46,13.85-2.41,27.66-2.68,41.52-.21,10.57-4.22,16.75-15,17.89a13,13,0,0,0-1.86.35c-37.16,8.89-37.14,8.89-42.6-29-.24-1.7-1.5-3.26-3.49-7.4-7.31,5.53-14,10.54-20.64,15.6-10.5,8-20.25,17.32-31.6,23.84-26.9,15.47-52,3.69-58.84-26.7-1.89-8.4-3-17-5.34-30.09-7.59,7.44-12.22,11.89-16.76,16.42-10.69,10.66-20.35,22.63-32.2,31.8-38.59,29.86-81.95,13.33-91.43-34.81-8.37-42.54,5.27-80.11,30.84-113.27,19.13-24.81,43.57-44.17,73.75-54.16,23.77-7.87,47-9.81,64.79,14.26,2.56,3.46,12.35,4.49,17.29,2.63,9.29-3.49,17.24-10.38,26.21-14.93,6.91-3.51,14.54-5.61,26.16-9.95-2.14,10.95-3.09,17.39-4.68,23.67-10.32,40.88-21.5,81.56-30.62,122.71-1.84,8.29,3.89,18.27,6.13,27.47,10.21-2.84,21.46-3.86,30.41-8.93,15.54-8.81,21.62-23.72,25.46-41.65,6.57-30.66,17.52-60.37,26.11-90.63,3.71-13.09,11-20,25-21.55C729.58,508.41,742.75,504.89,758.92,501.71ZM557,547.86c-3.18-5.09-7.46-20.39-16-23.4-9.05-3.17-25,2.24-33.08,9.39-30.31,26.8-41,63.95-46.5,102.49-2.07,14.5-1,30.34,15.38,37.11s29.64-1.72,39.55-14.24C540.41,628.79,553.17,593.81,557,547.86Z"/><path class="cls-1" d="M1239.52,520.06c7.67-3.63,15-9.28,23.08-10.46,14.18-2.1,30.59-5.9,42.72-.89,15.86,6.55,15.34,25.4,11.41,40.28-7.38,28-16.83,55.38-25.39,83-3,9.63-7,19.13-8.38,29-.78,5.42,1.15,13.69,5,16.61,3.66,2.8,12.68,2.52,17-.16,18.77-11.56,35.18-24,40-49.09,6.3-32.65,16.82-64.63,27.8-96.11,2.83-8.12,13.18-16,21.83-19.17,13.81-5.12,29.09-6.25,47.38-9.77-2.65,11.41-4.32,19.66-6.51,27.76-9.69,35.84-20.39,71.44-28.73,107.59-2.07,9,3.3,19.7,5.25,29.62,10.19-3.06,21-4.93,30.39-9.53,8.09-3.95,14.66-11,21.9-16.72l5.66,2.88c-3.24,8.32-4.44,18.57-10.13,24.58-13.36,14.13-28.38,26.85-43.61,39-32.46,25.94-55.56,19.69-71.89-18.62-1.21-2.84-2.52-5.65-4.95-11.07-6.31,4.33-11.53,8.15-17,11.61-15.88,10.09-30.85,22.48-48,29.52-33.89,13.92-63.06-7.69-58.3-43.7,3.09-23.4,11.9-46.1,18.8-68.91,4-13.25,10.12-25.9,13.61-39.26,1.35-5.14,0-13.89-3.58-16.66-3.82-3-13.08-3.3-17.42-.64-30.1,18.48-61.64,36.1-62.69,78.31-.53,21.41-3.25,42.76-3.57,64.17-.18,11.92-3.71,18.22-15.86,21.43-43.17,11.41-42.86,11.27-44.65-33.33-4.19-104,28.36-197.37,81.08-285a40.47,40.47,0,0,1,18-15.43c20.32-8.48,41.48-15,62.06-22.85,15.77-6.05,22.63,1.51,25.28,15.52,5,26.49-.44,51.58-12.52,75.11-7.75,15.1-17.17,29.34-25.8,44-4.38,7.45-8.69,14.95-13,22.43Zm-57.64,19.49,4.19,2.77c3.8-2.94,8.31-5.3,11.3-8.91,27.4-33.11,53.17-67.32,66.84-108.82,2.33-7.11,4.17-14.84,3.89-22.19-.22-5.46-4.25-10.76-6.58-16.13-4.82,2.27-11.09,3.32-14.17,7a211.07,211.07,0,0,0-21.6,30.93A407.41,407.41,0,0,0,1181.88,539.55Z"/><path class="cls-1" d="M425.68,432.92C411,533.87,388.1,625.81,312,694.41c-11,9.9-24.34,18.59-38.14,23.69-54.74,20.21-108.37-13.73-109.2-72.68-.46-33.17,9.05-66.91,17.11-99.64,8.86-36,21.7-71,31.7-106.7,2.63-9.43,2.31-20.12,1.35-30-2.8-29.07-25.59-39.93-50.1-24.51-37.62,23.65-46.49,69.22-20.28,104.16,9.39,12.52,3.36,28.48-14.95,39.79-14.44,8.92-25.43.86-28-11.15-4.25-19.75-7.2-41.08-4.27-60.79,5.73-38.55,27.71-68.45,60.95-89.15,47.15-29.35,103-6.62,115.26,47.45,7.42,32.63,3.83,65.21-6,97.06-12.1,39.09-25.42,77.85-36.15,117.31-8.09,29.75-1,51.19,16.16,61.23,17.86,10.47,40.62,4.81,62.64-17.16,49.72-49.59,95.94-162,47.89-255.42-15.6-30.31-.26-56.85,34.9-61,5.21-.62,14.95,5.67,16.48,10.65C416.22,390.11,421,413.41,425.68,432.92Z"/><path class="cls-1" d="M1739.31,561.63c-26.45-2.61-47-5.56-67.6-6.1-6-.16-13.62,5.3-18,10.36-23,26.76-45,54.29-67.58,81.35-3.7,4.43-8.58,7.86-12.91,11.75l-5.62-3.37c3-8,4.43-17.13,9.27-23.8,29.17-40.2,59-79.94,89-119.52,3-4,8.77-8.45,13.14-8.33,39.3,1,78.58,3,123.16,5-35.72,53.21-79.27,99.46-120.91,152.05,49.44.31,98.68,37,137-22.18l5.65,6.49c-2.81,8.4-3.6,18.44-8.84,24.84-10.72,13.07-23.51,24.53-36.05,36-18.07,16.53-38.66,22.81-62.81,14.27A372.79,372.79,0,0,0,1680,710c-16.6-4-32.2-3.14-46.17,9-4.43,3.88-11.77,4.43-17.78,6.5l-5.2-6.1Z"/><path class="cls-1" d="M1489.71,402.39c12.62-14.93,23.23-28.87,35.56-41.09,3-3,13.22-2.8,17.44,0,27,17.81,36,54.93,21.18,83.62-17.58,34.1-48.49,51.71-82.21,65.42-3.44,1.4-8.64-1.57-13-2.52,2.07-4.09,3.15-9.39,6.39-12,10.18-8.31,21.91-14.8,31.72-23.49,25.89-22.91,22.19-48.28-8.59-64.09C1496.05,407.1,1494.2,405.5,1489.71,402.39Z"/><path class="cls-1" d="M1416.32,462.64c-2.77-.4-7.87-.61-12.67-1.91-19.18-5.19-21.06-9.63-12.27-27.06,2.26-4.49,4.91-8.94,6.2-13.72,3.82-14.24,11.19-17.9,24.84-11.07,5.86,2.94,13.28,3.38,20.07,3.8,18.81,1.17,21.76,5.27,15.18,23.19C1451,454,1437.57,462.4,1416.32,462.64Z"/></svg>