<svg id="Layer_1" data-name="Layer 1" xmlns="http://www.w3.org/2000/svg" viewBox="0 0 532.29 46.29"><path id="path26" d="M127.7,31c-12.6.14-25,.06-37.39.45-11.42.37-22.91.61-34.22,2.05-11.08,1.42-22,4.15-33,6.57-5.26,1.17-8.36,0-11.25-4.53C10.94,34,9.08,33.14,8,31.7c-.94-1.26-2.26-3.28-1.83-4.28.75-1.76,2.54-4,4.21-4.29,11.87-2.1,23.77-4.3,35.75-5.43,15.52-1.46,31.12-2,46.7-2.85,11.34-.58,22.7-1.06,34.06-1.29,15.86-.32,31.73-.42,47.59-.52,11.91-.08,23.82-.24,35.73.06,14.23.35,28.45,1.26,42.68,1.69,11.66.36,23.34.27,35,.57,25.33.63,50.66,1.25,76,2.11,25.81.88,51.61,2.08,77.41,3.08,5.69.23,11.4,0,17.08.36,1.9.13,4.61,1,5.37,2.38,1.2,2.17,2.27,4.11,4.74,3.44,1.66-.45,3-2.25,5.12-4.77,1.52,2.1,3,4.19,4.83,6.64l47.11,6.91c0,.74.05,1.47.08,2.21-3.06.44-6.19,1.5-9.17,1.2-12.76-1.3-25.48-3-38.21-4.57a11.65,11.65,0,0,0-2.63-.12c-16.19,1.89-32.37,1.11-48.56,0-17.21-1.15-34.44-2.22-51.67-3-14-.66-28.05-1-42.08-1.29q-24.6-.56-49.21-.87c-21.8-.28-43.61-.69-65.41-.6-9.92,0-19.84,1-29.74,1.82-10.39.84-20.79,1.79-31.15,3-7,.82-13.86,2.14-20.76,3.39C132.52,37.52,128.63,35.45,127.7,31Z"/></svg>