<svg xmlns="http://www.w3.org/2000/svg" viewBox="0 0 893.4 155.32"><defs><style>.cls-1,.cls-4{fill:#fff;}.cls-1{fill-rule:evenodd;}.cls-2{fill:#d9d9d9;}.cls-3{fill:#081528;}.cls-5{fill:#e5e7eb;}</style></defs><g id="Layer_2" data-name="Layer 2"><g id="Layer_2-2" data-name="Layer 2"><path class="cls-1" d="M891.51,20H889l-3.45,8.48L882.09,20h-2.51L877.7,33.16h2.66l1.1-8.63,3.46,8.63h1.25l3.46-8.63,1.1,8.63h2.67ZM867,20v2.51h3.45V33.16H873V22.48h3.45V20Z"/><path class="cls-2" d="M133.89,94.57a25.61,25.61,0,0,0-.82-2.75A57.2,57.2,0,0,1,22.29,92a33.53,33.53,0,0,0-1.47,13.59,27.37,27.37,0,0,0,6.07,14.88,37.36,37.36,0,0,0,13.46,10.32c8.43,4,17.41,5.73,26.67,6.23a112.55,112.55,0,0,0,19.42-.66,99.83,99.83,0,0,0,17.94-3.66,58.58,58.58,0,0,0,15.56-7.26,35.71,35.71,0,0,0,9.92-9.68A25.85,25.85,0,0,0,133.89,94.57ZM110,27a2,2,0,0,0-.11-.26,0,0,0,0,0,0,0,2.06,2.06,0,0,0-.12-.26,1.65,1.65,0,0,0-.14-.26,1.4,1.4,0,0,0-.16-.26.67.67,0,0,0-.09-.14,4.9,4.9,0,0,0-.59-.74c-.11-.12-.23-.24-.37-.37a7.52,7.52,0,0,0-1.93-1.27l-.59-.26a28,28,0,0,0-7.5-.11h-.1a14.24,14.24,0,0,1-2.58.1,4.15,4.15,0,0,1-3.13-1.67,3.32,3.32,0,0,1-.27-3.29,5.59,5.59,0,0,1,1.29-1.86A13,13,0,0,1,95,15.07c0-.17-.1-.33-.16-.48a7.53,7.53,0,0,0-1-1.5,4.93,4.93,0,0,0-2.28-1.55l-.07,0a6.76,6.76,0,0,0-1.34-.13,7.47,7.47,0,0,0-1.41.13A10.4,10.4,0,0,0,83,14.68c-.16.16-.33.32-.48.49a4.2,4.2,0,0,0-.29.32q-.32.33-.6.69c-.17.2-.34.41-.5.63l0,0c-.19.26-.38.52-.56.79l-.24.35c-.18.26-.35.53-.51.8-.33.54-.65,1.1-1,1.7a56.83,56.83,0,0,1,31.45,10.24s0-.05,0-.07a3,3,0,0,0,.06-.43A6.77,6.77,0,0,0,110,27Zm23.9,67.62a25.61,25.61,0,0,0-.82-2.75A57.2,57.2,0,0,1,22.29,92a33.53,33.53,0,0,0-1.47,13.59,27.37,27.37,0,0,0,6.07,14.88,37.36,37.36,0,0,0,13.46,10.32c8.43,4,17.41,5.73,26.67,6.23a112.55,112.55,0,0,0,19.42-.66,99.83,99.83,0,0,0,17.94-3.66,58.58,58.58,0,0,0,15.56-7.26,35.71,35.71,0,0,0,9.92-9.68A25.85,25.85,0,0,0,133.89,94.57Zm0,0a25.61,25.61,0,0,0-.82-2.75A57.2,57.2,0,0,1,22.29,92a33.53,33.53,0,0,0-1.47,13.59,27.37,27.37,0,0,0,6.07,14.88,37.36,37.36,0,0,0,13.46,10.32c8.43,4,17.41,5.73,26.67,6.23a112.55,112.55,0,0,0,19.42-.66,99.83,99.83,0,0,0,17.94-3.66,58.58,58.58,0,0,0,15.56-7.26,35.71,35.71,0,0,0,9.92-9.68A25.85,25.85,0,0,0,133.89,94.57ZM110.3,30.66a3,3,0,0,0,.06-.43A6.77,6.77,0,0,0,110,27a2,2,0,0,0-.11-.26,0,0,0,0,0,0,0,2.06,2.06,0,0,0-.12-.26,1.65,1.65,0,0,0-.14-.26,1.4,1.4,0,0,0-.16-.26.67.67,0,0,0-.09-.14,4.9,4.9,0,0,0-.59-.74c-.11-.12-.23-.24-.37-.37a7.52,7.52,0,0,0-1.93-1.27l-.59-.26a28,28,0,0,0-7.5-.11h-.1a14.24,14.24,0,0,1-2.58.1,4.15,4.15,0,0,1-3.13-1.67,3.32,3.32,0,0,1-.27-3.29,5.59,5.59,0,0,1,1.29-1.86A13,13,0,0,1,95,15.07c0-.17-.1-.33-.16-.48a7.53,7.53,0,0,0-1-1.5,4.93,4.93,0,0,0-2.28-1.55l-.07,0a6.76,6.76,0,0,0-1.34-.13,7.47,7.47,0,0,0-1.41.13A10.4,10.4,0,0,0,83,14.68c-.16.16-.33.32-.48.49a4.2,4.2,0,0,0-.29.32q-.32.33-.6.69c-.17.2-.34.41-.5.63l0,0c-.19.26-.38.52-.56.79l-.24.35c-.18.26-.35.53-.51.8-.33.54-.65,1.1-1,1.7a56.83,56.83,0,0,1,31.45,10.24S110.3,30.68,110.3,30.66ZM20.82,105.58a27.37,27.37,0,0,0,6.07,14.88,37.36,37.36,0,0,0,13.46,10.32c8.43,4,17.41,5.73,26.67,6.23a112.55,112.55,0,0,0,19.42-.66,99.83,99.83,0,0,0,17.94-3.66,58.58,58.58,0,0,0,15.56-7.26,35.71,35.71,0,0,0,9.92-9.68,26.25,26.25,0,0,0,3.21-23.93A57.2,57.2,0,0,1,22.29,92,33.53,33.53,0,0,0,20.82,105.58ZM77.66,0a77.66,77.66,0,1,0,77.66,77.66A77.74,77.74,0,0,0,77.66,0Zm-5,20.7c1.59-.15,3.18-.21,4.8-.22h1.37a56.83,56.83,0,0,1,31.45,10.24c.32.21.62.43.93.66,1.45,1,2.85,2.18,4.19,3.36a57,57,0,0,1,19.43,42.91c0,1.51-.06,3-.17,4.47a56.82,56.82,0,0,1-1.23,8.11A24.85,24.85,0,0,1,135.08,95c1.73,7.3.45,14-3.92,20.61a35.6,35.6,0,0,1-9.86,9.64,60,60,0,0,1-15.86,7.43,103.59,103.59,0,0,1-18.59,3.81,119.61,119.61,0,0,1-20.19.7c-10.63-.58-19.59-2.68-27.39-6.43a36.94,36.94,0,0,1-13.4-10.3A27,27,0,0,1,20,105.89a33.3,33.3,0,0,1,2-15.14,56.91,56.91,0,0,1-1.34-8.62c-.11-1.48-.17-3-.17-4.47A57.25,57.25,0,0,1,72.67,20.7Zm61.22,73.87a25.61,25.61,0,0,0-.82-2.75A57.2,57.2,0,0,1,22.29,92a33.53,33.53,0,0,0-1.47,13.59,27.37,27.37,0,0,0,6.07,14.88,37.36,37.36,0,0,0,13.46,10.32c8.43,4,17.41,5.73,26.67,6.23a112.55,112.55,0,0,0,19.42-.66,99.83,99.83,0,0,0,17.94-3.66,58.58,58.58,0,0,0,15.56-7.26,35.71,35.71,0,0,0,9.92-9.68A25.85,25.85,0,0,0,133.89,94.57ZM110,27a2,2,0,0,0-.11-.26,0,0,0,0,0,0,0,2.06,2.06,0,0,0-.12-.26,1.65,1.65,0,0,0-.14-.26,1.4,1.4,0,0,0-.16-.26.67.67,0,0,0-.09-.14,4.9,4.9,0,0,0-.59-.74c-.11-.12-.23-.24-.37-.37a7.52,7.52,0,0,0-1.93-1.27l-.59-.26a28,28,0,0,0-7.5-.11h-.1a14.24,14.24,0,0,1-2.58.1,4.15,4.15,0,0,1-3.13-1.67,3.32,3.32,0,0,1-.27-3.29,5.59,5.59,0,0,1,1.29-1.86A13,13,0,0,1,95,15.07c0-.17-.1-.33-.16-.48a7.53,7.53,0,0,0-1-1.5,4.93,4.93,0,0,0-2.28-1.55l-.07,0a6.76,6.76,0,0,0-1.34-.13,7.47,7.47,0,0,0-1.41.13A10.4,10.4,0,0,0,83,14.68c-.16.16-.33.32-.48.49a4.2,4.2,0,0,0-.29.32q-.32.33-.6.69c-.17.2-.34.41-.5.63l0,0c-.19.26-.38.52-.56.79l-.24.35c-.18.26-.35.53-.51.8-.33.54-.65,1.1-1,1.7a56.83,56.83,0,0,1,31.45,10.24s0-.05,0-.07a3,3,0,0,0,.06-.43A6.77,6.77,0,0,0,110,27Zm23.9,67.62a25.61,25.61,0,0,0-.82-2.75A57.2,57.2,0,0,1,22.29,92a33.53,33.53,0,0,0-1.47,13.59,27.37,27.37,0,0,0,6.07,14.88,37.36,37.36,0,0,0,13.46,10.32c8.43,4,17.41,5.73,26.67,6.23a112.55,112.55,0,0,0,19.42-.66,99.83,99.83,0,0,0,17.94-3.66,58.58,58.58,0,0,0,15.56-7.26,35.71,35.71,0,0,0,9.92-9.68A25.85,25.85,0,0,0,133.89,94.57Zm0,0a25.61,25.61,0,0,0-.82-2.75A57.2,57.2,0,0,1,22.29,92a33.53,33.53,0,0,0-1.47,13.59,27.37,27.37,0,0,0,6.07,14.88,37.36,37.36,0,0,0,13.46,10.32c8.43,4,17.41,5.73,26.67,6.23a112.55,112.55,0,0,0,19.42-.66,99.83,99.83,0,0,0,17.94-3.66,58.58,58.58,0,0,0,15.56-7.26,35.71,35.71,0,0,0,9.92-9.68A25.85,25.85,0,0,0,133.89,94.57ZM110,27a2,2,0,0,0-.11-.26,0,0,0,0,0,0,0,2.06,2.06,0,0,0-.12-.26,1.65,1.65,0,0,0-.14-.26,1.4,1.4,0,0,0-.16-.26.67.67,0,0,0-.09-.14,4.9,4.9,0,0,0-.59-.74c-.11-.12-.23-.24-.37-.37a7.52,7.52,0,0,0-1.93-1.27l-.59-.26a28,28,0,0,0-7.5-.11h-.1a14.24,14.24,0,0,1-2.58.1,4.15,4.15,0,0,1-3.13-1.67,3.32,3.32,0,0,1-.27-3.29,5.59,5.59,0,0,1,1.29-1.86A13,13,0,0,1,95,15.07c0-.17-.1-.33-.16-.48a7.53,7.53,0,0,0-1-1.5,4.93,4.93,0,0,0-2.28-1.55l-.07,0a6.76,6.76,0,0,0-1.34-.13,7.47,7.47,0,0,0-1.41.13A10.4,10.4,0,0,0,83,14.68c-.16.16-.33.32-.48.49a4.2,4.2,0,0,0-.29.32q-.32.33-.6.69c-.17.2-.34.41-.5.63l0,0c-.19.26-.38.52-.56.79l-.24.35c-.18.26-.35.53-.51.8-.33.54-.65,1.1-1,1.7a56.83,56.83,0,0,1,31.45,10.24s0-.05,0-.07a3,3,0,0,0,.06-.43A6.77,6.77,0,0,0,110,27Z"/><path class="cls-1" d="M133.89,94.57a25.61,25.61,0,0,0-.82-2.75,33.14,33.14,0,0,0-4.44-8.18A65,65,0,0,0,118.57,73c-2.84-2.51-5.72-5-8.54-7.54a31.91,31.91,0,0,1-5.49-6.28,14.06,14.06,0,0,1-2.5-9.27c.16-1.5.53-3,.84-4.69l-2.39.26a36.88,36.88,0,0,1-9.21-.26,33.59,33.59,0,0,1-8.44-2.17,8.82,8.82,0,0,1-2.17-1.49,1.12,1.12,0,0,1-.39-1.41c.3-.55.85-.56,1.39-.5l2.3.26a50.62,50.62,0,0,0,13.69-.07,23.23,23.23,0,0,0,6.51-1.9V35.23l.62.27a17.26,17.26,0,0,0,3.45-1.5,10.08,10.08,0,0,0,1.23-.81,2.59,2.59,0,0,0,.17-.33c.1-.24.19-.47.27-.71s.08-.22.11-.33a6.29,6.29,0,0,0,.17-.62c0-.13.06-.26.09-.39s0-.06,0-.08,0-.05,0-.07a3,3,0,0,0,.06-.43A6.77,6.77,0,0,0,110,27a2,2,0,0,0-.11-.26,0,0,0,0,0,0,0,2.06,2.06,0,0,0-.12-.26,1.65,1.65,0,0,0-.14-.26,1.4,1.4,0,0,0-.16-.26.67.67,0,0,0-.09-.14,4.9,4.9,0,0,0-.59-.74c-.11-.12-.23-.24-.37-.37a7.52,7.52,0,0,0-1.93-1.27l-.59-.26-.1,0c-.3-.11-.61-.22-.92-.3a22.2,22.2,0,0,0-9-.6,10,10,0,0,1-1.81.1,1,1,0,0,1-.93-1.46,2.92,2.92,0,0,1,.65-1,8.8,8.8,0,0,1,1.43-1.3,1.13,1.13,0,0,0,.52-1.24,10.84,10.84,0,0,0-.87-2.65,7.53,7.53,0,0,0-1-1.5,4.93,4.93,0,0,0-2.28-1.55l-.07,0a6.76,6.76,0,0,0-1.34-.13,7.47,7.47,0,0,0-1.41.13A10.4,10.4,0,0,0,83,14.68c-.16.16-.33.32-.48.49a4.2,4.2,0,0,0-.29.32q-.32.33-.6.69c-.17.2-.34.41-.5.63l0,0c-.19.26-.38.52-.56.79l-.24.35c-.18.26-.35.53-.51.8-.33.54-.65,1.1-1,1.7-.4.77-.79,1.6-1.18,2.49a54,54,0,0,0-3.94,13.58l.1-.05.49-.53-.33.51V42l-1.93.82a95.48,95.48,0,0,0,.34,15.31A72.57,72.57,0,0,0,76.7,75.8,89.29,89.29,0,0,0,87.38,95.66a4,4,0,0,1,.84,2.94,14.19,14.19,0,0,1-2.86,7.09c-1.38,1.77-3.07,1.87-4.67.27a11.83,11.83,0,0,1-1.8-2.41,66.57,66.57,0,0,1-5.32-11.38,104.1,104.1,0,0,1-5.83-33.4c-.06-1.93,0-3.86,0-5.8a1.54,1.54,0,0,0-.89-1.58,1.65,1.65,0,0,0-1.81.32c-.67.57-1.33,1.18-2,1.69-4.1,2.9-8.22,5.76-12.32,8.65-3.79,2.68-7.64,5.31-11.34,8.11A57.46,57.46,0,0,0,27.93,81.35,36.92,36.92,0,0,0,22.29,92a33.53,33.53,0,0,0-1.47,13.59,27.37,27.37,0,0,0,6.07,14.88,37.36,37.36,0,0,0,13.46,10.32c8.43,4,17.41,5.73,26.67,6.23a112.55,112.55,0,0,0,19.42-.66,99.83,99.83,0,0,0,17.94-3.66,58.58,58.58,0,0,0,15.56-7.26,35.71,35.71,0,0,0,9.92-9.68A25.85,25.85,0,0,0,133.89,94.57ZM87.34,73.84a40.34,40.34,0,0,1-4-13.47,6.87,6.87,0,0,1,0-1.81A4.23,4.23,0,0,1,84,56.9a.89.89,0,0,1,1.53.06,6,6,0,0,1,.57,1.2,50.44,50.44,0,0,0,6,11A45.88,45.88,0,0,0,104.2,80.52c1.34.85,2.61,1.76,3.91,2.66,2,1.36,2.7,3.34,2.67,6.27a10.34,10.34,0,0,1-.86,3.59c-.58,1.25-1.09,1.47-2.41,1.12a13.37,13.37,0,0,1-4.12-2A47.75,47.75,0,0,1,96.27,86,46.6,46.6,0,0,1,87.34,73.84ZM50.75,79.57a55.29,55.29,0,0,1,9.47-13.94,4.9,4.9,0,0,1,1.23-.94c.36-.22.66,0,.7.39a2.37,2.37,0,0,1-.06,1.06c-.3,1-.64,2.08-1,3.1-1.23,3.27-2.61,6.5-3.7,9.82a60.59,60.59,0,0,0-2.7,13.69,11.72,11.72,0,0,1-.21,1.3,4.15,4.15,0,0,1-5,3,2.16,2.16,0,0,1-1.77-1.9A20.45,20.45,0,0,1,47.52,93,32.15,32.15,0,0,1,50.75,79.57Z"/><path class="cls-3" d="M140,93.78a35.2,35.2,0,0,0-5.35-11.65c-.21-.3-.43-.62-.65-.92a61.43,61.43,0,0,0-8.39-9.34l-3.44,3.73a56.92,56.92,0,0,1,7.7,8.58,35.5,35.5,0,0,1,3.55,6.06A24.85,24.85,0,0,1,135.08,95c1.73,7.3.45,14-3.92,20.61a35.6,35.6,0,0,1-9.86,9.64,60,60,0,0,1-15.86,7.43,103.59,103.59,0,0,1-18.59,3.81,119.61,119.61,0,0,1-20.19.7c-10.63-.58-19.59-2.68-27.39-6.43a36.94,36.94,0,0,1-13.4-10.3A27,27,0,0,1,20,105.89a33.3,33.3,0,0,1,2-15.14,37.2,37.2,0,0,1,5-9A57.53,57.53,0,0,1,38.62,70.34c.75-.59,1.52-1.15,2.32-1.75l-3-4.08-2.35,1.76A63,63,0,0,0,23,78.72c-.83,1.12-1.6,2.25-2.31,3.41a38.59,38.59,0,0,0-5.73,24.23,31.89,31.89,0,0,0,7,17.26,42,42,0,0,0,15.18,11.72c8.4,4,18,6.3,29.29,6.91q3.11.17,6.27.17a125.9,125.9,0,0,0,14.79-.89,108.7,108.7,0,0,0,19.52-4,64.8,64.8,0,0,0,17.19-8.08,40.58,40.58,0,0,0,11.23-11A30.37,30.37,0,0,0,140,93.78ZM117,24.39c-.76-1.67-2.49-3.95-6.38-5.3-.43-.16-.85-.28-1.3-.4a29.66,29.66,0,0,0-9.49-.87,3.35,3.35,0,0,0,.75-3,11.47,11.47,0,0,0-2.74-5.48A8.71,8.71,0,0,0,94,6.91a13.69,13.69,0,0,0-6.28-.34,16.12,16.12,0,0,0-8.76,4.72,29.7,29.7,0,0,0-6.25,9.41c-.06.14-.13.28-.19.43A58.24,58.24,0,0,0,67.7,40.57l-.26,4.22,4.61-2c0-.48,0-1,.08-1.45a57.32,57.32,0,0,1,3.94-17.72c.17-.44.35-.87.54-1.3.08-.21.17-.4.25-.59l.06-.11c0-.13.12-.26.18-.39s.24-.52.37-.78c.3-.59.62-1.18,1-1.76l.18-.3c.22-.36.45-.71.68-1.05s.33-.47.5-.69.34-.46.52-.68l.22-.27c.19-.23.4-.47.61-.7a11.3,11.3,0,0,1,6.22-3.75,8.38,8.38,0,0,1,4.13.24,6.11,6.11,0,0,1,.74.17,2.94,2.94,0,0,1,1.38.86,5.6,5.6,0,0,1,1.2,2c.06.15.11.31.16.48a13,13,0,0,0-1.39,1.2,5.59,5.59,0,0,0-1.29,1.86,3.32,3.32,0,0,0,.27,3.29,4.15,4.15,0,0,0,3.13,1.67,14.24,14.24,0,0,0,2.58-.1h.1a28,28,0,0,1,7.5.11c.65.11,1.27.26,1.88.42.28.08.56.15.83.25l.07,0a5.22,5.22,0,0,1,3.26,2.54,5.18,5.18,0,0,1-.33,4.42,5.93,5.93,0,0,1-.36.65,7.47,7.47,0,0,1-.48.63,3.84,3.84,0,0,1-.28.3,2.83,2.83,0,0,1-.3.3q-.31.29-.69.57A9.67,9.67,0,0,1,105.86,37a17.49,17.49,0,0,1-1.69.93v2.88l.18.08,1-.28a24.37,24.37,0,0,0,5.86-2.39,14.6,14.6,0,0,0,4.16-3.48,10.55,10.55,0,0,0,1.27-2A9.71,9.71,0,0,0,117,24.39Z"/><path class="cls-4" d="M111.58,30.74a6.67,6.67,0,0,1-2.11,2.45,2.59,2.59,0,0,0,.17-.33c1.49-3.38,1.15-7.81-3.77-9.77.65.11,1.27.26,1.88.42.28.08.56.15.83.25l.07,0a5.22,5.22,0,0,1,3.26,2.54A5.18,5.18,0,0,1,111.58,30.74Z"/><path class="cls-4" d="M91.49,11.52a6.76,6.76,0,0,0-1.34-.13,7.47,7.47,0,0,0-1.41.13A10.4,10.4,0,0,0,83,14.68,25.41,25.41,0,0,0,77.66,23a54,54,0,0,0-3.94,13.58l.1-.05.49-.53-.33.51V42l-1.93.82c0-.48,0-1,.08-1.45a57.32,57.32,0,0,1,3.94-17.72A27.19,27.19,0,0,1,81.14,15a11.3,11.3,0,0,1,6.22-3.75A8.38,8.38,0,0,1,91.49,11.52Z"/><path class="cls-4" d="M109.47,33.19A9.67,9.67,0,0,1,105.86,37a17.49,17.49,0,0,1-1.69.93V35.23l.62.27a17.26,17.26,0,0,0,3.45-1.5A10.08,10.08,0,0,0,109.47,33.19Z"/><path class="cls-5" d="M182.66,77.33c0-26.16,19.08-41,39.94-41a37.56,37.56,0,0,1,25.7,10.32l-11.45,13.2c-4.07-3.36-8.14-5.76-13.74-5.76-9.67,0-18.06,8.4-18.06,22.56,0,14.64,7.12,22.8,17.81,22.8a21.15,21.15,0,0,0,15-6.72l11.44,13c-7,7.68-16.53,11.52-27.22,11.52C201,117.17,182.66,104,182.66,77.33Z"/><path class="cls-5" d="M261.78,37.73h31.29c17.81,0,33.07,5.76,33.07,25.2,0,18.84-15.26,26.64-33.07,26.64h-9.41v26.16H261.78Zm29.77,35.52c8.64,0,13.22-3.6,13.22-10.32s-4.58-8.88-13.22-8.88h-7.89v19.2Zm-2.42,10.92,14.75-13.68,26.84,45.24H306.3Z"/><path class="cls-5" d="M356.42,37.73h26.45l25.19,78H384.91L375.5,77.81c-2-7.44-4.07-16.92-6.11-24.72h-.51C367.1,61,365.07,70.37,363,77.81l-9.41,37.92H331.23Zm-7.13,45.48h40.45v16H349.29Z"/><path class="cls-5" d="M404,37.73h23.15l8.65,34.08c2.29,8.28,3.82,16.32,6.11,24.72h.51c2.28-8.4,3.94-16.44,6.1-24.72l8.4-34.08h22.38l-24.42,78H428.41Z"/><path class="cls-5" d="M486.93,37.73h53.42V55H508.8V67.25h27V84.53h-27V98.45h32.82v17.28H486.93Z"/><path class="cls-5" d="M599.62,88.85,574.69,37.73H598.1l6.1,16.32c2,5.88,4.07,11.28,6.24,17.4H611c2.16-6.12,4.32-11.52,6.48-17.4l6.11-16.32h22.89L621.5,88.85v26.88H599.62Z"/><path class="cls-5" d="M667.55,37.73H694l25.18,78H696l-9.41-37.92c-2-7.44-4.07-16.92-6.11-24.72H680c-1.78,7.92-3.81,17.28-5.85,24.72l-9.41,37.92H642.36Zm-7.12,45.48h40.44v16H660.43Z"/><path class="cls-5" d="M726.82,37.73h31.3c17.8,0,33.07,5.76,33.07,25.2,0,18.84-15.27,26.64-33.07,26.64H748.7v26.16H726.82Zm29.77,35.52c8.65,0,13.23-3.6,13.23-10.32s-4.58-8.88-13.23-8.88H748.7v19.2Zm-2.42,10.92,14.76-13.68,26.84,45.24H771.34Z"/><path class="cls-5" d="M808,37.73H832.4c25.18,0,42.48,11,42.48,38.64s-17.3,39.36-41.21,39.36H808Zm23.15,61.44c12,0,21.37-4.56,21.37-22.8s-9.42-22.08-21.37-22.08h-1.27V99.17Z"/></g></g></svg>