<svg xmlns="http://www.w3.org/2000/svg" viewBox="0 0 905.14 905.14"><defs><style>.cls-1{fill:#b7b8c2;}.cls-1,.cls-2,.cls-3,.cls-6{fill-rule:evenodd;}.cls-2{fill:#fff;}.cls-3,.cls-5{fill:#081528;}.cls-4{fill:none;}.cls-4,.cls-5{stroke:#081528;stroke-linecap:round;stroke-linejoin:round;stroke-width:10px;}.cls-6{fill:#d9d9d9;}</style></defs><g id="Layer_2" data-name="Layer 2"><g id="Layer_1-2" data-name="Layer 1"><path class="cls-1" d="M452.57,0C202.61,0,0,202.6,0,452.56S202.61,905.14,452.57,905.14,905.14,702.52,905.14,452.56,702.51,0,452.57,0m230.2,624.31c-11.56,17.37-26.8,32.37-46.53,45.8-20,13.61-42.74,24.32-69.54,32.71-23.21,7.28-48.53,12.51-77.46,16A492.52,492.52,0,0,1,431,722.3c-8.36,0-16.78-.23-25.06-.67-45.24-2.44-83.69-11.53-117.56-27.82-26.35-12.68-46.88-28.59-62.79-48.61a135.49,135.49,0,0,1-29.49-73,161.84,161.84,0,0,1,5.14-58.46,259.39,259.39,0,0,1-7.27-61.2c0-138.43,108.69-251.45,245.45-258.32a107.48,107.48,0,0,1,9.5-12.09C459.93,170,472.18,162.72,486.34,160a57.48,57.48,0,0,1,10.88-1.07,55.53,55.53,0,0,1,17.25,2.76,41.61,41.61,0,0,1,19.19,13.13c6,7.2,10,16,12.17,26.71a23.06,23.06,0,0,1,.36,2.31,97.37,97.37,0,0,1,22.24,3.94c1.9.57,3.65,1.16,5.3,1.8,17.65,6.83,25.66,18.58,29.26,27.25a44.07,44.07,0,0,1,2.26,7,258.87,258.87,0,0,1,97.1,276.12c8.68,36.7,2.09,71.82-19.58,104.38"/><path class="cls-2" d="M681.22,524.87c-3.91-16.57-11.76-31.35-21.56-45.11-11.76-16.5-26.17-30.5-41.23-43.88-11.68-10.37-23.47-20.61-35-31.14a132.36,132.36,0,0,1-22.52-25.88c-7.54-11.66-11.66-24.27-10.25-38.25.65-6.22,2.17-12.35,3.45-19.35l-9.8,1.06c-12.64,1.44-25.22.67-37.75-1.06-11.89-1.65-23.55-4.29-34.61-9-3.27-1.37-6.18-3.78-8.91-6.12-1.6-1.37-2.83-3.53-1.57-5.82s3.48-2.32,5.69-2.08c3.14.33,6.28.72,9.42,1.07,18.7,2.2,37.44,2.66,56.12-.28,11.89-1.88,23.34-5.09,33.61-11.7,6.7-4.33,12.26-9.73,15.49-17.12,6.16-14,4.71-32.47-15.85-40.43-1.23-.49-2.49-.9-3.78-1.29-12.15-3.67-24.53-3.83-37-2.43a37.91,37.91,0,0,1-7.43.38c-3.42-.28-5-2.83-3.79-6a13,13,0,0,1,2.62-4.16,43.33,43.33,0,0,1,5.9-5.35c1.83-1.37,2.57-2.91,2.11-5.1-1.26-6.27-3.39-12.14-7.53-17.14a20.25,20.25,0,0,0-9.32-6.4,34,34,0,0,0-17.22-1c-10.4,2-18.58,7.8-25.53,15.47-9.42,10.38-15.73,22.62-20.77,35.54A237.56,237.56,0,0,0,428,305.36c-1.29,23.09-1.54,46.14,1.05,69.18a302.46,302.46,0,0,0,17.69,72.87c10.95,29.26,25.94,56.38,43.79,82,2.63,3.75,4,7.64,3.43,12.11-1.42,10.74-5,20.7-11.71,29.24-5.69,7.31-12.61,7.69-19.15,1.11a50.63,50.63,0,0,1-7.41-9.94A276.11,276.11,0,0,1,433.94,515c-16-44.52-22.85-90.66-23.94-137.78-.2-8-.07-15.95-.05-23.93,0-2.88-.9-5.33-3.65-6.54a6.72,6.72,0,0,0-7.42,1.32c-2.77,2.36-5.47,4.86-8.43,7-16.8,11.94-33.66,23.75-50.47,35.69-15.57,11.07-31.32,21.9-46.5,33.46-17.52,13.33-33.43,28.43-46.66,46.16-22.13,29.67-32.5,62.82-29.15,100,2.08,23,10.57,43.41,24.88,61.42,14.85,18.74,33.79,32.27,55.18,42.54,34.56,16.63,71.41,23.67,109.34,25.73a459.44,459.44,0,0,0,79.6-2.72c25-3,49.53-7.6,73.54-15.11,22.63-7.1,44.14-16.57,63.8-30,16-10.87,30-23.76,40.69-39.92,17.81-26.76,24-55.84,16.52-87.39M386.87,407.57c-1.26,4.3-2.63,8.57-4.17,12.77-5,13.51-10.68,26.82-15.16,40.5a252.25,252.25,0,0,0-11.06,56.49,40.11,40.11,0,0,1-.88,5.41c-2,9-11.71,14.61-20.66,12.22-4.15-1.11-6.72-3.65-7.28-7.85-.45-3.27-.45-6.61-.55-8.57.21-20.46,5.33-38.37,13.28-55.56,9.83-21.25,23.09-40.25,38.81-57.54a20.58,20.58,0,0,1,5-3.89c1.44-.85,2.71.05,2.89,1.63a11,11,0,0,1-.26,4.39m196.1,111c-2.39,5.11-4.5,6-9.91,4.6-6.2-1.62-11.66-4.76-16.88-8.31-10.76-7.34-20.12-16.26-29.18-25.55-14.6-14.93-27.43-31.09-36.65-50a167,167,0,0,1-16.29-55.59,29.14,29.14,0,0,1-.11-7.46,17.77,17.77,0,0,1,2.55-6.82c1.63-2.39,4.66-2.16,6.31.24a26,26,0,0,1,2.32,4.94A206.6,206.6,0,0,0,509.78,420a187.27,187.27,0,0,0,49.74,46.86c5.44,3.54,10.68,7.28,16,11,8.13,5.63,11,13.76,10.94,25.88a43,43,0,0,1-3.5,14.83"/><path class="cls-3" d="M776.64,385l-3.16-13.72,45.73-10.56,3.16,13.73c2.18,9.43-5.54,22.95-18.11,25.85s-25.44-5.86-27.62-15.3M847,366.25,838,327.52l-96,22.17,8.94,38.72c7.42,32.16,33.08,45.5,59.66,39.37s44-28.51,36.37-61.53m-87.12-98-7.44-11.61,17.78-11.4,7.44,11.61c3.56,5.56,3.65,11.95-2.4,15.82s-11.82,1.14-15.38-4.42m-6.37,28.65c11.17,7.65,25.71,6.69,37.93-1.15,16.06-10.29,21.25-27.74,7.4-49.34l-24.07-37.54-83,53.2,15.2,23.7,25.68-16.46,2.93,4.57-14.68,33.62,17.73,27.66Zm-94-115.35,25.93-15.43L676.54,195Zm56.61-33.11-20.76-16.31-93,52.3,22.48,17.68,15.12-9,30,23.57-5.19,16.81,22.48,17.67ZM612.55,82.91,585,105.79l-8-34.92L545.86,60.34,562.63,128l-12.79,37.79,26.67,9L589.3,137l54.37-43.53ZM458.18,75.75,456.23,50l-65.52,5,7.48,98.27,65.51-5-1.95-25.74L424.3,125.4l-.88-11.7,30.41-2.31L452.06,88,421.64,90.3l-.89-11.7ZM323.64,178l26.2-10.33,1-106.32-30.56,12,2,62.6L280.94,88.85,250.38,100.9ZM221.45,202.05l-10.23-28.39,26.64,14.18Zm-21.77-61.86-20,17.28,33.71,101.19,21.62-18.73-6-16.54,28.82-25,15.53,8.29L295,188ZM141.05,276.43l-6.87,12-18.32-10.53,6.88-11.95c3.29-5.73,8.92-8.75,15.14-5.16s6.46,10,3.17,15.68m28.36-7.54c1.64-13.44-5.91-25.91-18.51-33.14-16.52-9.51-34.4-6.08-47.19,16.17L81.48,290.57l85.45,49.13,14-24.41-26.44-15.2,2.7-4.71,36.61-2.47,16.38-28.48Zm-37.6,112.52c-2.7,15.16-16.33,25.54-30.33,23S78.28,387.5,81,372.34a29.72,29.72,0,0,1,13.74-20.19l-21.8-14.78c-9.05,7.33-15.44,19.75-17.48,31.15-5.36,30,13.07,58.65,41.08,63.65s55.2-15.47,60.57-45.5c2-11.4.19-25.29-5.77-35.29l-25.42,6.33a29.73,29.73,0,0,1,5.9,23.7"/><path class="cls-3" d="M743.26,651.3l-11.4-8.88-22.61,29,43.51,33.92,22.62-29L764,667.46,751.06,684l-5.18-4,10.5-13.47L746,658.45l-10.5,13.47-5.18-4Zm-39.35,61.77-5.6,5.32-8.14-8.58,5.6-5.31c2.68-2.55,6.18-3.27,9-.35s1.86,6.38-.81,8.92m16.42.5c3-7,1-14.85-4.62-20.75-7.35-7.74-17.49-8.76-27.91,1.13l-18.11,17.18,38,40,11.43-10.85-11.75-12.39,2.21-2.09,20,4.53,13.34-12.66Zm-56.5,54a14.45,14.45,0,1,1,4.41-20,14.47,14.47,0,0,1-4.41,20m-23.32-36.54c-14.06,9-18.5,27.19-9.92,40.62s27,17.07,41,8.1,18.49-27.19,9.92-40.62-27-17.07-41-8.1m-31.63,22.42-14.68,5.75L594,794.62l-24.22-25.78-14.68,5.75,15.26,53.29L585,822.12l-8.11-27.86L596,817.81l12.23-4.8-2-30.27,13,26,14.68-5.76Zm-116,78.94c-4.16.51-7.38-2.16-7.77-5.33-.25-2,.28-4.42,1.94-5.7l11.64,8.49a10.15,10.15,0,0,1-5.81,2.54M491,808.66c-3.26-2.24-4.85-3.7-5.11-5.82s1.31-4.14,4.66-4.55c3-.37,5.31.84,5.91,3,.78,3-1,4.91-5.46,7.37M529.59,812l-17,2.09-5.11,6.18-7.07-5c6.16-3.73,12.76-7.2,11.66-16.16s-10.6-14.08-22.74-12.58c-11.9,1.47-19.75,9.55-19.08,17,.34,4.09,2,7.53,7,10.79-4.29,2.19-8.78,7.37-7.91,14.38,1.47,11.9,12.36,17,23.77,15.6,6.76-.84,11-3.26,15.59-7.06l4.46,3.26,19.47-2.41L517.4,827.25ZM413,806.81c-5.7-1.45-7-2.44-6.76-4.23.18-1.47,1.71-2.44,6.84-1.8,10.92,1.35,15.49,5.88,15.49,5.88l7.64-11c-6.61-7.43-19.89-9.07-19.89-9.07-16.22-2-24.64,5.23-25.83,14.84-1.17,9.45,4.44,16.35,19.06,20.56,7,2,9.82,2.87,9.53,5.23-.38,3-5.24,2.91-9.54,2.21A32.24,32.24,0,0,1,392.58,821l-7.33,11.76a37.13,37.13,0,0,0,22.47,11c17.6,2.18,25.83-5.49,27.14-16.09,1.71-13.85-11.33-18.19-21.91-20.9m-66.32,10a14.45,14.45,0,1,1,17.88-9.9,14.49,14.49,0,0,1-17.88,9.9m12-41.67c-16-4.61-32.62,4.12-37,19.43s5,31.52,21.06,36.13,32.62-4.13,37-19.44-5-31.52-21.06-36.12m-37.21-10.79-14.05-7.14-26.59,23.33,3.16-35.24-14.05-7.14-29.68,46.81,14,7.14,15.44-24.57-4.9,29.93,11.71,5.95,21.3-21.6-10.75,27,14.05,7.14ZM213.65,747.11a14.45,14.45,0,1,1,20.28-2.5,14.49,14.49,0,0,1-20.28,2.5m26.69-34.17c-13.13-10.26-31.79-8.38-41.6,4.18s-7.12,31.11,6,41.38,31.8,8.37,41.6-4.18,7.11-31.12-6-41.38m-29.47-24.48-10.28-12L167.12,688l16.31-31.39-10.28-11.94-45.24,32,10.29,12,23.61-16.87-15.89,25.83,8.57,9.95,27.9-11.89L162.2,716.5l10.29,12Z"/><path class="cls-4" d="M116.58,606.08C96.24,568.2,85.07,527.46,85,485.81"/><path class="cls-5" d="M776.71,602.72c17.25-38.16,25.14-78.21,21.88-118.09"/><path class="cls-6" d="M876.12,39.65h-10L852.31,73.48,838.53,39.65h-10L821,92.27h10.65L836,57.82l13.79,34.45h5L868.6,57.82,873,92.27h10.65Zm-97.72,0v10h13.77v42.6h10V49.67H816v-10Z"/></g></g></svg>