<svg id="Layer_1" data-name="Layer 1" xmlns="http://www.w3.org/2000/svg" viewBox="0 0 1080 259.55"><defs><style>.cls-1,.cls-2{fill:#081528;}.cls-1,.cls-3{fill-rule:evenodd;}.cls-3,.cls-4{fill:#fff;}</style></defs><path class="cls-1" d="M118.81,30.75a99,99,0,1,0,99,99h0A99,99,0,0,0,118.81,30.75Zm50.37,136.6a36.92,36.92,0,0,1-10.18,10,56.83,56.83,0,0,1-15.22,7.16,92.8,92.8,0,0,1-17,3.49,106.55,106.55,0,0,1-12.75.77c-1.83,0-3.67,0-5.48-.14-9.9-.54-18.32-2.53-25.72-6.09A38.38,38.38,0,0,1,69.12,172a29.69,29.69,0,0,1-6.46-16,35.23,35.23,0,0,1,1.13-12.8,56.65,56.65,0,0,1,52.13-69.93A24,24,0,0,1,118,70.6a14.63,14.63,0,0,1,8.22-4.85,12.5,12.5,0,0,1,2.36-.23,11.75,11.75,0,0,1,3.77.59A9,9,0,0,1,136.56,69a12.9,12.9,0,0,1,2.63,5.86,4.5,4.5,0,0,0,.08.51,20.57,20.57,0,0,1,4.86.86c.42.12.8.25,1.18.39a10.77,10.77,0,0,1,6.4,6,9.23,9.23,0,0,1,.5,1.54,56.61,56.61,0,0,1,21.22,60.41A28.05,28.05,0,0,1,169.18,167.35Z"/><path class="cls-2" d="M114.06,185.52c-1.78,0-3.55-.05-5.31-.14-9.46-.52-17.47-2.4-24.48-5.78a34.65,34.65,0,0,1-12.59-9.71,26.31,26.31,0,0,1-5.75-14.23,32.4,32.4,0,0,1,6.66-22.88,53,53,0,0,1,10.49-10.4c2.55-1.93,5.19-3.79,7.74-5.6L93.3,115l5.43-3.85,5.62-4c.42-.31.84-.67,1.28-1l.46-.4a3,3,0,0,1,3.17-.52,2.84,2.84,0,0,1,1.68,2.79v5.19a92.36,92.36,0,0,0,5.15,29.69,58,58,0,0,0,4.65,10,9.43,9.43,0,0,0,1.39,1.88,1.64,1.64,0,0,0,1,.59,1.54,1.54,0,0,0,.94-.7,11.49,11.49,0,0,0,2.27-5.69,2.15,2.15,0,0,0-.5-1.61,81.63,81.63,0,0,1-9.75-18.27,67.86,67.86,0,0,1-4-16.3,89.78,89.78,0,0,1-.23-15.38A53.45,53.45,0,0,1,115.57,81a25.49,25.49,0,0,1,4.83-8.25A11.51,11.51,0,0,1,126.81,69a8.85,8.85,0,0,1,4.51.28A5.84,5.84,0,0,1,134,71.09a9.55,9.55,0,0,1,2,4.41,2.47,2.47,0,0,1-1,2.58,8,8,0,0,0-.82.72l.29,0h.08a21.26,21.26,0,0,1,8.69.59c.37.11.66.21.94.32a7.72,7.72,0,0,1,4.54,4.17,8.46,8.46,0,0,1-.27,6.64,10,10,0,0,1-3.94,4.4,20,20,0,0,1-7.92,2.77,46,46,0,0,1-12.68.07l-.4,0,.12,0a28.16,28.16,0,0,0,7.21,1.87,31.11,31.11,0,0,0,7.89.22l1.18-.12,3-.33-.36,1.95c-.09.49-.18,1-.28,1.42-.19,1-.37,1.84-.46,2.7a11.33,11.33,0,0,0,2,7.42,27.86,27.86,0,0,0,4.68,5.37c1.73,1.58,3.54,3.15,5.25,4.68l2.41,2.13a59.52,59.52,0,0,1,9.24,9.84,29.32,29.32,0,0,1,5,10.39h0a25,25,0,0,1-3.82,20.28,33.54,33.54,0,0,1-9.3,9.13,53.35,53.35,0,0,1-14.35,6.74,90.35,90.35,0,0,1-16.36,3.37A106.69,106.69,0,0,1,114.06,185.52ZM108,108l-.43.37c-.47.41-1,.83-1.51,1.23l-5.62,4q-2.72,1.91-5.42,3.84l-2.49,1.77c-2.54,1.77-5.16,3.63-7.66,5.53a49.31,49.31,0,0,0-9.93,9.8,29.62,29.62,0,0,0-6.1,20.86A23.54,23.54,0,0,0,74,168.05a32.38,32.38,0,0,0,11.57,8.88c6.65,3.2,14.3,5,23.37,5.49a100.38,100.38,0,0,0,17.16-.59,87,87,0,0,0,15.83-3.25,50.81,50.81,0,0,0,13.56-6.37,30.5,30.5,0,0,0,8.5-8.33,21.87,21.87,0,0,0,3.41-18h0a26.72,26.72,0,0,0-4.49-9.35,57.53,57.53,0,0,0-8.79-9.35l-2.4-2.12c-1.74-1.53-3.54-3.12-5.31-4.72a30.49,30.49,0,0,1-5.12-5.92,14.15,14.15,0,0,1-2.47-9.32c.09-.82.23-1.6.39-2.41H139a34.08,34.08,0,0,1-8.62-.23,31.68,31.68,0,0,1-7.95-2.07,9,9,0,0,1-2.36-1.58,2.41,2.41,0,0,1,2-4.28l1.35.15.73.08a43.44,43.44,0,0,0,11.89-.05,17.11,17.11,0,0,0,6.78-2.36,7,7,0,0,0,2.83-3.09A5.53,5.53,0,0,0,146,85a4.79,4.79,0,0,0-2.89-2.56c-.25-.09-.48-.17-.73-.24a18.31,18.31,0,0,0-7.51-.48h-.07a9.45,9.45,0,0,1-1.84.08,2.36,2.36,0,0,1-2.08-3.31,4.19,4.19,0,0,1,.87-1.39A11.25,11.25,0,0,1,133,75.82,6.58,6.58,0,0,0,131.75,73a2.9,2.9,0,0,0-1.37-.94,6,6,0,0,0-3-.18,8.54,8.54,0,0,0-4.77,3,23.09,23.09,0,0,0-4.26,7.32,50.9,50.9,0,0,0-3.44,15.54,87.12,87.12,0,0,0,.23,14.89,65,65,0,0,0,3.78,15.6,79.31,79.31,0,0,0,9.43,17.6,5,5,0,0,1,1,3.69,14.52,14.52,0,0,1-2.86,7.11,4,4,0,0,1-5.45,1.22,3.84,3.84,0,0,1-1-.85,11.62,11.62,0,0,1-1.84-2.46,60.22,60.22,0,0,1-4.88-10.53A94.75,94.75,0,0,1,108,113.31c0-1.33,0-2.66,0-4V108ZM94,149.4a5.13,5.13,0,0,1-1.29-.17A3.44,3.44,0,0,1,90,146.28a15.26,15.26,0,0,1-.12-1.66v-.43a30.37,30.37,0,0,1,3-12.76,51.07,51.07,0,0,1,8.74-13,5.77,5.77,0,0,1,1.46-1.13,1.88,1.88,0,0,1,1.77-.08,2,2,0,0,1,1,1.54,3.86,3.86,0,0,1-.11,1.55,29.85,29.85,0,0,1-.94,2.89c-.39,1-.79,2-1.18,3-.74,1.89-1.5,3.85-2.13,5.79a53,53,0,0,0-2.36,12,10.44,10.44,0,0,1-.22,1.38,5.09,5.09,0,0,1-2.32,3.19A5.25,5.25,0,0,1,94,149.4Zm-1.18-5.22v.35a11.17,11.17,0,0,0,.1,1.35c0,.2,0,.38.51.5a2.24,2.24,0,0,0,1.73-.27,2.1,2.1,0,0,0,1-1.31,6.46,6.46,0,0,0,.16-1,56,56,0,0,1,2.49-12.69c.66-2,1.44-4,2.19-5.94.33-.87.67-1.73,1-2.6a46.7,46.7,0,0,0-6.39,10.08,27.5,27.5,0,0,0-2.74,11.51Zm11.79-24.3Zm-1.56-.71Zm43,27.67a4.68,4.68,0,0,1-1.18-.18,13.34,13.34,0,0,1-4.13-2,44.89,44.89,0,0,1-6.61-5.78,43.3,43.3,0,0,1-8.29-11.32,38.09,38.09,0,0,1-3.7-12.65,7.66,7.66,0,0,1,0-2,5.56,5.56,0,0,1,.79-2.07,2.27,2.27,0,0,1,1.87-1,2.36,2.36,0,0,1,2,1.07,5.58,5.58,0,0,1,.59,1.17l.07.19a44.14,44.14,0,0,0,5.22,9.62,39.86,39.86,0,0,0,10.5,9.89c1,.59,1.89,1.27,2.79,1.91l.75.52c2.12,1.46,3.06,3.59,3,6.89v.08a10.69,10.69,0,0,1-.91,3.77h0a3,3,0,0,1-2.74,1.95ZM124.94,114.2a1.67,1.67,0,0,0,0,.38,35.29,35.29,0,0,0,3.43,11.67,41,41,0,0,0,7.74,10.55,42.33,42.33,0,0,0,6.17,5.41,10.8,10.8,0,0,0,3.24,1.61l.31.07.15-.28h0a8,8,0,0,0,.62-2.68c0-2.63-.69-3.66-1.77-4.39l-.76-.53c-.88-.59-1.8-1.26-2.7-1.86a42.48,42.48,0,0,1-11.28-10.6,45.51,45.51,0,0,1-5.18-9.36Z"/><path class="cls-3" d="M189.72,115l-.7-3,10-2.31.69,3c.48,2.07-1.21,5-4,5.66S190.19,117.06,189.72,115Zm15.38-4.13-2-8.47-21,4.85,2,8.47c1.62,7,7.24,10,13,8.61s9.63-6.22,8-13.42ZM186,89.44l-1.63-2.54,3.89-2.5,1.63,2.54c.78,1.22.8,2.61-.53,3.46s-2.58.27-3.36-1Zm-1.4,6.27a7.46,7.46,0,0,0,8.31-.26c3.53-2.25,4.65-6.07,1.61-10.79l-5.27-8.2L171.14,88.1l3.32,5.19,5.63-3.61.63,1L177.5,98l3.88,6ZM164.08,70.47l5.67-3.38-1.94,6.31Zm12.37-7.25-4.54-3.57L151.57,71.11,156.49,75l3.31-2,6.56,5.15-1.14,3.68,4.92,3.86ZM153.81,48.89l-6,5L146,46.24l-6.81-2.31,3.67,14.79L140.07,67l5.84,2,2.8-8.25,11.89-9.53ZM120,47.33l-.43-5.64-14.34,1.09,1.64,21.5,14.33-1.11-.43-5.63-8.19.63-.19-2.57,6.65-.5L118.7,50l-6.66.51-.2-2.57ZM90.59,69.69l5.74-2.26.21-23.27L89.85,46.8l.44,13.7-9-10.3-6.68,2.64ZM68.24,75,66,68.75l5.83,3.1ZM63.47,61.4l-4.36,3.78,7.38,22.16,4.71-4.13-1.31-3.62,6.31-5.46,3.4,1.81,4.71-4.12ZM50.64,91.21l-1.5,2.62-4-2.31,1.51-2.61c.72-1.25,2-1.91,3.31-1.13s1.42,2.2.69,3.45Zm6.21-1.65a7.41,7.41,0,0,0-4.05-7.25c-3.61-2.08-7.53-1.33-10.33,3.54L37.61,94.3l18.7,10.76,3.07-5.35-5.79-3.33.59-1,8-.54,3.58-6.23ZM48.6,114.18a5.91,5.91,0,0,1-6.64,5,5.92,5.92,0,0,1-4.48-7,6.48,6.48,0,0,1,3-4.41l-4.77-3.23a11.68,11.68,0,0,0-3.8,6.84c-1.18,6.57,2.86,12.83,9,13.92s12.08-3.39,13.26-10a11.8,11.8,0,0,0-1.27-7.73L47.33,109a6.44,6.44,0,0,1,1.29,5.18Z"/><path class="cls-3" d="M182.41,173.26l-2.5-1.95L175,177.66l9.52,7.43,4.95-6.35-2.49-2-2.83,3.63-1.13-.89,2.29-2.94L183,174.82l-2.3,3-1.14-.89Zm-8.61,13.51L172.58,188l-1.77-1.88,1.22-1.18a1.3,1.3,0,0,1,1.83-.2l.13.13A1.29,1.29,0,0,1,173.8,186.77Zm3.59.11a4.14,4.14,0,0,0-1-4.53c-1.6-1.7-3.82-1.93-6.1.24l-4,3.77,8.31,8.76,2.5-2.36L174.56,190l.47-.46,4.39,1,2.92-2.77ZM165,198.71a2.24,2.24,0,1,1,.05,0l0,0Zm-5.1-8a6.33,6.33,0,1,0,9,1.77,6.49,6.49,0,0,0-9-1.77ZM153,195.62l-3.19,1.25-.06,7.76-5.3-5.63-3.21,1.25,3.34,11.66,3.2-1.25L146,204.55l4.17,5.16,2.68-1.05-.44-6.62,2.85,5.67,3.21-1.26Zm-25.36,17.26a1.45,1.45,0,0,1-1.7-1.16v0a1.37,1.37,0,0,1,.42-1.24l2.55,1.86A2.17,2.17,0,0,1,127.63,212.88Zm-.41-5.2c-.71-.48-1.06-.81-1.11-1.27s.28-.91,1-1a1.08,1.08,0,0,1,1.3.65c.16.65-.21,1.08-1.2,1.62Zm8.44.74-3.72.46-1.11,1.35-1.55-1.1c1.35-.81,2.79-1.57,2.55-3.53s-2.32-3.08-5-2.75-4.33,2.09-4.18,3.71a2.94,2.94,0,0,0,1.54,2.36,3.15,3.15,0,0,0-1.73,3.15c.32,2.61,2.7,3.72,5.2,3.41a6,6,0,0,0,3.41-1.54l1,.71,4.26-.53L133,211.76Zm-25.53-1.14c-1.25-.31-1.52-.53-1.48-.92s.38-.53,1.5-.4a6.22,6.22,0,0,1,3.39,1.29l1.67-2.4c-1.45-1.63-4.35-2-4.35-2-3.54-.43-5.39,1.18-5.65,3.26s1,3.57,4.17,4.49c1.54.45,2.14.63,2.08,1.15s-1.14.63-2.09.48a7,7,0,0,1-3.69-1.85L104.07,213a8.13,8.13,0,0,0,4.92,2.42c3.85.47,5.65-1.18,5.94-3.54.37-3-2.47-4-4.79-4.56Zm-14.51,2.18a3.16,3.16,0,1,1,3.92-2.16,3.16,3.16,0,0,1-3.92,2.16Zm2.62-9.11a6.33,6.33,0,1,0,4.61,7.9,6.49,6.49,0,0,0-4.61-7.9ZM90.1,198,87,196.43l-5.82,5.1.7-7.71-3.07-1.57-6.48,10.24,3.07,1.56,3.38-5.37-1.08,6.54,2.56,1.3,4.66-4.71-2.36,5.89,3.07,1.56Zm-23.58-3.77a3.16,3.16,0,1,1,4.44-.55h0a3.16,3.16,0,0,1-4.43.55Zm5.84-7.47a6.33,6.33,0,1,0,1.33,9,6.48,6.48,0,0,0-1.32-9Zm-6.44-5.36-2.26-2.62-7.32,2.51,3.57-6.86-2.25-2.61-9.9,7L50,181.43l5.17-3.69-3.48,5.65,1.88,2.17,6.1-2.6-4.42,4.57,2.26,2.61Z"/><path class="cls-4" d="M49.79,170a1.63,1.63,0,0,1-1.44-.85,88.87,88.87,0,0,1-10.64-33.81,1.64,1.64,0,1,1,3.24-.54,1.36,1.36,0,0,1,0,.2,86,86,0,0,0,10.25,32.57,1.63,1.63,0,0,1-.63,2.22h0A1.66,1.66,0,0,1,49.79,170Z"/><path class="cls-4" d="M187.83,170a1.72,1.72,0,0,1-.8-.2,1.65,1.65,0,0,1-.64-2.23A86.08,86.08,0,0,0,196.65,135a1.64,1.64,0,1,1,3.26.34,89.07,89.07,0,0,1-10.62,33.81A1.63,1.63,0,0,1,187.83,170Z"/><path class="cls-1" d="M211.48,39.42h-2.19l-3,7.41-3-7.41h-2.18l-1.64,11.52h2.32l1-7.54,3,7.54h1.1l3-7.54,1,7.54h2.33Zm-21.38,0v2.2h3v9.32h2.19V41.62h3v-2.2Z"/><path class="cls-2" d="M288.53,147.62a18.35,18.35,0,0,0,13.21-6,5.2,5.2,0,0,1,3.4-1.77c1.09,0,2.18.68,3.27,2l10.9,15.53a3.21,3.21,0,0,1-.41,4.49c-9.26,8.58-19.2,13.21-32.42,13.21-27.38,0-49.72-23.83-49.72-51.22S259.1,72.7,286.48,72.7c13.22,0,23,3.68,32.42,12.13a3.39,3.39,0,0,1,.41,4.63l-11.44,15.25a3.58,3.58,0,0,1-3,1.77,4.72,4.72,0,0,1-3-1.22c-2.86-2.32-7.49-5.18-13.34-5.18-9.68,0-19.62,9.94-19.62,23.84S278.88,147.62,288.53,147.62Z"/><path class="cls-2" d="M331.3,79.78a3.29,3.29,0,0,1,3.53-3.54h39.23c40.08,0,44.8,49.32,14.31,61L408,166c2.31,3.4,1.09,5.58-2.87,5.58H379.67a3.57,3.57,0,0,1-3.13-1.9L362.76,142v26a3.29,3.29,0,0,1-3.53,3.54H334.84a3.29,3.29,0,0,1-3.54-3.54Zm31.46,37.72h4.09c12.81-.13,13.21-18.52,0-18.39h-4.09Z"/><path class="cls-2" d="M416.43,166.83l34.06-88.28a3.39,3.39,0,0,1,3.27-2.31h17.43a3.41,3.41,0,0,1,3.28,2.31l34,88.28c1.22,2.86-.14,4.76-3.27,4.76H481.54a3.54,3.54,0,0,1-3.4-2.58l-3.53-12H450.35l-3.53,12a3.53,3.53,0,0,1-3.41,2.58H419.7C416.57,171.62,415.21,169.69,416.43,166.83Zm50.81-35.56-4.76-16.34-4.77,16.34Z"/><path class="cls-2" d="M503.07,76.24h24a3.63,3.63,0,0,1,3.4,2.45l15.26,50.4,15.12-50.4a3.66,3.66,0,0,1,3.41-2.45h24c3,0,4.36,1.91,3.27,4.77l-32.13,88.26a3.55,3.55,0,0,1-3.27,2.31H535.22a3.54,3.54,0,0,1-3.27-2.31L499.8,81C498.74,78.15,500.08,76.24,503.07,76.24Z"/><path class="cls-2" d="M601.42,168.05V79.78A3.29,3.29,0,0,1,605,76.24h56.39a3.29,3.29,0,0,1,3.54,3.54V98.44a3.29,3.29,0,0,1-3.54,3.54H632.88v9.41H656.7a3.29,3.29,0,0,1,3.54,3.53v18.66a3.29,3.29,0,0,1-3.54,3.54H632.89v9.67l28.33-1.36A3.4,3.4,0,0,1,664.9,149V168a3.28,3.28,0,0,1-3.54,3.54H605A3.25,3.25,0,0,1,601.42,168.05Z"/><path class="cls-2" d="M712.85,76.24h24.79a3.54,3.54,0,0,1,3.27,2.18l11.85,29.15,11.72-29.15a3.79,3.79,0,0,1,3.4-2.18h24.66c3.41,0,4.63,2,3.13,5.17l-27.24,54.5v32.14a3.29,3.29,0,0,1-3.54,3.54H740.51a3.29,3.29,0,0,1-3.54-3.54V135.91L709.71,81.44C708.22,78.28,709.44,76.24,712.85,76.24Z"/><path class="cls-2" d="M787.77,166.83l34.06-88.28a3.39,3.39,0,0,1,3.26-2.31h17.44a3.39,3.39,0,0,1,3.27,2.31l34.06,88.28c1.22,2.86-.14,4.76-3.27,4.76H852.88a3.52,3.52,0,0,1-3.4-2.58l-3.54-12H821.7l-3.54,12a3.53,3.53,0,0,1-3.41,2.58h-23.7C787.91,171.62,786.55,169.69,787.77,166.83Zm50.81-35.56-4.76-16.34-4.77,16.34Z"/><path class="cls-2" d="M889.94,79.78a3.29,3.29,0,0,1,3.53-3.54H932.7c40.08,0,44.8,49.32,14.31,61L966.62,166c2.32,3.4,1.1,5.58-2.85,5.58H938.29a3.57,3.57,0,0,1-3.13-1.9L921.4,142v26a3.28,3.28,0,0,1-3.54,3.53H893.48a3.29,3.29,0,0,1-3.54-3.53ZM921.4,117.5h4.08c12.81-.13,13.21-18.52,0-18.39h-4.09Z"/><path class="cls-2" d="M1014.44,171.62H982.16a3.29,3.29,0,0,1-3.54-3.53V79.78a3.29,3.29,0,0,1,3.54-3.54h32.28c27,.28,45.77,20.57,45.77,47.68S1041.41,171.32,1014.44,171.62Zm-4.36-22.88c24-1.23,24-48.34,0-49.59Z"/></svg>