<svg id="Layer_1" data-name="Layer 1" xmlns="http://www.w3.org/2000/svg" viewBox="0 0 1080 315.73"><defs><style>.cls-1{fill:#10192c;}.cls-2{fill:#214a67;}.cls-3{fill:#081528;}</style></defs><g id="Layer_1-2" data-name="Layer 1-2"><path class="cls-1" d="M92.6,107.13a2.54,2.54,0,0,1,.49-.76q13.81-10.31,27.69-20.59a18.3,18.3,0,0,1,4.46-2.45,26.51,26.51,0,0,1,17.23-.69,22.14,22.14,0,0,1,6,2.8c1.24.81,2.44,1.73,3.64,2.61,6.48,4.83,13,9.59,19.49,14.45,3.4,2.56,6.9,5,10.24,7.6,3,2.36,6.17,4.53,9.26,6.79q.88.66,1.77,1.35c.42.33.8.69,1.22,1q4.63,3.4,9.27,6.78l.27.19c3.23,2.42,6.48,4.83,9.67,7.27,1.71,1.28,3.45,2.52,5.17,3.76a34.11,34.11,0,0,1,6.18,5.52,22.7,22.7,0,0,1,5,9.57,25.94,25.94,0,0,1,.55,3.15,114.09,114.09,0,0,1,.37,13.08v17.88q0,12,0,23.95a24.63,24.63,0,0,1-1.17,8.18c-.18.39-.38.76-.59,1.13a5.08,5.08,0,0,1-1.22-.31,32.59,32.59,0,0,1-3-1.77c-3.45-2.12-6.74-4.4-10.16-6.57-4-2.55-8-5.14-11.84-8,.06-.74.15-1.49.15-2.23V162.5c0-.53,0-1.06,0-1.6a1.44,1.44,0,0,0-.55-1.1c-.93-.69-1.85-1.44-2.76-2.13l-60.53-45c-1-.77-2.07-1.5-3.11-2.24a2.44,2.44,0,0,0-1.5-.48,1.63,1.63,0,0,0-1.08-1.43,62.62,62.62,0,0,0-6.6-3.19c-2.67-1-5.33-2.16-8.28-2.19a5.67,5.67,0,0,1-.92-.25,7.63,7.63,0,0,0-1.57-.23c-3.71,0-7.41-.3-11.11.55a43.29,43.29,0,0,0-9.67,3A6.32,6.32,0,0,1,92.6,107.13Z"/><path class="cls-2" d="M92.6,107.13a6.23,6.23,0,0,0,2.36-.87,44.17,44.17,0,0,1,9.67-3c3.7-.84,7.4-.51,11.1-.55a9.14,9.14,0,0,1,1.57.23,6,6,0,0,0,.92.25c3,0,5.6,1.2,8.29,2.19a63.49,63.49,0,0,1,6.59,3.19,1.62,1.62,0,0,1,1.09,1.43c-.73.59-1.43,1.27-2.19,1.84l-61.83,46c-.69.5-1.38,1-2,1.53a2.59,2.59,0,0,0-1.1,2.2V199.2c0,1.17,0,2.35-.07,3.53-.06.2,0,.48-.18.59A22.85,22.85,0,0,1,64.42,205q-5.47,3.54-11,7.11c-3.39,2.2-6.76,4.42-10.17,6.6A19.84,19.84,0,0,1,41,219.81c-1.27-2.07-1.52-4.38-1.77-6.71,0-.53,0-1.06,0-1.6v-53a23.84,23.84,0,0,1,4-13.23,24.36,24.36,0,0,1,6.15-6.41q5.78-4.26,11.53-8.56,12.17-9,24.3-18.13C87.62,110.37,90.08,108.71,92.6,107.13Z"/><path class="cls-2" d="M202.58,203c3.8,2.88,7.82,5.48,11.84,8,3.41,2.16,6.72,4.45,10.16,6.57q1.47.88,3,1.77a6.4,6.4,0,0,0,1.22.3,19.71,19.71,0,0,1-5.15,8.29,26.51,26.51,0,0,1-2.88,2.52,12,12,0,0,1-6.57,3.07c-7.39,1.38-14.41.54-20.88-3.54-.81-.52-1.64-1-2.44-1.52l-53.79-35.12a13.35,13.35,0,0,0-1.62-1,4,4,0,0,0-1.24-.16c-.09-.3-.07-.69-.27-.89a19.23,19.23,0,0,0-3.54-2.67c-1.91-.93-3.77-2-5.71-2.83a36,36,0,0,0-3.91-1.34c-1.52-.5-3.14-.52-4.67-.88a16.73,16.73,0,0,0-3.79-.41H106a8,8,0,0,0-1.89.14c-2.25.62-4.61.79-6.82,1.58a4.54,4.54,0,0,1-1.56,0,5.07,5.07,0,0,1,2-1.56q11.48-7.56,23-15.07a39,39,0,0,1,4.72-2.65,15.29,15.29,0,0,1,4.24-1.39c6.74-1.08,13.16-.45,18.94,3.6l.53.35,14.7,9.6,35,22.88C200,201.55,201.28,202.28,202.58,203Z"/><path class="cls-1" d="M95.66,185a4.54,4.54,0,0,0,1.56,0c2.22-.79,4.57-1,6.82-1.57a8,8,0,0,1,1.89-.16h6.39a17.17,17.17,0,0,1,3.78.42c1.54.36,3.16.38,4.68.87a38.4,38.4,0,0,1,3.91,1.35c1.93.86,3.8,1.9,5.71,2.83a19.16,19.16,0,0,1,3.53,2.67c.2.17.19.59.28.89a9.44,9.44,0,0,1-1,.78L77.63,229.27A29.58,29.58,0,0,1,56,233.7a16.29,16.29,0,0,1-6.69-2.9,24.55,24.55,0,0,1-7.66-9.19,11.56,11.56,0,0,1-.58-1.81,24.07,24.07,0,0,0,2.28-1.12c3.4-2.18,6.78-4.41,10.17-6.6,3.65-2.36,7.32-4.72,11-7.11.8-.52,1.57-1.09,2.36-1.67.14-.1.12-.38.19-.59a5.51,5.51,0,0,0,1.18-.35c.82-.46,1.62-1,2.41-1.51q11.09-7.11,22.14-14.23c.53-.34,1.11-.59,1.67-.88.62.06,1.13,0,1.23-.79Z"/><path class="cls-2" d="M94.43,185.74a1.31,1.31,0,0,1,1.23-.79C95.56,185.71,95.05,185.81,94.43,185.74Z"/></g><path class="cls-3" d="M349.47,122.24H313.53v25.85h33.06v17.54h-33v39.69H292.12V104.7h57.35Z"/><path class="cls-3" d="M401,104.7V205.32H379.6V104.7Z"/><path class="cls-3" d="M497.16,205.32H437.6V104.7h57.23v17.54H459V146H492.3v17.47H459v24.36h38.13Z"/><path class="cls-3" d="M586,205.32H527V104.7H548.4v83.08H586Z"/><path class="cls-3" d="M613,205.32V104.7h34.77q53.58,0,53.62,49.05,0,23.31-15,37.44t-38.71,14.15Zm21.44-83.08v65.54h11.69q15.26,0,24-9.09t8.7-24.62q0-15-9.09-23.42t-23.64-8.41Z"/><path class="cls-3" d="M783.18,183.43A38.19,38.19,0,0,0,806.7,191q8.52,0,13.51-3.77t5-10.72a12.15,12.15,0,0,0-5.94-10.91q-5.94-3.78-16.66-3.77h-9V145.62h8.25q20.26,0,20.27-13.64,0-12.85-15.52-12.86-10.14,0-19.68,6.63V108.4Q797.34,103,811.44,103q14.29,0,23.2,6.59t8.89,18.27q0,19.74-20,24.81V153q10.53,1.17,16.83,7.7a22.06,22.06,0,0,1,6.3,15.91q0,14.35-10.49,22.39t-28,8.05q-15.52,0-25-5.13Z"/><path class="cls-3" d="M938.49,123.48a33.27,33.27,0,0,0-16.7-4.36,22.22,22.22,0,0,0-18.6,9.13q-7,9.12-7,23.61h.39q7.2-11,21.37-11,12.66,0,20.11,8.67t7.43,22.57q0,15.21-9.68,25.11t-24.74,9.91q-17.3,0-26.47-12.47t-9.19-34.18q0-25.53,11.92-41.47T920.5,103q11.41,0,18,2.72Zm-41.57,48.78a22.2,22.2,0,0,0,3.89,13.25,12.57,12.57,0,0,0,20.4.46,20.51,20.51,0,0,0,3.7-12.54q0-17-14-17A12.75,12.75,0,0,0,900.78,161,16.69,16.69,0,0,0,896.92,172.26Z"/><path class="cls-3" d="M968.68,156.68q0-26.13,9.61-39.89T1006.1,103q34.7,0,34.69,51.32,0,25.28-9.43,39t-27.21,13.74Q968.69,207.08,968.68,156.68Zm21.22-.53q0,34.83,14.87,34.83,14.61,0,14.62-35.86t-14.23-36q-15.24,0-15.24,37Z"/></svg>