<svg id="Layer_1" data-name="Layer 1" xmlns="http://www.w3.org/2000/svg" viewBox="0 0 2715.58 699.43"><defs><style>.cls-1{fill:#0d172a;}.cls-2{fill:#a5c4d6;}.cls-3{fill:#234b66;}.cls-4{fill:#1e3160;}.cls-5{fill:#0b1629;}.cls-6{fill:#253a78;}</style></defs><circle class="cls-1" cx="351.91" cy="349.71" r="230.39"/><path class="cls-2" d="M337,503.66c3.35,3.45-.63,5.83-1.25,8.7l-1.44.42.27.42,1.19-.81h3.34c-4.54,4.7-10.43,5.05-16.2,4.18-5.93-.89-7.87,1.17-6.91,6.76l-.12.09c-3.41-3.35-2.36-6.65.11-9.93,2.74,3,4.18-1.71,6.51-1.12-1,4,1.88,2.09,3,1.66,3.84-1.48,6.25-4.75,8.84-7.75.81-.94,1.56-1.93,2.34-2.9Z"/><path class="cls-2" d="M522.12,416.46c1.93-.18,2.39-1.18,1.92-3a47.73,47.73,0,0,1-.75-4.79c2.93,4,3.67,8.51,3.22,14.22C524.78,420.34,523.45,418.4,522.12,416.46Z"/><path class="cls-2" d="M192.4,385.55a18.69,18.69,0,0,1-12.16-5.48l.07-.08c4.56.69,8.35,3.08,12.1,5.55Z"/><path class="cls-2" d="M186.9,354.6a17.84,17.84,0,0,1-10,4.46A13,13,0,0,1,186.9,354.6Z"/><path class="cls-2" d="M185.89,420.93c.14,3.21-2.19,5.43-3.47,8.09.16-3.1.33-6.19,3.3-8.26Z"/><path class="cls-2" d="M164.78,366.87c-2.9,3.33,2.7,3.17,2.25,5.5-2.14-.15-4.61-.26-5.25-2.62C161.31,368,163,367,164.78,366.87Z"/><path class="cls-2" d="M316,523.34c1,1,2.41,2.39,1,3.58-2.42,2-4.66.21-6.76-1.15l.18-.2c1.87-.57,4.75,1.4,5.45-2.14Z"/><path class="cls-2" d="M427.28,497a3.06,3.06,0,0,1,3.33,3.33A3.61,3.61,0,0,1,427.28,497Z"/><path class="cls-2" d="M197.83,407.5c.19-1.61,1-2.63,3.09-2.88-.07,2.09-1.36,2.7-3,3Z"/><path class="cls-2" d="M170.31,374.52l2.93.09,1.56,2.07-.07.08A4.48,4.48,0,0,1,170.31,374.52Z"/><path class="cls-2" d="M172.55,296.2a2.59,2.59,0,0,0,0,3.38c-1.23-.2-2.68-.41-2.53-2C170.15,296.36,171.47,296.25,172.55,296.2Z"/><path class="cls-2" d="M521.27,339a4.83,4.83,0,0,1,4.3,2.35l-.42.46a5,5,0,0,1-4.15-2.46Z"/><path class="cls-2" d="M502.34,301.78a3.17,3.17,0,0,1,3.33-2.23C505.46,301.64,504.05,301.94,502.34,301.78Z"/><path class="cls-2" d="M167,372.32c1.55.11,3.22,0,3.36,2.24A4,4,0,0,1,167,372.32Z"/><path class="cls-2" d="M180.24,380.07c-1.51-.12-3.11-.09-3.32-2.2l.07-.07a3.5,3.5,0,0,1,3.32,2.19Z"/><path class="cls-2" d="M507.85,298.47c.08-2.28,1.63-2.39,3.34-2.24A4.1,4.1,0,0,1,507.85,298.47Z"/><path class="cls-2" d="M201.22,276.38a3.64,3.64,0,0,1-3.29-2.23l0,0c1.7-.18,3.13.05,3.36,2.15Z"/><path class="cls-2" d="M174.71,301.73a3.69,3.69,0,0,1,2.26,3.36A3.79,3.79,0,0,1,174.71,301.73Z"/><path class="cls-2" d="M430.58,500.27a2,2,0,0,1,2.23,2.23C431.37,502.46,430.74,501.59,430.58,500.27Z"/><path class="cls-2" d="M373.26,532.27c1.89-.33,2.77,1.13,3.86,2.21A3.07,3.07,0,0,1,373.26,532.27Z"/><path class="cls-2" d="M504.58,386.62c-1.47,0-2.26-.72-2.24-2.22C503.7,384.52,504.59,385.11,504.58,386.62Z"/><path class="cls-2" d="M369.94,529c1.6-.14,2.32.62,2.2,2.2A2,2,0,0,1,369.94,529Z"/><path class="cls-2" d="M179.12,307.26a2,2,0,0,1,2.24,2.24C179.82,309.54,179.13,308.74,179.12,307.26Z"/><path class="cls-2" d="M339.11,512.43c0-1.8,1-2.31,2.61-2.23C341.24,511.39,340.57,512.38,339.11,512.43Z"/><path class="cls-2" d="M173.54,329.23c-.55-.17-1.61,0-1.31-.89s1.47-1.28,2.54-1.23l0,0-1.11,2.17Z"/><path class="cls-2" d="M189.26,416.56a3.86,3.86,0,0,1-2.3,3.25l-.15-.15a3.59,3.59,0,0,1,2.09-3.41Z"/><path class="cls-2" d="M310.27,525.77a4.64,4.64,0,0,1-3.42-2.1c.13-.13.26-.28.38-.42a3.41,3.41,0,0,1,3.22,2.32Z"/><path class="cls-2" d="M518.87,290.75c.75-1.45,2.1-1.17,3.35-1.15A3.1,3.1,0,0,1,518.87,290.75Z"/><path class="cls-2" d="M178.07,324.89c.76-1.43,2.08-1.15,3.32-1.09l0,0c-.81,1.22-2,1.27-3.3,1.12Z"/><path class="cls-2" d="M522.16,289.64c.42-1,1.32-1.12,2.26-1.13A2.39,2.39,0,0,1,522.16,289.64Z"/><path class="cls-2" d="M168.83,332l-1.48.54C167.63,331.79,168.15,331.68,168.83,332Z"/><path class="cls-2" d="M177,359c-.43,1-1.33,1.09-2.24,1.16A2.44,2.44,0,0,1,177,359Z"/><path class="cls-2" d="M173.67,361.23a2.41,2.41,0,0,1-2.27,1.15A2.29,2.29,0,0,1,173.67,361.23Z"/><path class="cls-2" d="M368.83,526.75c1.07.38,1.25,1.2,1.11,2.19A1.52,1.52,0,0,1,368.83,526.75Z"/><path class="cls-2" d="M170.36,363.44l-2.12,1.1C168.63,363.57,169.5,363.51,170.36,363.44Z"/><path class="cls-2" d="M304.48,521.63l-1.91-1.4.23-.27A2.37,2.37,0,0,1,305,521.1Z"/><path class="cls-2" d="M174.77,327.11c.38-1.08,1.3-1.09,2.21-1.11l0,0-2.21,1.1Z"/><path class="cls-2" d="M433.89,503.56c1.08.51,1.16,1.48,1.13,2.5A2.6,2.6,0,0,1,433.89,503.56Z"/><path class="cls-2" d="M189.05,316.07a2.22,2.22,0,0,1,2.27,1.16Z"/><path class="cls-2" d="M345.74,505.79c-.14-1,0-1.84,1.11-2.21A1.66,1.66,0,0,1,345.74,505.79Z"/><path class="cls-2" d="M176.92,377.87c-.95.07-1.81,0-2.19-1.11l.07-.08A2.08,2.08,0,0,1,177,377.8Z"/><path class="cls-2" d="M183.28,311.66a2.28,2.28,0,0,1,2.51,1.15A2.43,2.43,0,0,1,183.28,311.66Z"/><path class="cls-2" d="M507.88,388.84a2.09,2.09,0,0,1-2.24-1.14A1.92,1.92,0,0,1,507.88,388.84Z"/><path class="cls-2" d="M505.64,299.56c.42-1,1.28-1.17,2.24-1.12A2,2,0,0,1,505.64,299.56Z"/><path class="cls-2" d="M517.81,399.88a2,2,0,0,1-1.14-2.25A2,2,0,0,1,517.81,399.88Z"/><path class="cls-2" d="M520,403.19a2,2,0,0,1-1.14-2.25A1.86,1.86,0,0,1,520,403.19Z"/><path class="cls-2" d="M522.22,406.51c-1-.43-1.13-1.32-1.14-2.27A2.31,2.31,0,0,1,522.22,406.51Z"/><path class="cls-2" d="M513.36,294.06a2,2,0,0,1,2.24-1.13A1.77,1.77,0,0,1,513.36,294.06Z"/><path class="cls-2" d="M523.32,408.71c-1.1-.39-1.16-1.3-1.13-2.26A2.07,2.07,0,0,1,523.32,408.71Z"/><path class="cls-2" d="M198,407.65a1.92,1.92,0,0,1-2.21,1.09l-.06-.05a1.94,1.94,0,0,1,2.14-1.19Z"/><path class="cls-2" d="M515.56,293c.42-1,1.3-1.14,2.25-1.13A2.19,2.19,0,0,1,515.56,293Z"/><path class="cls-2" d="M194.59,410.87a2.06,2.06,0,0,1-2.06,1.28l-.24-.24.9-1Z"/><path class="cls-2" d="M512.19,410.93c.94,0,1.88,0,2.26,1.13A2.21,2.21,0,0,1,512.19,410.93Z"/><path class="cls-2" d="M514.41,412c1,0,1.83.12,2.26,1.14A2.39,2.39,0,0,1,514.41,412Z"/><path class="cls-2" d="M195.5,272.18,193.4,271l.3-.36,2.17,1.18Z"/><path class="cls-2" d="M516.6,413.13c.94,0,1.83.13,2.27,1.14A2.54,2.54,0,0,1,516.6,413.13Z"/><path class="cls-2" d="M188.9,416.25l1.17-2.18.36.37-1.17,2.12Z"/><path class="cls-2" d="M518.81,414.24a2,2,0,0,1,2.25,1.14A1.94,1.94,0,0,1,518.81,414.24Z"/><path class="cls-2" d="M187,419.81l-1.07,1.12-.17-.17,1.09-1.1Z"/><path class="cls-2" d="M521,415.34l1.15,1.14Z"/><path class="cls-2" d="M517.76,291.85l1.14-1.13C518.9,291.48,518.4,291.74,517.76,291.85Z"/><path class="cls-2" d="M197.93,274.15l-1.37-1,.27-.36,1.07,1.42Z"/><path class="cls-2" d="M196.56,273.12l-1.06-.94.37-.4,1,1Z"/><path class="cls-2" d="M191.44,413.24c-.34.4-.68.79-1,1.19l-.36-.36,1.14-1.06Z"/><path class="cls-2" d="M191.21,413l1.08-1.1.24.24-1.1,1.09Z"/><path class="cls-2" d="M193.4,271l-1.16-1.06.31-.3,1.15,1Z"/><path class="cls-2" d="M194.59,410.87l-1.4,0,1.41-1.11,0,0A1.19,1.19,0,0,1,194.59,410.87Z"/><path class="cls-2" d="M192.24,269.9l-1.12-1.06.33-.32,1.1,1.08Z"/><path class="cls-2" d="M194.6,409.79l1.09-1.1.06.05-1.11,1.09Z"/><path class="cls-2" d="M512.25,295.16l1.14-1.14C513.36,294.75,512.91,295.06,512.25,295.16Z"/><path class="cls-2" d="M511.14,296.26l1.15-1.14Z"/><path class="cls-2" d="M521.12,404.3,520,403.15Z"/><path class="cls-2" d="M518.91,401l-1.14-1.14Z"/><path class="cls-2" d="M516.71,397.68l-1.15-1.15Z"/><path class="cls-2" d="M172.5,299.52l1.16,1.16Z"/><path class="cls-2" d="M515.6,396.57l-1.14-1.14Z"/><path class="cls-2" d="M173.6,300.62l1.16,1.15Z"/><path class="cls-2" d="M514.49,395.46l-1.14-1.14Z"/><path class="cls-2" d="M501.24,302.87l1.12-1.12A1,1,0,0,1,501.24,302.87Z"/><path class="cls-2" d="M500.12,304.46l1.13-1.61Z"/><path class="cls-2" d="M513.39,394.36l-1.14-1.14Z"/><path class="cls-2" d="M512.29,393.26l-1.14-1.14Z"/><path class="cls-2" d="M176.92,305l1.15,1.17Z"/><path class="cls-2" d="M511.19,392.15,510.05,391Z"/><path class="cls-2" d="M178,306.14l1.15,1.15Z"/><path class="cls-2" d="M510.08,391.05l-1.14-1.14Z"/><path class="cls-2" d="M509,390l-1.14-1.15Z"/><path class="cls-2" d="M505.67,387.74l-1.13-1.14A1,1,0,0,1,505.67,387.74Z"/><path class="cls-2" d="M181.33,309.45l1.15,1.43Z"/><path class="cls-2" d="M502.36,384.44l-1.14-1.55Z"/><path class="cls-2" d="M185.74,312.77l1.15,1.14Z"/><path class="cls-2" d="M186.84,313.87,188,315Z"/><path class="cls-2" d="M346.84,503.59l1.12-1.13C347.84,503.09,347.58,503.58,346.84,503.59Z"/><path class="cls-2" d="M432.79,502.47l1.14,1.14A1.15,1.15,0,0,1,432.79,502.47Z"/><path class="cls-2" d="M188,315l1.16,1.15Z"/><path class="cls-2" d="M344.25,507l1.49-1.21A1.49,1.49,0,0,1,344.25,507Z"/><path class="cls-2" d="M177,326l1.09-1.11h0L177,326Z"/><path class="cls-2" d="M302.57,520.23l-1.1-1.1.22-.21,1.11,1Z"/><path class="cls-2" d="M305.63,522.68l-1.15-1,.51-.53,1.14,1.08Z"/><path class="cls-2" d="M306.85,523.67l-1.22-1c.17-.16.33-.33.49-.5l1.11,1.07C307.11,523.39,307,523.54,306.85,523.67Z"/><path class="cls-2" d="M171.46,362.34l-1.16,1.15Z"/><path class="cls-2" d="M372.15,531.16l1.1,1.1A1.07,1.07,0,0,1,372.15,531.16Z"/><path class="cls-2" d="M174.77,360.15l-1.17,1.14Z"/><path class="cls-2" d="M322.52,512.38c-2.33-.59-3.77,4.07-6.51,1.12l-.06,0c1.38-.77,1.26-2,1.12-3.34v0c3-2.44,2.43-7,5.29-9.63,3.13,2.37-1.11,5.36,1.2,7.56C323.88,509.72,323.1,511,322.52,512.38Z"/><path class="cls-2" d="M177,326l1.11-1.09c1.28.15,2.49.1,3.3-1.12,4.81-.37,9.3-2.73,14.24-2.25-1.37,2.83-4.32,2.11-6.56,2.76-5.2,1.5-10,4.3-15.41,5l1.11-2.17Z"/><path class="cls-2" d="M177,377.8a2.08,2.08,0,0,0-2.19-1.12l-1.56-2.07c8.64,1.94,16.09,6.45,23.54,11l-4.37,0c-3.75-2.47-7.54-4.86-12.1-5.55A3.5,3.5,0,0,0,177,377.8Z"/><path class="cls-2" d="M199,386.7c1.27,0,2.65-.35,3.21,1.33C201.14,387.64,199.69,388.11,199,386.7Z"/><path class="cls-2" d="M196.81,385.6c.93,0,1.76.1,2.17,1.08C198.08,386.68,197.18,386.68,196.81,385.6Z"/><path class="cls-2" d="M372.85,522.28c-3.89-6.63-2.73-13.71-2.3-20.73C370.71,508.56,372,515.43,372.85,522.28Z"/><path class="cls-2" d="M336.7,503.39c.23-.48.45-.95.68-1.42.14.11.41.3.39.34-.22.46-.49.9-.75,1.35Z"/><path class="cls-2" d="M191.29,267.55l-.44-.29.47.26Z"/><path class="cls-2" d="M530.16,347.94c-1,.09-1.92,0-2.44-1A2.24,2.24,0,0,1,530.16,347.94Z"/><path class="cls-2" d="M335.79,512.39l-1.19.81-.27-.42,1.44-.42Z"/><path class="cls-2" d="M317.07,510.18c.14,1.29.26,2.57-1.12,3.34C315.92,512.27,315.54,510.91,317.07,510.18Z"/><path class="cls-3" d="M223.23,389.8c-6.76-2.83-14.35-1.76-21.11-4.48-3.28-1.32-7.28-1.09-9.72-4.32h0l4.37,0,0,0c.37,1.07,1.27,1.08,2.17,1.08l0,0c.67,1.41,2.12.94,3.21,1.33,18.33,5.49,36.48,3.76,54.53-1.39,2.36-.67,4.94-2.15,4.55-4.69-.45-2.87-3.56-1.87-5.61-1.89-10.79-.07-21.58,0-32.38,0,12.25-1.71,24.77-1.17,36.59-5l-.21-1.53h-14c4.53-4,10.59-2.24,14.9-6.38-14.3-.56-27.61-2.49-40.07-8-10.86-4.82-21.71-8.75-33.7-4.41,3.26-2.71,7.41-2.68,12.25-3.84a57,57,0,0,0-22-5.91,67.27,67.27,0,0,1-9.68-1.49c-2.45-.46-5.47-1.53-5.56-4.48a5.81,5.81,0,0,1,5.07-6.15c-.06,8.32,0,8.53,8.18,9.71a120.29,120.29,0,0,1,34.58,10.27c12.62,5.95,25.9,8.87,39.93,7.44,2.65-.27,6.64-.14,6.81-2.89.13-2.08-4-2.27-6.51-2.6-.18,0-.37,0-.55,0A113.82,113.82,0,0,1,230,346.07c11-1.2,21.22,1.24,32.15-2.29-2.37-1.13-3.62-1.85-5-2.35-1.05-.38-2.44-.57-2.32-1.88s1.47-1.44,2.6-1.48c.92,0,1.84,0,2.75,0,1.81-.08,3.9.25,4.65-2s-1-3.44-2.41-4.54c-5.62-4.57-12.24-7.46-18.93-9.89-10.9-3.95-22.44-5-33.93-5.5-4.63-.22-9.49-1.4-14,.89-4.94-.48-9.43,1.88-14.24,2.25l0,0c2.27-2.33,5.34-2.84,8.28-3.25,2.75-.38,3-1.32,1.57-3.36,24.35,3.15,49,4,74,10.88-2.87-6-7.73-6.95-10.35-10.17,2.52-2.12,4.9.86,7.39-.08-2.09-4.65-6.78-6.6-9.2-10.56a17.1,17.1,0,0,0,2.15-.1c1.31-.23,3.34.85,3.79-.91.52-2.06-1.85-2.27-3.11-3.08-3.14-2-7.14-2.55-9.61-5.7l.21-.24a9.21,9.21,0,0,1,5.16,1.61c8.31,5.08,17.13,8.06,27.06,6.5-.63-1.88-2.6-2.6-4.09-3.88-4.21-3.61-9.67-6-11.64-11.85,2.42-.14,3.36,1.95,4.83,3.23a25.72,25.72,0,0,0,18,6.69c1.63,0,3.59.27,4.23-1.69s-1.32-2.28-2.41-3.16c-6.87-5.52-12.82-11.8-16.11-20.19a7.27,7.27,0,0,1,.54-.57c5.79,5.2,10.43,11.79,18,14.86,1.75.71,4,1.68,5.1.27,1.54-2-1.34-2.84-2.24-4.21-1.14-1.73-4.24-2.83-3-5.25,1-1.81,3.26.69,5,.09a1.59,1.59,0,0,0,.18.37c.06.06.2.05.3.08l-.47-.47c.17-1.71-.71-3-1.5-4.45a30.57,30.57,0,0,1-4-12.09c5.17,5.38,8.35,12.42,14.37,17.13,2.16,1.69,4.77,4.54,6.89,2.88,1.77-1.37-.83-4.41-1.87-6.68-1.81-3.95-4.82-7.39-6.09-12.45,3,1.09,3.85,2.9,4.92,4.59a47.64,47.64,0,0,0,7.76,9.9c1.16,1.08,2.61,1.68,4,.75s.52-2.28.12-3.49c-1.78-5.37-3.65-10.71-5.26-16.13-.87-2.92-2.81-5.65-2.29-9.69,7.19,7.54,8.46,17.86,15.35,24.77-.47-3.81-1.48-7.44-2.22-11.12-.49-2.45-1.62-5.64.29-7.26s1.47-3.11,1.18-4.73c-2.57-14.34-1.73-28.72-.52-43.08.17-2,.1-4.44,2-6l0,0c-.68,12.21-2,24.42-1,36.65.42,5.52.22,11.29,3.11,16.39.39,7.32,3.86,13.22,7.95,18.82.48-5.95-4.77-10.94-2.16-18.24,2.38,4.22,2.44,7.77,3.27,11.1a10.65,10.65,0,0,0,4.46,6.6c.57.38,1.13,1.11,1.81.31.32-.38.64-1.2.45-1.49-3.11-4.74-.49-9.53-.26-14.3.07-1.3,0-2.88,1.43-3.26,1.82-.49,1.3,2.24,2.55,2.53,1.82-3.7,1.1-8.2,4.75-12.49.19,7.6-.06,14.16,3,20.13a26,26,0,0,1,2.87-9.81v13.37c2.49-.3,1.79-3.42,4.13-3.44,0,2.3,0,4.49,0,6.69,0,1.05-.26,2.48,1.16,2.68.68.1,1.65-.66,2.25-1.27,2.64-2.67,3.68-6.26,5.28-9.54,1.74-3.57,2.2-7.8,6-11.71-.61,7.59-3.42,13.44-4.77,19.62-.37,1.7-2.26,3.85-.3,4.89s2.77-1.63,3.87-3c5.57-6.89,8.2-15.44,12.89-22.82l.13.11c.21,6.9-3.12,12.67-5.93,18.61-1.83,3.87-3.76,7.69-2.52,12.62,3.58-4.45,3.91-10.19,8-14.54,1.42,5.66-2.94,9.76-2.51,14.66,2.35.19,2.25-2.57,4-2.7l.5,2.47c.4-.23,1-.38,1.17-.71.65-1.62-.7-1.55-1.65-1.78.6-2.92.68-3.06,2.47-1.91s2.35-.2,2.91-1.24c3.17-5.86,7.56-11.07,8.27-18.25.19-1.93.1-5.42,3.66-7.1-1.06,12.08-6.69,22.05-11.33,32.46,11.86-7,20.25-16.92,26.65-28.77.5,4.6-2.21,8-3.93,11.65-.85,1.83-3.86,3.8,1,4.71,1.93.37.82,2.31,0,3.56s-3,2.09-2.66,4.6c4.08-1,5.65-5.35,9.44-6.21,0,1,.05,2,.08,3.07-7.17,3.89-8.88,11.33-12.4,18.4,3.41-1.14,3.66-4.26,5.7-5.7,1-.74,1.87-2,3.26-.75s.59,2.21-.24,3.34c-2.09,2.86-4.63,5.51-5.46,10.27,4.64-3.65,8-7.44,13.6-8.68-1.14,5.31-6,7-8,10.85-1.25,2.47-4.52,4.48-2.45,7.78s5.62,1.83,8.61,2.1c1.44.13,2.2-1.08,3.29-1.61,2.94-1.46,5.18-4.47,9-4.62a5.68,5.68,0,0,1-3.16,5.17c-1.78.93-3.62,1.78-5.32,2.86-.83.52-2.13,1.21-1.43,2.55s1.73.91,2.85.39a26.11,26.11,0,0,1,8.31-2.68l.34.4c-2.52,4.34-8.33,4.32-11.32,8.33,10.12.59,10.12.59,12.24-.86l0,0c7.38-.58,14.91,2.13,22.16-1.08-2.73,2.89-.84,3.22,1.77,3.29,10,.26,20,.93,29.72,3.42,7.66,2,15.64,3.54,21.57,9.54l-.27.35c-20.76-10.41-42.94-13-65.78-12-6.4-.24-11.4,2.75-16.62,6.93,3.32,1.24,6.61-.57,9.24,1.47-3.69,4-9,2.67-13.08,4.8-1.41.73-3.8,1.15-3.52,3,.34,2.25,2.71,1.08,4.19,1.22,8.7.79,17.44,1.24,26,3.32,1.63.4,2.53,1,2.43,2.79-9-1.59-17.82-.63-26.62.51-1.77.23-4.35-.52-4.82,1.55-.6,2.62,2.45,3.05,4,3.44,9.51,2.34,18.39,6.75,28.15,8.28,2.81.44,5.8,1,8,3.25l-.07.09c-5.87-1.3-11.7-2.95-17.64-3.81-6.64-1-13.34-3.51-20.31-.82,4.63,7.34,13.81,4.74,19.36,9.76-9.6-2.11-19.18-3.59-29.21-2.8.58,3.38,4.9,3,5.33,6.4-.89,0-1.6,0-2.31,0-1.39-.1-3-1.84-4.06-.42-1.2,1.59.48,3.09,1.48,4.23,3.49,4,6.38,8.55,10.85,11.62,1,.68,1.66,1.47.75,2.69l-11.62-5.94-.49-.45.46.48c-.21,2.13.93,3.78,1.82,5.57,3.28,6.62,7,13.12,7.1,20.82l-.14.13a176.09,176.09,0,0,1-14.42-19.13c.57,4.67,1,8,1.36,11.25l-.29.25c-4.54-3.79-5.36-9.69-8.26-14.86-.63,2.5-.22,4.54,0,6.65.82,8,4.34,15.39,5.28,23.36l-.27.26c-5.22-4.56-6.47-11.56-10.45-18.54-.48,8.73,4.17,14.37,6.8,21.74-6.66-3.71-8.31-9.37-11.21-14.16-.85-1.42-1.43-4.2-3.46-3.72s-1.39,3.09-1.4,4.84c0,6,3.19,10.74,6.37,15.48.78,1.15,3.47,2.06,1.48,3.8-1.36,1.19-3.31-.28-4.37-1.35-2.7-2.72-5.1-5.73-7.61-8.64-.78-.9-1.08-2.88-2.62-2.2-1.76.78-.58,2.49-.4,3.87.53,4.1,1,8.23,1.52,13.09-3.79-3.49-3.1-8.9-7.13-12-1,5.19-.28,9.64.74,14.07,3.48,15.23,7.15,30.38,19.54,41.41a3.21,3.21,0,0,1,1.25,2.91c-7.27-4.71-13.66-10.3-18.14-18.16-.76,9.21.23,18.46-3.86,27,.1-3.11.4-6.23.26-9.34-.54-12,5.45-24.68-3.93-35.74-.9-1.05-1.06-2.71-1.65-4-.52-1.16-1-2.43-3.07-2.24,3.8,11.72,1.19,23.2-1.08,35.76-3.64-38.92-4.28-41.26-12-44.51-1.72,1.72,1.76,3.77-.61,5.71-1.2-1.29-2.31-2.66-3.61-3.83-2.5-2.25-4-1.58-5.18,1.57-2.4,6.54-1.32,13-.42,19.61,1.59,11.62,3.5,23.57-.07,34.88-3.39,10.77.25,19.28,5.26,27.94.91,1.57,2,3.49,5.23,3.38-3.46-7.9-6.21-15.7-5.42-24.27a91.9,91.9,0,0,0,10.72,29.29c-12.4-3.23-17.72-11.91-18.68-24.06-.26-3.23-1.42,0-2.13-.18a18.35,18.35,0,0,1,.53-4.3c4.6-12.4,5.4-25,1.37-37.6-1.84-5.73-1.5-12.19-5.22-17.48-5.29,5.1-4.28,12.17-6.48,18.4-2.39-2-2.22-4.17-2.37-6.35-.43-6.35,1.41-12.3,3-18.3.28-1.07.67-2.29-.22-3.12-1.13-1-1.89.58-2.82.69-5.18.64-6.26,5.7-9.21,8.65A35.2,35.2,0,0,0,317,455c-2.72,10.76.3,20.48,4.39,30.27,2.41,5.77,7.07,11.6,2.17,18.36-2.31-2.2,1.93-5.19-1.2-7.56-2.86,2.59-2.26,7.19-5.29,9.63-.84-3.37,1.08-6.19,2.43-8.8,2.23-4.29,1.64-7.81-.55-11.81-3.25-5.94-4.52-12.58-5.95-20.69-2.73,10.36-4.44,19.44-4.07,28.88-1.69-8.84.15-17.51.37-26.23.09-.15.18-.3.28-.45l-.26.48L306,469.23a24.26,24.26,0,0,1,1.26-3.5,110.31,110.31,0,0,0,10.89-28.48c.28-.39.56-.79.81-1.2l-.39-.28-.45,1.46c-2.91,2.09-3.93,6.19-8,7.53-.16-3.43,2.07-5.91,2.77-8.83.63-2.62,2.4-5.88.62-7.69-2-2.06-3.77,1.84-6,2.29-1,.21-2,1.45-3,.62-1.14-.94-.7-2.32-.18-3.55.31-.73,1.46-1.27.34-2.53a51.76,51.76,0,0,0-9.95,6.3c-7.18,5.73-13,12.75-19.56,19.11,0-6.68,7.16-9.77,8.37-16.13-3.61.13-4.73,4.32-8.08,4.29l-.54-.53c4.33-7.79,10.5-14.59,13.52-24.45-6.4,3.59-9.33,8.95-14.25,14.57.65-11.17,7.42-17.84,12.28-26.4-6.06.89-9.84,5-15.32,5.36,2.16-4,6.44-4.89,8.75-8.48-2.27,0-4.28-.3-6.15.06-4.47.89-8.87,2.14-13.32,3.13-1.18.26-2.84.71-3.45-.7s1-2,2-2.72c3.36-2.21,6.68-4.5,11.15-7.54-6.35,0-10.93,3.45-15.92,1.71,2.49-4.26,8.07-3.42,12.1-8C251.16,387.91,237.08,387.78,223.23,389.8Zm125.1,29.93c9,.61,17.32-1.84,25.38-5.68,13.38-6.36,26.09-13.31,34.34-26.51,6-9.55,12.21-18.9,16.44-29.39a21.42,21.42,0,0,0,1.68-10.66c-.88-6.82-1.31-13.69-2.29-20.51-.45-3.17-3.7-4.45-3.55-6,.43-4.16-1.86-6.62-3.32-9.93-3.37-7.7-10.11-11.91-15.33-17.69-3.31-3.67-8.48-3.45-12.1-6.19-9.61-7.27-21.19-9.11-32.43-11.36-3.15-.63-6.85-1.62-10.25-1.11-7.22,1.09-14.62,1.8-21.41,4.66-7.63,3.23-15.6,6.17-22.35,10.79-5.18,3.54-9.33,8.94-13.91,13.46-9.14,9-13.36,20.1-18,31.53-2.84,7-1.78,14.08-.71,19.79,1.63,8.67,1.3,18.3,8,26.33,4,4.75,4.52,12.38,11.88,14.79.62.2,1,1.47,1.27,2.32,2.11,7.41,9.87,8.55,14.88,12.43,3.63,2.81,9.73,3.94,14.82,5.39C330.4,418.79,339.27,419.2,348.33,419.73Zm88.49-95.62a7.06,7.06,0,0,0-.32-1.05,2.92,2.92,0,0,0-1.44.4c-.48.4-.37,1,.31,1.07A4.26,4.26,0,0,0,436.82,324.11Z"/><path class="cls-2" d="M420.82,403c-.4-3.29-.79-6.58-1.36-11.25a176.09,176.09,0,0,0,14.42,19.13L435,412c.11,1-.16,2.11.9,2.75a1,1,0,0,0,.87-.18c.57-1.53-.6-2.09-1.6-2.74l-1.1-1.08c-.13-7.7-3.82-14.2-7.1-20.82-.89-1.79-2-3.44-1.82-5.57l0,0,11.62,5.94c.91-1.22.24-2-.75-2.69-4.47-3.07-7.36-7.63-10.85-11.62-1-1.14-2.68-2.64-1.48-4.23,1.08-1.42,2.67.32,4.06.42.71.05,1.42,0,2.31,0-.43-3.37-4.75-3-5.33-6.4,10-.79,19.61.69,29.21,2.8-5.55-5-14.73-2.42-19.36-9.76,7-2.69,13.67-.14,20.31.82,5.94.86,11.77,2.51,17.64,3.81a88.23,88.23,0,0,0,17.74,7.67l-.07,0,1.15,1.14,0,0a2,2,0,0,0,2.24,1.13l0,0,1.14,1.13,0,0a2,2,0,0,0,2.24,1.13l0,0,1.15,1.15-.06,0c.48,1.14,1.49,1.15,2.5,1.14a1.11,1.11,0,0,1,.82.65l1.14,1.56,0,0c0,1.5.77,2.2,2.24,2.22l0,0,1.13,1.14,0,0a2.09,2.09,0,0,0,2.24,1.14l0,0L509,385.4l0,0,1.14,1.14,0,0,1.14,1.13,0,0,1.14,1.14,0,0,1.14,1.14,0,0,1.14,1.14,0,0L515.6,392l0,0,1.15,1.15,0-.05a2,2,0,0,0,1.14,2.25l0,0,1.14,1.14,0,0a2,2,0,0,0,1.14,2.25l0,0,1.14,1.15,0-.06c0,.95.12,1.84,1.14,2.27l0-.06c0,1,0,1.87,1.13,2.26l0-.05a47.93,47.93,0,0,0,.75,4.8c.47,1.82,0,2.82-1.92,3l0,0L521,410.79l0,0a2,2,0,0,0-2.25-1.14l.06,0c-.44-1-1.33-1.13-2.27-1.14l.07,0c-.43-1-1.31-1.15-2.26-1.14l0,0c-.38-1.12-1.32-1.13-2.26-1.13l.07,0c-2.08-2.4-5.1-2.72-7.89-3.37a144.18,144.18,0,0,0-26.44-3.8c-10.82-.47-21.21-3.25-31.77-5.14-.43-.25-.86-.52-1.31-.75,0,0-.21.26-.33.39l1.45.58c5.28,3.46,8.47,9.43,14.48,12h0a1.89,1.89,0,0,0,1.12,2.22v0c0,1.44.64,2.3,2.2,2.22h0a4.39,4.39,0,0,0,0,1.62c6.2,13.67,5.86,27.49,1.3,41.51-1.45,4.47-3,9.07-3.32,13.69-.43,5.42-2.78,3.71-5,1.81-4.1-3.55-7.92-7.44-11.85-11.18l0,.07c-1-2.51-.36-6.13-4.34-6.74-.14-.46-.29-1.3-.43-1.3-1,0-.58.84-.71,1.37-2.84.1-3.77-3.29-6.44-3.51-.64-2-1.57-3.73-4.28-4,.34,2.78,1.95,3.73,3.86,4.4,2.46,4.82,4,10.12,8,14.09l0,0a11.45,11.45,0,0,0,0,3.26c4.11,13.33,1.95,26.62,0,39.93-.22,1.49-.15,3-2.12,3.23L435,501.51c0-1,0-2-1.13-2.5l0,0-1.14-1.13,0,0a2,2,0,0,0-2.23-2.23l0,0a3.06,3.06,0,0,0-3.33-3.33h0l-1.13-1.13,0,0A2,2,0,0,0,424,490.2l0,0-1.14-1.14,0,0a1.92,1.92,0,0,0-2.23-1.13h0l-1.13-1.12,0,0c-.43-2.81-2.61-2.16-4.42-2.22h0c-.4-1.07-1.28-1.17-2.24-1.12l0,0-1.13-1.13v0c-.37-1.1-1.24-1.21-2.22-1.11h0l-1.12-1.11,0,0c-.41-1-1.26-1.2-2.23-1.12v0a3.2,3.2,0,0,0-1.25-2.9c-12.39-11-16.06-26.18-19.54-41.41-1-4.43-1.78-8.88-.74-14.07,4,3.09,3.34,8.5,7.13,12-.55-4.86-1-9-1.52-13.09-.18-1.38-1.36-3.09.4-3.87,1.54-.68,1.84,1.3,2.62,2.2,2.51,2.91,4.91,5.92,7.61,8.64,1.06,1.07,3,2.54,4.37,1.35,2-1.74-.7-2.65-1.48-3.8-3.18-4.74-6.4-9.45-6.37-15.48,0-1.75-.72-4.35,1.4-4.84s2.61,2.3,3.46,3.72c2.9,4.79,4.55,10.45,11.21,14.16-2.63-7.37-7.28-13-6.8-21.74,4,7,5.23,14,10.45,18.54l1.14,1.07,1.12,1.06.39,1.34.57-.38-.86-1.06-1.05-1.13-1-1.17c-.94-8-4.46-15.34-5.28-23.35-.22-2.11-.63-4.15,0-6.65,2.9,5.17,3.72,11.07,8.26,14.86.23.78.47,1.55.7,2.33.13-.11.36-.19.39-.32A2,2,0,0,0,420.82,403Zm6.39,25.6.62.42-.41-.65-.66-.42C426.9,428.13,427.05,428.34,427.21,428.56Zm-3.16,56.06L423,483.53c-.87-1.88-2.5-2.31-4.36-2.28-4.17-4.29-8.3-8.63-12.52-12.87-2.38-2.39-3.34-6.3-7.37-6.94l-.49-1.39c-.13.1-.39.27-.38.28.24.41.5.81.77,1.2,3.7,9.54,10.71,15.77,19.84,19.89.88,1.92,2.55,2.26,4.41,2.21L424,484.7c.41.27.82.55,1.24.8,0,0,.19-.26.29-.4ZM416.11,433c.24.82.45,1.69,1.6,1.57a.53.53,0,0,0,.36-.35c.08-1.17-.84-1.29-1.66-1.52-1-1.29-1.91-2.73-3.92-1.57C413.13,433,414.68,432.88,416.11,433Zm4.7,3-.7-.41.42.69c.26,1.29.74,2.45,2.21,2.73a.73.73,0,0,0,.92-.94C423.31,436.62,422.1,436.24,420.81,436Zm17.6-18.7-.59-.48.44.63c0,4.8,3,8.21,5.2,12C443.12,424.83,441,421,438.41,417.32ZM441,437c2.71,6.58,3.77,13.93,9,19.33C448.3,449.25,446.39,442.3,441,437Zm37-48.45c-5.46-1.72-10.93-3.33-17.42,0Zm-48.19,44.6a3.67,3.67,0,0,0,.83,1.09c.74.46,1-.24.93-.72a1.85,1.85,0,0,0-.69-1.27C430.3,431.87,430,432.34,429.82,433.11Zm7.92,12.3c.12-.08.32-.13.36-.23s0-.31-.05-.47l-.56.31Z"/><path class="cls-2" d="M223.23,389.8c13.85-2,27.93-1.89,43-5.11-4,4.54-9.61,3.7-12.1,8,5,1.74,9.57-1.74,15.92-1.71-4.47,3-7.79,5.33-11.15,7.54-1.05.7-2.7,1.16-2,2.72s2.27,1,3.45.7c4.45-1,8.85-2.24,13.32-3.13,1.87-.36,3.88-.06,6.15-.06-2.31,3.59-6.59,4.52-8.75,8.48,5.48-.35,9.26-4.47,15.32-5.36-4.86,8.56-11.63,15.23-12.28,26.4,4.92-5.62,7.85-11,14.25-14.57-3,9.86-9.19,16.66-13.52,24.45-.3.33-.84.64-.16,1.06.09.05.46-.34.7-.53,3.35,0,4.47-4.16,8.08-4.29-1.21,6.36-8.33,9.45-8.37,16.13h0c-1.52,0-2.16.8-2.22,2.21l0,0c-1.95.88-2.44,2.48-2.22,4.43h0l-1.12,1.12v0c-1.35.78-1.21,2.05-1.11,3.32h0c-1.06.4-1.16,1.27-1.11,2.22v0c-4.1,4.79-3.21,11.24-5.51,16.62l0-.06-1.15,1.35q-1.53,3.18-3.07,6.34c-3.36,3.66-2.61,8.06-2.15,12.36.14,1.23,1,2.46-.77,3.15-6.66-4.43-8.49-11.32-9.48-18.64,2.23-4.53.87-9.57,2-14.34,1-4.17,4.56-7.64,3.49-12.34l0,.08c2.23-3.25,6.68-3.4,9-6.49.7-.41,1.41-.81,2.12-1.21l1.13-1.06,1.12-1.08a2.21,2.21,0,0,0,2.17-1.16c.38-.35.75-.71,1.12-1.07A3.77,3.77,0,0,0,271,443l1.11-1.09c.19-.24.58-.62.53-.71-.44-.67-.76-.16-1.07.19l-1.09,1.08a3.78,3.78,0,0,0-3.17,3.48l-1.08,1.1a2.22,2.22,0,0,0-2.23,1.1l-1.1,1.11c-.35.37-.71.74-1.06,1.12a2.29,2.29,0,0,0-2.28,1,24.74,24.74,0,0,0-4.14,1.23c-12.27,6.15-25.45,6.91-38.8,6.67-1.4,0-3.3.23-2.73-2.15,1-4-.36-8.51,2.63-12.07,1.42-.8,1.27-2.15,1.2-3.47l0,0c.57-.42,1.42-.72,1.68-1.28a76.61,76.61,0,0,1,16-22.43c.87-.87,1.24-1.8,0-2.69,0-.35.08-.69.11-1l1.94-.2a2.07,2.07,0,0,0,2.28-1c.54-1.94,3.41-2,3.48-4.33l.47-.58-.61.45c-3.45.61-5.86,2.69-7.74,5.52l-1,1.23,0,0-1.13,1.12,0,0-1.12,1.12h0L231,418.53h0l-1.12,1.12,0,0-1.12,1.12h0l-1.11,1.11h0l-1.12,1.11.08,0c-7.72,2.58-15.42,4.57-23.75,4.8-4.06.12-8.7-.71-12.65,1.65-2.89-.84-6,3.89-7.81,1-1.36-2.12,2.37-4.91,3.77-7.39a71.53,71.53,0,0,1,18.16-20.95c1.65-1.3,2.46-2.57,2.29-4.56,1.47-1.13,3.63-1.36,4.44-3.37l0,0c.92,0,1.8-.18,2.26-1.13l-.06,0c1.22-.08,2.58.24,3.36-1.14l0,0c1.26,0,2.57.23,3.35-1.14l0,0c1.23,0,2.6.28,3.37-1.14ZM255.91,403c-4.4-1.74-6.95-.31-9.47,1a1.93,1.93,0,0,0-.86,2.36c.44,1.2,1.42.76,2.22.4C250.16,405.65,252.5,404.54,255.91,403Z"/><path class="cls-2" d="M444.83,311.35a26.11,26.11,0,0,0-8.31,2.68c-1.12.52-2.2.84-2.85-.39s.6-2,1.43-2.55c1.7-1.08,3.54-1.93,5.32-2.86a5.68,5.68,0,0,0,3.16-5.17c-3.86.15-6.1,3.16-9,4.62-1.09.53-1.85,1.74-3.29,1.61-3-.27-6.55,1.19-8.61-2.1s1.2-5.31,2.45-7.78c2-3.84,6.81-5.54,8-10.85-5.57,1.24-9,5-13.6,8.68.83-4.76,3.37-7.41,5.46-10.27.83-1.13,1.55-2.17.24-3.34s-2.22,0-3.26.75c-2,1.44-2.29,4.56-5.7,5.7,3.52-7.07,5.23-14.51,12.4-18.4,4.12-1.27,6.59-4.91,10.07-7.06C455.58,254.2,473,245,493,241.89c2.15-.33,4.86-.5,6-3.18,2.06-.09,3.76.15,3,2.95-.64,2.43-1.3,4.87-1.86,7.32-1.5,6.61-6,12-7.73,18.45h0c-2.1.79-2.47,2.45-2.21,4.42h0c-3,.07-3.49,2-3.33,4.42l0,0c-3.56,0-3.68,3.72-5.7,5.39-4.21,4.25-9.27,7.72-12.18,13.18l-.4.72.72-.4c5.15-3.4,10.09-7,12.22-13.2a12.78,12.78,0,0,0,7.36-3.37l6.8-3.4c2,1.7,3.75-.2,5.52-.63,8.61-2.09,17.18-3,25.68.28,1.42.56,3.51.54,3.4,3.4-.09,2.52-1.34,3-3.15,3.5a3.53,3.53,0,0,0-2.82,2.29l0,0c-.94,0-1.84.1-2.26,1.13l.06,0c-1.25,0-2.6-.3-3.35,1.15l0,0-1.14,1.13,0,0c-.95,0-1.83.1-2.25,1.13l0,0a2,2,0,0,0-2.24,1.13l0,0-1.14,1.14,0,0-1.15,1.14.05,0c-1.71-.14-3.26,0-3.34,2.25l0,0c-1-.05-1.82.1-2.24,1.12h0a3.17,3.17,0,0,0-3.33,2.23l0,0-1.12,1.12v0c-.38.53-.75,1.07-1.13,1.61a1,1,0,0,1-.71.59c-1.74-.09-3.54-.29-3.68,2.24v0a1.93,1.93,0,0,0-2.23,1.12h0a3.09,3.09,0,0,0-3.33,2.22h0a3.06,3.06,0,0,0-3.33,2.21v0l-1.12,1.12h0c-1.95-.21-3.63.14-4.43,2.22l0,0-1.13,1.12,0,0c-1-.05-1.86,0-2.23,1.12h0c-2-.23-3.61.16-4.43,2.22l0,0c-1-.06-1.86,0-2.23,1.12h0c-1.27-.11-2.57-.31-3.32,1.12h.07c-7.25,3.21-14.78.5-22.16,1.08.07-.73,1.27-1.75-.23-2.1a1.65,1.65,0,0,0-2.21,1.61,12.37,12.37,0,0,0,2.48.46c-2.12,1.45-2.12,1.45-12.24.86,3-4,8.8-4,11.32-8.34,4.38-1,8.38-2.69,11-6.62,3.12-.12,4.87-2.27,6.57-4.48,1-.27,2.15-.39,2.42-1.68,0-.15-.41-.56-.65-.58-1.36-.11-1.79.86-2.1,1.93a10.71,10.71,0,0,0-6.56,4.44A35.94,35.94,0,0,0,444.83,311.35Zm3.86,5c2,1.23,3.1.05,4.36-1C451.53,314.5,450.28,314.79,448.69,316.31Zm-12.9-28.9c-.14-.32-.21-.81-.41-.87a1,1,0,0,0-.92.34c-.33.52-.12,1,.53,1.06C435.24,288,435.52,287.6,435.79,287.41ZM456,314c-.13.09-.32.15-.38.27s.13.24.21.37l.6-.45Zm3.64-.67c0-.11,0-.28-.08-.33a1.07,1.07,0,0,0-.41-.08l.11.56Z"/><path class="cls-2" d="M390.84,246.37c-4.69,7.38-7.32,15.93-12.89,22.82-1.1,1.36-1.94,4-3.87,3s-.07-3.19.3-4.89c1.35-6.18,4.16-12,4.77-19.62-3.81,3.91-4.27,8.14-6,11.71-1.6,3.28-2.64,6.87-5.28,9.54-.6.61-1.57,1.37-2.25,1.27-1.42-.2-1.15-1.63-1.16-2.68,0-2.2,0-4.39,0-6.69-2.34,0-1.64,3.14-4.13,3.44V250.89a26,26,0,0,0-2.87,9.81c-3.07-6-2.82-12.53-3-20.13-3.65,4.29-2.93,8.79-4.75,12.49-1.25-.29-.73-3-2.55-2.53-1.44.38-1.36,2-1.43,3.26-.23,4.77-2.85,9.56.26,14.3.19.29-.13,1.11-.45,1.49-.68.8-1.24.07-1.81-.31a10.65,10.65,0,0,1-4.46-6.6c-.83-3.33-.89-6.88-3.27-11.1-2.61,7.3,2.64,12.29,2.16,18.24-4.09-5.6-7.56-11.5-7.95-18.82.88-4.44-.85-8.67-1-13-.59-15.61,2.42-30.78,5-46,1.07-6.33,1.72-12.95-.58-19.33.56-5.06,3.07-6.65,7.79-4.4.27.13.7-.05,1.05-.08h0a6.06,6.06,0,0,0,5.5,5.51h0a4.8,4.8,0,0,0,.81,3.64c10.37,16.59,13.06,34.3,7.64,53.15-.41,1.42-.78,2.56,1.3,2.62.93,1.69-2.87,2.88.14,5.22,5.39-15.28,16.83-26.91,23.22-41.48.35-.37.7-.74,1-1.12l0,.05,1.15-1.15-.06.05,3.19-2.4a5.44,5.44,0,0,0,.42.41c.26,1.11-.83,2.45,1.25,3.91,1.17-5.41,5.84-8.88,6.21-14.48a1.09,1.09,0,0,1,.8-.67l1.43-1.16-.06.06,1.16-1.45c.95-1,1.91-2,2.87-3,1.56,0,2.56.6,2.66,2.27l0,0L402,179.21l0,0c-2.17.69-2.11,2.8-2.8,4.43-3.71,8.78-3.75,18.23-4.25,27.45C394.32,223,391.68,234.55,390.84,246.37Zm-6.54-44.05c1-1.1,2.24-2.14,1.45-4.09-1.91,1.16-1.15,2.78-1.43,4.11-.43.39-1.4.64-.39,1.43Z"/><path class="cls-2" d="M328.08,197.93c-1.9,1.59-1.83,4.07-2,6-1.21,14.36-2.05,28.74.52,43.08.29,1.62.8,3.06-1.18,4.73s-.78,4.81-.29,7.26c.74,3.68,1.75,7.31,2.22,11.12-6.89-6.91-8.16-17.23-15.35-24.77-.52,4,1.42,6.77,2.29,9.69,1.61,5.42,3.48,10.76,5.26,16.13.4,1.21,1.24,2.58-.12,3.49s-2.83.33-4-.75a47.64,47.64,0,0,1-7.76-9.9c-1.07-1.69-1.95-3.5-4.92-4.59,1.27,5.06,4.28,8.5,6.09,12.45,1,2.27,3.64,5.31,1.87,6.68-2.12,1.66-4.73-1.19-6.89-2.88-6-4.71-9.2-11.75-14.37-17.13h0l-1.11-1.1h0a2.13,2.13,0,0,0-1.11-2.21v0a2.5,2.5,0,0,0-1.11-2.23v0L285.05,252h0c0-1.23.11-2.48-1.11-3.31v0l-1.11-2.22h0l.08-1.26c1.23-.75,1-1.4-.12-2l-.06,0c.69-4.31-1.88-7.8-3.23-11.48-4.84-13.15-4.68-27.3-8.53-40.61l3,1.34,1.11,1.1c.29.36-.48,1.43.77,1.16l-.79-1.14L274,192.41c-.12-2.08-1.44-3.63-2.39-5.35a3.59,3.59,0,0,0,.39-.39l4.24.19h0c-.08,1.56.74,2.21,2.21,2.21h0a1.82,1.82,0,0,0,2.22,1.12h0c-.08,1.56.73,2.22,2.21,2.21h0c.38,1.08,1.21,1.26,2.21,1.12h0c.21,2.73,1.78,4.11,4.42,4.41h0L290.6,199h0c.38,1.09,1.23,1.24,2.22,1.12l0,0c-.09,1.57.64,2.32,2.22,2.22h0l1.12,1.11h0l1.11,1.11h0l1.1,1.11h0l1.11,1.11h0c-.1,1.57.63,2.31,2.21,2.21h0a1.82,1.82,0,0,0,1.12,2.22h0l1.1,1.11h0c.08,2.12,1.05,3.36,3.31,3.31h0c-.16,2.43.37,4.33,3.32,4.42h0c2.79,9.31,9.89,16.48,12.39,25.94.32-7.18-3.63-12.64-6.77-18.42a2.46,2.46,0,0,0,.91-2.92c-2-8.63-.69-17.38-1-26.06-.16-5,.11-10.1-2.22-14.79-.74-3.68,1.11-5.68,4.39-6.76h0l1.13,1.13,0,0,1.13,1.12,0,0c.56,1.17,1.58,1.24,2.68,1.13a1.06,1.06,0,0,1,.64.65,3.21,3.21,0,0,0,2.23,3.76v0c0,1.47.63,2.32,2.21,2.22v0C328.09,190.54,328.09,194.23,328.08,197.93Zm-32,49.63a2.17,2.17,0,0,0,1.09,2.21c.29,3.52,2.28,6,5.09,9.09-.26-4.55-2-7.24-5-9.13,0-.92-.15-1.77-1.12-2.19l-.42-1.45-.42.28Z"/><path class="cls-2" d="M295,275.13c-1.75.6-4.05-1.9-5-.09-1.28,2.42,1.82,3.52,3,5.25.9,1.37,3.78,2.23,2.24,4.21-1.09,1.41-3.35.44-5.1-.27-7.56-3.07-12.2-9.66-18-14.86a2.72,2.72,0,0,0-2.24-2.17c-.4-.7-.79-1.41-1.18-2.12a2.39,2.39,0,0,0-2.17-2.28,4.55,4.55,0,0,0-2.26-4.34,3.91,3.91,0,0,0-2.28-3.25c-.14-.69-.18-1.48-1.09-1.57-.19,0-.62.41-.6.61.09.89.82,1,1.55,1.11-.1,1.64.17,3.05,2.14,3.38a4.44,4.44,0,0,0,2.23,4.37,2.35,2.35,0,0,0,2.12,2.27c.39.72.77,1.44,1.15,2.16a2.69,2.69,0,0,0,2.09,2.4c3.29,8.39,9.24,14.67,16.11,20.19,1.09.88,3,1.3,2.41,3.16s-2.6,1.66-4.23,1.69a25.72,25.72,0,0,1-18-6.69c-1.47-1.28-2.41-3.37-4.83-3.23l0,0a1.77,1.77,0,0,0-1.08-2.17l0,0c-3.5-5.64-4.72-12.79-11.06-16.51h0c-.46-4.7-3.48-8.54-4.43-13.07-.71-7.64-2.55-14.77-8.83-19.95v-.09a1.85,1.85,0,0,0-1.09-2.18v0l-1.08-1.08v0l-1.1-1.09h0c.08-1.49-.61-2.23-2.11-2.17a8,8,0,0,1-.15-1l2.28-1.32c1.94-.41,3.89-.81,5.83-1.24,9.56-2.13,10-1.53,10.85,8.07.54,6.28,2.14,12.46,6.5,17.46l.79,1.8.68-.42-1.46-1.39-4.32-15.57c2.68.35,1.82,3.37,3.77,4.73,1.63-3.06-.32-5.92-.67-8.61-1.37-10.23-.67-20.69-4-30.73-1.14-3.41,2.76-4.08,5.39-4.81.81,1.19,2.05.89,3.19.92v0c-.29,3.45,1.94,3.55,4.42,3.32h0a39,39,0,0,1,4.34,13.77c.33,3.42.67,6.86,3.41,9.43l0,0c.58,9.54,3.42,18.19,9.9,25.42h0c0,.94,0,1.83,1.11,2.22v0c-.08,1.26-.33,2.57,1.11,3.31h0l1.11,1.11v0c0,1,.05,1.83,1.11,2.23v0a1.9,1.9,0,0,0,1.11,2.21h0l1.11,1.1h0a30.57,30.57,0,0,0,4,12.09c.79,1.45,1.67,2.74,1.5,4.45Z"/><path class="cls-2" d="M195.61,317c4.53-2.29,9.39-1.11,14-.89,11.49.53,23,1.55,33.93,5.5,6.69,2.43,13.31,5.32,18.93,9.89,1.36,1.1,3.13,2.34,2.41,4.54s-2.84,1.94-4.65,2c-.91,0-1.83,0-2.75,0-1.13,0-2.48.25-2.6,1.48s1.27,1.5,2.32,1.88c1.34.5,2.59,1.22,5,2.35-10.93,3.53-21.16,1.09-32.15,2.29a113.82,113.82,0,0,0,19.33,4.07c.18,0,.37,0,.55,0,2.5.33,6.64.52,6.51,2.6-.17,2.75-4.16,2.62-6.81,2.89-14,1.43-27.31-1.49-39.93-7.44a120.29,120.29,0,0,0-34.58-10.27c-8.22-1.18-8.24-1.39-8.18-9.71l.43-.21,1.48-.54c.9-2.06,3.71-.89,4.71-2.78l.1,0c5.45-.67,10.21-3.47,15.41-5C191.29,319.08,194.24,319.8,195.61,317Zm32.51,28.24c-.07-.13-.12-.32-.23-.36s-.31,0-.47,0l.31.56Z"/><path class="cls-2" d="M186.82,350.08c12-4.34,22.84-.41,33.7,4.41,12.46,5.55,25.77,7.48,40.07,8-4.31,4.14-10.37,2.41-14.9,6.38h14l.21,1.53c-11.82,3.87-24.34,3.33-36.59,5,10.8,0,21.59,0,32.38,0,2.05,0,5.16-1,5.61,1.89.39,2.54-2.19,4-4.55,4.69-18,5.15-36.2,6.88-54.53,1.39-.56-1.68-1.94-1.36-3.21-1.33l0,0c-.41-1-1.24-1.12-2.17-1.08l0,0c-7.45-4.52-14.9-9-23.55-11l-2.92-.09,0,0c-.14-2.21-1.81-2.13-3.36-2.24l0,0c.45-2.32-5.15-2.16-2.25-5.49l3.46-2.33,2.12-1.1-.06.05,1.16-1.15-.06,0a2.41,2.41,0,0,0,2.27-1.15l-.07.06,1.17-1.14,0,0c.91-.07,1.81-.16,2.24-1.16l-.05,0a17.91,17.91,0,0,0,10-4.46Z"/><path class="cls-2" d="M368.75,522.2A91.9,91.9,0,0,1,358,492.91c-.79,8.57,2,16.37,5.42,24.27-3.2.11-4.32-1.81-5.23-3.38-5-8.66-8.65-17.17-5.26-27.94,3.57-11.31,1.66-23.26.07-34.88-.9-6.6-2-13.07.42-19.61,1.16-3.15,2.68-3.82,5.18-1.57,1.3,1.17,2.41,2.54,3.61,3.83,2.37-1.94-1.11-4,.61-5.71,7.73,3.25,8.37,5.59,12,44.51,2.27-12.56,4.88-24,1.08-35.76,2.05-.19,2.55,1.08,3.07,2.24.59,1.33.75,3,1.65,4,9.38,11.06,3.39,23.76,3.93,35.74.14,3.11-.16,6.23-.26,9.34l0-.07c-3.75,13.77-9.43,27.21-7.22,42l0,0c-1.09-1.08-2-2.54-3.86-2.21h0l-1.1-1.1h0c.12-1.58-.6-2.34-2.2-2.2v0c.14-1,0-1.81-1.11-2.19Zm-10.48-41.57c2.54-6.28,3.74-11.09,1.69-16.17C359.05,469.35,357.12,474.12,358.27,480.63Zm14.58,37.1c-.89-6.85-2.14-13.72-2.3-20.73C370.12,504,369,511.1,372.85,517.73Z"/><path class="cls-2" d="M323.56,503.59c4.9-6.76.24-12.59-2.17-18.36-4.09-9.79-7.11-19.51-4.39-30.27a35.2,35.2,0,0,1,9.52-16.41c3-2.95,4-8,9.21-8.65.93-.11,1.69-1.74,2.82-.69.89.83.5,2.05.22,3.12-1.59,6-3.43,11.95-3,18.3.15,2.18,0,4.38,2.37,6.35,2.2-6.23,1.19-13.3,6.48-18.4,3.72,5.29,3.38,11.75,5.22,17.48,4,12.6,3.23,25.2-1.37,37.6a18.35,18.35,0,0,0-.53,4.3l0,0L346.84,499v0c-1.08.38-1.25,1.22-1.11,2.22h0l-1.49,1.21-2.53,3.21c-1.57-.08-2.64.43-2.61,2.23l0,0h-3.34l0,0c.62-2.87,4.6-5.25,1.25-8.7.26-.45.53-.89.75-1.35,0,0-.25-.23-.39-.35l-.68,1.43c-.78,1-1.53,2-2.34,2.9-2.59,3-5,6.27-8.84,7.75-1.12.43-4,2.39-3-1.66C323.1,506.47,323.88,505.16,323.56,503.59Zm1.82-16,1.6-.41-5.88-21.27A50.59,50.59,0,0,0,325.38,487.56Z"/><path class="cls-2" d="M318.15,437.25a110.31,110.31,0,0,1-10.89,28.48,24.26,24.26,0,0,0-1.26,3.5h0a1.94,1.94,0,0,0-2.22,1.12l0,0-1.11,1.11h0l-1.09,1.09h0l-1.1,1.1h0l-1.11,1.11h0a1.92,1.92,0,0,0-2.22,1.1h0A2.16,2.16,0,0,0,295,477l0,0c-2.33.3-3.94,1.81-5.51,3.37l0,0-1.15,1.14,0,0c-1-.06-1.88,0-2.24,1.13l0,0c-1,0-1.83.09-2.24,1.14l0,0c-.95,0-1.83.08-2.24,1.13h0a1.92,1.92,0,0,0-2.23,1.12l0,0-1.14,1.13,0,0a2,2,0,0,0-2.23,1.12l0,0-1.13,1.13,0,0L274,490.51l-4.42,5.15c-4.1-3.45-3.75-8.41-4.41-13-.93-6.5,1.44-12.63,2.21-18.95v0a2.08,2.08,0,0,0,1.11-2.22h0c1.38-.77,1.18-2.07,1.11-3.32v0l1.12-1.12h0c2-.86,2.41-2.48,2.22-4.43l0,0a2,2,0,0,0,2.22-2.21h0c6.52-6.36,12.38-13.38,19.56-19.11a51.76,51.76,0,0,1,9.95-6.3c1.12,1.26,0,1.8-.34,2.53-.52,1.23-1,2.61.18,3.55,1,.83,2-.41,3-.62,2.21-.45,3.95-4.35,6-2.29,1.78,1.81,0,5.07-.62,7.69-.7,2.92-2.93,5.4-2.77,8.83,4.11-1.34,5.13-5.44,8-7.53Zm-41,19.78c-7.81,8.15-11.89,20.17-9.74,29C271.11,475.81,272.43,465.85,277.17,457Z"/><path class="cls-2" d="M246.31,292.92c2.47,3.15,6.47,3.69,9.61,5.7,1.26.81,3.63,1,3.11,3.08-.45,1.76-2.48.68-3.79.91a17.1,17.1,0,0,1-2.15.1l-.05,0c-1.41-2.64-3.77-3.37-6.55-3.26l-.08-.05c-.49-1.66-2-1.82-3.32-2.42-5.92-2.67-11.79-5.45-17.68-8.19-.2-1.24-1.1-1.45-2.14-1.45h0c0-2.33-1.61-2.33-3.28-2.2h0c-3.77-6.51-10-10.58-15.48-15.37-3.67-3.24-7.53-6.92-13.13-6.74l-.47-.27.44.3c.05.32.11.64.17,1l-.34.32c-3.1-.64-3.47-3-3-5.43.4-2.25,2.39-2.26,4.24-2.54a98.43,98.43,0,0,1,22.16-.9c1,3.78,4.36,2,6.48,2.39,6.42,1.31,12.3,4.54,18.89,5.15h0l1.12,1.11h0c1.47,2.58,3.82,3.4,6.63,3.32h0c3.53,5.17,9.1,8.67,11.93,14.46.29.58,1.55.68,2.37,1l0,0A1.76,1.76,0,0,0,263,285l0,0c2,5.81,7.43,8.24,11.64,11.85,1.49,1.28,3.46,2,4.09,3.88-9.93,1.56-18.75-1.42-27.06-6.5a9.21,9.21,0,0,0-5.16-1.61c-.38-.26-.75-.53-1.14-.75a4.32,4.32,0,0,0-.41.54Zm-8.73-4c1.6.71,2.56,3.46,5.51,1.84C241.51,289,239.94,288.14,237.58,289Z"/><path class="cls-2" d="M253.09,302.71c2.42,4,7.11,5.91,9.2,10.56-2.49.94-4.87-2-7.39.08,2.62,3.22,7.48,4.2,10.35,10.17-25-6.86-49.66-7.73-74-10.88l.08,0a2.22,2.22,0,0,0-2.27-1.16l.06,0L188,310.41l0,0-1.15-1.14,0,0-1.15-1.14,0,0a2.28,2.28,0,0,0-2.51-1.15l-.8-.78-1.15-1.43,0,.05a2,2,0,0,0-2.24-2.24l0,0L178,301.59l0,.05-1.15-1.17.05.06a3.67,3.67,0,0,0-2.26-3.35l0,0-1.16-1.15.06.06L172.5,295l.06.06a2.59,2.59,0,0,1,0-3.38h0a29.87,29.87,0,0,0,3.8-.46c22.31-5.71,43.68-2.88,64.3,6.94,1.84.88,3.66,1.71,5.77,1.22l.08.05c1.4,2.66,3.69,3.52,6.55,3.26Zm-40.81,7.14c-8.19-3.77-16.32-7.43-25.44-7.72C195,305.89,203,310.11,212.28,309.85Z"/><path class="cls-2" d="M490.25,371.06a88.23,88.23,0,0,1-17.74-7.67l.07-.09a22.52,22.52,0,0,1,4.3.63c8.75,3.09,17.71,4,27,4,12,0,22.91-6,36.33-4.4-4.6-4.48-9.29-5.58-14.2-7.59,4.21-.81,7.23.53,10.28,1.79.93.39,1.93,1.52,3,.48s.25-2.11-.31-3c-2.57-4.19-4.48-8.88-8.77-11.79a2.25,2.25,0,0,0-2.44-1h0c.45-2.37-2.4-3.07-2.58-5.12.15-.15.29-.3.43-.46,9.21,6.35,16.19,14.09,16.55,26.1.07,2.66-.52,3.3-3.37,2.81-10.4-1.81-20.11,2.95-30.29,3.68-4,.29-8,.36-12,.58C494.35,370.05,492,369.11,490.25,371.06Z"/><path class="cls-2" d="M444.91,458.2c3.93,3.74,7.75,7.63,11.85,11.18,2.2,1.9,4.55,3.61,5-1.81.36-4.62,1.87-9.22,3.32-13.69,4.56-14,4.9-27.84-1.3-41.51a4.39,4.39,0,0,1,0-1.62c5.92,5.53,5.83,13.1,6.44,20.24.71,8.47-1.23,16.68-3.68,24.78-1.93,6.38-4.5,12.75-1.82,19.92C456,471.81,448.27,467.46,444.91,458.2Z"/><path class="cls-2" d="M246.41,299.36c-2.11.49-3.93-.34-5.77-1.22-20.62-9.82-42-12.65-64.3-6.94a29.87,29.87,0,0,1-3.8.46c5.7-4,12.49-3.78,18.87-4.19,9.09-.58,18.28-1.14,27.43,1,.24-2-2-2-2.26-3.34l.36-.38,3,.32h0a3.55,3.55,0,0,0,3.28,2.2h0l2.14,1.45c5.89,2.74,11.76,5.52,17.68,8.19C244.4,297.54,245.92,297.7,246.41,299.36Z"/><path class="cls-2" d="M390.84,246.37c.84-11.82,3.48-23.42,4.11-35.3.5-9.22.54-18.67,4.25-27.45.69-1.63.63-3.74,2.8-4.43-1.55,8.54-5,16.72-4.57,25.66.18,3.29,1.1,1.56,2.13.62l.25.21c-1.85,8.51-4.5,16.83-5.17,25.61-.4,5.2-.7,10.55-3.66,15.19Z"/><path class="cls-2" d="M460.45,406.33c-6-2.57-9.2-8.54-14.48-12l.19-.22c10.56,1.89,20.95,4.67,31.77,5.14a144.18,144.18,0,0,1,26.44,3.8c2.79.65,5.81,1,7.89,3.37-12.52-3.31-25.36-4.56-38.17-6-6.47-.76-13-.79-19.91-3.15C455.38,401.48,460,402.53,460.45,406.33Z"/><path class="cls-2" d="M492.43,267.43c1.72-6.5,6.23-11.84,7.73-18.45.56-2.45,1.22-4.89,1.86-7.32.75-2.8-.95-3-3-2.95-4.57-.51-8.92.73-13.37,1.49-6.75,1.14-12.67,5.33-19.73,5.12l0,0c10.16-5.46,21.41-7.22,32.49-9.46,4.33-.88,7.13,1.85,6,5.76-2.5,8.42-5.14,16.84-9.82,24.42C494.08,266.9,493.51,267.56,492.43,267.43Z"/><path class="cls-2" d="M318.17,176.93c-3.28,1.08-5.13,3.08-4.39,6.76,0,11.85,0,23.7-.07,35.55a12.61,12.61,0,0,0,2.36,8.22c3.14,5.78,7.09,11.24,6.77,18.42-2.5-9.46-9.6-16.63-12.39-25.94,1.58.73,2.28.37,2.23-1.51-.31-12.6.69-25.22-.44-37.81C312,177.47,314.27,176,318.17,176.93Z"/><path class="cls-2" d="M357.7,233c-2.08-.06-1.71-1.2-1.3-2.62,5.42-18.85,2.73-36.56-7.64-53.15a4.8,4.8,0,0,1-.81-3.64c7.79,8.17,11.13,18.28,12.2,29.18.55,5.63.16,11.37.2,17.06l.12,1.53.67-1.32c.34-.07.69-.13,1-.18l.29.32C362.15,225,358.37,228.42,357.7,233Z"/><path class="cls-2" d="M445,220c3.07-3.31,7.29-4.23,11.34-4.19A64.11,64.11,0,0,0,474.48,213a14.43,14.43,0,0,1,3.73-.63c2.12,0,5.28-.88,5.87,1.49.78,3.16-2.78,2.42-4.58,3.17s-3.71,1.45-5.56,2.18l-.33-.34c1.12-2.73,4.64-2.38,6.78-4.9-10.15.06-17.91,5.63-26.66,8,1.08-1.56,2.94-2.16,3.61-3.95-4.55-1.39-8.2,1.85-12.38,2Z"/><path class="cls-2" d="M253.16,233.08l4.32,15.57h0c-4.36-5-6-11.18-6.5-17.46-.82-9.6-1.29-10.2-10.85-8.07-1.94.43-3.89.83-5.83,1.24,3.63-6.38,9.59-4.09,15.45-4V208c2,5.37.06,11.09,2.2,16.38.06.78.11,1.57.17,2.35,0,.62,0,1.25,0,1.88a2.2,2.2,0,0,0,.72,2.49C253,231.76,253.07,232.42,253.16,233.08Z"/><path class="cls-2" d="M524.38,284a3.53,3.53,0,0,1,2.82-2.29c1.81-.46,3.06-1,3.15-3.5.11-2.86-2-2.84-3.4-3.4-8.5-3.33-17.07-2.37-25.68-.28-1.77.43-3.48,2.33-5.52.63,11.33-4.73,22.73-7,34.34-1,1.93,1,4.26,1.73,4.19,4.53s-2.66,3.2-4.63,3.93A51.49,51.49,0,0,1,524.38,284Z"/><path class="cls-2" d="M448.4,247.65c-.93,1.7-1.87,3.4-3.36,6.1l20.9-8.39,0,0c-.2,2.39-2.32,2.5-3.88,3.28-5.86,2.92-11.69,5.9-17.58,8.76-2.37,1.15-3.92,4-7.09,3.49,2.74-5.17,4.78-10.9,10.87-13.35Z"/><path class="cls-2" d="M190.3,429.42c3.95-2.36,8.59-1.53,12.65-1.65,8.33-.23,16-2.22,23.75-4.8-1.21,4-4.09,6.85-6.46,10.06l-.46-.36c.33-1.58.66-3.15,1.06-5.08-8.47.58-16.47,3.24-24.8,3.1C194,430.66,192,430.84,190.3,429.42Z"/><path class="cls-2" d="M425.19,210c3.13,5.94,2.93,12.43,3.29,18.87.06,1.09-1.83,4.28,2.07,3.18l.07.07c-1.79,5.38-2.64,11.12-6.07,16,2.27-6.63,1.78-13.37,1.61-20-.16-6-.69-12-1.06-18Z"/><path class="cls-2" d="M377.14,530c-2.21-14.79,3.47-28.23,7.22-42,.53,6.72-1.92,12.94-3.37,19.3-1.91,8.37-5.8,16.64.25,25.27C378.48,532.77,377.5,531.78,377.14,530Z"/><path class="cls-2" d="M438.45,509c2-.25,1.9-1.74,2.12-3.23,2-13.31,4.15-26.6,0-39.93a11.45,11.45,0,0,1,0-3.26,9.63,9.63,0,0,1,3.06,6.82c.75,13.12,1.2,26.26-2.05,39.18C441,510.87,439.84,511.35,438.45,509Z"/><path class="cls-2" d="M328.08,197.93c0-3.7,0-7.39,0-11.09,4-4.34,3.43-10,4.43-15.21.45-2.34-1-5.62,2.37-6.52a6.53,6.53,0,0,1,7.53,3c-.35,0-.78.21-1.05.08-4.72-2.25-7.23-.66-7.79,4.4A121.61,121.61,0,0,1,328.11,198Z"/><path class="cls-2" d="M289.47,480.31c1.57-1.56,3.18-3.07,5.51-3.37-2.34,12.58-.43,24.39,6.46,35.29.34.55.18,1.42.25,2.14l-.23.21c-7.85-8.4-9-18.78-8.82-29.58C292.68,482.74,293.44,479.9,289.47,480.31Z"/><path class="cls-2" d="M433,448.09c2.67.22,3.6,3.61,6.44,3.51l0,0L440,453c.18-.46.37-.92.56-1.38l.1-.11c4,.62,3.31,4.24,4.34,6.75-1.92,1.65-3.15-.86-5.2-1.24.33,2.18.59,3.88.86,5.58-4-4-5.54-9.27-8-14.09A5.66,5.66,0,0,1,433,448.09Z"/><path class="cls-2" d="M267.41,463.7c-.77,6.32-3.14,12.45-2.21,18.95.66,4.6.31,9.56,4.41,13-2.68.24-2.89.31-3.75-2.21-1.47-4.33-2.65-8.75-4-13.13C264.2,474.94,263.31,468.49,267.41,463.7Z"/><path class="cls-2" d="M273,221.07c-2.74-2.57-3.08-6-3.41-9.43a39,39,0,0,0-4.34-13.77c4.62-1.31.72-5.59,2.82-7.88Q270.52,205.58,273,221.07Z"/><path class="cls-2" d="M261.88,282.83c-.82-.33-2.08-.43-2.37-1-2.83-5.79-8.4-9.29-11.93-14.46,1.08-.34,3,2.08,3.24-1C257.16,270,258.38,277.19,261.88,282.83Z"/><path class="cls-2" d="M282.85,246.45c-6.48-7.23-9.32-15.88-9.9-25.42,3.19,5.3,4.41,11.41,6.91,17,.8,1.8,1.25,3.81,2.89,5.14l.06,0,.12,2Z"/><path class="cls-2" d="M250.85,458.14c1.07,4.7-2.46,8.17-3.49,12.34-1.17,4.77.19,9.81-2,14.34C242.4,474.94,246.17,466.44,250.85,458.14Z"/><path class="cls-2" d="M394.22,182.05c-.37,5.6-5,9.07-6.21,14.48-2.08-1.46-1-2.8-1.25-3.91.11-.26.23-.52.35-.77l-.77.36-3.19,2.4C385.43,189.18,390.35,186.08,394.22,182.05Z"/><path class="cls-2" d="M239.87,263c-6.59-.61-12.47-3.84-18.89-5.15-2.12-.44-5.49,1.39-6.48-2.39C223.27,256.88,232.31,257.43,239.87,263Z"/><path class="cls-2" d="M237.57,233.31c1.15,5.06,5.12,9.13,4.53,14.88l-8.88-19.4v0c.35,0,.71,0,1.06,0h0l1.1,1.08v0l1.08,1.08v0c-.1,1,.06,1.79,1.09,2.18Z"/><path class="cls-2" d="M276.25,186.86l-4.24-.19-.75-.35.36.74c.95,1.72,2.27,3.27,2.39,5.35h0l-3-1.34c-.25-2.54-1.47-4.39-5.22-5.06C270.64,182.61,273.61,183.49,276.25,186.86Z"/><path class="cls-2" d="M470.7,221.54a61.79,61.79,0,0,1-10.92,10.94l-.56-.44a24.55,24.55,0,0,1,11.07-11C470.43,221.19,470.57,221.36,470.7,221.54Z"/><path class="cls-2" d="M418.62,191.16c3.71,5.74,6.44,11.82,6.57,18.82l-.09.08a65.65,65.65,0,0,1-6.64-18.72Z"/><path class="cls-2" d="M246.4,253.26c.95,4.53,4,8.37,4.43,13.07-3.39-2.8-4.29-7-5.91-10.75C244.34,254.22,245.25,253.62,246.4,253.26Z"/><path class="cls-2" d="M254.8,503.46c1.81-.69.91-1.92.77-3.15-.46-4.3-1.21-8.7,2.15-12.36-.27,4.62-2.05,9.14-.34,13.91C258,503.53,257.26,505.47,254.8,503.46Z"/><path class="cls-2" d="M481.23,281.63c2-1.67,2.14-5.35,5.7-5.39.67.78,1.35,1.55,2,2.32a12.78,12.78,0,0,1-7.37,3.37Z"/><path class="cls-2" d="M211.15,394.17c-.81,2-3,2.24-4.44,3.37l-3.55,2C205.06,396.52,207.46,394.32,211.15,394.17Z"/><path class="cls-2" d="M347.94,173.62a6.06,6.06,0,0,1-5.5-5.51A7,7,0,0,1,347.94,173.62Z"/><path class="cls-2" d="M208.87,278.51a8.91,8.91,0,0,1-5.58-5.42l.21-.26a8.44,8.44,0,0,1,5.62,5.45Z"/><path class="cls-2" d="M403.08,178.11c-.1-1.67-1.1-2.3-2.66-2.27.36-.4.69-.83,1.08-1.2,1.15-1.06,2.48-3,4-1.64,1.74,1.52-.81,2.63-1.33,4C404,177.42,403.45,177.73,403.08,178.11Z"/><path class="cls-2" d="M247.59,267.37c-2.81.08-5.16-.74-6.63-3.32A7.35,7.35,0,0,1,247.59,267.37Z"/><path class="cls-2" d="M289.5,197.88c-2.64-.3-4.21-1.68-4.42-4.41C287.41,194.08,289.25,195.18,289.5,197.88Z"/><path class="cls-2" d="M216.58,285.14c-2.21-.76-4.25-1.67-4.35-4.48l0,0c1.88,1,4,1.71,4.68,4.13Z"/><path class="cls-2" d="M265.23,197.88c-2.48.23-4.71.13-4.42-3.32C263,194.74,264.26,196.1,265.23,197.88Z"/><path class="cls-2" d="M486.9,276.26c-.16-2.43.36-4.35,3.33-4.42C490,274,488.6,275.23,486.9,276.26Z"/><path class="cls-2" d="M430.55,232a5.4,5.4,0,0,1,3.34-4.39l.06.06c0,2.3-.66,4.11-3.33,4.4Z"/><path class="cls-2" d="M459.78,232.48a5.94,5.94,0,0,1-3.3,4.43l-.59-.47c.26-2.11,1.67-3.35,3.32-4.41Q459.5,232.27,459.78,232.48Z"/><path class="cls-2" d="M310.46,220c-2.95-.09-3.48-2-3.32-4.42A5.42,5.42,0,0,1,310.46,220Z"/><path class="cls-2" d="M453.06,241.36a5.4,5.4,0,0,1-3.22,4.36l-.54-.44c.24-2.11,1.61-3.38,3.31-4.41A5.23,5.23,0,0,1,453.06,241.36Z"/><path class="cls-2" d="M456.48,236.91c-.53,2-1.42,3.63-3.42,4.44-.14-.16-.29-.33-.45-.48.21-2.13,1.65-3.35,3.28-4.44Z"/><path class="cls-2" d="M307.15,215.53c-2.26.05-3.23-1.19-3.31-3.31C306,212.28,307,213.51,307.15,215.53Z"/><path class="cls-2" d="M415.16,484.7c1.81.06,4-.59,4.42,2.22C417.65,487.09,416,486.61,415.16,484.7Z"/><path class="cls-2" d="M415.41,188.85a4.76,4.76,0,0,1,3.21,2.31l-.16.18c-1.86.39-3.82.93-3.29-2.23Z"/><path class="cls-2" d="M399.56,205.47a5.83,5.83,0,0,1,2.17-4.45l.33.3c0,1.85-.36,3.49-2.25,4.36Z"/><path class="cls-2" d="M481.38,311.56c.8-2.08,2.48-2.43,4.43-2.22A3.89,3.89,0,0,1,481.38,311.56Z"/><path class="cls-2" d="M440.54,222.17A4.07,4.07,0,0,1,445,220v0c-.9,1.87-2.55,2.23-4.4,2.21Z"/><path class="cls-2" d="M473.65,316c.82-2.06,2.47-2.45,4.43-2.22C477.22,315.71,475.53,316,473.65,316Z"/><path class="cls-2" d="M490.22,271.85c-.26-2,.11-3.63,2.21-4.42C492.88,269.49,491.92,270.85,490.22,271.85Z"/><path class="cls-2" d="M486.9,308.25a3.06,3.06,0,0,1,3.33-2.21C490,308.14,488.62,308.43,486.9,308.25Z"/><path class="cls-2" d="M401.73,201a5.18,5.18,0,0,1,2.22-3.3l.26.24c0,1.58-.07,3.11-2.15,3.36Z"/><path class="cls-2" d="M490.21,306.05a3.09,3.09,0,0,1,3.33-2.22C493.38,306,491.91,306.2,490.21,306.05Z"/><path class="cls-2" d="M364.74,217c-.23,1.45-.52,2.85-2.28,3.22l-.28-.31a4.61,4.61,0,0,1,2.13-3.38C364.46,216.67,364.6,216.83,364.74,217Z"/><path class="cls-2" d="M366.66,213.35c.16,1.64-.25,3-1.92,3.63-.14-.15-.28-.31-.43-.46a4.19,4.19,0,0,1,2.36-3.16Z"/><path class="cls-2" d="M495.73,302.74c.14-2.53,1.94-2.33,3.68-2.24C498.4,301.6,497.41,302.75,495.73,302.74Z"/><path class="cls-2" d="M368.87,211.16c-.12,1.35-.72,2.22-2.21,2.19h0c.12-1.34.7-2.23,2.19-2.21Z"/><path class="cls-2" d="M278.47,189.06c-1.47,0-2.29-.65-2.21-2.21C277.65,186.93,278.63,187.42,278.47,189.06Z"/><path class="cls-2" d="M370,209c.12-.88.31-1.71,1.45-1.71a.52.52,0,0,1,.33.37c-.11,1.09-.84,1.37-1.81,1.32Z"/><path class="cls-2" d="M252.88,231.09a2.2,2.2,0,0,1-.72-2.49C253.5,229.12,254.86,229.62,252.88,231.09Z"/><path class="cls-2" d="M325.9,184.66a3.21,3.21,0,0,1-2.23-3.76C324.76,181.94,326.28,182.74,325.9,184.66Z"/><path class="cls-2" d="M282.88,192.37c-1.48,0-2.29-.65-2.21-2.21C282,190.27,283,190.74,282.88,192.37Z"/><path class="cls-2" d="M328.1,186.86c-1.58.1-2.2-.75-2.21-2.22C327.47,184.55,328,185.45,328.1,186.86Z"/><path class="cls-2" d="M404,197.72a3.05,3.05,0,0,1,2-2.38l.48.45a2.16,2.16,0,0,1-2.25,2.17Z"/><path class="cls-2" d="M463.75,410.74c-1.56.08-2.17-.78-2.2-2.22C463.18,408.37,463.7,409.32,463.75,410.74Z"/><path class="cls-2" d="M216.67,392c-.78,1.38-2.14,1.06-3.36,1.14C214.12,391.84,215.39,391.88,216.67,392Z"/><path class="cls-2" d="M220,390.86c-.78,1.37-2.09,1.17-3.35,1.14C217.36,390.45,218.71,390.79,220,390.86Z"/><path class="cls-2" d="M295,202.3c-1.58.1-2.31-.65-2.22-2.22A3,3,0,0,1,295,202.3Z"/><path class="cls-2" d="M223.3,389.76c-.77,1.42-2.14,1.09-3.37,1.14C220.7,389.45,222.08,389.85,223.3,389.76Z"/><path class="cls-2" d="M468.14,318.18c.75-1.43,2.05-1.23,3.32-1.12C470.71,318.49,469.44,318.37,468.14,318.18Z"/><path class="cls-2" d="M301.63,208.92c-1.58.1-2.31-.64-2.21-2.21A2.81,2.81,0,0,1,301.63,208.92Z"/><path class="cls-2" d="M260.82,194.58c-1.14,0-2.38.27-3.19-.92C258.84,193.46,260.09,193.14,260.82,194.58Z"/><path class="cls-2" d="M203.29,273.09a2.28,2.28,0,0,1-2.07-1.26l0-.05a2.09,2.09,0,0,1,2.24,1.05Z"/><path class="cls-2" d="M212.23,280.66a1.8,1.8,0,0,1-2.27-1l.31-.35,2,1.35Z"/><path class="cls-2" d="M285.08,193.48c-1,.14-1.83,0-2.21-1.12A1.67,1.67,0,0,1,285.08,193.48Z"/><path class="cls-2" d="M323,180.25c-1.1.11-2.12,0-2.68-1.13A2.62,2.62,0,0,1,323,180.25Z"/><path class="cls-2" d="M292.81,200.1c-1,.12-1.84,0-2.22-1.12A1.64,1.64,0,0,1,292.81,200.1Z"/><path class="cls-2" d="M471.45,317.07c.37-1.13,1.27-1.18,2.23-1.12C473.28,317,472.42,317.14,471.45,317.07Z"/><path class="cls-2" d="M478.07,313.76c.37-1.12,1.27-1.17,2.23-1.12A2,2,0,0,1,478.07,313.76Z"/><path class="cls-2" d="M302.74,211.13a1.82,1.82,0,0,1-1.12-2.22A1.61,1.61,0,0,1,302.74,211.13Z"/><path class="cls-2" d="M370,208.93a2.06,2.06,0,0,1-1.08,2.23h0A2.07,2.07,0,0,1,370,209Z"/><path class="cls-2" d="M493.54,373.25a2,2,0,0,1-2.24-1.13C492.3,372,493.15,372.17,493.54,373.25Z"/><path class="cls-2" d="M361.14,220.08l-.67,1.32-.12-1.53A5.41,5.41,0,0,1,361.14,220.08Z"/><path class="cls-2" d="M472.7,220.12c-.67.47-1.34.94-2,1.42-.13-.18-.27-.35-.41-.52a2.19,2.19,0,0,1,2.22-1.08Z"/><path class="cls-2" d="M424,490.2a2,2,0,0,1,2.24,1.13A1.82,1.82,0,0,1,424,490.2Z"/><path class="cls-2" d="M437.24,224.38a1.89,1.89,0,0,1,2.16-1.15l.05.05a2.23,2.23,0,0,1-2.2,1.11Z"/><path class="cls-2" d="M496.85,375.46a2,2,0,0,1-2.24-1.13A2,2,0,0,1,496.85,375.46Z"/><path class="cls-2" d="M420.67,488a1.92,1.92,0,0,1,2.23,1.13C421.91,489.24,421.06,489.09,420.67,488Z"/><path class="cls-2" d="M252.11,226.72c-.06-.78-.11-1.57-.17-2.35C253,225.08,253.05,225.87,252.11,226.72Z"/><path class="cls-2" d="M500.4,377.68c-1,0-2,0-2.5-1.14Z"/><path class="cls-2" d="M276.24,488a2,2,0,0,1,2.23-1.12A1.79,1.79,0,0,1,276.24,488Z"/><path class="cls-2" d="M232,225.69a8,8,0,0,0,.15,1c0,.34,0,.68,0,1l0,0C230.77,227.09,230.82,226.42,232,225.69Z"/><path class="cls-2" d="M493.51,303.84a1.93,1.93,0,0,1,2.23-1.12A1.79,1.79,0,0,1,493.51,303.84Z"/><path class="cls-2" d="M279.55,485.82a1.92,1.92,0,0,1,2.23-1.12C281.4,485.8,280.54,486,279.55,485.82Z"/><path class="cls-2" d="M412.94,483.59c1,0,1.84.05,2.24,1.12A2.11,2.11,0,0,1,412.94,483.59Z"/><path class="cls-2" d="M281.75,484.71c.41-1,1.29-1.15,2.24-1.13A2,2,0,0,1,281.75,484.71Z"/><path class="cls-2" d="M284,483.62c.41-1.05,1.28-1.17,2.24-1.14A2.15,2.15,0,0,1,284,483.62Z"/><path class="cls-2" d="M409.64,481.39c1-.1,1.85,0,2.22,1.11A1.69,1.69,0,0,1,409.64,481.39Z"/><path class="cls-2" d="M286.16,482.51c.36-1.15,1.28-1.19,2.24-1.13A2,2,0,0,1,286.16,482.51Z"/><path class="cls-2" d="M406.33,479.18c1-.08,1.82.08,2.23,1.12A1.78,1.78,0,0,1,406.33,479.18Z"/><path class="cls-2" d="M449.84,245.72l-1.44,1.93-.17-.15a2.21,2.21,0,0,1,1.07-2.22Z"/><path class="cls-2" d="M213.37,393.08c-.46.95-1.34,1.08-2.26,1.13C211.5,393.11,212.45,393.12,213.37,393.08Z"/><path class="cls-2" d="M411.79,190.11a2.2,2.2,0,0,1,2.09-1.25l.21.24a2.09,2.09,0,0,1-2.19,1.12Z"/><path class="cls-2" d="M280.67,190.17a1.82,1.82,0,0,1-2.22-1.12A1.59,1.59,0,0,1,280.67,190.17Z"/><path class="cls-2" d="M461.56,408.55a1.89,1.89,0,0,1-1.12-2.22A1.58,1.58,0,0,1,461.56,408.55Z"/><path class="cls-2" d="M396.45,180.22,395,181.38Z"/><path class="cls-2" d="M409.38,192.11l1.18-1,.24.25-1.1,1.11Z"/><path class="cls-2" d="M210,279.62l-1.09-1.11.25-.23,1.15,1Z"/><path class="cls-2" d="M319.28,178.05l-1.13-1.13C318.82,177,319.25,177.32,319.28,178.05Z"/><path class="cls-2" d="M413.88,188.86c.5-.77,1-.75,1.52,0l-.23.25h-1.08Z"/><path class="cls-2" d="M241,264.06,239.85,263C240.51,263,241,263.29,241,264.06Z"/><path class="cls-2" d="M320.39,179.15,319.26,178A1.05,1.05,0,0,1,320.39,179.15Z"/><path class="cls-2" d="M233.22,228.79l-1.12-1.08,0,0c.36.37.73.74,1.09,1.12Z"/><path class="cls-2" d="M260.79,481.61l1.15-1.35Z"/><path class="cls-2" d="M288.36,481.41l1.15-1.14Z"/><path class="cls-2" d="M408.54,480.28l1.12,1.11C409,481.3,408.56,481,408.54,480.28Z"/><path class="cls-2" d="M433.89,227.64l1.05-1.16.11.12-1.1,1.1Z"/><path class="cls-2" d="M434.94,226.48l1.15-1,.06.06-1.1,1.11Z"/><path class="cls-2" d="M411.85,482.48l1.13,1.13Z"/><path class="cls-2" d="M278.44,486.92l1.14-1.13Z"/><path class="cls-2" d="M419.56,486.89l1.13,1.12Z"/><path class="cls-2" d="M436.09,225.43l1.15-1.05h0l-1.1,1.1Z"/><path class="cls-2" d="M275.14,489.12l1.13-1.13C276.26,488.74,275.83,489.06,275.14,489.12Z"/><path class="cls-2" d="M498,376.58l-1.15-1.15Z"/><path class="cls-2" d="M485.79,309.35l1.12-1.12C486.92,309,486.44,309.26,485.79,309.35Z"/><path class="cls-2" d="M274,490.51l1.14-1.42Z"/><path class="cls-2" d="M422.87,489.09l1.14,1.14Z"/><path class="cls-2" d="M494.64,374.36l-1.14-1.13Z"/><path class="cls-2" d="M426.18,491.3l1.13,1.13C426.61,492.37,426.17,492.06,426.18,491.3Z"/><path class="cls-2" d="M439.4,223.23l1.14-1.06h0l-1.11,1.1Z"/><path class="cls-2" d="M473.94,219.18l-1.25.94-.18-.18,1.1-1.1Z"/><path class="cls-2" d="M303.83,212.23l-1.1-1.11C303.55,211,303.86,211.47,303.83,212.23Z"/><path class="cls-2" d="M491.33,372.16,490.18,371Z"/><path class="cls-2" d="M480.27,312.66l1.13-1.12C481.4,312.29,480.91,312.55,480.27,312.66Z"/><path class="cls-2" d="M299.42,206.72l-1.11-1.11Z"/><path class="cls-2" d="M298.31,205.62l-1.1-1.11Z"/><path class="cls-2" d="M297.21,204.51l-1.11-1.11Z"/><path class="cls-2" d="M296.11,203.41,295,202.3Z"/><path class="cls-2" d="M410.56,191.07l1.23-1,.11.11c-.37.37-.73.74-1.1,1.1Z"/><path class="cls-2" d="M402,179.21l1.13-1.14C403,178.72,402.73,179.2,402,179.21Z"/><path class="cls-2" d="M290.6,199l-1.11-1.11C290.24,197.86,290.67,198.17,290.6,199Z"/><path class="cls-2" d="M382.1,195.66c-.34.38-.69.75-1,1.12C381.41,196.41,381.76,196,382.1,195.66Z"/><path class="cls-2" d="M406,195.34l1.14-1.07.38.37c-.34.39-.69.77-1,1.15Z"/><path class="cls-2" d="M383.21,194.56l-1.15,1.15Z"/><path class="cls-2" d="M407.12,194.27l1.08-1.15.42.44-1.12,1.08Z"/><path class="cls-2" d="M408.2,193.12l1.18-1,.32.32-1.08,1.13Z"/><path class="cls-2" d="M397.55,178.83l-1.16,1.45Z"/><path class="cls-2" d="M408.62,193.56l1.08-1.13,1.1-1.11c.37-.36.73-.73,1.1-1.1a2.09,2.09,0,0,0,2.19-1.12h1.08c-.53,3.16,1.43,2.62,3.29,2.23a65.65,65.65,0,0,0,6.64,18.72c.37,6,.9,12,1.06,18,.17,6.67.66,13.41-1.61,20,3.43-4.91,4.28-10.65,6.07-16,2.67-.29,3.32-2.1,3.33-4.4l1.1-1.1,1.1-1.11,1.1-1.1a2.23,2.23,0,0,0,2.2-1.11l1.11-1.1c1.85,0,3.5-.34,4.4-2.21,4.18-.13,7.83-3.37,12.38-2-.67,1.79-2.53,2.39-3.61,3.95,8.75-2.37,16.51-7.94,26.66-8-2.14,2.52-5.66,2.17-6.78,4.9l-1.1,1.1a2.19,2.19,0,0,0-2.22,1.08,24.55,24.55,0,0,0-11.07,11c-1.66,1.05-3.07,2.29-3.33,4.4-1.63,1.08-3.07,2.3-3.28,4.43-1.7,1-3.07,2.3-3.31,4.41a2.21,2.21,0,0,0-1.07,2.22c-6.09,2.45-8.13,8.18-10.87,13.35l-.08,0c-1.55.66-3.37,1.06-3.31,3.32l0,0c-1.58-.09-2.35.62-2.23,2.22h0c-1-.13-1.85,0-2.22,1.11h0l-1.1,1.09.05.08c-3.8.86-5.37,5.18-9.45,6.21-.36-2.51,1.71-3.24,2.66-4.6s2-3.19,0-3.56c-4.89-.91-1.88-2.88-1-4.71,1.72-3.69,4.43-7,3.93-11.65-6.4,11.85-14.79,21.74-26.65,28.77,4.64-10.41,10.27-20.38,11.33-32.46-3.56,1.68-3.47,5.17-3.66,7.1-.71,7.18-5.1,12.39-8.27,18.25-.56,1-1.13,2.37-2.91,1.24s-1.87-1-2.47,1.91l0,0c-1.78.13-1.68,2.89-4,2.7-.43-4.9,3.93-9,2.51-14.66-4.07,4.35-4.4,10.09-8,14.54-1.24-4.93.69-8.75,2.52-12.62,2.81-5.94,6.14-11.71,5.93-18.61,3-4.64,3.27-10,3.67-15.19.67-8.78,3.32-17.1,5.17-25.61,1.89-.87,2.27-2.51,2.25-4.36,2.08-.25,2.15-1.78,2.15-3.36a2.16,2.16,0,0,0,2.25-2.17c.35-.38.7-.76,1-1.15Zm-12.14,71.67c.27-.4.55-.8.8-1.22,0,0-.26-.19-.4-.3-.15.49-.31,1-.46,1.47l-.84,1.09.58.35C396.26,266.16,396.37,265.69,396.48,265.23Zm5.8-36.55q-2.29,9.51-4.61,19l1.4.32A46.66,46.66,0,0,0,402.28,228.68Z"/><path class="cls-2" d="M530.16,343.39c4.29,2.91,6.2,7.6,8.77,11.79.56.91,1.25,2.05.31,3s-2-.09-3-.48c-3-1.26-6.07-2.6-10.28-1.79,4.91,2,9.6,3.11,14.2,7.59-13.42-1.61-24.36,4.44-36.33,4.4-9.28,0-18.24-.9-27-4a22.52,22.52,0,0,0-4.3-.63c-2.17-2.28-5.16-2.81-8-3.25-9.76-1.53-18.64-5.94-28.15-8.28-1.6-.39-4.65-.82-4-3.44.47-2.07,3-1.32,4.82-1.55,8.8-1.14,17.59-2.1,26.62-.51.1-1.8-.8-2.39-2.43-2.79-8.55-2.08-17.29-2.53-26-3.32-1.48-.14-3.85,1-4.19-1.22-.28-1.83,2.11-2.25,3.52-3,4.07-2.13,9.39-.82,13.08-4.8-2.63-2-5.92-.23-9.24-1.47,5.22-4.18,10.22-7.17,16.62-6.93,1.9,1.7,4.21.86,6.31.86a136.14,136.14,0,0,1,26,3.05c14.33,2.83,27.41,8.85,40.18,15.68h0C528.24,343.42,529.17,343.48,530.16,343.39Z"/><path class="cls-2" d="M307.23,518.7l-1.11-1.07L305,516.55a2.37,2.37,0,0,0-2.19-1.14l-1.11-1c-.07-.72.09-1.59-.25-2.14-6.89-10.9-8.8-22.71-6.46-35.29l0,0c1,.05,1.82-.06,2.22-1.11h0a2,2,0,0,0,2.22-1.1h0l1.11-1.11h0l1.1-1.1h0l1.09-1.09h0l1.11-1.11,0,0a2,2,0,0,0,2.22-1.12h0l3.32-2.19,0,0c-.22,8.72-2.06,17.39-.37,26.23-.37-9.44,1.34-18.52,4.07-28.88,1.43,8.11,2.7,14.75,5.95,20.69,2.19,4,2.78,7.52.55,11.81-1.35,2.61-3.27,5.43-2.43,8.8v0c-1.53.72-1.15,2.09-1.12,3.34l.06,0c-2.47,3.29-3.52,6.59-.11,9.93-.7,3.55-3.58,1.58-5.45,2.15A3.41,3.41,0,0,0,307.23,518.7Z"/><path class="cls-2" d="M328.11,198a121.61,121.61,0,0,0,5.47-25.37c2.3,6.38,1.65,13,.58,19.33-2.58,15.26-5.59,30.43-5,46,.17,4.37,1.9,8.6,1,13-2.89-5.1-2.69-10.87-3.11-16.39C326.14,222.37,327.43,210.16,328.11,198Z"/><path class="cls-2" d="M437.36,260.85c3.17.48,4.72-2.34,7.09-3.49,5.89-2.86,11.72-5.84,17.58-8.76,1.56-.78,3.68-.89,3.88-3.28,7.06.21,13-4,19.73-5.12,4.45-.76,8.8-2,13.37-1.49-1.11,2.68-3.82,2.85-6,3.18-20,3.1-37.46,12.31-54.39,22.73-3.48,2.15-5.95,5.79-10.07,7.06,0-1-.05-2.05-.08-3.07l0-.08c.77,0,1.16-.3,1.1-1.09h0a1.74,1.74,0,0,0,2.22-1.11h0a3.79,3.79,0,0,0,2.23-2.22l0,0c2.09-.12,3.26-1.16,3.31-3.32Z"/><path class="cls-2" d="M527.72,342.35c-12.77-6.83-25.85-12.85-40.18-15.68a136.14,136.14,0,0,0-26-3.05c-2.1,0-4.41.84-6.31-.86,22.84-1,45,1.6,65.78,12a5,5,0,0,0,4.15,2.46C525.32,339.28,528.17,340,527.72,342.35Z"/><path class="cls-2" d="M392,275.11c.95.23,2.3.16,1.65,1.78-.14.33-.77.48-1.17.71l-.5-2.47Z"/><path class="cls-2" d="M436.82,324.11a4.26,4.26,0,0,1-1.45.42c-.68-.07-.79-.67-.31-1.07a2.92,2.92,0,0,1,1.44-.4A7.06,7.06,0,0,1,436.82,324.11Z"/><path class="cls-2" d="M318.12,437.23l.45-1.46.39.28c-.25.41-.53.81-.81,1.2Z"/><path class="cls-2" d="M295,275.11l.47.47c-.1,0-.24,0-.3-.08a1.59,1.59,0,0,1-.18-.37Z"/><path class="cls-2" d="M309.32,467l.26-.48c-.1.15-.19.3-.28.45Z"/><path class="cls-2" d="M425.1,384.32l-.46-.48.49.45Z"/><path class="cls-2" d="M418.45,481.42c-9.13-4.12-16.14-10.35-19.84-19.89l.1-.09c4,.64,5,4.55,7.37,6.94,4.22,4.24,8.35,8.58,12.51,12.87Z"/><path class="cls-2" d="M441,437c5.42,5.34,7.33,12.29,9,19.33C444.74,450.89,443.68,443.54,441,437Z"/><path class="cls-2" d="M478,388.51H460.59C467.08,385.18,472.55,386.79,478,388.51Z"/><path class="cls-2" d="M438.41,417.32c2.55,3.67,4.71,7.51,5,12.14-2.22-3.78-5.23-7.19-5.2-12Z"/><path class="cls-2" d="M432.61,448.52c-1.91-.67-3.52-1.62-3.86-4.4,2.71.24,3.64,1.93,4.28,4A5.66,5.66,0,0,0,432.61,448.52Z"/><path class="cls-2" d="M420.81,436c1.29.23,2.5.61,2.85,2.08a.73.73,0,0,1-.92.94c-1.47-.28-1.95-1.44-2.21-2.73Z"/><path class="cls-2" d="M422.86,483.63c-1.86.05-3.53-.29-4.41-2.21l.14-.17c1.87,0,3.5.4,4.37,2.28Z"/><path class="cls-2" d="M416.1,433c-1.42-.13-3,0-3.61-1.87,2-1.16,2.94.28,3.92,1.57Z"/><path class="cls-2" d="M435.12,411.79c1,.65,2.17,1.21,1.6,2.74a1,1,0,0,1-.87.18c-1.06-.64-.79-1.77-.9-2.75Z"/><path class="cls-2" d="M429.82,433.11c.13-.77.48-1.24,1.07-.9a1.85,1.85,0,0,1,.69,1.27c0,.48-.19,1.18-.93.72A3.67,3.67,0,0,1,429.82,433.11Z"/><path class="cls-2" d="M416.41,432.71c.82.23,1.74.35,1.66,1.52a.53.53,0,0,1-.36.35c-1.15.12-1.36-.75-1.61-1.57Z"/><path class="cls-2" d="M420.82,403a2,2,0,0,1,.8,2.26c0,.13-.26.21-.39.32-.23-.78-.47-1.55-.7-2.33Z"/><path class="cls-2" d="M424.05,484.62l1.45.48c-.1.14-.28.41-.29.4-.42-.25-.83-.53-1.24-.8Z"/><path class="cls-2" d="M398.61,461.53c-.27-.39-.53-.79-.77-1.2,0,0,.25-.18.38-.28.17.46.33.93.49,1.39Z"/><path class="cls-2" d="M446,394.33l-1.45-.58c.12-.13.3-.41.33-.39.45.23.88.5,1.31.75Z"/><path class="cls-2" d="M439.47,451.6c.13-.53-.26-1.38.71-1.37.14,0,.29.84.43,1.3l-.1.09-1.08-.06Z"/><path class="cls-2" d="M437.74,445.41l-.25-.39.56-.31c0,.16.1.34.05.47S437.86,445.33,437.74,445.41Z"/><path class="cls-2" d="M419.64,420.65l.86,1.06-.57.38-.39-1.34Z"/><path class="cls-2" d="M438.26,417.47l-.44-.63.59.48Z"/><path class="cls-2" d="M418.42,419.69l-1.14-1.07.27-.26c.35.38.69.77,1,1.16Z"/><path class="cls-2" d="M419.54,420.75l-1.12-1.06.17-.17,1.05,1.13Z"/><path class="cls-2" d="M427.2,428.56l-.44-.65.66.42Z"/><path class="cls-2" d="M435,412l-1.07-1.12.14-.13,1.1,1.08Z"/><path class="cls-2" d="M420.53,436.3l-.42-.69.7.4Z"/><path class="cls-2" d="M423,483.53l1.09,1.09-.08.08-1.11-1.07Z"/><path class="cls-2" d="M427.42,428.33l.41.65-.63-.42Z"/><path class="cls-2" d="M220.24,433c2.37-3.21,5.25-6.1,6.46-10.06l-.08,0a1,1,0,0,0,1.12-1.11h0a1.06,1.06,0,0,0,1.11-1.11h0l1.12-1.12,0,0,1.12-1.12h0l1.12-1.11h0l1.12-1.12,0,0,1.13-1.13,0,0,.53,0,.53-.06c1.24.89.87,1.82,0,2.69a76.61,76.61,0,0,0-16,22.43c-.26.56-1.11.86-1.68,1.28C217.27,438.37,220.18,436.11,220.24,433Z"/><path class="cls-2" d="M255.91,403c-3.41,1.58-5.75,2.69-8.11,3.75-.8.36-1.78.8-2.22-.4a1.93,1.93,0,0,1,.86-2.36C249,402.65,251.51,401.22,255.91,403Z"/><path class="cls-2" d="M237.45,414l-1.94.2-.18-.16c1.88-2.83,4.29-4.91,7.74-5.52l.14.13c-.07,2.32-2.94,2.39-3.48,4.33Z"/><path class="cls-2" d="M267.31,446a3.78,3.78,0,0,1,3.17-3.47l.52.53a3.77,3.77,0,0,1-3.52,3.11Z"/><path class="cls-2" d="M272.93,452.67c.19,1.95-.25,3.57-2.22,4.43C270.49,455.15,271,453.55,272.93,452.67Z"/><path class="cls-2" d="M216.52,445.11c-.87-1.6.19-2.53,1.2-3.47C217.79,443,217.94,444.31,216.52,445.11Z"/><path class="cls-2" d="M275.13,450.48a2,2,0,0,1-2.22,2.21C273,451.28,273.61,450.44,275.13,450.48Z"/><path class="cls-2" d="M269.61,458.19c.07,1.25.27,2.55-1.11,3.32C268.4,460.24,268.26,459,269.61,458.19Z"/><path class="cls-2" d="M268.51,461.5a2.08,2.08,0,0,1-1.11,2.22C267.35,462.77,267.45,461.9,268.51,461.5Z"/><path class="cls-2" d="M261.94,450.52c-.71.4-1.42.8-2.12,1.21l-.26-.3a2.29,2.29,0,0,1,2.28-1Z"/><path class="cls-2" d="M264,448.19a2.22,2.22,0,0,1,2.23-1.1l.14.13a2.23,2.23,0,0,1-2.18,1.16Z"/><path class="cls-2" d="M237.45,414l2.28-1A2.07,2.07,0,0,1,237.45,414Z"/><path class="cls-2" d="M234.36,415.21l-1.13,1.13Z"/><path class="cls-2" d="M233.26,416.31l-1.12,1.12Z"/><path class="cls-2" d="M232.15,417.42,231,418.53Z"/><path class="cls-2" d="M231.05,418.52l-1.12,1.12Z"/><path class="cls-2" d="M230,419.62l-1.12,1.12Z"/><path class="cls-2" d="M228.84,420.73a1.06,1.06,0,0,1-1.11,1.11Z"/><path class="cls-2" d="M227.74,421.83a1,1,0,0,1-1.12,1.11Z"/><path class="cls-2" d="M275.41,438.64c-.24.19-.61.58-.7.53-.68-.42-.14-.73.16-1.06Z"/><path class="cls-2" d="M243.07,408.49l.61-.45-.47.58Z"/><path class="cls-2" d="M271.57,441.43c.31-.35.63-.86,1.07-.19.05.09-.34.47-.53.71Z"/><path class="cls-2" d="M270.48,442.51l1.09-1.08.54.52L271,443Z"/><path class="cls-2" d="M267.48,446.15c-.37.36-.74.72-1.12,1.07l-.13-.13,1.08-1.1Z"/><path class="cls-2" d="M264.19,448.38l-1.12,1.08-.17-.17,1.1-1.1Z"/><path class="cls-2" d="M261.84,450.42c.35-.38.71-.75,1.06-1.12l.17.16-1.13,1.06Z"/><path class="cls-2" d="M270.72,457.09l-1.12,1.12Z"/><path class="cls-2" d="M235.4,415.21l-.53.06-.53,0,1-1.23.18.16C235.48,414.52,235.44,414.86,235.4,415.21Z"/><path class="cls-2" d="M469.05,294.81c2.91-5.46,8-8.93,12.18-13.18l.35.3c-2.12,6.2-7.06,9.8-12.21,13.2Z"/><path class="cls-2" d="M444.83,311.35a35.94,35.94,0,0,1,11-6.6l.32.37c-2.64,3.93-6.64,5.59-11,6.62Z"/><path class="cls-2" d="M462.76,300.64c-1.7,2.21-3.45,4.36-6.57,4.48l-.32-.37a10.71,10.71,0,0,1,6.56-4.44Z"/><path class="cls-2" d="M448.69,316.31c1.59-1.52,2.84-1.81,4.36-1C451.79,316.36,450.67,317.54,448.69,316.31Z"/><path class="cls-2" d="M446.09,319.22a12.37,12.37,0,0,1-2.48-.46,1.65,1.65,0,0,1,2.21-1.61c1.5.35.3,1.37.23,2.1Z"/><path class="cls-2" d="M462.43,300.31c.31-1.07.74-2,2.1-1.93.24,0,.68.43.65.58-.27,1.29-1.4,1.41-2.42,1.68Z"/><path class="cls-2" d="M435.79,287.41c-.27.19-.55.55-.8.53-.65,0-.86-.54-.53-1.06a1,1,0,0,1,.92-.34C435.58,286.6,435.65,287.09,435.79,287.41Z"/><path class="cls-2" d="M456,314l.43.19-.6.45c-.08-.13-.24-.3-.21-.37S455.83,314.05,456,314Z"/><path class="cls-2" d="M459.6,313.29l-.38.15-.11-.56a1.07,1.07,0,0,1,.41.08C459.59,313,459.58,313.18,459.6,313.29Z"/><path class="cls-2" d="M469.37,295.13l-.72.4.4-.72Z"/><path class="cls-2" d="M384.32,202.34c.28-1.33-.48-3,1.43-4.11.79,2-.43,3-1.45,4.09Z"/><path class="cls-2" d="M384.3,202.32l-.37,1.45c-1-.79,0-1,.39-1.43Z"/><path class="cls-2" d="M316.07,227.46a12.61,12.61,0,0,1-2.36-8.22c.08-11.85.05-23.7.07-35.55,2.33,4.69,2.06,9.75,2.22,14.79.29,8.68-1,17.43,1,26.06A2.46,2.46,0,0,1,316.07,227.46Z"/><path class="cls-2" d="M297.21,249.73c3.07,1.89,4.78,4.58,5,9.13-2.81-3.06-4.8-5.57-5.09-9.09Z"/><path class="cls-2" d="M285.05,252c-1.44-.74-1.19-2-1.11-3.31C285.16,249.47,285.07,250.72,285.05,252Z"/><path class="cls-2" d="M275.12,193.52l.79,1.14c-1.25.27-.48-.8-.77-1.16Z"/><path class="cls-2" d="M282.93,245.19l-.12-2C283.9,243.79,284.16,244.44,282.93,245.19Z"/><path class="cls-2" d="M296.07,247.56l-.82-1.19.42-.28.42,1.45Z"/><path class="cls-2" d="M284,248.66c-1.08-.39-1.14-1.28-1.11-2.22Z"/><path class="cls-2" d="M297.16,249.77a2.17,2.17,0,0,1-1.09-2.21l0,0c1,.42,1.11,1.27,1.12,2.19Z"/><path class="cls-2" d="M287.26,255.28c-1.06-.4-1.16-1.27-1.11-2.23A2.5,2.5,0,0,1,287.26,255.28Z"/><path class="cls-2" d="M288.36,257.47a1.9,1.9,0,0,1-1.11-2.21A2.13,2.13,0,0,1,288.36,257.47Z"/><path class="cls-2" d="M275.14,193.5,274,192.4h0l1.11,1.11Z"/><path class="cls-2" d="M289.47,258.58l-1.11-1.1Z"/><path class="cls-2" d="M286.16,253.07,285.05,252Z"/><path class="cls-2" d="M264.22,258.46a4.55,4.55,0,0,1,2.26,4.34l-.31.31a4.44,4.44,0,0,1-2.23-4.37Z"/><path class="cls-2" d="M263.94,258.74c-2-.33-2.24-1.74-2.14-3.38l.15-.15a3.92,3.92,0,0,1,2.27,3.25Z"/><path class="cls-2" d="M266.48,262.8a2.39,2.39,0,0,1,2.17,2.28l-.36.3a2.35,2.35,0,0,1-2.12-2.27Z"/><path class="cls-2" d="M261.8,255.36c-.73-.09-1.46-.22-1.55-1.11,0-.2.41-.63.6-.61.91.09.95.88,1.09,1.57Z"/><path class="cls-2" d="M271.53,269.94a2.69,2.69,0,0,1-2.09-2.4l.39-.34a2.72,2.72,0,0,1,2.24,2.17A7.27,7.27,0,0,0,271.53,269.94Z"/><path class="cls-2" d="M233.21,228.81c-.36-.38-.73-.75-1.09-1.12,0-.34,0-.68,0-1,1.5-.06,2.19.68,2.11,2.17C233.92,228.84,233.56,228.83,233.21,228.81Z"/><path class="cls-2" d="M257.48,248.65l1.46,1.39-.68.42-.79-1.8Z"/><path class="cls-2" d="M237.58,233.22c-1-.39-1.19-1.22-1.09-2.18A1.85,1.85,0,0,1,237.58,233.22Z"/><path class="cls-2" d="M269.44,267.54c-.38-.72-.76-1.44-1.15-2.16l.36-.3c.39.71.78,1.42,1.18,2.12Z"/><path class="cls-2" d="M263,285a1.76,1.76,0,0,1-1.08-2.17A1.76,1.76,0,0,1,263,285Z"/><path class="cls-2" d="M236.48,231l-1.08-1.08Z"/><path class="cls-2" d="M235.39,229.92l-1.1-1.08Z"/><path class="cls-2" d="M228.12,345.21l-.39.25-.31-.56c.16,0,.34-.1.47,0S228.05,345.08,228.12,345.21Z"/><path class="cls-2" d="M358.27,480.63c-1.15-6.51.78-11.28,1.69-16.17C362,469.54,360.81,474.35,358.27,480.63Z"/><path class="cls-2" d="M325.38,487.56a50.59,50.59,0,0,1-4.28-21.68L327,487.15Z"/><path class="cls-2" d="M277.17,457c-4.74,8.82-6.06,18.78-9.74,29C265.28,477.2,269.36,465.18,277.17,457Z"/><path class="cls-2" d="M297.18,475.85c-.4,1-1.27,1.16-2.22,1.11A2.16,2.16,0,0,1,297.18,475.85Z"/><path class="cls-2" d="M299.4,474.74a2,2,0,0,1-2.22,1.1A1.92,1.92,0,0,1,299.4,474.74Z"/><path class="cls-2" d="M306,469.22a2,2,0,0,1-2.22,1.12A1.94,1.94,0,0,1,306,469.22Z"/><path class="cls-2" d="M303.81,470.32l-1.11,1.11Z"/><path class="cls-2" d="M302.69,471.44l-1.09,1.09Z"/><path class="cls-2" d="M300.49,473.64l-1.11,1.11Z"/><path class="cls-2" d="M301.59,472.54l-1.1,1.1Z"/><path class="cls-2" d="M192.55,265.05l-1.1-1.08c0-.33-.11-.65-.16-1l0,0c5.6-.18,9.46,3.5,13.13,6.74,5.45,4.79,11.71,8.86,15.48,15.37l-3-.32c-.63-2.43-2.79-3.12-4.67-4.14l-2-1.35-1.15-1a8.44,8.44,0,0,0-5.62-5.45,2.09,2.09,0,0,0-2.24-1.05c-.23-2.1-1.66-2.33-3.36-2.15l-1.07-1.42-1-1-2.17-1.18Z"/><path class="cls-2" d="M237.58,289c2.36-.81,3.93,0,5.51,1.84C240.14,292.41,239.18,289.66,237.58,289Z"/><path class="cls-2" d="M253,302.67c-2.86.26-5.15-.6-6.55-3.26C249.27,299.3,251.63,300,253,302.67Z"/><path class="cls-2" d="M223.24,287.29a3.55,3.55,0,0,1-3.28-2.2C221.63,285,223.21,285,223.24,287.29Z"/><path class="cls-2" d="M246.31,292.92l-1.34-.45a4.32,4.32,0,0,1,.41-.54c.39.22.76.49,1.14.75Z"/><path class="cls-2" d="M225.41,288.75l-2.14-1.45C224.31,287.3,225.21,287.51,225.41,288.75Z"/><path class="cls-2" d="M212.28,309.85c-9.3.26-17.3-4-25.44-7.72C196,302.42,204.09,306.08,212.28,309.85Z"/><path class="cls-2" d="M439.43,451.56l1.08.06c-.19.47-.38.93-.56,1.39Z"/><path class="cls-2" d="M386.34,192.21l.77-.36c-.12.25-.24.51-.35.77A5.44,5.44,0,0,1,386.34,192.21Z"/><path class="cls-2" d="M271.62,187.06l-.36-.74.75.35A3.59,3.59,0,0,1,271.62,187.06Z"/><path class="cls-2" d="M402.28,228.68A46.66,46.66,0,0,1,399.07,248l-1.4-.32Q400,238.19,402.28,228.68Z"/><path class="cls-2" d="M437.28,260.82c0,2.16-1.22,3.2-3.31,3.32C433.91,261.88,435.73,261.48,437.28,260.82Z"/><path class="cls-2" d="M434,264.12a3.79,3.79,0,0,1-2.23,2.22C431.64,264.74,432.41,264,434,264.12Z"/><path class="cls-2" d="M396.42,265.18c.15-.49.31-1,.46-1.47.14.11.41.29.4.3-.25.42-.53.82-.8,1.22Z"/><path class="cls-2" d="M396.48,265.23l-.32,1.39-.58-.35.84-1.09Z"/><path class="cls-2" d="M431.78,266.33a1.74,1.74,0,0,1-2.22,1.11C429.93,266.33,430.79,266.2,431.78,266.33Z"/><path class="cls-2" d="M429.56,267.44c.06.79-.33,1.13-1.1,1.09Z"/><polygon class="cls-2" points="301.93 359.56 302.27 359.43 302.23 359.76 301.93 359.56"/><circle class="cls-4" cx="345.87" cy="348.55" r="81.45"/><path class="cls-5" d="M791.53,404.23q5.16,7.93,8.67,12.64a69.43,69.43,0,0,0,6.15,7.34,23,23,0,0,0,5.23,4,33.59,33.59,0,0,0,6.82,2.58v8.6H746.68V430.7q4.49-.66,6.08-2.19a5.32,5.32,0,0,0,1.59-4,15.17,15.17,0,0,0-.59-4.17,31.8,31.8,0,0,0-2.85-6q-2.25-4-9.13-14.56L721.53,368.5a90.19,90.19,0,0,0-6.41-8.86,18.49,18.49,0,0,0-5.43-4.57,16.69,16.69,0,0,0-7.47-1.39h-2.65v52.54c0,3.09.09,5.95.26,8.6a28.42,28.42,0,0,0,1.06,6.48,11.49,11.49,0,0,0,2.32,4.24,12.68,12.68,0,0,0,4.17,3,33.47,33.47,0,0,0,6.48,2.19v8.73H644.39V430.7a37.36,37.36,0,0,0,7.74-2.85,9.79,9.79,0,0,0,4.24-4.23,19.13,19.13,0,0,0,1.78-6.88q.4-4.17.4-10.52V292.15c0-4.14-.11-7.63-.33-10.45a17.94,17.94,0,0,0-1.72-6.88,10.74,10.74,0,0,0-4.24-4.3,32.37,32.37,0,0,0-7.87-3v-8.73h69.47v8.73a28.17,28.17,0,0,0-8.14,3.18,11.24,11.24,0,0,0-3.84,4.1,18.72,18.72,0,0,0-1.78,6.09,85.47,85.47,0,0,0-.53,11.24v47.11h2.78a28.67,28.67,0,0,0,9.66-1.32,22.89,22.89,0,0,0,7.34-4.77q3.78-3.44,14.56-16.07t15.61-19.46a59.23,59.23,0,0,0,6.62-11.24,23.44,23.44,0,0,0,1.78-8.8,9,9,0,0,0-3.11-7.28q-3.1-2.64-8.8-2.78v-8.73h67.62v9a30.71,30.71,0,0,0-8.6,2.77,41.78,41.78,0,0,0-8.2,6,158.12,158.12,0,0,0-11.78,12.25l-39.7,44.46Z"/><path class="cls-5" d="M941.72,292c0-6.62-.29-11.22-.86-13.83a12,12,0,0,0-3.37-6.28q-2.52-2.39-9.79-4.37v-8.73h58.22v8.73a35.69,35.69,0,0,0-7.54,2.85,10.23,10.23,0,0,0-4.24,4.23,18.11,18.11,0,0,0-1.85,6.88q-.4,4.17-.4,10.52v82.7q0,16.41-2.64,27.46A51,51,0,0,1,961,420.77,43.08,43.08,0,0,1,947.21,433a61.37,61.37,0,0,1-18.59,6.61,122.58,122.58,0,0,1-23.16,2q-18.78,0-31.75-3.91T852.6,425.87a48.13,48.13,0,0,1-12-19.12q-3.9-11.25-3.9-29V292.15c0-4.14-.12-7.63-.33-10.45a18.12,18.12,0,0,0-1.72-6.88,10.74,10.74,0,0,0-4.24-4.3,32.53,32.53,0,0,0-7.87-3v-8.73H892v8.73a29.9,29.9,0,0,0-8,3.11,11.29,11.29,0,0,0-3.9,4,17.83,17.83,0,0,0-1.85,6.22,87.35,87.35,0,0,0-.53,11.24v87.34A126.05,126.05,0,0,0,879,398.54a42.67,42.67,0,0,0,4.83,14.76,24,24,0,0,0,9.73,9.46q6.21,3.3,16,3.3,13.5,0,20.11-5.42T939,405.49q2.72-9.72,2.71-29.05Z"/><path class="cls-5" d="M1122.35,344.82q18.51,5.82,28.25,16.87a38.81,38.81,0,0,1,9.72,26.53q0,13.23-4.43,23a38.76,38.76,0,0,1-13.5,16.08,62.22,62.22,0,0,1-21.3,9.2q-12.24,2.91-31.16,2.91h-81.52V430.7a37.26,37.26,0,0,0,7.75-2.85,9.82,9.82,0,0,0,4.23-4.23,19.12,19.12,0,0,0,1.79-6.88q.39-4.17.39-10.52V292.15c0-4.14-.11-7.63-.33-10.45a17.76,17.76,0,0,0-1.72-6.88,10.72,10.72,0,0,0-4.23-4.3,32.47,32.47,0,0,0-7.88-3v-8.73h86.68a163.83,163.83,0,0,1,24.21,1.45,68.45,68.45,0,0,1,21.57,6.88,31.77,31.77,0,0,1,12.84,12.44q4.62,8.07,4.63,19.19,0,29.91-36,44.86Zm-41.16-6.88q13.23,0,20.78-3.84a26.33,26.33,0,0,0,11.44-10.92q3.9-7.06,3.91-19.51,0-11-4.24-17.4a23.29,23.29,0,0,0-12-9.2q-7.82-2.77-19.45-2.78-9.27,0-18,.66v63Zm-17.6,85.61q7.82.4,18,.4,12.57,0,20.71-3.11A24.36,24.36,0,0,0,1114.94,410q4.49-7.74,4.49-21.24a49.65,49.65,0,0,0-2.38-16.34,25.37,25.37,0,0,0-7.14-11,29.53,29.53,0,0,0-11.38-6.09,60.43,60.43,0,0,0-16.54-1.92h-18.4Z"/><path class="cls-5" d="M1316.2,258.81v42.08h-18.13q-4.36-12.57-7.41-17a24,24,0,0,0-7.28-7q-4.23-2.58-14.42-2.58h-28.85v63.52h17.47q5.82,0,9.13-1.66a13.12,13.12,0,0,0,5.49-5.49q2.19-3.84,4.17-11.91h15v53.72h-15a48.59,48.59,0,0,0-4.1-11.71,14.18,14.18,0,0,0-5.36-5.75q-3.12-1.72-9.33-1.72h-17.47V424h28.72a42.85,42.85,0,0,0,7.8-.6,17.58,17.58,0,0,0,5.69-2.05,20.53,20.53,0,0,0,4.83-4,34.36,34.36,0,0,0,4.11-5.42,57.45,57.45,0,0,0,3.77-7.68,123.13,123.13,0,0,0,4.36-13.1h18.13l-2.51,48.3H1184.93V430.7a36.92,36.92,0,0,0,7.74-2.85,9.79,9.79,0,0,0,4.24-4.23,19.33,19.33,0,0,0,1.79-6.88q.39-4.17.39-10.52V292.15c0-4.14-.11-7.63-.33-10.45a17.76,17.76,0,0,0-1.72-6.88,10.72,10.72,0,0,0-4.23-4.3,32.63,32.63,0,0,0-7.88-3v-8.73Z"/><path class="cls-5" d="M1410.94,439.43h-69.47V430.7a36.92,36.92,0,0,0,7.74-2.85,9.79,9.79,0,0,0,4.24-4.23,19.33,19.33,0,0,0,1.79-6.88q.39-4.17.39-10.52V292.15c0-4.14-.11-7.63-.33-10.45a17.76,17.76,0,0,0-1.72-6.88,10.72,10.72,0,0,0-4.23-4.3,32.47,32.47,0,0,0-7.88-3v-8.73h77.15a138.15,138.15,0,0,1,26.53,2.18,67.23,67.23,0,0,1,19.12,6.68,39.66,39.66,0,0,1,11.64,9.33,40.45,40.45,0,0,1,7.35,13.1,53.38,53.38,0,0,1,2.58,17.4q0,13-4.57,22.23a44.45,44.45,0,0,1-12.3,15.42q-7.74,6.15-20.71,11.58v1.32a46.52,46.52,0,0,1,16.21,11.31,73.6,73.6,0,0,1,11.58,17.93l8.33,18q5.56,12,11,18.06a22.55,22.55,0,0,0,13,7.35v8.73h-51q-7.68-10.59-17.33-31.49l-10.32-22.63q-4.63-10.05-7.94-14.29a18.86,18.86,0,0,0-6.82-5.82q-3.51-1.59-10.78-1.59h-7.68v42.61q0,9.91.93,13.89a12,12,0,0,0,3.57,6.35q2.64,2.39,9.79,4.24Zm-14.29-164.88v73.58h13.1q10.59,0,17.47-2.85a26.45,26.45,0,0,0,10.92-7.94,29,29,0,0,0,5.55-12,69.59,69.59,0,0,0,1.53-15.09q0-18-8.47-27t-25.14-9Q1400.23,274.29,1396.65,274.55Z"/><path class="cls-5" d="M1694.38,344.82q18.52,5.82,28.25,16.87a38.77,38.77,0,0,1,9.73,26.53q0,13.23-4.43,23a38.76,38.76,0,0,1-13.5,16.08,62.27,62.27,0,0,1-21.31,9.2q-12.24,2.91-31.16,2.91h-81.51V430.7a37.36,37.36,0,0,0,7.74-2.85,9.79,9.79,0,0,0,4.24-4.23,19.13,19.13,0,0,0,1.78-6.88q.4-4.17.4-10.52V292.15c0-4.14-.11-7.63-.33-10.45a17.76,17.76,0,0,0-1.72-6.88,10.74,10.74,0,0,0-4.24-4.3,32.37,32.37,0,0,0-7.87-3v-8.73h86.67a164,164,0,0,1,24.22,1.45,68.45,68.45,0,0,1,21.57,6.88,31.74,31.74,0,0,1,12.83,12.44q4.63,8.07,4.63,19.19,0,29.91-36,44.86Zm-41.15-6.88q13.23,0,20.77-3.84a26.36,26.36,0,0,0,11.45-10.92q3.9-7.06,3.9-19.51,0-11-4.23-17.4a23.33,23.33,0,0,0-12-9.2q-7.82-2.77-19.45-2.78-9.27,0-18,.66v63Zm-17.6,85.61q7.8.4,18,.4,12.57,0,20.7-3.11A24.29,24.29,0,0,0,1687,410q4.5-7.74,4.5-21.24a49.65,49.65,0,0,0-2.38-16.34,25.3,25.3,0,0,0-7.15-11,29.45,29.45,0,0,0-11.38-6.09,60.33,60.33,0,0,0-16.54-1.92h-18.39Z"/><path class="cls-5" d="M1913,406.22q0,10.18.86,14a12.11,12.11,0,0,0,3.51,6.28Q1920,429,1927,430.7v8.73h-69.08V430.7q7.68-2,9.93-4a10.79,10.79,0,0,0,3.17-5.63q.93-3.63.93-14.88V353.15h-59.81v53.07c0,3.09.09,5.95.26,8.6a28.42,28.42,0,0,0,1.06,6.48,11.49,11.49,0,0,0,2.32,4.24,12.68,12.68,0,0,0,4.17,3,33.47,33.47,0,0,0,6.48,2.19v8.73H1757V430.7a37.36,37.36,0,0,0,7.74-2.85,9.79,9.79,0,0,0,4.24-4.23,19.13,19.13,0,0,0,1.78-6.88q.4-4.17.4-10.52V292.15c0-4.14-.11-7.63-.33-10.45a17.76,17.76,0,0,0-1.72-6.88,10.74,10.74,0,0,0-4.24-4.3,32.37,32.37,0,0,0-7.87-3v-8.73h69.47v8.73q-7,2-9.59,4.37a12.89,12.89,0,0,0-3.64,6.28c-.71,2.61-1.06,7.3-1.06,14.1v44.19H1872V292.29q0-10.07-.86-14a12.1,12.1,0,0,0-3.44-6.36q-2.58-2.45-9.73-4.43v-8.73H1927v8.73a29.57,29.57,0,0,0-8.47,3.38,9.89,9.89,0,0,0-3.77,4.56,22.16,22.16,0,0,0-1.46,6.22q-.33,3.44-.33,10.59Z"/><path class="cls-5" d="M2046.63,383.46h-56.5L1985.76,396a104.1,104.1,0,0,0-3,10.25,44.68,44.68,0,0,0-1.19,10.52q0,13,13.76,13.9v8.73h-56.51V430.7a16.52,16.52,0,0,0,8.61-3.44,29.29,29.29,0,0,0,6.74-7.94,86.37,86.37,0,0,0,6.49-14.43l55.18-147h35.33l43.66,148.2a106.11,106.11,0,0,0,4.9,14.1,19,19,0,0,0,5.16,6.75,20.7,20.7,0,0,0,8.87,3.77v8.73h-73V430.7q6.88-.79,10.19-3.84t3.31-8.6a51.38,51.38,0,0,0-.92-9.13q-.93-5-3.05-12.71ZM1995.16,368h47.63l-21.17-74.5Z"/><path class="cls-5" d="M2223.28,302.21a92.6,92.6,0,0,0,3.11-10.45,46.07,46.07,0,0,0,1.13-10.33q0-6.48-3.38-9.92t-10.39-4v-8.73h57v8.73a20.22,20.22,0,0,0-8.54,3.24,23.63,23.63,0,0,0-6.35,7q-2.85,4.56-6.68,14.88l-55.45,147.68h-30.56l-43.67-148.21a104.92,104.92,0,0,0-4.9-14.09,19,19,0,0,0-5.16-6.75,20.53,20.53,0,0,0-8.86-3.77v-8.73h73.17v8.73q-6.89.79-10.19,3.84c-2.2,2-3.3,4.89-3.3,8.6a45.34,45.34,0,0,0,.79,8.53q.79,4.17,3.31,13.3l26.2,95Z"/><path class="cls-5" d="M2351.11,383.46h-56.5L2290.24,396a104.1,104.1,0,0,0-3,10.25,44.68,44.68,0,0,0-1.2,10.52q0,13,13.77,13.9v8.73h-56.51V430.7a16.52,16.52,0,0,0,8.61-3.44,29.29,29.29,0,0,0,6.74-7.94,86.37,86.37,0,0,0,6.49-14.43l55.18-147h35.33l43.66,148.2a106.11,106.11,0,0,0,4.9,14.1,19,19,0,0,0,5.16,6.75,20.7,20.7,0,0,0,8.87,3.77v8.73h-73V430.7q6.88-.79,10.19-3.84t3.31-8.6a50.54,50.54,0,0,0-.93-9.13q-.91-5-3-12.71ZM2299.63,368h47.64l-21.17-74.5Z"/><path class="cls-5" d="M2594.05,258.81v8.73a49.68,49.68,0,0,0-7.47,2.91,11.68,11.68,0,0,0-3.71,3.18,14.7,14.7,0,0,0-2.31,6,69.76,69.76,0,0,0-.8,12.37V439.43h-33.61l-59.54-102.95q-12-20.91-17.73-32.81h-1.19q1.32,28.44,1.32,60.07v42.61q0,9.93,1,13.89a12.12,12.12,0,0,0,3.57,6.29q2.58,2.31,9.73,4.17v8.73h-50V430.7a35.43,35.43,0,0,0,7.74-2.91,10.23,10.23,0,0,0,4.24-4.31,18.9,18.9,0,0,0,1.78-6.81q.4-4.1.4-10.32V291.89q0-9.93-.86-13.7a12.06,12.06,0,0,0-3.57-6.28q-2.72-2.52-9.73-4.37v-8.73h53.59l46.84,81.38q4.38,7.67,11.38,20.77t12.44,24.75h2.12q-1.46-31.63-1.45-69.08V292a81.92,81.92,0,0,0-.67-12.44,14.47,14.47,0,0,0-2.05-5.82,11.21,11.21,0,0,0-3.7-3.31,39.73,39.73,0,0,0-7.74-2.91v-8.73Z"/><ellipse class="cls-6" cx="349.24" cy="321.48" rx="21.55" ry="10.13"/><ellipse class="cls-6" cx="353.74" cy="350.14" rx="8.51" ry="8.66"/><ellipse class="cls-6" cx="400.33" cy="381.36" rx="3.62" ry="8.9"/><ellipse class="cls-6" cx="407.04" cy="318.02" rx="6.13" ry="6.24"/><ellipse class="cls-6" cx="405.46" cy="333.35" rx="4.55" ry="6.24"/><ellipse class="cls-6" cx="384.11" cy="330.25" rx="8.51" ry="19.89"/><ellipse class="cls-6" cx="371.36" cy="358.64" rx="8.51" ry="9.94"/><ellipse class="cls-6" cx="371.36" cy="382.26" rx="8.51" ry="9.94"/><ellipse class="cls-6" cx="407.04" cy="354.4" rx="14.84" ry="9.94"/><ellipse class="cls-6" cx="336.06" cy="376.5" rx="14.84" ry="6.41"/></svg>