<svg id="Layer_1" data-name="Layer 1" xmlns="http://www.w3.org/2000/svg" viewBox="0 0 1080 587.64"><path d="M340.87,392.4c-35.38-20.19-39.95-64.16-14.55-111.95-19.95-13.51-57.27-4.22-72.33,18.91-15.69,24.1-14.25,49.37-3.51,75.19,3.29,7.9,4.13,16.83,6.58,27.39-21.51-9.38-33.87-35.59-33.44-66.28.45-32.63,11.74-60.35,43.58-72.91,22.72-9,47-10,68.06,10.7,30.93-19.11,62.11-15.7,92.37,5.46l3.44-2.24c-4.66-14.52-7.86-29.73-14.23-43.47C382.7,159.57,307.67,117.36,227.88,126c-76,8.18-142.75,68-159.14,145-3.92,18.43-2.08,38.23-1.5,57.36.12,4.1,5.65,8.94,9.81,11.77,3.77,2.56,9.83,1.78,13.55,4.38,5.55,3.88,13.56,9.2,13.89,14.34.42,6.46-4.28,16.23-9.72,19.21-5.13,2.83-15.75,1-21-2.78-18.64-13.46-23.92-34.77-24.16-55.86C48.29,210.24,125.2,113.77,241.32,111.43,343,109.38,418,168,443,266.54c7.08,27.88,8.56,95.53,3,132.62L424.64,397c2.73-10.76,7.18-22.27,8.26-34.09a169.9,169.9,0,0,0-1.15-41.67c-3.29-20.87-20.29-35.76-41-38.74-20.24-2.91-42.35,8.15-51.71,26.33-9.8,19-9.83,38.37-2.26,58.36C339.46,374.35,339.36,382.56,340.87,392.4Z"/><path d="M731.43,406.27c-9.59-3-19.22-3.1-22.9-7.84-4-5.16-2.46-14.6-3.84-26.55-12.68,24.63-30,33.74-53.38,31.65-32.6-2.9-54.14-29.63-52.63-66.59,1-25.19,9.81-46.37,34.21-57.56s46-4.76,65.44,12c1.22,1.05,2.78,1.7,5.64,3.4V196.25c2.7-.26,6-.39,9.34-.93,12.68-2.07,14.86,3.82,14.73,15.54-.59,53.78-.26,107.57.12,161.36C728.22,382.13,730,392,731.43,406.27Zm-23.06-75.51-3.26-.86c.07-29.67-15.12-47.71-40.91-49.36-14.87-1-25.32,4.87-31.72,18.17-11.85,24.6-12.08,49.77-2.6,75,5.16,13.71,15.33,22.24,30.37,23.51,15.31,1.29,28.89-4.07,34.76-18.19C701.37,363.72,704.07,346.91,708.37,330.76Z"/><path d="M470.69,280.32h22c.29,4.46.83,9,.85,13.62.14,24.49-.11,49,.31,73.47.19,11,1,22.67,13.13,27.84s23,.76,32.85-7c12.41-9.74,19.1-21.44,18.14-38.28-1.31-23-.33-46.05-.33-69.85h22.14c.24,4.78.67,9,.62,13.24-.35,33.22-1.24,66.44-1,99.66.09,11.46-6.12,11.25-14.14,11.41-8.95.16-10-4.72-9.21-11.85.42-3.72.07-7.53.07-13.85-3.74,3.33-5.92,4.93-7.69,6.9C535.39,400.17,519,405.57,500,403c-13.42-1.82-22.64-9.65-25.71-22.86a138.21,138.21,0,0,1-3.43-28.53C470.37,328.14,470.69,304.67,470.69,280.32Z"/><path d="M1030.4,405.11c-5.45-1-14.9-.07-18.4-4.18-3.92-4.6-2.46-13.79-3.61-23.08-3.13,2.94-5,4.31-6.4,6.07-16.22,20.42-45.63,26.36-68.34,13.71-20.75-11.55-21.29-43.41.18-55.34,11.17-6.21,24.5-8.6,36.95-12.41,6.65-2,13.65-2.94,20.23-5.14,15.43-5.18,19.18-11.49,16.46-26.3-2.49-13.58-10.35-19.74-24.83-20.05-13.52-.3-22.93,6.7-31.44,16.17-4,4.46-8.46,9.88-13.71,11.41-3.93,1.15-9.48-3.22-14.3-5.14,2.2-3.18,3.69-7.6,6.72-9.35,19.92-11.46,40.73-19.76,64.59-17.55,23.3,2.16,35.71,14.71,35.86,38.18C1030.54,342.14,1030.4,372.17,1030.4,405.11Zm-22.15-80.63c-16.21,4.73-31,8.15-45.2,13.42-15.45,5.76-20.68,15.27-19.84,31.68.57,11.27,4.44,20.57,16.18,24.47,13.6,4.51,28.46,0,37.61-11.89C1010.21,364.91,1008.57,345,1008.25,324.48Z"/><path d="M804.85,278c32.83.46,35.09-20.55,35.16-44.16,0-14.7,11-7.41,19-8.18,1.37,19.59-3.21,36-19.78,51.73H889l0,4.88c-8.26,0-16.64-.85-24.71.38-3.63.56-9.41,5.23-9.47,8.12-.51,28.39-.06,56.8.23,85.2,0,2.59.09,5.68,1.44,7.65,3.22,4.71,6.77,11.8,11.05,12.48,4.47.7,11.91-3.77,14.56-8.11,4.66-7.63,6.87-16.81,9.68-25.47,1.45-4.48,2-9.25,3.17-15,7.51,17.68-8,51-24.59,55.38-19.24,5.11-35-4.12-36.66-24.3-2.12-26.07-1.74-52.36-2.06-78.56-.22-17.8.07-17.76-17.17-17.65a62.23,62.23,0,0,1-7.52-.84Z"/><path d="M780.61,403.14c-5.37.43-10,.75-14.68,1.19-8,.77-10.37-2.6-10.26-10.68.44-34.39.23-68.79.1-103.19,0-6.71-1.45-14,9-13.09,7.79.68,16.46-1.43,16.14,12.32C780,327.09,780.61,364.52,780.61,403.14Z"/><path d="M175,221.51c-1.82,6.92-3.3,16.13-6.74,24.55-2.86,7-8.44,7.78-14.56,2.17a33.92,33.92,0,0,1-8.63-36c5-13.42,16.9-22,30.89-22.22,12.75-.22,25.89,7.62,30.08,19.23,1,2.68-1.59,9.53-3.34,9.83C193.38,220.72,183.84,220.88,175,221.51Z"/><path d="M976.86,249.5c-14.37,0-28.75.38-43.09-.29-3.06-.15-5.94-4.08-8.9-6.27,2.85-1.83,5.67-5.24,8.53-5.27q42.45-.4,84.89.41c3.07.06,6.06,3.84,9.09,5.89-2.91,1.77-5.77,4.93-8.74,5.05-13.91.54-27.85.24-41.78.24Z"/><path d="M785.09,244.16l-18.28,13.48-15-13.67C766.45,224.88,768.6,224.8,785.09,244.16Z"/></svg>