<svg id="Layer_1" data-name="Layer 1" xmlns="http://www.w3.org/2000/svg" viewBox="0 0 1080 315.73"><defs><style>.cls-1{fill:#081528;}</style></defs><path class="cls-1" d="M949,224a5.52,5.52,0,0,0-1.37.4,19.25,19.25,0,0,1-11.6,3.32c-8.56,0-17.13-.12-25.69-.23a26.17,26.17,0,0,1-13.7-4.45,19.38,19.38,0,0,1-9.52-15.86c-.09-1.35-.07-2.72-.07-4.08q0-49.62.1-99.27c0-1.54.13-3.09.24-4.65a2,2,0,0,1,1.56-1.5c.58,0,1.15-.11,1.73-.11h22.19a4.63,4.63,0,0,1,1.73.21,2.43,2.43,0,0,1,1.19,1.09,4.25,4.25,0,0,1,.27,1.73c0,2,0,3.89,0,5.84V197c0,1.95,0,3.9.07,5.84a2.17,2.17,0,0,0,2.09,2.31c4.47,0,8.94-.06,13.41-.14a2.42,2.42,0,0,0,2-1.87,14.3,14.3,0,0,0,.19-1.73V105c0-1.94.11-3.88.22-5.82a1.87,1.87,0,0,1,1.57-1.47c.77-.06,1.55-.12,2.3-.12h21a27.5,27.5,0,0,1,2.88.25c.71.07,1,.67,1.12,1.2a10.46,10.46,0,0,1,.25,2.3c0,2.14,0,4.28,0,6.42v80.59c0,3.88-.09,7.78-.06,11.67a16.54,16.54,0,0,0,.52,3.43,2.11,2.11,0,0,0,1.63,1.5,2.91,2.91,0,0,0,.58.15h12.25a2.57,2.57,0,0,0,2.46-2.08,18,18,0,0,0,.29-2.31c0-1.73,0-3.5,0-5.26V105.58c0-2.14.12-4.28.21-6.41a1.76,1.76,0,0,1,1.52-1.48c.77-.07,1.55-.15,2.31-.15h21c.58,0,1.16,0,1.73.06,1.44.08,2.24.77,2.31,2.08.06,1.55.09,3.11.09,4.66v97.52a38.51,38.51,0,0,1-.82,9.27,19.25,19.25,0,0,1-8.9,12.4,27.78,27.78,0,0,1-11.54,3.77c-1.54.16-3.11.25-4.66.26q-11.38.09-22.77.12c-.78,0-1.56,0-2.33-.06a14.57,14.57,0,0,1-7.23-2C950.81,225,949.79,224.49,949,224Z"/><path class="cls-1" d="M38.5,161.29V104.06c0-1.73,0-3.5.07-5.26a2.09,2.09,0,0,1,2.31-2.07h14a4.54,4.54,0,0,1,3.56,1.73c1.16,1.34,2.2,2.73,3.26,4.13l45.39,60.15c1,1.39,2.2,2.7,3.32,4a.66.66,0,0,0,.92.11.57.57,0,0,0,.11-.11.75.75,0,0,0,.31-.43c.1-1.73.23-3.46.23-5.23V103.87c0-1.73.07-3.5.14-5.24a1.77,1.77,0,0,1,1.48-1.56,12.54,12.54,0,0,1,1.73-.19h22.2a7.58,7.58,0,0,1,2.26.41,1.6,1.6,0,0,1,.79.79,2.43,2.43,0,0,1,.27,1.12c.06,1.36.09,2.73.09,4.09q0,58.41,0,116.83c0,1.73-.17,3.46-.31,5.23a2.3,2.3,0,0,1-1.53,1.6,11.29,11.29,0,0,1-1.73.26c-4.09,0-8.18,0-12.27,0a5.37,5.37,0,0,1-4.54-2.18c-1-1.22-1.91-2.46-2.85-3.7L72.53,161.12Q70.94,159,69.26,157a1.2,1.2,0,0,0-1-.32,1.08,1.08,0,0,0-.71.74c-.11,1.94-.19,3.88-.19,5.82V220.5c0,7.19.57,6.74-6.5,6.75H43.34c-.78,0-1.55,0-2.3-.09A2.54,2.54,0,0,1,38.65,225c-.08-1-.11-1.94-.12-2.88V207.51Z"/><path class="cls-1" d="M750.76,161.73V219c0,1.73,0,3.5-.12,5.25a3,3,0,0,1-3,3c-4.47,0-8.95,0-13.43,0a4.17,4.17,0,0,1-3.11-1.38,51.62,51.62,0,0,1-3.35-4q-12.45-16.58-24.88-33.17-10.86-14.48-21.77-28.92a32.06,32.06,0,0,0-2.69-3,1.11,1.11,0,0,0-1,.29,4.28,4.28,0,0,0-.37,1.69c-.06,1.73,0,3.5,0,5.25v56.65c0,7.12.12,6.71-6.69,6.72H653.46c-1.16,0-2.31-.14-3.47-.25a2,2,0,0,1-1.51-1.57c-.12-1.73-.26-3.46-.26-5.24q0-18.39,0-36.78,0-39.13.07-78.26c0-9.56-1.16-8.38,8.32-8.47,2.73,0,5.45.07,8.18.09a4.34,4.34,0,0,1,3.51,1.76q1.47,1.82,2.88,3.68l45,59.69c1.16,1.56,2.39,3.08,3.59,4.62.45.58,1.26.76,1.5.39s.49-.62.5-.94c.08-1.73.1-3.5.1-5.25V104.09c0-1.73,0-3.5.1-5.25A2,2,0,0,1,723.9,97c.57,0,1.15-.11,1.73-.11h21a17.71,17.71,0,0,1,2.3.21,2.16,2.16,0,0,1,1.51,1.59,14.35,14.35,0,0,1,.22,1.73c0,1.73,0,3.5,0,5.25v56.07Z"/><path class="cls-1" d="M536.08,148.71c.33.51.71,1.2,1.16,1.81q8,10.38,16.07,20.77a5.2,5.2,0,0,0,1.24,1.19,1.15,1.15,0,0,0,1.05.07,14.56,14.56,0,0,0,2.06-2c4.41-5.44,8.79-10.91,13.19-16.35.86-1.06,1.78-2.07,2.7-3.07a1.78,1.78,0,0,1,2.51.09l.06.07a9.15,9.15,0,0,1,.8.85q4.5,5.76,9,11.53c.24.31.45.64.66,1,1.65,2.51,1.59,4.4-.28,7-.69.94-1.44,1.84-2.17,2.75q-5.69,7-11.35,14.09c-.85,1.06-1.63,2.17-2.35,3.13,0,1.73,1.12,2.64,2,3.69q8.91,11.17,17.88,22.34c1.21,1.52,2.35,3.1,3.46,4.71a6.63,6.63,0,0,1,1,4.47,2.59,2.59,0,0,1-1.38,1.73,9.31,9.31,0,0,1-1.73.28c-5.84,0-11.67-.13-17.51-.17a6.17,6.17,0,0,1-4.66-2.06c-1.06-1.15-2.05-2.34-3-3.55-2.81-3.46-5.58-7-8.41-10.47-.72-.89-1.56-1.68-2.48-2.65a13.39,13.39,0,0,0-1.78,1.67c-1.69,2.38-3.39,4.75-4.94,7.22C544.13,226,537.45,229.36,529,229c-8.76-.41-17.52-.15-26.27-.22-2.53,0-5.06-.13-7.58-.25a17.54,17.54,0,0,1-2.89-.34c-6.71-1.37-11.09-5.34-13-11.92a42.56,42.56,0,0,1-1.15-5.12,100.81,100.81,0,0,1-1-27.91c.16-1.55.41-3.09.53-4.61A19.94,19.94,0,0,1,482.57,167a66.11,66.11,0,0,1,5.29-5.43c3.85-3.57,7.8-7,11.7-10.56a21.07,21.07,0,0,0,2.09-2,1.93,1.93,0,0,0,.3-2.17c-.34-.7-.69-1.4-1-2.09a35.3,35.3,0,0,1-3.64-14.61,87.7,87.7,0,0,1,1.47-19.74c1.43-7.62,6.46-12.41,14.1-13.54a16.83,16.83,0,0,1,1.73-.15c9.34-.38,18.68-.52,28-.08,7,.32,12.15,3.7,15.43,9.88a42.86,42.86,0,0,1,4.13,11.5,10.23,10.23,0,0,1-2.43,9.23,41,41,0,0,1-4.29,3.93q-8.9,7.56-17.84,15.07A3.21,3.21,0,0,0,536.08,148.71Zm-16.82,16c-.9.69-1.69,1.23-2.41,1.86q-4.8,4.26-9.56,8.56c-2.6,2.34-5.17,4.72-7.75,7.08a5.78,5.78,0,0,0-2,4.65c.15,3.88.28,7.76.44,11.65,0,1.15.13,2.3.26,3.46a3.09,3.09,0,0,0,3.1,2.88c1.36.11,2.72.15,4.07.17q9.33.15,18.67.28c1.35,0,2.72,0,4.07.05a5.45,5.45,0,0,0,5.42-2.7c1.85-3,3.73-5.91,5.59-8.88a9.07,9.07,0,0,0,.71-1.59,3.4,3.4,0,0,0-.2-2.82,8.67,8.67,0,0,0-1-1.45Q529.92,177,521.1,166.11A11.13,11.13,0,0,0,519.26,164.67Zm.19-42.08h.14c0,1.35-.07,2.71,0,4a4.54,4.54,0,0,0,1.66,3,1.81,1.81,0,0,0,2.56.1l0,0q5.29-5.37,10.54-10.78c.13-.13.16-.35.27-.49.26-.34-.22-1.31-.68-1.36a71.11,71.11,0,0,0-12.72,0,2.1,2.1,0,0,0-1.55,1.52C519.61,119.88,519.53,121.24,519.45,122.59Z"/><path class="cls-1" d="M324,163.2q0-19.86,0-39.72a61.73,61.73,0,0,1,.52-8.15A18.55,18.55,0,0,1,334.4,101a29.94,29.94,0,0,1,9.32-3.28,54.37,54.37,0,0,1,9.86-1c17.88,0,35.83,0,53.75,0,4.08,0,8.17,0,12.26,0a15.47,15.47,0,0,1,2.88.3,2.08,2.08,0,0,1,1.59,1.56,9.48,9.48,0,0,1,.34,2.31c0,5.05,0,10.12,0,15.18a13.81,13.81,0,0,1-.32,2.31,2.18,2.18,0,0,1-1.58,1.53c-1.73.11-3.49.24-5.24.24q-25.69,0-51.41,0c-2.92,0-5.84,0-8.76.07-1.58,0-2.41.89-2.41,2.62v25.7a2.05,2.05,0,0,0,.24,1.11c.31.46.73,1.1,1.16,1.15a45.88,45.88,0,0,0,5.24.29h41.47c2.31,0,4.67,0,7,.05a3.73,3.73,0,0,1,1.68.35,2.66,2.66,0,0,1,1.16,1.21,4.22,4.22,0,0,1,.22,1.73v16.94a9,9,0,0,1-.13,1.15,2,2,0,0,1-1.5,1.57c-1.73.11-3.46.23-5.24.23H362.18c-1.94,0-3.88.11-5.82.21a1.78,1.78,0,0,0-1.54,1.48c-.07.77-.16,1.55-.17,2.31V201a7.83,7.83,0,0,0,.29,2.31,2.44,2.44,0,0,0,1.09,1.24,3.79,3.79,0,0,0,1.69.34c1.73.07,3.5.08,5.25.08q26.59,0,53.16,0c1.95,0,3.89.06,5.84.16a2.46,2.46,0,0,1,2.3,2.23,17.65,17.65,0,0,1,.15,2.3v14.6a13.78,13.78,0,0,1-.3,2.31,2.21,2.21,0,0,1-1.58,1.55,25.21,25.21,0,0,1-2.88.23q-33.6,0-67.18,0a43.54,43.54,0,0,1-9.86-.92,26.66,26.66,0,0,1-14.35-8.55,15.35,15.35,0,0,1-4-8.9c-.2-2.13-.29-4.27-.29-6.41Q323.93,183.36,324,163.2Z"/><path class="cls-1" d="M770.09,163V122.73a39,39,0,0,1,.83-8.69,18.52,18.52,0,0,1,9-12.37,29.13,29.13,0,0,1,14.42-4.15c5.06-.07,10.13-.08,15.19-.09h53.72c1.35,0,2.72.07,4.07.15a1.86,1.86,0,0,1,1.73,2q0,9,0,18.09a2.05,2.05,0,0,1-2.26,2.09c-1.73.05-3.5.05-5.25.06h-54.3c-2,0-3.89.08-5.84.15a1.86,1.86,0,0,0-1.58,1.45,11.21,11.21,0,0,0-.22,1.73v25.11a3.63,3.63,0,0,0,.35,1.68c.25.48.71,1.09,1.15,1.15a24.88,24.88,0,0,0,4,.29q19.27,0,38.54,0c3.89,0,7.79,0,11.68.08,1.77,0,2.77,1.15,2.88,3,0,.39,0,.78,0,1.16v14a11.27,11.27,0,0,1-.25,2.31,2,2,0,0,1-1.52,1.6,13.3,13.3,0,0,1-2.88.38c-2.92,0-5.84-.05-8.76-.05H805.16c-1.36,0-2.71.11-4,.2a2.05,2.05,0,0,0-1.6,1.49,21.6,21.6,0,0,0-.29,2.89q-.08,11.1-.05,22.19a11.06,11.06,0,0,0,.44,2.85,2,2,0,0,0,1.62,1.51,37.42,37.42,0,0,0,4.61.29q12.27,0,24.53,0h32.7a36.13,36.13,0,0,1,4.65.24c.43.06.91.66,1.15,1.15a4.3,4.3,0,0,1,.27,1.73v16.35a5.68,5.68,0,0,1-.25,1.74,1.33,1.33,0,0,1-.8.79,39.61,39.61,0,0,1-4.62.39H796.33A30.6,30.6,0,0,1,786,226.27a30.1,30.1,0,0,1-8.65-4.77A18.54,18.54,0,0,1,770,207.42c-.09-1.55,0-3.11,0-4.67V163Z"/><path class="cls-1" d="M236.58,162.31v36.2c0,1.54.17,3.09.29,4.61a2.21,2.21,0,0,0,1.59,1.54,16.17,16.17,0,0,0,2.31.26h32.69c.58,0,1.15,0,1.73-.1a2.46,2.46,0,0,0,2.46-2.67c.06-2.88,0-5.83.07-8.75,0-1.56,0-3.11.12-4.67a2.17,2.17,0,0,1,2-1.82,16.59,16.59,0,0,1,1.73-.15c7,0,14,0,21,0a8.59,8.59,0,0,1,2.84.51,2.17,2.17,0,0,1,1.1,1.24,7.55,7.55,0,0,1,.33,2.31q.06,7.29.05,14.6c0,7.66-3.39,13.42-10,17.3a31.42,31.42,0,0,1-15.58,4.39c-5.44.11-10.89.1-16.34.09-10.9,0-21.79-.09-32.69-.13a30.76,30.76,0,0,1-6.35-.66,26.4,26.4,0,0,1-13.15-7.14,16.26,16.26,0,0,1-5.24-12v-18.1q0-31.8-.05-63.62c0-2.73-.07-5.45.06-8.17a18.11,18.11,0,0,1,8.65-15.05,29.05,29.05,0,0,1,14.22-4.79c1-.07,1.94-.1,2.92-.1q23.92,0,47.88-.06a27,27,0,0,1,20.93,8.63,15,15,0,0,1,4.35,9.92c.05,1.15.09,2.31.09,3.5q0,7,0,14c0,.77-.12,1.54-.19,2.31a1.9,1.9,0,0,1-1.63,1.41H279.67a1.78,1.78,0,0,1-1.8-1.76.41.41,0,0,1,0-.11c-.06-3.5-.05-7-.11-10.5a19.09,19.09,0,0,0-.29-3.46,1.88,1.88,0,0,0-1.09-1.18,6.87,6.87,0,0,0-2.3-.3H240.22a11.14,11.14,0,0,0-1.16,0,2.26,2.26,0,0,0-2.35,2.08c-.09,1.73-.15,3.5-.15,5.25Q236.58,144.81,236.58,162.31Z"/><path class="cls-1" d="M189,227.06a17.56,17.56,0,0,1-2.38.37q-11.38,0-22.77,0a10.93,10.93,0,0,1-1.15-.13,1.76,1.76,0,0,1-1.54-1.47c-.07-1.36-.16-2.71-.16-4.08V103.25c0-1.16,0-2.32.07-3.5s.87-2,2.31-2l.58,0h22.76a4.91,4.91,0,0,1,1.7.3,1.31,1.31,0,0,1,.76.77,13,13,0,0,1,.42,2.85c0,4.86,0,9.73,0,14.59V218.92c0,2,0,3.9-.08,5.84A13.05,13.05,0,0,1,189,227.06Z"/><path class="cls-1" d="M1001,74.79c-.14-7.81,6.58-15.57,16-15.58a15.84,15.84,0,0,1,15.93,16.19c-.12,8.86-6.88,15.53-16.05,15.47C1006.59,90.82,1000.61,82.62,1001,74.79Zm15.93,13.15A12.92,12.92,0,0,0,1030,75.17v-.28a13.25,13.25,0,0,0-13-12.79c-7-.2-13.13,6.1-13.1,13.2a13,13,0,0,0,13.06,12.64Z"/><path class="cls-1" d="M1010,74.91V68.48a1.67,1.67,0,0,1,1.44-1.55,34,34,0,0,1,8.24.22,4.49,4.49,0,0,1,2.62,7.18c-.52.56-1.09,1.07-1.61,1.62a1.48,1.48,0,0,0-.13,1.7c.91,1.43,1.82,2.82,2.73,4.25a3.26,3.26,0,0,1,.46,1.26c0,.18-.28.54-.49.6a2.45,2.45,0,0,1-2.86-.91c-1-1.37-1.82-2.83-2.77-4.22a3.75,3.75,0,0,0-2.66-1.62,1.65,1.65,0,0,0-1.93,1.31.68.68,0,0,1,0,.14c-.07,1.22-.07,2.45-.22,3.64a2.49,2.49,0,0,1-.69,1.14,1.06,1.06,0,0,1-1.57-.19,6.56,6.56,0,0,1-.45-1.74c-.06-2.14,0-4.29,0-6.43Zm6-.88c.66-.09,1.27-.16,1.86-.26a2.23,2.23,0,0,0,.43-.16,2.19,2.19,0,0,0,1.3-1.73,2,2,0,0,0-1.07-1.86,6.2,6.2,0,0,0-4.43-.56,1.38,1.38,0,0,0-.85.91,13.53,13.53,0,0,0,0,2.7.93.93,0,0,0,.57.66C1014.5,73.88,1015.26,73.94,1016,74Z"/></svg>