<svg id="Layer_1" data-name="Layer 1" xmlns="http://www.w3.org/2000/svg" viewBox="0 0 1080 315.73"><defs><style>.cls-1{fill:#081528;}</style></defs><path class="cls-1" d="M51.84,185.93c6,0,11.52,0,17,.07.53,0,1.21.86,1.53,1.47a66.11,66.11,0,0,0,123-13c.68-2.6,1.12-5.26,1.73-8.1H138L163,196.65c-1,.07-1.56.15-2.16.15-6.6,0-13.21,0-19.79,0a3.5,3.5,0,0,1-3.14-1.55q-10.71-14-21.52-27.85a23.36,23.36,0,0,0-1.83-1.76v31H96.26V166.21H47.67c-4.65-35.5,18-78.72,64.17-88.77,46.51-10.11,84.28,19.88,94.87,52.35-5.58,0-11.12.05-16.65-.06-.53,0-1.21-.87-1.53-1.48a66.34,66.34,0,0,0-32.47-30.83c-23.79-10.72-52.75-5.74-71.71,12.22a65.88,65.88,0,0,0-20.19,38c0,.57-.08,1.15-.08,1.72H96.14V117.86h18.37v30.76l.43.13,8.33-9.94c5.49-6.58,11-13.2,16.48-19.74a3.55,3.55,0,0,1,2.2-1.31c7.33-.09,14.65-.05,22,0a4,4,0,0,1,.84.24l-27.93,31.51h74.63c1.92,24.27-4.45,45.8-21,63.51-23.15,24.73-51.79,32.78-84.32,23.67C79.81,229.26,62.14,211.58,51.84,185.93Z"/><path class="cls-1" d="M655.76,165.43c0,11-3,20.92-11,28.85-9.6,9.52-21.44,12-34.45,10.3a35,35,0,0,1-31.22-31c-1.37-10.12-.73-20,4.4-29.19,5.95-10.6,15.11-16.65,27-18.37,12.14-1.76,23.46.35,32.92,8.66,8.77,7.7,12,17.9,12.31,29.28C655.77,164.46,655.76,165,655.76,165.43Zm-18.84.28-.72-.12c.06-5.4-.57-10.67-3-15.57-3.29-6.65-8.61-10.45-16.11-10.54a16,16,0,0,0-15.5,9.73c-4.93,10.51-5.1,21.33-.19,31.85,3.21,6.89,9.12,10.41,16.84,10.05,7.55-.35,12.85-4.39,15.37-11.38C635.21,175.24,635.84,170.4,636.92,165.71Z"/><path class="cls-1" d="M313.66,127.1H332c0,1,.12,1.9.12,2.83,0,13.91-.08,27.82.07,41.73a39,39,0,0,0,1.35,10c1.91,6.72,7.4,10,14.53,9.36,6.71-.65,11-4.78,11.94-11.64a48.68,48.68,0,0,0,.43-6.27q0-21.48,0-42.94v-3h18.21c.12.19.26.32.26.46,0,16.49.14,33-.17,49.47-.16,8-2.63,15.43-9,21-5.09,4.49-11.32,6.06-17.79,6.74-7.9.81-15.62.08-23-3.4-8.64-4.1-13.14-11.18-14.64-20.32a68.69,68.69,0,0,1-.73-10.62c-.08-13.42,0-26.85,0-40.27Z"/><path class="cls-1" d="M973.59,203.46c-6.32,0-12.28,0-18.25-.07-.58,0-1.49-.86-1.73-1.51-1.42-4.12-2.72-8.27-4-12.45-.44-1.48-1.08-2.21-2.87-2.18-7.2.12-14.41.09-21.61,0-1.55,0-2.3.44-2.72,2-1.15,3.95-2.5,7.84-3.67,11.78-.58,1.85-1.33,2.83-3.53,2.74-4.68-.19-9.38-.06-14.08-.06-.78,0-1.54-.08-2.71-.14,1.83-5,3.52-9.71,5.22-14.39q11-30.16,21.93-60.33c.48-1.31,1-1.93,2.53-1.9q8,.14,16,0a2.38,2.38,0,0,1,2.67,1.79q13.14,36.59,26.34,73.14A7.08,7.08,0,0,1,973.59,203.46Zm-29.11-29.71c-2.87-9.32-5.62-18.38-8.53-27.88-2.94,9.44-5.79,18.54-8.71,27.88Z"/><path class="cls-1" d="M668.38,127c2.38,0,4.39,0,6.4,0,9.76.17,19.6-.14,29.33.7,8.71.74,16.37,4.48,20.3,12.94,5.29,11.35,1.69,27.86-14.77,33.51-5.28,1.82-10.74,2.1-16.22,2.35-2.08.09-4.17,0-6.61,0v27.18c-5.84,0-11.33.05-16.82-.08-.58,0-1.15-1-1.56-1.59-.22-.35,0-.94,0-1.43ZM687,162.37c5.33,0,10.44.63,15.17-1.86,3.72-1.95,5.38-5.16,5.28-9.33a9.09,9.09,0,0,0-5.47-8.69c-4.79-2.26-9.87-1.54-15-1.56Z"/><path class="cls-1" d="M450.28,199.28l4.06-13.2c4.51,1.47,8.78,3.38,13.24,4.17,4.22.75,8.65.42,13,.36a7,7,0,0,0,3.36-1.26c4.49-2.71,4.82-8.82.27-11.34-4.33-2.4-9.19-3.78-13.74-5.85-4.82-2.21-9.92-4.13-14.14-7.21-11.05-8-10.28-29.28,5.26-36,13.21-5.71,26.38-4.28,39.23,1.56a2.1,2.1,0,0,1,1,1.78c-1.14,4-2.42,8-3.68,12.06-3.7-1.29-7.19-2.68-10.78-3.71-4.38-1.25-8.82-1.91-13.38-.55-3.19,1-5.74,3.19-6.06,5.87-.44,3.57.72,6,4.34,7.52,4.22,1.8,8.61,3.25,12.95,4.75,5.08,1.75,10,3.84,14,7.52,11.94,10.94,8,30.88-7.2,36.55a48,48,0,0,1-24.32,2.21A60,60,0,0,1,450.28,199.28Z"/><path class="cls-1" d="M893.35,130.25c-1.36,4.42-2.71,8.79-4,12.84-4.11-1.11-8-2.61-12-3.12-7.75-1-15,.41-20.67,6.44a21.38,21.38,0,0,0-5.38,11.2c-1.08,6.12-1.15,12.27.93,18.22,3.65,10.54,12.34,16,24.08,15,4.43-.41,8.8-1.63,13.45-2.53.91,3.28,2.07,7.23,3,11.22a2.37,2.37,0,0,1-1.11,1.88c-6,2.87-12.35,3.74-18.85,3.77-9.65,0-18.83-1.9-26.75-7.76-9.46-7-14-16.65-14.79-28.23a46.26,46.26,0,0,1,2.57-20c3.8-9.86,10.63-16.81,20.47-20.42,12.21-4.48,24.54-4.6,36.74.37.45.18.91.37,1.34.57A9.13,9.13,0,0,1,893.35,130.25Z"/><path class="cls-1" d="M304.11,141H283.38v62.53H264.92V141.22H244.63V127.09h2.19c18.14,0,36.28,0,54.42,0,2.41,0,3,.74,2.92,3C304,133.61,304.11,137.16,304.11,141Z"/><path class="cls-1" d="M751.72,141.11H731.35c0-4.39,0-8.64.06-12.89,0-.38.74-.91,1.23-1.07a6.94,6.94,0,0,1,1.93-.06h53.19c3.23,0,3.24,0,3.24,3.34V141H770.12v3.06c0,18.94,0,37.85,0,56.78,0,2.16-.5,3-2.81,2.87-4.13-.18-8.26-.05-12.39-.05-3.2,0-3.21,0-3.21-3.1V141.11Z"/><path class="cls-1" d="M413.28,189.28h30.33c0,4.59.06,9-.11,13.4,0,.35-1.49.93-2.29.94-10.76.06-21.53,0-32.28,0H395.15V127.15h18.14Z"/><path class="cls-1" d="M984.37,127.09h18.22v62.15h30.34v14a20,20,0,0,1-2.12.21q-22.08,0-44.2.06c-1.94,0-2.46-.62-2.45-2.5q.08-35.9,0-71.77C984.24,128.59,984.32,128,984.37,127.09Z"/><path class="cls-1" d="M800.4,127.13h18.12c.05.92.12,1.73.12,2.5,0,23.7,0,47.39.07,71.08,0,2.55-.76,3.14-3.16,3-4.44-.19-8.9-.09-13.35,0-1.39,0-2.07-.38-2.06-1.92q.06-37,.07-74A4,4,0,0,1,800.4,127.13Z"/><path class="cls-1" d="M518.71,127.08H537v76.36c-5.79,0-11.44,0-17.09-.05-.39,0-1-.7-1.14-1.15a5.89,5.89,0,0,1-.08-1.92V127.08Z"/></svg>