<svg xmlns="http://www.w3.org/2000/svg" viewBox="0 0 812.05 48.04"><defs><style>.cls-1{fill:#0063f4;}</style></defs><g id="Layer_2" data-name="Layer 2"><g id="Layer_1-2" data-name="Layer 1"><path class="cls-1" d="M812,19.81c-.63-5.11-3.75-8.51-8.69-8.41a35.63,35.63,0,0,0-11.78,1.89c-8.13,3.1-14.55,2.6-19.56-5.52-2.38-3.85-5-4-9.39-2.07-8,3.54-16.06,7.13-24.1,10.66-3.83,1.69-5.27,1.21-7.68-2.24-2.3-3.29-4.43-6.72-7-9.79-4.24-5.08-7.41-5.56-13-2.11-5.27,3.23-10.19,7.08-15.63,10-5.71,3-11.83,5.28-17.81,7.78-2.31,1-4.07.2-5.54-1.93a79.44,79.44,0,0,0-6.41-8.19c-6.15-6.8-10.64-7.33-18.18-2.22q-5.48,3.7-10.89,7.51-3.78,2.63-7.56,5.29c-3.32,2.32-4.48,2.12-6.9-1.19-1.47-2-3-4-4.57-5.91l-.42-.51C612.15,7,606.35,5.28,599.16,7.66L598,8.05A118.29,118.29,0,0,0,575.29,18.2c-1.18.69-2.35,1.41-3.5,2.17-3,2-6.13,3.68-9.25,5.43a4.62,4.62,0,0,1-4,.6,7.46,7.46,0,0,1-2.87-2.29c-1.09-1.28-2.19-2.55-3.32-3.81-.72-.8-1.44-1.59-2.18-2.37a87.51,87.51,0,0,0-8.34-7.9,21.23,21.23,0,0,0-9.87-4.75A19.43,19.43,0,0,0,518.69,7.9c-5.81,3.32-11.33,7.19-16.85,11a19.23,19.23,0,0,1-1.9,1.19,6.13,6.13,0,0,1-1.31.52c-1.73.45-3-.37-5.05-2.62-1.12-1.25-2.24-2.53-3.4-3.77a38.69,38.69,0,0,0-4.57-4.31,20.93,20.93,0,0,0-5.94-3.37,14.21,14.21,0,0,0-3.51-.77c-4.83-.41-9.41,1.92-13.5,6.86-1.45,1.75-2.87,3.53-4.38,5.23q-1.84,1.28-3.67,2.57c-3.32,2.32-4.48,2.12-6.9-1.19-1.6-2.19-3.28-4.32-5-6.42C438,7,432.23,5.28,425,7.66A120.34,120.34,0,0,0,401.17,18.2c-1.18.69-2.35,1.41-3.5,2.17-2.68,1.76-5.5,3.33-8.31,4.9l-.5-.66c-1.6-2.18-3.28-4.31-5-6.42-3.8-4.71-8.34-6.73-13.76-6.06a20.9,20.9,0,0,0-3.93.91,115.4,115.4,0,0,0-27.36,12.7c-3,2-6.13,3.69-9.25,5.44-2.79,1.56-4.7.9-6.91-1.69A111.1,111.1,0,0,0,308.82,15.4c-5.88-4.82-12.55-6.29-19.31-3.88-.33.35-.65.72-1,1.11a103.58,103.58,0,0,1-7,8c-.16.17-.32.33-.49.49-2.3,2.22-4.21,3-6.16,2.28a7.64,7.64,0,0,1-3.45-.92c-5-2.21-12.79-7.84-16.71-10.65-.23-.18-.46-.35-.69-.5a10.83,10.83,0,0,0-1.45-.84c-2.92-1.44-5.82-1.21-9.37.62A29.17,29.17,0,0,0,240.1,13c-5,3.35-9.88,6.79-14.78,10.22l-3.67,2.57c-3.32,2.33-4.48,2.13-6.91-1.19-1.6-2.18-3.28-4.31-5-6.42-4.69-5.81-10.5-7.53-17.69-5.15a115.4,115.4,0,0,0-27.36,12.7c-3,2-6.13,3.69-9.25,5.44-2.79,1.56-4.7.9-6.91-1.69A111.1,111.1,0,0,0,134.7,15.4c-7-5.72-15.06-6.72-23.09-2.13-5.82,3.32-11.33,7.2-16.86,11-3.78,2.61-5.19,2.51-8.26-.92a64.59,64.59,0,0,0-8-8.07c-8.28-6.46-16.26-5.36-23,2.71a101.9,101.9,0,0,1-7.51,8.54c-3.67,3.52-6.31,3.31-9.75-.37-2.22-2.38-4.18-5-6.45-7.32-4-4.06-8.28-5-13.34-2.46a38.87,38.87,0,0,0-17.3,17.1,12.36,12.36,0,0,0-1.15,4,9.28,9.28,0,0,0,5.11,9.38,8,8,0,0,0,9.9-1.33c2-1.94,3.43-4.48,5.42-6.46a109.88,109.88,0,0,1,8.9-7.94c2.31-1.85,4.24-1.35,6.37,1A107.72,107.72,0,0,0,47.05,42.93c3,2.49,6.55,2.43,9.64.07a79.2,79.2,0,0,0,7.46-6.74c2.93-2.89,5.54-6.13,8.63-8.83,4-3.54,5.55-3.12,8.49,1.27a86.09,86.09,0,0,0,7,9.74c4.71,5.21,9.44,5.69,15.43,2,2.12-1.29,4-3,6.16-4.23,5.53-3.16,11-6.63,16.79-9.12,6.4-2.73,12.38-1.25,17,4.33,2.82,3.44,5.5,7,8.4,10.37,6.07,7.06,8.94,6.89,17.05,2.64,1.84-1,3.69-1.91,5.55-2.82,9.48-4.72,19.2-9,29-13.11,5.39-2.28,6.45-1.39,9.45,3.6a89.89,89.89,0,0,0,5.05,8l.48.61c1.84,2.3,3.46,3.51,5.27,3.73a7.39,7.39,0,0,0,7-1.43,58.17,58.17,0,0,0,4.7-4.06c.93-.88,1.85-1.78,2.76-2.68,2.93-2.89,5.54-6.13,8.63-8.83,3.61-3.16,5.2-3.16,7.59,0,.28.38.58.81.9,1.28a86.09,86.09,0,0,0,7,9.74c2.83,3.13,5.67,4.55,8.78,4.39,2.5,1.25,5.49,1.06,9.46-.52a112.31,112.31,0,0,0,14.69-7.61C300,32,304.42,28.87,309,26a14.47,14.47,0,0,1,8.8,5.49c2.82,3.44,5.5,7,8.4,10.37,6.07,7.06,8.94,6.89,17,2.64,11.21-5.87,22.84-11,34.5-15.93l.65-.27c2.2,2.74,4.36,5.52,6.64,8.18q.31.38.63.72c3.15,3.52,5.45,5,8.23,4.89,2.21-.07,4.72-1.15,8.2-3,11.2-5.87,22.83-11,34.49-15.92,5.39-2.28,6.46-1.39,9.45,3.59a88.54,88.54,0,0,0,5.06,8c4,5.3,6.86,5.57,12.38,2,7.67-4.9,15.4-9.74,23.27-14.31,3.73-2.18,6.21-1.26,8.49,2.43,1.26,2,2.26,4.2,3.4,6.3,1.7,3.13,3.45,5.21,5.55,6.26a14,14,0,0,0,6.66-2.34c2.13-1.3,4-3,6.17-4.23,5.53-3.17,10.95-6.64,16.79-9.12a13.61,13.61,0,0,1,17,4.33c2.82,3.44,5.5,7,8.39,10.36q.32.38.63.72c5.66,6.33,8.6,6,16.43,1.92,9.05-4.74,18.38-9,27.78-13,2.23-1,4.47-1.93,6.71-2.88,5.39-2.28,6.46-1.39,9.45,3.59.63,1.05,1.24,2.1,1.87,3.15a55.65,55.65,0,0,0,3.19,4.81c4,5.3,6.86,5.57,12.38,2,7.67-4.9,15.4-9.74,23.27-14.31,3.73-2.18,6.21-1.26,8.49,2.43,1.26,2,2.26,4.2,3.4,6.3,3.73,6.88,7.71,8.67,15,5.75a110.48,110.48,0,0,0,14.69-7.61c5-2.9,9.66-6.24,14.51-9.31,5.92-3.73,10.28-2.67,13.94,3.33C732,25.19,733,27.15,734.1,29c3.74,6.07,7.3,6.77,13.64,3.7,6.71-3.24,13.69-5.93,20.56-8.84,3.78-1.61,7-.56,9.79,2.2,0,0,12.83,6.19,26.23,2.87.4-.1.81-.21,1.21-.33C810.44,27.19,812.5,24.12,812,19.81Z"/></g></g></svg>