<svg xmlns="http://www.w3.org/2000/svg" viewBox="0 0 432.71 77.76"><defs><style>.cls-1{fill:#ff86cd;}</style></defs><g id="Layer_2" data-name="Layer 2"><g id="Layer_1-2" data-name="Layer 1"><path class="cls-1" d="M427.82,48.21c-7.63-1.06-15.27-2.09-22.92-3-6.33-.75-12.68-1.29-18.45-1.87.72-3.58,1.53-6.89,2-10.25.31-2.19-.81-3.74-3.1-4.26-2.75-.62-5.46-1.49-8.24-1.85a862.18,862.18,0,0,0-108.8-6.82c-40.08-.13-80.07,2-120,5.25-4.18.34-8.37.61-12.55.91a32.26,32.26,0,0,1,6.75-1.17c22.07-1.66,44.13-3.55,66.23-4.87,45.42-2.73,90.9-3.2,136.39-2.06q15.14.39,30.27,1c3.13.12,4.51-1.21,4.77-4.32.65-8-1.86-11.35-9.84-12C359.62,2,348.91,1,338.18.62,303.44-.6,268.69,0,234,2.07c-36.18,2.14-72.39,4.36-108.45,8C90.05,13.58,54.72,18.87,19.31,23.48c-8.32,1.08-8.87,1.83-9.39,10-.42,6.48,0,7,6.2,7.15.08,0,.16.14.38.35-.16.51-.36,1.09-.55,1.68-2.84,9.21.64,13.39,10.11,12.13.32,0,.64-.11,1-.15l22.59-2.5c0,.22.05.43.07.65l-1.24.2c-14,1.93-27.93,4-41.38,8.5C-.2,63.92-.85,65,.68,72.54c.11.53.27,1,.38,1.58.66,3,2.55,4.07,5.52,3.47,3.93-.79,7.85-1.73,11.82-2.28C41.62,72.12,64.82,68.74,88.09,66A1461.66,1461.66,0,0,1,256,55.88a1506.85,1506.85,0,0,1,156.39,7.43c5.08.51,10.16.91,15.23,1.43,3.1.32,4.76-.89,4.83-4.1.05-2.28.27-4.56.22-6.83C432.63,50,431.6,48.74,427.82,48.21ZM171.65,41.15c52.59-4.15,105.26-5.33,158-1.34C277,38,224.31,38.58,171.65,41.15Z"/></g></g></svg>