<svg xmlns="http://www.w3.org/2000/svg" viewBox="0 0 340.28 71.62"><defs><style>.cls-1{fill:#ff86cd;}</style></defs><g id="Layer_2" data-name="Layer 2"><g id="Layer_1-2" data-name="Layer 1"><path class="cls-1" d="M336.75,55c-5.93-1.4-11.86-2.78-17.81-4-4.92-1-9.87-1.86-14.36-2.71.77-3.54,1.6-6.81,2.16-10.14.37-2.17-.42-3.77-2.18-4.39a58.6,58.6,0,0,0-6.36-2.23,534.37,534.37,0,0,0-84.95-11.77c-31.43-2-62.92-1.68-94.44-.24-3.3.15-6.6.22-9.89.33a20.88,20.88,0,0,1,5.36-.86c17.41-.65,34.82-1.53,52.24-1.83a986.72,986.72,0,0,1,107.1,4.17q11.85,1.08,23.69,2.36c2.45.26,3.61-1,4-4.1,1-8-.8-11.41-7-12.45-8.35-1.39-16.7-2.83-25.09-3.7A685.28,685.28,0,0,0,187.4.11c-28.51.48-57,1-85.54,3C73.8,5,45.78,8.69,17.73,11.68c-6.59.7-7.06,1.42-7.94,9.54-.71,6.45-.41,7,4.44,7.42.07,0,.12.15.28.37-.15.5-.34,1.07-.53,1.65-2.76,9.07-.27,13.4,7.23,12.57.25,0,.51-.08.77-.1q8.93-.74,17.86-1.47c0,.23,0,.44,0,.66l-1,.14c-11.08,1.29-22.14,2.7-33,6.6C.08,51.16-.49,52.18.27,59.8c0,.54.15,1.07.2,1.6.34,3.06,1.77,4.18,4.13,3.72,3.13-.61,6.26-1.37,9.41-1.74,18.4-2.12,36.79-4.44,55.21-6.16a905.4,905.4,0,0,1,132.33-2.38A930.87,930.87,0,0,1,323.8,69.4c3.95.74,7.91,1.37,11.86,2.12,2.41.46,3.79-.67,4-3.87.17-2.28.48-4.54.57-6.81C340.42,57,339.68,55.73,336.75,55ZM136.21,36.28c41.49-1.74,82.88-.52,124,5.87A1166.27,1166.27,0,0,0,136.21,36.28Z"/></g></g></svg>