<svg xmlns="http://www.w3.org/2000/svg" viewBox="0 0 404.96 42.67"><defs><style>.cls-1{fill:#0063f4;}</style></defs><g id="Layer_2" data-name="Layer 2"><g id="Layer_1-2" data-name="Layer 1"><path class="cls-1" d="M381.45,32.77a70.28,70.28,0,0,1-6.61-3.23A23,23,0,0,1,371,26c-2.82-2.75-6-3.8-9.79-2.19-6.87,2.91-13.85,5.59-20.56,8.84-6.34,3.07-9.9,2.37-13.64-3.7-1.13-1.84-2.09-3.8-3.22-5.65-3.65-6-8-7.06-13.93-3.33-4.86,3.07-9.56,6.41-14.51,9.31a111.1,111.1,0,0,1-14.69,7.61c-7.32,2.92-11.3,1.13-15-5.76-1.13-2.09-2.14-4.27-3.39-6.29-2.29-3.69-4.76-4.61-8.5-2.43-7.87,4.57-15.59,9.41-23.27,14.31-5.51,3.52-8.37,3.25-12.38-2a88.45,88.45,0,0,1-5.05-8c-3-5-4.06-5.88-9.46-3.59-11.66,4.94-23.28,10.05-34.49,15.92-8.12,4.26-11,4.43-17.05-2.64-2.9-3.37-5.58-6.93-8.4-10.36-4.58-5.59-10.56-7.07-17-4.33-5.83,2.48-11.26,5.95-16.79,9.12-2.16,1.23-4,2.93-6.17,4.23-6,3.65-10.72,3.17-15.42-2a86.09,86.09,0,0,1-7-9.74c-3-4.38-4.44-4.8-8.49-1.27-3.09,2.7-5.7,5.94-8.63,8.83a79.2,79.2,0,0,1-7.46,6.74C53.6,40,50,40.05,47.05,37.56A109.83,109.83,0,0,1,35.78,26.84c-2.13-2.39-4.06-2.89-6.37-1a111.87,111.87,0,0,0-8.91,8c-2,2-3.4,4.51-5.41,6.45a8,8,0,0,1-9.9,1.34A9.3,9.3,0,0,1,.08,32.15a12.36,12.36,0,0,1,1.15-4A38.92,38.92,0,0,1,18.53,11c5.06-2.51,9.37-1.6,13.34,2.46,2.27,2.33,4.23,5,6.45,7.32,3.44,3.68,6.08,3.89,9.75.37a100.2,100.2,0,0,0,7.51-8.53c6.69-8.08,14.67-9.18,23-2.72a65.29,65.29,0,0,1,8,8.07c3.07,3.43,4.48,3.54,8.26.92,5.52-3.81,11-7.68,16.86-11,8-4.59,16.11-3.6,23.09,2.13a110.36,110.36,0,0,1,13.85,14.08c2.21,2.59,4.12,3.25,6.91,1.69,3.12-1.75,6.26-3.47,9.24-5.43A115.29,115.29,0,0,1,192.07,7.66c7.19-2.38,13-.66,17.69,5.15,1.7,2.11,3.38,4.24,5,6.43,2.43,3.31,3.59,3.51,6.91,1.18,6.12-4.29,12.25-8.6,18.44-12.79,7.55-5.11,12-4.58,18.18,2.22A78.09,78.09,0,0,1,264.68,18c1.47,2.13,3.23,2.89,5.54,1.93,6-2.5,12.1-4.75,17.81-7.78,5.44-2.89,10.36-6.74,15.63-10,5.63-3.45,8.8-3,13,2.11,2.57,3.07,4.7,6.5,7,9.79,2.41,3.45,3.85,3.92,7.68,2.24,8.05-3.53,16.06-7.12,24.11-10.66,4.34-1.91,7-1.79,9.38,2.07,5,8.12,11.44,8.62,19.56,5.52A35.39,35.39,0,0,1,396.2,11.4c4.94-.1,8.05,3.3,8.68,8.41.53,4.31-1.53,7.38-6.44,8.77C393,30.12,387.52,31.29,381.45,32.77Z"/></g></g></svg>