<svg xmlns="http://www.w3.org/2000/svg" viewBox="0 0 637.93 48.04"><defs><style>.cls-1{fill:#0063f4;}</style></defs><g id="Layer_2" data-name="Layer 2"><g id="Layer_1-2" data-name="Layer 1"><path class="cls-1" d="M637.85,19.81c-.63-5.11-3.75-8.51-8.69-8.41a35.63,35.63,0,0,0-11.78,1.89c-8.13,3.1-14.55,2.6-19.56-5.52-2.38-3.85-5-4-9.39-2.07-8,3.54-16.06,7.13-24.1,10.66-3.83,1.69-5.27,1.21-7.68-2.24-2.3-3.29-4.43-6.72-7-9.79-4.24-5.08-7.41-5.56-13-2.11-5.27,3.23-10.19,7.08-15.63,10-5.71,3-11.83,5.28-17.81,7.78-2.31,1-4.07.2-5.54-1.93a79.44,79.44,0,0,0-6.41-8.19c-6.15-6.8-10.64-7.33-18.18-2.22-6.2,4.19-12.32,8.5-18.45,12.8-3.32,2.32-4.48,2.12-6.9-1.19-1.6-2.19-3.28-4.32-5-6.42C438,7,432.23,5.28,425,7.66A120.34,120.34,0,0,0,401.17,18.2c-1.18.69-2.35,1.41-3.5,2.17-3,2-6.13,3.68-9.25,5.43-2.78,1.56-4.7.91-6.91-1.69-1.09-1.28-2.19-2.55-3.32-3.81A96.18,96.18,0,0,0,367.67,10c-7-5.73-15.06-6.72-23.1-2.13-5.81,3.32-11.33,7.19-16.85,11a10.69,10.69,0,0,1-3.21,1.71c-1.73.45-3-.37-5.05-2.62a64.08,64.08,0,0,0-8-8.08,20.93,20.93,0,0,0-5.94-3.37c-6.12-2.15-11.94,0-17,6.09a103.58,103.58,0,0,1-7,8c-.16.17-.32.33-.49.49-2.3,2.22-4.21,3-6.16,2.28-3.55.39-15.11-8-20.16-11.57-.23-.18-.46-.35-.69-.5a10.83,10.83,0,0,0-1.45-.84c-3.73-1.84-7.41-.95-12.47,2.48-6.2,4.19-12.32,8.5-18.45,12.79-3.32,2.33-4.48,2.13-6.91-1.19-1.6-2.18-3.28-4.31-5-6.42-4.69-5.81-10.5-7.53-17.69-5.15a115.4,115.4,0,0,0-27.36,12.7c-3,2-6.13,3.69-9.25,5.44-2.79,1.56-4.7.9-6.91-1.69A111.1,111.1,0,0,0,134.7,15.4c-7-5.72-15.06-6.72-23.09-2.13-5.82,3.32-11.33,7.2-16.86,11-3.78,2.61-5.19,2.51-8.26-.92a64.59,64.59,0,0,0-8-8.07c-8.28-6.46-16.26-5.36-23,2.71a101.9,101.9,0,0,1-7.51,8.54c-3.67,3.52-6.31,3.31-9.75-.37-2.22-2.38-4.18-5-6.45-7.32-4-4.06-8.28-5-13.34-2.46a38.87,38.87,0,0,0-17.3,17.1,12.36,12.36,0,0,0-1.15,4,9.28,9.28,0,0,0,5.11,9.38,8,8,0,0,0,9.9-1.33c2-1.94,3.43-4.48,5.42-6.46a109.88,109.88,0,0,1,8.9-7.94c2.31-1.85,4.24-1.35,6.37,1A107.72,107.72,0,0,0,47.05,42.93c3,2.49,6.55,2.43,9.64.07a79.2,79.2,0,0,0,7.46-6.74c2.93-2.89,5.54-6.13,8.63-8.83,4-3.54,5.55-3.12,8.49,1.27a86.09,86.09,0,0,0,7,9.74c4.71,5.21,9.44,5.69,15.43,2,2.12-1.29,4-3,6.16-4.23,5.53-3.16,11-6.63,16.79-9.12,6.4-2.73,12.38-1.25,17,4.33,2.82,3.44,5.5,7,8.4,10.37,6.07,7.06,8.94,6.89,17.05,2.64,11.21-5.87,22.84-11,34.5-15.93,5.39-2.28,6.45-1.39,9.45,3.6a89.89,89.89,0,0,0,5.05,8c4,5.29,6.87,5.57,12.38,2q2.34-1.5,4.7-3c6.13-3.87,12.3-7.68,18.57-11.33,2.61-1.51,4.6-1.53,6.35-.14a9.93,9.93,0,0,1,2.15,2.58c1.25,2,2.26,4.19,3.39,6.29,3.73,6.88,7.71,8.67,15,5.76a112.31,112.31,0,0,0,14.69-7.61c4.95-2.9,9.65-6.24,14.51-9.31a14,14,0,0,1,4.45-2,83.15,83.15,0,0,0,7,9.64c2.62,2.9,5.23,4.33,8.08,4.4a13.49,13.49,0,0,0,7.34-2.36c2.13-1.3,4-3,6.17-4.23,5.53-3.17,10.95-6.64,16.79-9.12,6.4-2.73,12.37-1.26,17,4.33,2.82,3.44,5.5,7,8.39,10.36q.31.38.63.72c5.66,6.33,8.6,6,16.43,1.92,11.2-5.87,22.83-11,34.49-15.92,5.39-2.28,6.46-1.39,9.45,3.59a88.54,88.54,0,0,0,5.06,8c4,5.3,6.86,5.57,12.38,2,7.67-4.9,15.4-9.74,23.27-14.31,3.73-2.18,6.21-1.26,8.49,2.43,1.26,2,2.26,4.2,3.4,6.3,3.73,6.88,7.71,8.67,15,5.75a110.48,110.48,0,0,0,14.69-7.61c5-2.9,9.66-6.24,14.51-9.31,5.92-3.73,10.28-2.67,13.94,3.33,1.13,1.85,2.08,3.81,3.22,5.65,3.74,6.07,7.3,6.77,13.64,3.7,6.71-3.24,13.69-5.93,20.56-8.84,3.78-1.61,7-.56,9.79,2.2,0,0,12.83,6.19,26.23,2.87.4-.1.81-.21,1.21-.33C636.32,27.19,638.38,24.12,637.85,19.81Z"/></g></g></svg>