<svg id="Layer_1" data-name="Layer 1" xmlns="http://www.w3.org/2000/svg" viewBox="0 0 300 300"><defs><style>.cls-1{fill:#f588ce;}.cls-2{fill:#f189cf;}.cls-3{fill:#067cf6;}.cls-4{fill:#ef8acf;}.cls-5{fill:#0578f5;}.cls-6{fill:#12b3fc;}.cls-7{fill:#0474f5;}.cls-8{fill:#ec8bd0;}.cls-9{fill:#11affb;}.cls-10{fill:#12b1fb;}.cls-11{fill:#10a9fb;}.cls-12{fill:#5bb5ef;}.cls-13{fill:#11adfb;}.cls-14{fill:#067ff6;}.cls-15{fill:#12b4fc;}.cls-16{fill:#f887cd;}.cls-17{fill:#0370f4;}.cls-18{fill:#0783f6;}.cls-19{fill:#53b8f1;}.cls-20{fill:#b09cdd;}.cls-21{fill:#0fa5fa;}.cls-22{fill:#fb87cd;}.cls-23{fill:#13b7fc;}.cls-24{fill:#be98da;}.cls-25{fill:#c397d9;}.cls-26{fill:#10acfb;}.cls-27{fill:#b49bdc;}.cls-28{fill:#0886f7;}.cls-29{fill:#14bcfd;}.cls-30{fill:#e98cd1;}.cls-31{fill:#0ea1fa;}.cls-32{fill:#3dbef6;}.cls-33{fill:#ba99db;}.cls-34{fill:#14bdfd;}.cls-35{fill:#0888f7;}.cls-36{fill:#17c6fe;}.cls-37{fill:#70afeb;}.cls-38{fill:#e38dd2;}.cls-39{fill:#e68dd1;}.cls-40{fill:#9ea2e1;}.cls-41{fill:#15c1fd;}.cls-42{fill:#0d9df9;}.cls-43{fill:#c796d8;}.cls-44{fill:#c895d8;}.cls-45{fill:#a89fdf;}.cls-46{fill:#fd86cc;}.cls-47{fill:#b79adc;}.cls-48{fill:#cd94d7;}.cls-49{fill:#0ea2fa;}.cls-50{fill:#43bcf4;}.cls-51{fill:#14bafc;}.cls-52{fill:#098cf7;}.cls-53{fill:#0e9ffa;}.cls-54{fill:#15bffd;}.cls-55{fill:#ac9ede;}.cls-56{fill:#df8fd3;}.cls-57{fill:#a2a0e0;}.cls-58{fill:#4bbaf3;}.cls-59{fill:#63b3ee;}.cls-60{fill:#0c99f9;}.cls-61{fill:#026df4;}.cls-62{fill:#0b92f8;}.cls-63{fill:#67b2ed;}.cls-64{fill:#0d9bf9;}.cls-65{fill:#cb95d7;}.cls-66{fill:#16c6fe;}.cls-67{fill:#6bb1ec;}.cls-68{fill:#026af4;}.cls-69{fill:#4fb9f2;}.cls-70{fill:#76ade9;}.cls-71{fill:#0167f3;}.cls-72{fill:#60b4ee;}.cls-73{fill:#0a8ff8;}.cls-74{fill:#98a3e2;}.cls-75{fill:#0c98f9;}.cls-76{fill:#d193d6;}.cls-77{fill:#47bbf4;}.cls-78{fill:#91a6e4;}.cls-79{fill:#36c0f7;}.cls-80{fill:#dc90d3;}.cls-81{fill:#2dc3f9;}.cls-82{fill:#a6a0df;}.cls-83{fill:#a59fdf;}.cls-84{fill:#57b7f0;}.cls-85{fill:#d990d4;}.cls-86{fill:#ce94d6;}.cls-87{fill:#7dabe8;}.cls-88{fill:#8ba8e5;}.cls-89{fill:#0b94f8;}.cls-90{fill:#d293d6;}.cls-91{fill:#95a4e3;}.cls-92{fill:#0c94f8;}.cls-93{fill:#8aa7e5;}.cls-94{fill:#d492d5;}.cls-95{fill:#25c5fb;}.cls-96{fill:#84a9e6;}.cls-97{fill:#18c9fe;}.cls-98{fill:#d592d5;}.cls-99{fill:#32c1f8;}.cls-100{fill:#0d98f9;}.cls-101{fill:#d692d5;}.cls-102{fill:#79ace9;}.cls-103{fill:#84aae7;}.cls-104{fill:#8aa8e5;}.cls-105{fill:#d991d5;}.cls-106{fill:#d991d4;}.cls-107{fill:#1cc8fd;}.cls-108{fill:#1ac9fe;}.cls-109{fill:#29c4fa;}.cls-110{fill:#81aae7;}.cls-111{fill:#21c7fc;}.cls-112{fill:#1dc8fd;}.cls-113{fill:#27c5fb;}.cls-114{fill:#90a6e4;}.cls-115{fill:#d295d7;}</style></defs><path class="cls-1" d="M37.07,177.7a58.44,58.44,0,0,1-5.95-5.93q.51-21.53,0-43a57.53,57.53,0,0,1,5.95-5.94c1.58.42,1.22,1.8,1.25,2.83.11,3.53,0,7.06,0,10.59,0,12.56,0,25.12,0,37.68C38.32,175.21,39,176.93,37.07,177.7Z"/><path class="cls-2" d="M37.07,177.7c.8-.73.47-1.69.47-2.56q0-24.88,0-49.79c0-.86.33-1.83-.47-2.56a28.44,28.44,0,0,1,4.46-4.45c.91,0,1,.75,1.13,1.37a10.15,10.15,0,0,1,.16,2.46q0,28.08,0,56.15c0,1.33.66,3.06-1.26,3.83A28.44,28.44,0,0,1,37.07,177.7Z"/><path class="cls-3" d="M255,118.33c1.15-2.18,2.39-2,3.73-.15.38.52.86,1,1.29,1.47.68,1.77.21,3.6.22,5.39.11,18.38-.16,36.75.16,55.13-.26,1-1.28,1.43-1.84,2.2-1.31,1.82-2.49,1.78-3.56-.21a3.81,3.81,0,0,1-.37-2.15q.17-29.76,0-59.52A3.82,3.82,0,0,1,255,118.33Z"/><path class="cls-4" d="M41.53,182.15c.8-.73.47-1.69.47-2.56q0-29.34,0-58.69c0-.86.33-1.83-.47-2.56,2.12-2.47,2.12-2.47,4.91,1a8.3,8.3,0,0,1,.34,3.17q0,27.49,0,55c0,1.08-.12,2.13-.21,3.19-.49.55-1,1.05-1.46,1.64C43.79,184.19,42.61,184.1,41.53,182.15Z"/><path class="cls-5" d="M260.41,180.17c-1-.88-1-2-.94-3.19q0-27,0-54a16.38,16.38,0,0,1,.58-3.37,26,26,0,0,1,4,3.95,9.54,9.54,0,0,1,.75,4.09q0,22.94,0,45.87c0,.91-.17,1.8-.25,2.7A18.74,18.74,0,0,1,260.41,180.17Z"/><path class="cls-6" d="M201.51,128.73a23.49,23.49,0,0,1-4-3.95,3.81,3.81,0,0,1-.37-2.15c.15-16.83,0-33.66,0-50.49a13.66,13.66,0,0,1,.26-2.93,25.57,25.57,0,0,1,4-4c1.65.9,1.34,2.52,1.35,3.94.06,7,0,14,0,21q0,17,0,34C202.79,125.8,203.1,127.55,201.51,128.73Z"/><path class="cls-7" d="M264.5,176.26c-.66-.45-.57-1.14-.57-1.79l.06-50.86a49.88,49.88,0,0,1,5.54,5.53c.32,11,0,22,.15,33,0,2.87-.16,5.74.14,8.61A31.36,31.36,0,0,1,264.5,176.26Z"/><path class="cls-8" d="M46.58,180.73c-.91-.66-.59-1.64-.59-2.5q0-28.11,0-56.22a4.87,4.87,0,0,1,.47-2.63,18.63,18.63,0,0,1,4,4,8.45,8.45,0,0,1,.33,3.16q0,23.55,0,47.09c0,1.07-.12,2.13-.21,3.19Z"/><path class="cls-9" d="M201.51,128.73a13.84,13.84,0,0,0,.52-3.63q0-28.25,0-56.5a6,6,0,0,0-.57-3.35c2.09-2.41,2.09-2.41,4.6.48.62,1.44.22,2.93.23,4.4.09,18.78-.17,37.57.14,56.36a10,10,0,0,0,0,1.23c-.33.43-.67.87-1,1.31C203.93,131.06,202.65,130.8,201.51,128.73Z"/><path class="cls-10" d="M205.42,235.08c-1.9,2.64-1.9,2.64-4.93-.9a9.78,9.78,0,0,1-.29-2.69q.06-27.9,0-55.81a9.06,9.06,0,0,1,.31-2.93,19.1,19.1,0,0,0,1.25-1.45c1.51-2,2.64-1.44,3.61.49C205.24,192.89,205.15,214,205.42,235.08Z"/><path class="cls-11" d="M208.84,175.25a19.54,19.54,0,0,1,4.08,3.94c-.48,14.12-.09,28.24-.21,42.37a37.09,37.09,0,0,0,.28,6.14,18.12,18.12,0,0,1-4.1,3.91c-1.08,0-1.36-.76-1.56-1.59a8,8,0,0,1-.17-2c0-16.4,0-32.8,0-49.2C207.2,177.51,206.74,175.74,208.84,175.25Z"/><path class="cls-12" d="M149,182.73a14.42,14.42,0,0,1-3-3,6.93,6.93,0,0,1-.72-3.58q0-26,0-51.92a8.06,8.06,0,0,1,.69-3.6l3-3c1.59,1.09,1.23,2.77,1.24,4.29q0,23.25,0,46.5c0,3.55,0,7.09,0,10.64C150.17,180.44,150.14,181.78,149,182.73Z"/><path class="cls-13" d="M208.84,175.25c-1,.54-.89,1.48-.89,2.39q0,25.82,0,51.62c0,.92-.08,1.85.94,2.35a10.28,10.28,0,0,1-3.47,3.47c-1-.5-.93-1.44-.93-2.35V174.17c0-.91-.1-1.84.89-2.38A11.88,11.88,0,0,1,208.84,175.25Z"/><path class="cls-14" d="M255,118.33a13,13,0,0,1,.51,3.88q0,28,0,56.07a13,13,0,0,1-.51,3.88,17.77,17.77,0,0,1-3.47-3.46,9,9,0,0,1-.31-2.93q0-25.52,0-51.05a9,9,0,0,1,.31-2.92A18.1,18.1,0,0,1,255,118.33Z"/><path class="cls-15" d="M200.52,172.75a5.17,5.17,0,0,1,.5,2.87q0,27.84,0,55.7a5.24,5.24,0,0,1-.54,2.86,19.32,19.32,0,0,1-3.47-3.47,10.52,10.52,0,0,1-.29-2.69q.08-24.44,0-48.88a8.8,8.8,0,0,1,.32-2.93A18,18,0,0,1,200.52,172.75Z"/><path class="cls-16" d="M31.12,128.73c1.23.18,1,1.13,1,1.91q0,19.61,0,39.21c0,.78.25,1.74-1,1.92a39.91,39.91,0,0,1-4.95-5c.37-8.19.12-16.38.25-24.56,0-2.87-.38-5.72-.25-8.58A38.58,38.58,0,0,1,31.12,128.73Z"/><path class="cls-17" d="M269.82,170.78c-1.22-.22-.93-1.19-.93-2q0-18.84,0-37.69c0-.72-.14-1.51.64-2a39.31,39.31,0,0,1,5,5c.3,10.18,0,20.36.14,30.53a2.9,2.9,0,0,0,.14,1.21C273.56,167.92,271.53,169.19,269.82,170.78Z"/><path class="cls-18" d="M251.54,121.8a5.08,5.08,0,0,1,.5,2.87v51.15a5.1,5.1,0,0,1-.5,2.88,17.77,17.77,0,0,1-3.46-3.47,8.46,8.46,0,0,1-.31-2.92q0-22.06,0-44.13a8.49,8.49,0,0,1,.31-2.92A17.72,17.72,0,0,1,251.54,121.8Z"/><path class="cls-19" d="M151.49,117.84a9.25,9.25,0,0,1,2.48,2.47,11.56,11.56,0,0,1,.24,2.69q0,27.25,0,54.49a11.52,11.52,0,0,1-.24,2.69,9,9,0,0,1-2.48,2.47c-1.89-.19-1.47-1.64-1.48-2.8q0-13.82,0-27.63,0-15.78,0-31.57C150,119.52,149.57,118,151.49,117.84Z"/><path class="cls-11" d="M209,68.71a20.8,20.8,0,0,1,3.54,3.54c.32,4.6.09,9.2.15,13.8.13,11.75-.25,23.51.21,35.26a15.8,15.8,0,0,1-3.58,3.44c-1.21-.07-1.4-1-1.57-1.89a13.55,13.55,0,0,1-.12-2.47c0-15.74,0-31.49,0-47.23C207.68,71.59,207.21,69.78,209,68.71Z"/><path class="cls-20" d="M98.43,171.31a8.73,8.73,0,0,1,2.91,3,20.85,20.85,0,0,1,.43,4.66q0,24.36,0,48.72a25.17,25.17,0,0,1-.4,4.91,9.41,9.41,0,0,1-2.88,3c-.77,0-.92-.57-1.09-1.12a7.48,7.48,0,0,1-.21-2.21q0-28.78,0-57.58C97.22,173.48,96.78,172,98.43,171.31Z"/><path class="cls-21" d="M212.92,121.31c-1.23-.17-1-1.12-1-1.91V74.24c0-.72-.14-1.51.64-2a25.63,25.63,0,0,1,4,4c.31,8,0,16.09.14,24.14.07,5.67-.21,11.34.21,17A23.55,23.55,0,0,1,212.92,121.31Z"/><path class="cls-20" d="M101,126.37l-3,3c-1-.91-.83-2.12-.84-3.25q0-28.93,0-57.86c0-1.2-.42-2.72,1.28-3.33a9.21,9.21,0,0,1,2.88,3,24.38,24.38,0,0,1,.41,4.9q0,24.5,0,49A9.18,9.18,0,0,1,101,126.37Z"/><path class="cls-22" d="M26.17,133.68a8.31,8.31,0,0,1,1,4.46q0,12.11,0,24.21a8.37,8.37,0,0,1-1,4.47,52.89,52.89,0,0,1-5.94-5.94c-.61-4.88-.17-9.78-.26-14.68a26,26,0,0,1,.26-6.59A52,52,0,0,1,26.17,133.68Z"/><path class="cls-23" d="M197.48,69.21a5.61,5.61,0,0,1,.57,3.1q0,24.54,0,49.08a14.78,14.78,0,0,1-.52,3.39,13.28,13.28,0,0,1-3-3,6.24,6.24,0,0,1-.81-3.56q0-21.12,0-42.25a9.18,9.18,0,0,1,.76-3.84Z"/><path class="cls-24" d="M87.54,179.07l2.92-2.92c1.06,0,1.1.82,1.26,1.52a10.64,10.64,0,0,1,.14,2.46c0,15.57,0,31.13,0,46.7,0,1.49.44,3.21-1.26,4.24a10.37,10.37,0,0,1-3-3,5.55,5.55,0,0,1-.83-3.53q0-21,0-41.92A7.88,7.88,0,0,1,87.54,179.07Z"/><path class="cls-24" d="M87.61,72.39a10.41,10.41,0,0,1,3-3c1.28.64,1.23,1.88,1.23,3q.08,24.46,0,48.92c0,1.14,0,2.36-1.29,3a13.89,13.89,0,0,1-3-3,7.28,7.28,0,0,1-.79-3.81q0-20.7,0-41.39A5.91,5.91,0,0,1,87.61,72.39Z"/><path class="cls-23" d="M197.06,176.21a5.17,5.17,0,0,1,.5,2.87q0,24.39,0,48.77a5.21,5.21,0,0,1-.54,2.86,18.53,18.53,0,0,1-3.46-3.45,4.48,4.48,0,0,1-.35-2.17q.21-21.63,0-43.26a3.72,3.72,0,0,1,.37-2.15A18.1,18.1,0,0,1,197.06,176.21Z"/><path class="cls-25" d="M87.61,72.39q0,24.49,0,49a24.32,24.32,0,0,1-4-4,7.24,7.24,0,0,1-.79-3.8q0-16.76,0-33.49a5.92,5.92,0,0,1,.82-3.77A18.87,18.87,0,0,1,87.61,72.39Z"/><path class="cls-26" d="M209,68.71a5.71,5.71,0,0,0-.58,3.1q0,25,0,50.07c0,1-.32,2.19.88,2.87-.6,1.37-1.9,2.06-3,3a4.14,4.14,0,0,1-.9-3.23q0-27.57,0-55.13a14.19,14.19,0,0,1,.58-3.63Z"/><path class="cls-27" d="M98.43,171.31c-.75.75-.43,1.71-.43,2.58q0,29.57,0,59.14c0,.87-.32,1.83.49,2.56-1.19,2-2.34,1.86-3.45-.07a3.15,3.15,0,0,1-.44-2.12c.21-19.78.14-39.55,0-59.33a5.4,5.4,0,0,1,.33-2.42C96,170.35,97,168.72,98.43,171.31Z"/><path class="cls-27" d="M98.49,64.91c-.7.56-.49,1.34-.49,2.06q0,31.19,0,62.38c-1.48,2.34-2.16.37-3-.56a4.17,4.17,0,0,1-.42-2.15c.25-19.85.2-39.7,0-59.54A3.16,3.16,0,0,1,95,65C96.15,63,97.3,62.76,98.49,64.91Z"/><path class="cls-28" d="M248.08,125.26a5.17,5.17,0,0,1,.5,2.87q0,22.13,0,44.23a5.17,5.17,0,0,1-.5,2.87,17.77,17.77,0,0,1-3.47-3.46,8,8,0,0,1-.31-2.67q0-18.85,0-37.7a8.07,8.07,0,0,1,.31-2.68A18.05,18.05,0,0,1,248.08,125.26Z"/><path class="cls-21" d="M213,227.7c-1.19-.14-1.07-1-1.07-1.86V181.1c0-.79-.23-1.74,1-1.91a13.09,13.09,0,0,1,3.35,3.49c-.23,10.62-.05,21.25-.11,31.88,0,3.22,0,6.43.16,9.64A12.33,12.33,0,0,1,213,227.7Z"/><path class="cls-25" d="M87.54,179.07q0,24.52.07,49a18.31,18.31,0,0,1-4-3.95,3.26,3.26,0,0,1-.38-2.14c.12-12,0-24,0-36a12.62,12.62,0,0,1,.26-2.94Z"/><path class="cls-29" d="M193.59,179.68a13.7,13.7,0,0,1,.51,3.88q0,19.78,0,39.57a13.71,13.71,0,0,1-.54,4.13,19.38,19.38,0,0,1-3.48-3.47,10.61,10.61,0,0,1-.28-2.69c0-11.68,0-23.36,0-35a8.77,8.77,0,0,1,.31-2.93A17.77,17.77,0,0,1,193.59,179.68Z"/><path class="cls-30" d="M50.54,176.78c-.91-.67-.59-1.65-.59-2.51q0-24.15,0-48.3a4.78,4.78,0,0,1,.47-2.63,10.54,10.54,0,0,1,3,3,2.9,2.9,0,0,1,.45,1.88c-.25,14.5-.16,29,0,43.5a5,5,0,0,1-.34,2.17Z"/><path class="cls-31" d="M216.88,117.35c-1.22-.17-1-1.12-1-1.9q0-18.63,0-37.25c0-.73-.13-1.51.65-2a24.55,24.55,0,0,1,3.88,3.88,13.64,13.64,0,0,1,.23,3.19c.08,10-.26,20.08.2,30.11A23.19,23.19,0,0,1,216.88,117.35Z"/><path class="cls-32" d="M164.87,169.3a17.77,17.77,0,0,1-3.47,3.46c-1.69-.61-1.26-2.11-1.28-3.31-.07-6.4,0-12.8,0-19.2s0-12.81,0-19.21c0-1.19-.41-2.7,1.28-3.31a17.82,17.82,0,0,1,3.47,3.47,13.58,13.58,0,0,1,.29,2.92q0,16.13,0,32.25A13.74,13.74,0,0,1,164.87,169.3Z"/><path class="cls-33" d="M90.53,124.33a5.47,5.47,0,0,0,.53-3.11q0-24.47,0-48.92a5.11,5.11,0,0,0-.47-2.88A7.24,7.24,0,0,1,93.05,67c1.21.8,1.25,2.07,1.25,3.3q.08,26.63,0,53.26c0,1.23-.07,2.5-1.28,3.29A9.74,9.74,0,0,1,90.53,124.33Z"/><path class="cls-33" d="M90.58,231.07a4.65,4.65,0,0,0,.48-2.62q0-24.9,0-49.79c0-.86.32-1.84-.58-2.51L93,173.64c1.65.91,1.32,2.53,1.33,4,0,10,0,19.94,0,29.9,0,7.33,0,14.67,0,22,0,1.45.18,3-1.27,4A7.39,7.39,0,0,1,90.58,231.07Z"/><path class="cls-34" d="M191.61,118.84a17.77,17.77,0,0,1-3.47-3.46,6.79,6.79,0,0,1-.31-2.19c0-10.77,0-21.53,0-32.3,0-.74.23-1.46.16-2.2l3.47-3.47c1.69.24,1.36,1.66,1.4,2.67.13,3.53,0,7.07,0,10.6,0,8.79,0,17.59,0,26.38C192.88,116.28,193.23,117.9,191.61,118.84Z"/><path class="cls-35" d="M244.61,128.72a5.2,5.2,0,0,1,.5,2.88q0,18.65,0,37.3a5.17,5.17,0,0,1-.5,2.87,17.77,17.77,0,0,1-3.47-3.46,7.66,7.66,0,0,1-.31-2.43q0-15.63,0-31.27a7.63,7.63,0,0,1,.31-2.42A18.1,18.1,0,0,1,244.61,128.72Z"/><path class="cls-36" d="M184.18,111.42a43.76,43.76,0,0,1-5.45-5.44,5.06,5.06,0,0,1-.78-2.57c0-4.27,0-8.54,0-12.82a8.18,8.18,0,0,1,.71-2.6l5.45-5.44a3.25,3.25,0,0,1,1.29,3c.09,7.57.11,15.15,0,22.72A3.71,3.71,0,0,1,184.18,111.42Z"/><path class="cls-37" d="M138.07,171.85l-3-3a7.41,7.41,0,0,1-.78-3.82q0-14.84,0-29.66a8.74,8.74,0,0,1,.76-3.84l2.9-2.9c1.7.4,1.37,1.83,1.39,2.95.1,4.12,0,8.23,0,12.34,0,8,0,16,0,23.95C139.38,169.31,139.71,170.93,138.07,171.85Z"/><path class="cls-38" d="M59.9,167.43l-3.46,3.46c-1.29-.62-1.31-1.84-1.32-3q-.07-17.79,0-35.57a3.26,3.26,0,0,1,1.23-3.06,13.87,13.87,0,0,1,3.47,3.45,2.57,2.57,0,0,1,.45,1.64c-.26,10.45-.18,20.91,0,31.37A3.92,3.92,0,0,1,59.9,167.43Z"/><path class="cls-39" d="M56.36,129.29a13.22,13.22,0,0,0-.49,3.39q0,17.55,0,35.1a5.5,5.5,0,0,0,.56,3.11l-3,3a13,13,0,0,1-.56-4.13c0-12.1,0-24.21,0-36.32a26.88,26.88,0,0,1,.47-7.1A10.41,10.41,0,0,1,56.36,129.29Z"/><path class="cls-40" d="M110.31,183.17a10.7,10.7,0,0,1,3,3,8.84,8.84,0,0,1,.35,2.66q0,14.63,0,29.26a12.71,12.71,0,0,1-.29,2.68,12.28,12.28,0,0,1-3,3c-.85.46-1.22-.09-1.49-.75a6.66,6.66,0,0,1-.31-2.44q0-17.06,0-34.12a6.09,6.09,0,0,1,.38-2.67C109.24,183.16,109.61,182.74,110.31,183.17Z"/><path class="cls-41" d="M184.18,111.42c1.08-8.9.24-17.83.45-26.74a8.35,8.35,0,0,0-.51-2.13L188,78.69c.87.55.64,1.44.64,2.23q0,16,0,32.08a4.55,4.55,0,0,1-.5,2.38A23.19,23.19,0,0,1,184.18,111.42Z"/><path class="cls-42" d="M220.84,113.39c-1-.46-1-1.38-1-2.3q0-14.32,0-28.64a5.05,5.05,0,0,1,.58-2.36,25.38,25.38,0,0,1,4,3.94,8.6,8.6,0,0,1,.74,3.33c0,6.55,0,13.1,0,19.65a12.42,12.42,0,0,1-.3,2.43A23.13,23.13,0,0,1,220.84,113.39Z"/><path class="cls-43" d="M83.56,183a5.39,5.39,0,0,1,.56,3.11q0,17.29,0,34.61a13.82,13.82,0,0,1-.5,3.39,16.31,16.31,0,0,1-3.48-3.41,6.73,6.73,0,0,1-.31-2.18q0-14.91,0-29.81c0-.75.22-1.46.2-2.2Z"/><path class="cls-40" d="M112.9,114.51,110,117.43c-1.67-.44-1.36-1.85-1.38-3-.09-4.84,0-9.69,0-14.54,0-6.73-.06-13.47.06-20.2,0-1.13-.59-3,1.75-2.93a12.32,12.32,0,0,1,3,3,13.25,13.25,0,0,1,.31,2.67q0,14.14,0,28.28A8.18,8.18,0,0,1,112.9,114.51Z"/><path class="cls-44" d="M83.64,76.35q0,20.54,0,41.06a23.93,23.93,0,0,1-4-4,3.71,3.71,0,0,1-.36-1.91c.16-9.78.12-19.56,0-29.34a2.9,2.9,0,0,1,.38-1.89A18.82,18.82,0,0,1,83.64,76.35Z"/><path class="cls-45" d="M103.81,176.73c.62.71,1.73.94,2,2a14,14,0,0,1,.38,3.42q0,21.27,0,42.54a16.33,16.33,0,0,1-.34,3.42c-.24,1.09-1.36,1.3-2,2-.9.46-1.19-.21-1.42-.83a7.57,7.57,0,0,1-.29-2.68q0-23.17,0-46.35a7.83,7.83,0,0,1,.27-2.69C102.63,177,102.88,176.27,103.81,176.73Z"/><path class="cls-45" d="M103.85,70.36c.62.71,1.74.92,2,2a18.63,18.63,0,0,1,.34,3.17q0,21.27,0,42.54a7.88,7.88,0,0,1-.7,3.84l-1.93,1.93c-.77.09-1-.47-1.15-1a6.83,6.83,0,0,1-.25-2.2q0-23.49,0-47a7,7,0,0,1,.28-2.45C102.66,70.57,102.94,69.9,103.85,70.36Z"/><path class="cls-46" d="M20.23,139.61c.53.41.49,1,.49,1.57v18.14c0,.57,0,1.15-.49,1.56-3.23-3.17-6.45-6.35-9.7-9.5a1.35,1.35,0,0,1,0-2.27C13.78,146,17,142.78,20.23,139.61Z"/><path class="cls-47" d="M93,126.81a13.6,13.6,0,0,0,.54-4.12q0-25.93,0-51.85a12.65,12.65,0,0,0-.5-3.88,5,5,0,0,1,2-2,27.2,27.2,0,0,1,.47,7.09v49.39a28.24,28.24,0,0,1-.52,7.34A6.56,6.56,0,0,1,93,126.81Z"/><path class="cls-47" d="M93.05,233.54a13.11,13.11,0,0,0,.5-3.64q0-26.44,0-52.91a5.87,5.87,0,0,0-.55-3.35l2-2a13.34,13.34,0,0,1,.56,4.13q0,26.33,0,52.64a27.25,27.25,0,0,1-.47,7.1A5,5,0,0,1,93.05,233.54Z"/><path class="cls-48" d="M79.68,80.31a12.93,12.93,0,0,1,.49,3.87q0,12.58,0,25.15a13.29,13.29,0,0,1-.53,4.12,24.38,24.38,0,0,1-4-4c-.56-2.6-.2-5.22-.23-7.83-.07-4.91,0-9.83,0-14.74a6.86,6.86,0,0,1,.32-2.66A18.27,18.27,0,0,1,79.68,80.31Z"/><path class="cls-49" d="M216.32,224.2c-1-.88-.94-2-.94-3.2q0-17.55,0-35.1a4.14,4.14,0,0,1,.89-3.22c1.08.9,2.37,1.59,3,3-.17,11.86-.26,23.73,0,35.59C218.72,222.63,217.43,223.32,216.32,224.2Z"/><path class="cls-50" d="M161.4,127.73c-.76.64-.49,1.52-.49,2.31q0,20.21,0,40.41c0,.79-.27,1.67.49,2.31a6,6,0,0,1-2,2c-1.23,0-1.45-.87-1.66-1.77a9,9,0,0,1-.08-1.72q0-21,0-42c0-1.37-.5-3.14,1.71-3.49A6,6,0,0,1,161.4,127.73Z"/><path class="cls-51" d="M191.61,118.84a4.65,4.65,0,0,0,.5-2.38q0-19.5,0-39c0-.79.23-1.68-.64-2.24l3.06-3.06.06,49.65A13.08,13.08,0,0,1,191.61,118.84Z"/><path class="cls-52" d="M241.14,132.19a4.75,4.75,0,0,1,.5,2.62q0,15.44,0,30.87a4.76,4.76,0,0,1-.5,2.63,18.05,18.05,0,0,1-3.47-3.46,8.34,8.34,0,0,1-.3-2.68q0-11.92,0-23.85a8.31,8.31,0,0,1,.3-2.67A17.77,17.77,0,0,1,241.14,132.19Z"/><path class="cls-53" d="M219.29,221.23c-1-.51-.94-1.44-.94-2.35q0-15.44,0-30.86c0-.91-.1-1.84.89-2.38.8,1.18,2.5,1.46,3,3a18.42,18.42,0,0,1,.39,4.13q0,10.44,0,20.88a23.19,23.19,0,0,1-.34,4.63C221.85,219.82,220.11,220.06,219.29,221.23Z"/><path class="cls-54" d="M190.12,183.14a5.13,5.13,0,0,1,.5,2.86q0,17.46,0,34.93a5.14,5.14,0,0,1-.54,2.86,9.79,9.79,0,0,1-2.46-2.47,7.5,7.5,0,0,1-.79-3.81q0-14.06,0-28.1a6.6,6.6,0,0,1,.8-3.8A9.4,9.4,0,0,1,190.12,183.14Z"/><path class="cls-55" d="M103.81,176.73c-1.2.28-.85,1.26-.85,2q0,24.7,0,49.41c0,.76-.31,1.74.9,2-.34,1.3-1.89,1.39-2.48,2.44-.66-.69-.4-1.56-.4-2.35q0-26.79,0-53.57c0-.79-.25-1.65.37-2.37C102,175.31,103.44,175.45,103.81,176.73Z"/><path class="cls-55" d="M103.85,70.36c-1.21.24-.9,1.22-.9,2q0,24.77,0,49.51c0,.72-.16,1.5.59,2L101,126.37Q101,98,101,69.53c0-.57-.08-1.17.41-1.61C102,69,103.51,69.05,103.85,70.36Z"/><path class="cls-56" d="M59.9,167.43a13,13,0,0,1-.56-4.12c0-7.83,0-15.65,0-23.47a27.32,27.32,0,0,1,.48-7.1,14.3,14.3,0,0,1,3.47,3.47,2.22,2.22,0,0,1,.45,1.38c-.27,8.31-.18,16.63,0,24.94a3.1,3.1,0,0,1-.34,1.43Z"/><path class="cls-57" d="M110.31,183.17c-1.24.21-.92,1.19-.92,1.94q0,18.36,0,36.7c0,.79-.23,1.73,1,1.9-.57,1.12-1.67,1.69-2.57,2.47-.9.46-1.18-.21-1.42-.83a5.77,5.77,0,0,1-.22-2.19q0-19.71,0-39.42a5.53,5.53,0,0,1,.29-2.42c.26-.55.57-1,1.31-.64C108.64,181.48,109.78,182,110.31,183.17Z"/><path class="cls-58" d="M155.45,121.8a6,6,0,0,1,2,2,14.52,14.52,0,0,1,.23,4.16c0,15.45,0,30.89,0,46.34a14.13,14.13,0,0,1-.27,2.44,6.07,6.07,0,0,1-2,2c-1.71-.62-1.21-2.13-1.21-3.32,0-11.83,0-23.65,0-35.48,0-5.09,0-10.19,0-15.28C154.25,123.58,153.84,122.22,155.45,121.8Z"/><path class="cls-57" d="M110.38,76.78c-1.22.17-1,1.12-1,1.9q0,18.38,0,36.73c0,.72-.15,1.51.59,2l-2.47,2.48c-1.8-.52-1.32-2.05-1.32-3.24,0-12,0-24.07,0-36.1a41.08,41.08,0,0,1,0-4.44c.1-.86-.06-2.21,1.59-1.8C108.71,75.1,109.81,75.66,110.38,76.78Z"/><path class="cls-59" d="M144.53,178.28l-2-2a7.58,7.58,0,0,1-.79-3.83q0-22.25,0-44.5a8.82,8.82,0,0,1,.76-3.84c.66-.67,1.33-1.33,2-2,.93.82.78,1.94.78,3q0,25.08,0,50.14C145.28,176.33,145.43,177.44,144.53,178.28Z"/><path class="cls-60" d="M224.8,109.44c-.62-.48-.5-1.17-.5-1.81l.06-23.6a49.12,49.12,0,0,1,5.54,5.54c.29,4.8-.12,9.62.24,14.42A33.57,33.57,0,0,1,224.8,109.44Z"/><path class="cls-61" d="M274.77,165.83c-1.21-.22-.92-1.18-.93-2q0-13.9,0-27.81c0-.72-.14-1.5.65-2a18.65,18.65,0,0,1,3.38,3.38c.47,4.1.1,8.22.19,12.32s-.14,8.38.18,12.57C277.48,163.91,276.08,164.82,274.77,165.83Z"/><path class="cls-62" d="M234.7,161.88a36.75,36.75,0,0,1-4.95-4.95,24.12,24.12,0,0,1,0-13.37,37.27,37.27,0,0,1,4.95-4.94c1.12,1.06,1.2,2.49,1.23,3.87q.15,7.75,0,15.51C235.9,159.38,235.82,160.81,234.7,161.88Z"/><path class="cls-63" d="M142.51,124.13l0,52.17a10.29,10.29,0,0,1-2.48-2.49,9.11,9.11,0,0,1-.29-2.44c0-14,0-28,0-42,0-.91.19-1.8.19-2.7Z"/><path class="cls-64" d="M222.27,218.26c-.51-.44-.44-1-.44-1.6q0-13.33,0-26.67a1.74,1.74,0,0,1,.4-1.37,14.88,14.88,0,0,1,4,3.95c.55,2.45-.18,4.87-.19,7.31,0,4.81.28,9.61.24,14.42A13.35,13.35,0,0,1,222.27,218.26Z"/><path class="cls-41" d="M187.64,185.61q0,17.87,0,35.71a14.22,14.22,0,0,1-3-3,7.6,7.6,0,0,1-.78-3.81q0-11.08,0-22.17a6.51,6.51,0,0,1,.8-3.79A13.5,13.5,0,0,1,187.64,185.61Z"/><path class="cls-65" d="M80.05,186.55c.84.58.59,1.47.59,2.26,0,9.77,0,19.54,0,29.31a4.84,4.84,0,0,1-.5,2.62,12.23,12.23,0,0,1-2.94-3,3.58,3.58,0,0,1-.29-1.19c0-9-.24-18,.15-27Z"/><path class="cls-66" d="M184.67,188.58l0,29.77a24.72,24.72,0,0,1-4-4,5,5,0,0,1-.3-2.66c.09-5.51.08-11,0-16.54a4.46,4.46,0,0,1,.32-2.65A23.19,23.19,0,0,1,184.67,188.58Z"/><path class="cls-67" d="M140,126.68c.94.65.62,1.63.62,2.49q0,20.9,0,41.78a5.13,5.13,0,0,1-.53,2.86l-2-2a5.17,5.17,0,0,0,.54-2.87q0-18.91,0-37.83c0-.86.32-1.84-.61-2.5Z"/><path class="cls-68" d="M278.24,162.36c-.88-.44-.94-1.24-.94-2.1q0-10.22,0-20.43a5.05,5.05,0,0,1,.58-2.36,25.79,25.79,0,0,1,4.05,4c.33,5.63-.18,11.27.28,16.9C281.39,160.23,279.53,161,278.24,162.36Z"/><path class="cls-69" d="M155.45,121.8c-.81.72-.48,1.69-.48,2.55q0,25.91,0,51.79c0,.87-.33,1.83.48,2.56a3.58,3.58,0,0,1-1.48,1.48c-.82-.72-.49-1.69-.49-2.55q0-27.39,0-54.76c0-.87-.33-1.83.49-2.56A3.54,3.54,0,0,1,155.45,121.8Z"/><path class="cls-70" d="M135.08,131.55l0,37.32a10,10,0,0,1-2.47-2.47,6.82,6.82,0,0,1-.73-3.58q0-12.6,0-25.2a7.87,7.87,0,0,1,.7-3.59Z"/><path class="cls-71" d="M282.2,158.41c-.7-.1-.93-.55-.93-1.2,0-4.9,0-9.8.05-14.7,0-.34.39-.67.6-1,2.64,2.58,5.26,5.19,7.95,7.72.79.76.75,1.21,0,1.94C287.29,153.58,285,156.22,282.2,158.41Z"/><path class="cls-72" d="M144.53,178.28l0-56.14c.49-.49,1-1,1.48-1.48l0,59.1C145.51,179.27,145,178.77,144.53,178.28Z"/><path class="cls-73" d="M234.7,161.88a114.44,114.44,0,0,0,0-23.26,13.28,13.28,0,0,1,3-3,4.56,4.56,0,0,1,.51,2.38q0,12.21,0,24.44a4.56,4.56,0,0,1-.51,2.38A13.5,13.5,0,0,1,234.7,161.88Z"/><path class="cls-74" d="M113.35,220.75c-.62-.48-.5-1.17-.5-1.81v-31.2c0-.57-.07-1.16.44-1.59a6.27,6.27,0,0,1,2.41,2.49,15.68,15.68,0,0,1,.41,3.42c0,7.58,0,15.17,0,22.75a21.57,21.57,0,0,1-.39,3.42A6.55,6.55,0,0,1,113.35,220.75Z"/><path class="cls-75" d="M226.23,214.3a9.9,9.9,0,0,1-.88-4.47c.15-5.75-.8-11.57.83-17.26,1.27,1.37,3.12,2.16,4,4a61.91,61.91,0,0,1,.05,13.81C229.38,212.17,227.52,213,226.23,214.3Z"/><path class="cls-74" d="M112.9,114.51q0-16.47-.05-32.95c0-.64-.12-1.33.5-1.81a6.45,6.45,0,0,1,2.38,2.51,19.09,19.09,0,0,1,.4,4.13q0,10.8,0,21.59a8.58,8.58,0,0,1-.76,4.06Z"/><path class="cls-76" d="M75.73,84.26a4.55,4.55,0,0,1,.47,2.38q0,10.11,0,20.23a4.84,4.84,0,0,1-.53,2.62A19,19,0,0,1,72.2,106a128.61,128.61,0,0,1,.06-18.31A13.59,13.59,0,0,1,75.73,84.26Z"/><path class="cls-77" d="M157.44,176.72c-.82-.73-.49-1.69-.49-2.56q0-23.91,0-47.83c0-.86-.33-1.83.49-2.55a6,6,0,0,1,2,2c-1.16.52-1,1.57-1,2.55v43.88c0,1-.16,2,1,2.55A6,6,0,0,1,157.44,176.72Z"/><path class="cls-78" d="M120.82,106.6l-2.9,2.91c-1.43-.14-1.33-1.33-1.35-2.22-.12-6.81-.13-13.61,0-20.41,0-1-.13-2.48,1.73-2.18a9.28,9.28,0,0,1,2.87,3c.76,5.59.28,11.2.3,16.81A5.81,5.81,0,0,1,120.82,106.6Z"/><path class="cls-79" d="M164.87,169.3c-.77-.64-.49-1.52-.49-2.31q0-16.74,0-33.49c0-.79-.28-1.66.49-2.3a9.21,9.21,0,0,1,2.47,2.47q-.65,16.58,0,33.15A9.11,9.11,0,0,1,164.87,169.3Z"/><path class="cls-80" d="M63.36,164a13,13,0,0,1-.56-4.12c0-5.76,0-11.52,0-17.28a23.73,23.73,0,0,1,.48-6.35,7.48,7.48,0,0,1,2.47,2.47,5.26,5.26,0,0,1,.82,3.28c0,5.32,0,10.64,0,16a7.79,7.79,0,0,1-.76,3.56Z"/><path class="cls-81" d="M168.23,134.7a11.45,11.45,0,0,1,3.08,2.93,241.47,241.47,0,0,0,0,25.24,11.42,11.42,0,0,1-3.08,2.92c-1.3-.38-1.11-1.51-1.11-2.44q-.06-13.09,0-26.21C167.12,136.21,166.93,135.09,168.23,134.7Z"/><path class="cls-82" d="M107.77,180.68c-1.2.29-.85,1.27-.85,2q0,20.75,0,41.5c0,.76-.32,1.73.89,2-.26,1-1.33,1.29-2,1.95-.61-.61-.4-1.39-.4-2.11q0-22.58,0-45.15c0-.72-.21-1.5.36-2.12C106.45,179.39,107.49,179.66,107.77,180.68Z"/><path class="cls-83" d="M107.81,74.32c-1.21.24-.89,1.21-.89,2q0,20.79,0,41.59c0,.72-.15,1.51.6,2l-2,2q0-24,0-47.94c0-.57-.08-1.16.41-1.61C106.48,73,107.54,73.27,107.81,74.32Z"/><path class="cls-78" d="M118.23,191.08a9.07,9.07,0,0,1,2.91,3c-.17,6.24-.24,12.48,0,18.72a9.35,9.35,0,0,1-2.87,3c-1.45.52-1.46-.67-1.66-1.47a13.67,13.67,0,0,1-.14-3.2c0-5.77-.08-11.54.06-17.31C116.6,192.78,115.94,190.92,118.23,191.08Z"/><path class="cls-84" d="M151.49,117.84c-1.16.53-1,1.58-1,2.55V180.1c0,1-.17,2,1,2.55-.79,1.44-1.62,1.65-2.51.08a27.81,27.81,0,0,0,.53-7.34q0-26.67,0-53.33a13.68,13.68,0,0,0-.57-4.37C149.9,116.05,150.73,116.47,151.49,117.84Z"/><path class="cls-85" d="M65.84,161.49q0-11.4-.07-22.81a14.26,14.26,0,0,1,3.47,3.46,4.2,4.2,0,0,1,.78,2.29c.06,3.76.07,7.51,0,11.27A6.63,6.63,0,0,1,69.3,158Z"/><path class="cls-86" d="M77.08,189.51c.75.51.59,1.29.6,2q0,12,0,24.08a4.31,4.31,0,0,1-.48,2.12,7.3,7.3,0,0,1-2.47-2.47,9.84,9.84,0,0,1-.3-3.89c.08-6.46-.22-12.92.16-19.37Z"/><path class="cls-87" d="M128.65,138l2.48-2.48c.93.82.78,1.93.78,3q0,11.7,0,23.42c0,1.05.15,2.16-.76,3a10.25,10.25,0,0,1-2.48-2.48,6.89,6.89,0,0,1-.74-3.33c.06-5.84,0-11.69,0-17.53A8,8,0,0,1,128.65,138Z"/><path class="cls-88" d="M121.18,212.8a3.53,3.53,0,0,1-.91-2.71q0-6.65,0-13.29a3.71,3.71,0,0,1,.87-2.72,11.71,11.71,0,0,1,3.47,3.47,43.43,43.43,0,0,1,0,11.78C123.87,210.86,122.46,211.77,121.18,212.8Z"/><path class="cls-89" d="M230.14,104c-.7-.12-.89-.6-.88-1.24,0-4,0-8,0-12a1.32,1.32,0,0,1,.63-1.23c2.19,2.12,4.35,4.25,6.56,6.34.72.69,1,1.22.1,2C234.38,99.9,232.51,102.21,230.14,104Z"/><path class="cls-90" d="M74.6,192c.76.5.6,1.28.6,2,0,6.38,0,12.76,0,19.14a4.31,4.31,0,0,1-.47,2.12,10.25,10.25,0,0,1-3-3A133.48,133.48,0,0,1,71.63,195Z"/><path class="cls-91" d="M118.23,191.08c-1.23.21-.91,1.19-.91,1.94q0,10.44,0,20.88c0,.79-.22,1.73,1,1.9a8.32,8.32,0,0,1-2.58,2.43c-.48-.45-.4-1-.4-1.61V190.27a2.07,2.07,0,0,1,.37-1.63A7.86,7.86,0,0,1,118.23,191.08Z"/><path class="cls-92" d="M230.19,210.34c-1-2.2-.37-4.52-.39-6.77s-.51-4.73.34-7c2.38,1.74,4.23,4,6.38,6,.67.62.81,1.12.06,1.8C234.42,206.31,232.61,208.65,230.19,210.34Z"/><path class="cls-91" d="M118.31,84.7c-.86.09-1,.68-1,1.4,0,7.38,0,14.76,0,22.14a1.4,1.4,0,0,0,.59,1.27L115.37,112q0-14.08,0-28.16c0-.57-.08-1.17.4-1.62A8.35,8.35,0,0,1,118.31,84.7Z"/><path class="cls-93" d="M120.82,106.6q0-8.64,0-17.28c0-.57-.08-1.16.4-1.61a14.62,14.62,0,0,1,4,3.92c-.4,3.65,0,7.31-.28,11Z"/><path class="cls-94" d="M72.26,87.72c.83,1.55.42,3.23.45,4.85.06,3.61,0,7.23,0,10.84A4.75,4.75,0,0,1,72.2,106a13.89,13.89,0,0,1-3-3,21,21,0,0,1,0-12.38A10.54,10.54,0,0,1,72.26,87.72Z"/><path class="cls-95" d="M172.79,139.11a6.9,6.9,0,0,1,2.37,2.49q-.36,8.64,0,17.3a7,7,0,0,1-2.37,2.48c-1.61.49-1.64-.83-1.66-1.69q-.19-9.44,0-18.89C171.15,139.94,171.18,138.63,172.79,139.11Z"/><path class="cls-96" d="M124.19,142.45l2.46-2.47a2.36,2.36,0,0,1,1.27,2.46c0,5.16.07,10.32,0,15.47a2.79,2.79,0,0,1-1.22,2.55,10.21,10.21,0,0,1-2.48-2.47,5.85,5.85,0,0,1-.76-3.08C123.73,150.76,122.72,146.53,124.19,142.45Z"/><path class="cls-97" d="M180.71,192.54c1,4.39.37,8.85.46,13.28.05,2.85.45,5.76-.49,8.57a9.71,9.71,0,0,1-2.48-2.47c-.64-3.34-.17-6.71-.18-10.06,0-2.28-.57-4.59.21-6.85A9.25,9.25,0,0,1,180.71,192.54Z"/><path class="cls-98" d="M69.3,158l-.06-15.89a19.06,19.06,0,0,1,4,4,9.71,9.71,0,0,1,.07,8Z"/><path class="cls-99" d="M168.23,134.7c-.54.53-.39,1.22-.39,1.86q0,13.69,0,27.37c0,.64-.15,1.33.39,1.86,0,.56-.45.81-.89,1-1-.83-1-2-1-3.14q0-13.44,0-26.86c0-1.17,0-2.32,1-3.15C167.78,133.89,168.18,134.14,168.23,134.7Z"/><path class="cls-100" d="M229.75,143.56v13.37a45.7,45.7,0,0,1-6.62-6.79A72.13,72.13,0,0,1,229.75,143.56Z"/><path class="cls-101" d="M71.63,195c.12.11.34.21.34.33.3,5.67.68,11.34-.2,17a10.44,10.44,0,0,1-3-3,55.28,55.28,0,0,1-.08-11.43Z"/><path class="cls-102" d="M131.15,164.92q0-14.7,0-29.41l1.48-1.48,0,32.37Z"/><path class="cls-103" d="M124.65,209.33a36.66,36.66,0,0,1,0-11.78c1.66,1.55,3.29,3.14,5,4.63,1,.9,1.13,1.59,0,2.53C127.93,206.19,126.31,207.79,124.65,209.33Z"/><path class="cls-104" d="M124.19,142.45q0,7.77,0,15.54a19.59,19.59,0,0,1-3.46-3.47,11.45,11.45,0,0,1,0-8.61Z"/><path class="cls-105" d="M69.28,90.69q0,6.19,0,12.38a3.77,3.77,0,0,1-.59-.44c-1.79-2-5.45-3.72-5.14-5.84C63.86,94.41,67,92.49,69.28,90.69Z"/><path class="cls-103" d="M124.86,102.58c-1.33-2.92-.31-6-.6-9-.07-.74-.31-1.7.88-2,6.28,4.65,6.28,4.67.82,10C125.61,102,125.23,102.27,124.86,102.58Z"/><path class="cls-106" d="M68.7,197.88a26.55,26.55,0,0,1,.08,11.43.88.88,0,0,1-.22-.1C62.16,203.8,62.17,203.54,68.7,197.88Z"/><path class="cls-107" d="M178.67,88l.06,18a14.88,14.88,0,0,1-3-2.94,90.38,90.38,0,0,1-.14-12Z"/><path class="cls-107" d="M178.23,195a57.39,57.39,0,0,1,0,16.91,10.35,10.35,0,0,1-2.48-2.46,60.25,60.25,0,0,1,0-12A10.49,10.49,0,0,1,178.23,195Z"/><path class="cls-108" d="M178.63,145.08c1.93,1.57,5,3.17,4.92,5.27-.05,1.88-3,3.61-4.92,5.07-1.22,0-1.46-1-1.53-1.86a43,43,0,0,1,0-6.62C177.17,146,177.41,145.11,178.63,145.08Z"/><path class="cls-109" d="M172.79,139.11c-1.21.17-1,1.12-1,1.9q0,9.24,0,18.47c0,.79-.22,1.73,1,1.9a3.54,3.54,0,0,1-1.48,1.49c-1.22-.17-1-1.12-1-1.91q0-10.71,0-21.43c0-.79-.22-1.73,1-1.9A3.58,3.58,0,0,1,172.79,139.11Z"/><path class="cls-110" d="M126.69,160.46c1.08-4.78.35-9.62.48-14.44.06-2,.52-4.1-.52-6l2-2q0,12.22,0,24.45A6.67,6.67,0,0,1,126.69,160.46Z"/><path class="cls-111" d="M175.16,158.9c-.89-.15-.89-.82-.89-1.5V143.1c0-.68,0-1.35.89-1.5.34.65,1.45.55,1.49,1.5a64.41,64.41,0,0,1,0,14.29C176.6,158.34,175.5,158.25,175.16,158.9Z"/><path class="cls-111" d="M175.6,91.06c.79.47.69,1.26.64,2-.23,3.33.58,6.71-.5,10l-2-2A31.91,31.91,0,0,1,173.7,93Z"/><path class="cls-111" d="M175.74,197.45a29.28,29.28,0,0,1,0,12l-2-2a26.18,26.18,0,0,1,0-8Z"/><path class="cls-112" d="M176.65,157.39a52.6,52.6,0,0,1,0-14.29c.63.69,1.76.88,2,2-.44.26-.88.63-.83,1.13.33,3.06-1,6.28.83,9.21C178.41,156.51,177.28,156.7,176.65,157.39Z"/><path class="cls-113" d="M173.7,93c1,2.69.7,5.4.06,8.11a1.55,1.55,0,0,1-.22-.12C168.87,96,168.43,98.05,173.7,93Z"/><path class="cls-113" d="M173.76,199.43a14.32,14.32,0,0,1,0,8C168.64,202.49,168.7,204.45,173.76,199.43Z"/><path class="cls-114" d="M120.72,145.91l0,8.61C115.69,150.25,115.69,150.25,120.72,145.91Z"/><path class="cls-115" d="M73.27,154.07c0-2.66,0-5.31-.07-8C78.48,150.94,78.09,149.35,73.27,154.07Z"/></svg>